<svg xmlns="http://www.w3.org/2000/svg" xmlns:xlink="http://www.w3.org/1999/xlink" width="150" zoomAndPan="magnify" viewBox="0 0 113.04 120.96" height="150" preserveAspectRatio="xMidYMid meet" version="1.0"><defs><clipPath id="c462cdcfb6"><path d="M 0 0.488281 L 111.550781 0.488281 L 111.550781 112.042969 L 0 112.042969 Z M 0 0.488281 " clip-rule="nonzero"/></clipPath></defs><g clip-path="url(#c462cdcfb6)"><path fill="#ffffff" d="M 0 0.488281 L 111.550781 0.488281 L 111.550781 112.042969 L 0 112.042969 Z M 0 0.488281 " fill-opacity="1" fill-rule="nonzero"/><path fill="#ffffff" d="M 0 0.488281 L 111.550781 0.488281 L 111.550781 112.042969 L 0 112.042969 Z M 0 0.488281 " fill-opacity="1" fill-rule="nonzero"/></g><path fill="#df4a26" d="M 36.207031 59.410156 C 42.121094 59.410156 46.90625 64.183594 46.90625 70.082031 L 49.640625 70.082031 C 49.640625 62.675781 43.632812 56.6875 36.207031 56.6875 Z M 25.507812 70.082031 C 25.507812 64.183594 30.296875 59.410156 36.207031 59.410156 L 36.207031 56.6875 C 28.78125 56.6875 22.777344 62.675781 22.777344 70.082031 Z M 36.207031 80.753906 C 30.296875 80.753906 25.507812 75.980469 25.507812 70.082031 L 22.777344 70.082031 C 22.777344 77.488281 28.78125 83.476562 36.207031 83.476562 Z M 46.90625 70.082031 C 46.90625 75.980469 42.121094 80.753906 36.207031 80.753906 L 36.207031 83.476562 C 43.632812 83.476562 49.640625 77.488281 49.640625 70.082031 Z M 46.90625 70.082031 " fill-opacity="1" fill-rule="nonzero"/><path fill="#df4a26" d="M 60.640625 30.402344 L 59.320312 44.238281 L 62.042969 44.5 L 63.363281 30.664062 Z M 48.660156 26.261719 L 61.457031 31.789062 L 62.546875 29.285156 L 49.746094 23.757812 Z M 41.011719 36.339844 L 50.234375 25.914062 L 48.179688 24.113281 L 38.957031 34.535156 L 41.007812 36.339844 Z M 48.257812 46.707031 L 41.15625 34.738281 L 38.800781 36.121094 L 45.902344 48.085938 L 48.257812 46.699219 Z M 60.386719 43.035156 L 46.785156 46.070312 L 47.378906 48.734375 L 60.980469 45.699219 Z M 62.007812 30.535156 L 63.363281 30.664062 L 63.457031 29.679688 L 62.546875 29.285156 L 62.007812 30.542969 Z M 49.207031 25.007812 L 49.746094 23.75 L 48.835938 23.359375 L 48.179688 24.097656 L 49.207031 25 Z M 39.984375 35.429688 L 38.957031 34.527344 L 38.300781 35.277344 L 38.808594 36.128906 L 39.984375 35.4375 Z M 47.085938 47.402344 L 45.910156 48.09375 L 46.414062 48.949219 L 47.386719 48.734375 Z M 60.679688 44.367188 L 60.980469 45.699219 L 61.945312 45.484375 L 62.035156 44.5 Z M 60.679688 44.367188 " fill-opacity="1" fill-rule="nonzero"/><path fill="#df4a26" d="M 77.027344 65.886719 L 77.476562 75.777344 L 80.207031 75.65625 L 79.761719 65.761719 Z M 85.496094 58.765625 L 77.566406 64.738281 L 79.210938 66.917969 L 87.140625 60.945312 Z M 76.378906 58.527344 L 85.957031 61.167969 L 86.683594 58.542969 L 77.105469 55.902344 Z M 72.203125 48.300781 L 75.453125 57.65625 L 78.039062 56.761719 L 74.789062 47.410156 Z M 69.167969 56.863281 L 74.636719 48.601562 L 72.351562 47.101562 L 66.882812 55.363281 Z M 58.125 57.671875 L 68.050781 57.480469 L 67.996094 54.753906 L 58.070312 54.945312 Z M 65.347656 63.199219 L 59.164062 55.460938 L 57.027344 57.164062 L 63.210938 64.902344 Z M 62.691406 73.929688 L 65.585938 64.445312 L 62.972656 63.652344 L 60.078125 73.136719 Z M 70.210938 68.78125 L 60.910156 72.253906 L 61.867188 74.808594 L 71.167969 71.335938 Z M 79.613281 74.59375 L 71.460938 68.933594 L 69.902344 71.175781 L 78.054688 76.832031 Z M 78.394531 65.824219 L 77.566406 64.738281 L 76.996094 65.171875 L 77.027344 65.886719 Z M 86.3125 59.851562 L 87.140625 60.9375 L 89.347656 59.273438 L 86.675781 58.535156 Z M 76.742188 57.210938 L 75.453125 57.65625 L 75.683594 58.332031 L 76.378906 58.527344 Z M 73.492188 47.855469 L 74.78125 47.410156 L 73.878906 44.800781 L 72.351562 47.109375 L 73.492188 47.863281 Z M 68.027344 56.117188 L 68.058594 57.480469 L 68.777344 57.464844 L 69.167969 56.863281 L 68.027344 56.109375 Z M 58.101562 56.308594 L 58.070312 54.945312 L 55.304688 55 L 57.035156 57.15625 Z M 64.285156 64.046875 L 65.585938 64.445312 L 65.796875 63.761719 L 65.347656 63.199219 Z M 61.386719 73.53125 L 60.085938 73.128906 L 59.273438 75.769531 L 61.867188 74.800781 L 61.386719 73.523438 Z M 70.691406 70.058594 L 71.46875 68.941406 L 70.882812 68.535156 L 70.210938 68.789062 L 70.691406 70.066406 Z M 78.835938 75.710938 L 78.054688 76.824219 L 80.324219 78.402344 L 80.199219 75.648438 Z M 78.835938 75.710938 " fill-opacity="1" fill-rule="nonzero"/><path fill="#df4a26" d="M 27.355469 56.609375 C 28.214844 56.300781 28.644531 56.148438 28.644531 56.148438 C 28.644531 56.148438 28.644531 56.148438 28.644531 56.140625 C 28.644531 56.132812 28.636719 56.109375 28.621094 56.078125 C 28.605469 56.023438 28.574219 55.929688 28.542969 55.816406 C 28.472656 55.578125 28.390625 55.222656 28.304688 54.777344 C 28.132812 53.882812 28.011719 52.660156 28.132812 51.304688 C 28.390625 48.65625 29.625 45.476562 33.800781 43.28125 L 32.527344 40.871094 C 27.402344 43.566406 25.734375 47.65625 25.417969 51.042969 C 25.253906 52.714844 25.417969 54.199219 25.617188 55.269531 C 25.71875 55.808594 25.824219 56.238281 25.917969 56.546875 C 25.964844 56.703125 26.003906 56.824219 26.027344 56.910156 C 26.042969 56.957031 26.050781 56.984375 26.066406 57.015625 C 26.066406 57.03125 26.074219 57.039062 26.074219 57.046875 C 26.074219 57.046875 26.074219 57.046875 26.074219 57.054688 C 26.074219 57.054688 26.503906 56.902344 27.363281 56.59375 Z M 33.792969 43.289062 C 34.464844 42.9375 34.71875 42.113281 34.363281 41.449219 C 34.007812 40.789062 33.183594 40.527344 32.519531 40.878906 Z M 26.066406 57.078125 C 26.320312 57.785156 27.105469 58.15625 27.816406 57.894531 C 28.527344 57.640625 28.898438 56.855469 28.636719 56.148438 L 26.066406 57.070312 Z M 26.066406 57.078125 " fill-opacity="1" fill-rule="nonzero"/><path fill="#df4a26" d="M 36.457031 40.734375 C 35.160156 41.949219 33.652344 43.730469 32.90625 45.253906 L 32.75 42.289062 L 30.734375 40.109375 C 32.355469 40.648438 34.679688 40.820312 36.472656 40.734375 " fill-opacity="1" fill-rule="nonzero"/><path fill="#df4a26" d="M 47.917969 84.546875 C 47.191406 85.097656 46.832031 85.375 46.832031 85.378906 C 46.832031 85.378906 46.832031 85.378906 46.835938 85.386719 C 46.835938 85.394531 46.851562 85.402344 46.859375 85.417969 C 46.875 85.441406 46.90625 85.472656 46.9375 85.511719 C 47 85.585938 47.09375 85.695312 47.214844 85.824219 C 47.457031 86.085938 47.796875 86.433594 48.242188 86.8125 C 49.128906 87.574219 50.449219 88.488281 52.148438 89.082031 C 53.863281 89.675781 55.945312 89.929688 58.308594 89.367188 C 60.671875 88.804688 63.234375 87.457031 65.941406 84.980469 L 64.097656 82.96875 C 61.652344 85.203125 59.488281 86.289062 57.675781 86.71875 C 55.871094 87.148438 54.316406 86.949219 53.042969 86.511719 C 51.753906 86.0625 50.726562 85.355469 50.027344 84.746094 C 49.671875 84.449219 49.410156 84.179688 49.230469 83.984375 C 49.144531 83.894531 49.078125 83.816406 49.039062 83.769531 C 49.015625 83.746094 49.007812 83.730469 49 83.722656 C 49 83.722656 49 83.722656 49 83.714844 C 49 83.714844 48.636719 83.992188 47.910156 84.546875 Z M 65.949219 84.988281 C 66.507812 84.476562 66.546875 83.617188 66.035156 83.0625 C 65.527344 82.507812 64.660156 82.46875 64.105469 82.976562 Z M 49.007812 83.714844 C 48.550781 83.117188 47.695312 83 47.09375 83.460938 C 46.492188 83.917969 46.375 84.769531 46.835938 85.371094 L 49.015625 83.714844 Z M 49.007812 83.714844 " fill-opacity="1" fill-rule="nonzero"/><path fill="#df4a26" d="M 67.503906 81.4375 C 66.769531 83.054688 66.050781 85.277344 65.941406 86.980469 L 64.667969 84.285156 L 61.96875 83.03125 C 63.671875 82.914062 65.882812 82.183594 67.511719 81.4375 " fill-opacity="1" fill-rule="nonzero"/></svg>