<svg xmlns="http://www.w3.org/2000/svg" xmlns:xlink="http://www.w3.org/1999/xlink" width="150" zoomAndPan="magnify" viewBox="0 0 113.04 120.96" height="150" preserveAspectRatio="xMidYMid meet" version="1.0"><defs><clipPath id="2094d9e6a3"><path d="M 0 0.488281 L 111.550781 0.488281 L 111.550781 112.042969 L 0 112.042969 Z M 0 0.488281 " clip-rule="nonzero"/></clipPath></defs><g clip-path="url(#2094d9e6a3)"><path fill="#ffffff" d="M 0 0.488281 L 111.550781 0.488281 L 111.550781 112.042969 L 0 112.042969 Z M 0 0.488281 " fill-opacity="1" fill-rule="nonzero"/><path fill="#ffffff" d="M 0 0.488281 L 111.550781 0.488281 L 111.550781 112.042969 L 0 112.042969 Z M 0 0.488281 " fill-opacity="1" fill-rule="nonzero"/></g><path fill="#0c80c0" d="M 30.839844 33.679688 C 33.625 33.679688 36.222656 36.449219 36.222656 40.347656 L 38.734375 40.347656 C 38.734375 35.476562 35.394531 31.15625 30.839844 31.15625 Z M 25.453125 40.347656 C 25.453125 36.457031 28.050781 33.679688 30.835938 33.679688 L 30.835938 31.15625 C 26.28125 31.15625 22.941406 35.488281 22.941406 40.347656 Z M 30.839844 47.015625 C 28.058594 47.015625 25.460938 44.242188 25.460938 40.347656 L 22.949219 40.347656 C 22.949219 45.207031 26.28125 49.542969 30.839844 49.542969 Z M 36.222656 40.347656 C 36.222656 44.242188 33.625 47.015625 30.839844 47.015625 L 30.839844 49.542969 C 35.394531 49.542969 38.734375 45.207031 38.734375 40.347656 Z M 36.222656 40.347656 " fill-opacity="1" fill-rule="nonzero"/><path fill="#0c80c0" d="M 36.882812 54.75 L 36.882812 72.453125 L 39.394531 72.453125 L 39.394531 54.75 Z M 33.457031 51.125 C 35.3125 51.125 36.878906 52.6875 36.878906 54.75 L 39.386719 54.75 C 39.386719 51.390625 36.789062 48.605469 33.457031 48.605469 L 33.457031 51.132812 Z M 28.277344 51.125 L 33.464844 51.125 L 33.464844 48.597656 L 28.277344 48.597656 Z M 24.792969 54.75 C 24.792969 52.726562 26.398438 51.125 28.273438 51.125 L 28.273438 48.597656 C 24.953125 48.597656 22.28125 51.382812 22.28125 54.742188 L 24.792969 54.742188 Z M 24.792969 72.453125 L 24.792969 54.75 L 22.28125 54.75 L 22.28125 72.453125 Z M 28.277344 76.09375 C 26.40625 76.09375 24.796875 74.496094 24.796875 72.457031 L 22.289062 72.457031 C 22.289062 75.832031 24.960938 78.617188 28.277344 78.617188 Z M 33.457031 76.09375 L 28.273438 76.09375 L 28.273438 78.617188 L 33.457031 78.617188 Z M 36.882812 72.453125 C 36.882812 74.511719 35.320312 76.085938 33.464844 76.085938 L 33.464844 78.609375 C 36.804688 78.609375 39.394531 75.804688 39.394531 72.453125 Z M 36.882812 72.453125 " fill-opacity="1" fill-rule="nonzero"/><path fill="#0c80c0" d="M 79.605469 33.679688 C 82.386719 33.679688 84.988281 36.449219 84.988281 40.347656 L 87.496094 40.347656 C 87.496094 35.476562 84.15625 31.15625 79.605469 31.15625 Z M 74.222656 40.347656 C 74.222656 36.457031 76.820312 33.679688 79.605469 33.679688 L 79.605469 31.15625 C 75.050781 31.15625 71.710938 35.488281 71.710938 40.347656 Z M 79.605469 47.015625 C 76.820312 47.015625 74.222656 44.242188 74.222656 40.347656 L 71.710938 40.347656 C 71.710938 45.207031 75.042969 49.542969 79.605469 49.542969 Z M 84.988281 40.347656 C 84.988281 44.242188 82.386719 47.015625 79.605469 47.015625 L 79.605469 49.542969 C 84.15625 49.542969 87.496094 45.207031 87.496094 40.347656 Z M 84.988281 40.347656 " fill-opacity="1" fill-rule="nonzero"/><path fill="#0c80c0" d="M 85.648438 54.75 L 85.648438 72.453125 L 88.160156 72.453125 L 88.160156 54.75 Z M 82.226562 51.125 C 84.082031 51.125 85.648438 52.6875 85.648438 54.75 L 88.160156 54.75 C 88.160156 51.390625 85.558594 48.605469 82.226562 48.605469 L 82.226562 51.132812 Z M 77.042969 51.125 L 82.226562 51.125 L 82.226562 48.597656 L 77.042969 48.597656 Z M 73.621094 54.75 C 73.621094 52.703125 75.183594 51.125 77.042969 51.125 L 77.042969 48.597656 C 73.707031 48.597656 71.109375 51.398438 71.109375 54.742188 L 73.621094 54.742188 Z M 73.621094 72.453125 L 73.621094 54.75 L 71.109375 54.75 L 71.109375 72.453125 Z M 77.042969 76.09375 C 75.183594 76.09375 73.621094 74.519531 73.621094 72.457031 L 71.109375 72.457031 C 71.109375 75.8125 73.699219 78.617188 77.042969 78.617188 Z M 82.226562 76.09375 L 77.042969 76.09375 L 77.042969 78.617188 L 82.226562 78.617188 Z M 85.648438 72.453125 C 85.648438 74.511719 84.082031 76.085938 82.226562 76.085938 L 82.226562 78.609375 C 85.566406 78.609375 88.160156 75.804688 88.160156 72.453125 Z M 85.648438 72.453125 " fill-opacity="1" fill-rule="nonzero"/><path fill="#0c80c0" d="M 34.652344 58.25 C 34.808594 58.066406 35.152344 57.703125 35.363281 57.386719 C 35.636719 56.980469 35.855469 56.484375 35.855469 55.835938 L 33.34375 55.835938 C 33.34375 55.835938 33.34375 55.878906 33.34375 55.878906 C 33.34375 55.878906 33.339844 55.910156 33.300781 55.960938 C 33.265625 56.019531 33.207031 56.09375 33.101562 56.203125 C 33.023438 56.292969 32.867188 56.464844 32.75 56.609375 L 34.660156 58.25 Z M 30.980469 60.214844 C 31.558594 60.820312 31.847656 61.121094 31.847656 61.121094 C 31.847656 61.121094 31.855469 61.117188 31.863281 61.109375 C 31.875 61.09375 31.898438 61.070312 31.929688 61.042969 C 31.988281 60.984375 32.066406 60.902344 32.171875 60.804688 C 32.375 60.605469 32.65625 60.332031 32.957031 60.03125 C 33.542969 59.445312 34.261719 58.707031 34.652344 58.242188 L 32.730469 56.617188 C 32.425781 56.980469 31.796875 57.628906 31.195312 58.234375 C 30.898438 58.53125 30.628906 58.796875 30.429688 58.988281 C 30.328125 59.085938 30.246094 59.164062 30.195312 59.21875 C 30.167969 59.246094 30.144531 59.269531 30.128906 59.277344 C 30.128906 59.277344 30.113281 59.292969 30.113281 59.292969 C 30.113281 59.292969 30.113281 59.292969 30.980469 60.199219 Z M 27.199219 58.21875 C 27.40625 58.414062 28.117188 59.113281 28.800781 59.808594 C 29.136719 60.148438 29.460938 60.472656 29.695312 60.714844 C 29.8125 60.835938 29.917969 60.9375 29.984375 61.003906 C 30.019531 61.042969 30.042969 61.0625 30.0625 61.085938 C 30.070312 61.09375 30.078125 61.101562 30.085938 61.109375 C 30.085938 61.109375 30.085938 61.109375 30.972656 60.214844 L 31.863281 59.320312 C 31.863281 59.320312 31.847656 59.304688 31.839844 59.296875 C 31.824219 59.277344 31.796875 59.253906 31.757812 59.21875 C 31.691406 59.152344 31.589844 59.046875 31.472656 58.929688 C 31.230469 58.6875 30.90625 58.359375 30.570312 58.019531 C 29.902344 57.355469 29.144531 56.597656 28.894531 56.367188 L 27.191406 58.21875 Z M 26.105469 55.84375 C 26.105469 56.863281 26.566406 57.609375 27.171875 58.199219 L 28.917969 56.390625 C 28.632812 56.109375 28.609375 55.984375 28.609375 55.84375 L 26.097656 55.84375 Z M 29.203125 52.726562 C 27.484375 52.726562 26.113281 54.128906 26.113281 55.835938 L 28.625 55.835938 C 28.625 55.511719 28.886719 55.246094 29.210938 55.246094 L 29.210938 52.71875 Z M 32.199219 55.066406 C 31.855469 53.730469 30.652344 52.726562 29.203125 52.726562 L 29.203125 55.25 C 29.46875 55.25 29.703125 55.4375 29.769531 55.695312 Z M 32.765625 52.726562 C 31.320312 52.726562 30.113281 53.722656 29.769531 55.066406 L 32.199219 55.695312 C 32.265625 55.4375 32.5 55.25 32.765625 55.25 Z M 35.855469 55.84375 C 35.855469 54.113281 34.460938 52.734375 32.765625 52.734375 L 32.765625 55.257812 C 33.089844 55.257812 33.351562 55.523438 33.351562 55.851562 L 35.863281 55.851562 Z M 33.699219 57.4375 L 32.742188 56.617188 C 32.742188 56.617188 33.707031 57.4375 33.707031 57.4375 Z M 30.980469 60.214844 L 30.09375 61.109375 L 30.960938 61.988281 L 31.847656 61.128906 L 30.980469 60.222656 Z M 28.050781 57.289062 L 27.175781 58.199219 L 27.199219 58.21875 Z M 30.980469 55.378906 L 29.769531 55.695312 L 30.980469 60.4375 L 32.191406 55.695312 Z M 30.980469 55.378906 " fill-opacity="1" fill-rule="nonzero"/><path fill="#0c80c0" d="M 83.394531 58.25 C 83.546875 58.066406 83.894531 57.703125 84.105469 57.386719 C 84.378906 56.980469 84.597656 56.484375 84.597656 55.835938 L 82.085938 55.835938 C 82.085938 55.835938 82.085938 55.878906 82.085938 55.878906 C 82.085938 55.878906 82.078125 55.910156 82.042969 55.960938 C 82.003906 56.019531 81.945312 56.09375 81.84375 56.203125 C 81.761719 56.292969 81.609375 56.464844 81.492188 56.609375 L 83.402344 58.25 Z M 79.722656 60.214844 C 80.300781 60.820312 80.589844 61.121094 80.589844 61.121094 C 80.589844 61.121094 80.597656 61.117188 80.601562 61.109375 C 80.617188 61.09375 80.640625 61.070312 80.667969 61.042969 C 80.726562 60.984375 80.808594 60.902344 80.910156 60.804688 C 81.117188 60.605469 81.394531 60.332031 81.695312 60.03125 C 82.285156 59.445312 83.003906 58.707031 83.394531 58.242188 L 81.46875 56.617188 C 81.167969 56.980469 80.535156 57.628906 79.933594 58.234375 C 79.640625 58.53125 79.371094 58.796875 79.171875 58.988281 C 79.070312 59.085938 78.988281 59.164062 78.9375 59.21875 C 78.90625 59.246094 78.886719 59.261719 78.871094 59.277344 C 78.871094 59.277344 78.855469 59.292969 78.855469 59.292969 L 79.722656 60.199219 Z M 75.941406 58.21875 C 76.144531 58.414062 76.859375 59.113281 77.542969 59.808594 C 77.878906 60.148438 78.203125 60.472656 78.4375 60.714844 C 78.554688 60.835938 78.65625 60.9375 78.722656 61.003906 C 78.761719 61.042969 78.78125 61.0625 78.804688 61.085938 C 78.8125 61.09375 78.820312 61.101562 78.824219 61.109375 C 78.824219 61.109375 78.824219 61.109375 79.714844 60.214844 L 80.601562 59.320312 C 80.601562 59.320312 80.589844 59.304688 80.582031 59.296875 C 80.566406 59.277344 80.535156 59.253906 80.5 59.21875 C 80.433594 59.152344 80.332031 59.046875 80.214844 58.929688 C 79.972656 58.6875 79.648438 58.359375 79.3125 58.019531 C 78.644531 57.355469 77.886719 56.597656 77.636719 56.367188 L 75.933594 58.21875 Z M 74.855469 55.84375 C 74.855469 56.863281 75.316406 57.609375 75.917969 58.199219 L 77.664062 56.390625 C 77.378906 56.109375 77.359375 55.984375 77.359375 55.84375 L 74.847656 55.84375 Z M 77.945312 52.726562 C 76.226562 52.726562 74.855469 54.128906 74.855469 55.835938 L 77.363281 55.835938 C 77.363281 55.511719 77.628906 55.246094 77.953125 55.246094 L 77.953125 52.71875 Z M 80.941406 55.066406 C 80.597656 53.730469 79.390625 52.726562 77.945312 52.726562 L 77.945312 55.25 C 78.210938 55.25 78.445312 55.4375 78.511719 55.695312 Z M 81.507812 52.726562 C 80.058594 52.726562 78.855469 53.722656 78.511719 55.066406 L 80.941406 55.695312 C 81.007812 55.4375 81.242188 55.25 81.507812 55.25 Z M 84.597656 55.84375 C 84.597656 54.113281 83.203125 52.734375 81.507812 52.734375 L 81.507812 55.257812 C 81.828125 55.257812 82.09375 55.523438 82.09375 55.851562 L 84.605469 55.851562 Z M 82.4375 57.4375 L 81.484375 56.617188 C 81.484375 56.617188 82.445312 57.4375 82.445312 57.4375 Z M 79.722656 60.214844 L 78.832031 61.109375 L 79.699219 61.988281 L 80.589844 61.128906 L 79.722656 60.222656 Z M 76.792969 57.289062 L 75.917969 58.199219 L 75.941406 58.21875 Z M 79.722656 55.378906 L 78.511719 55.695312 L 79.722656 60.4375 L 80.933594 55.695312 Z M 79.722656 55.378906 " fill-opacity="1" fill-rule="nonzero"/><path fill="#0c80c0" d="M 58.023438 67.289062 C 58.023438 68.316406 57.195312 69.148438 56.175781 69.148438 C 55.152344 69.148438 54.324219 68.316406 54.324219 67.289062 C 54.324219 66.261719 55.152344 65.429688 56.175781 65.429688 C 57.195312 65.429688 58.023438 66.261719 58.023438 67.289062 Z M 58.023438 67.289062 " fill-opacity="1" fill-rule="nonzero"/><path fill="#0c80c0" d="M 56.167969 66.054688 C 56.84375 66.054688 57.394531 66.609375 57.394531 67.289062 L 58.648438 67.289062 C 58.648438 65.914062 57.539062 64.792969 56.167969 64.792969 Z M 54.949219 67.289062 C 54.949219 66.609375 55.5 66.054688 56.175781 66.054688 L 56.175781 64.792969 C 54.808594 64.792969 53.691406 65.910156 53.691406 67.289062 Z M 56.167969 68.523438 C 55.492188 68.523438 54.941406 67.96875 54.941406 67.289062 L 53.683594 67.289062 C 53.683594 68.664062 54.792969 69.785156 56.167969 69.785156 Z M 57.394531 67.289062 C 57.394531 67.96875 56.84375 68.523438 56.167969 68.523438 L 56.167969 69.785156 C 57.53125 69.785156 58.648438 68.671875 58.648438 67.289062 Z M 57.394531 67.289062 " fill-opacity="1" fill-rule="nonzero"/><path fill="#0c80c0" d="M 50.703125 64.742188 C 51.605469 63.058594 53.789062 62.089844 56.226562 62.074219 C 57.40625 62.074219 58.554688 62.296875 59.472656 62.710938 C 60.394531 63.125 61.027344 63.691406 61.335938 64.320312 L 63.582031 63.199219 C 62.9375 61.898438 61.785156 60.984375 60.492188 60.40625 C 59.199219 59.824219 57.695312 59.542969 56.203125 59.550781 C 53.289062 59.566406 50 60.714844 48.484375 63.546875 L 50.695312 64.742188 Z M 61.335938 64.320312 C 61.644531 64.941406 62.402344 65.199219 63.015625 64.890625 C 63.632812 64.578125 63.890625 63.820312 63.582031 63.199219 Z M 48.492188 63.546875 C 48.164062 64.15625 48.390625 64.925781 49 65.25 C 49.609375 65.582031 50.375 65.355469 50.695312 64.742188 L 48.484375 63.546875 Z M 48.492188 63.546875 " fill-opacity="1" fill-rule="nonzero"/><path fill="#0c80c0" d="M 48.582031 61.253906 C 50.292969 58.878906 53.523438 57.675781 56.703125 57.753906 C 59.933594 57.835938 62.511719 59.203125 63.3125 61.25 L 65.644531 60.316406 C 64.300781 56.90625 60.441406 55.324219 56.769531 55.238281 C 53.039062 55.140625 48.890625 56.53125 46.546875 59.777344 L 48.582031 61.261719 Z M 63.3125 61.25 C 63.566406 61.898438 64.296875 62.214844 64.941406 61.957031 C 65.585938 61.699219 65.902344 60.96875 65.644531 60.316406 Z M 46.546875 59.777344 C 46.144531 60.339844 46.269531 61.128906 46.828125 61.542969 C 47.382812 61.949219 48.171875 61.824219 48.582031 61.261719 Z M 46.546875 59.777344 " fill-opacity="1" fill-rule="nonzero"/><path fill="#0c80c0" d="M 47.097656 57.703125 C 48.53125 55.089844 52.070312 53.472656 55.945312 53.414062 C 59.808594 53.355469 63.398438 54.84375 64.957031 57.703125 L 67.160156 56.492188 C 64.984375 52.496094 60.277344 50.820312 55.910156 50.886719 C 51.554688 50.953125 46.9375 52.769531 44.902344 56.484375 L 47.105469 57.703125 Z M 64.957031 57.703125 C 65.285156 58.316406 66.050781 58.539062 66.660156 58.207031 C 67.269531 57.875 67.488281 57.105469 67.160156 56.492188 Z M 44.902344 56.484375 C 44.574219 57.097656 44.792969 57.867188 45.394531 58.199219 C 45.996094 58.53125 46.769531 58.308594 47.097656 57.703125 L 44.894531 56.484375 Z M 44.902344 56.484375 " fill-opacity="1" fill-rule="nonzero"/></svg>