<svg xmlns="http://www.w3.org/2000/svg" xmlns:xlink="http://www.w3.org/1999/xlink" width="150" zoomAndPan="magnify" viewBox="0 0 113.04 120.96" height="150" preserveAspectRatio="xMidYMid meet" version="1.0"><defs><clipPath id="52600a0842"><path d="M 0 0.488281 L 111.550781 0.488281 L 111.550781 112.042969 L 0 112.042969 Z M 0 0.488281 " clip-rule="nonzero"/></clipPath></defs><g clip-path="url(#52600a0842)"><path fill="#ffffff" d="M 0 0.488281 L 111.550781 0.488281 L 111.550781 112.042969 L 0 112.042969 Z M 0 0.488281 " fill-opacity="1" fill-rule="nonzero"/><path fill="#ffffff" d="M 0 0.488281 L 111.550781 0.488281 L 111.550781 112.042969 L 0 112.042969 Z M 0 0.488281 " fill-opacity="1" fill-rule="nonzero"/></g><path fill="#df4a26" d="M 31.082031 58.90625 C 31.609375 61.824219 35.324219 64.128906 39.828125 64.128906 C 44.332031 64.128906 48.035156 61.832031 48.574219 58.90625 L 31.074219 58.90625 L 31.089844 58.90625 Z M 31.082031 58.90625 " fill-opacity="1" fill-rule="nonzero"/><path fill="#df4a26" d="M 31.066406 60.203125 L 31.082031 60.203125 L 31.082031 57.621094 L 31.066406 57.621094 Z M 48.566406 57.621094 L 31.066406 57.621094 L 31.066406 60.203125 L 48.566406 60.203125 Z M 39.828125 65.421875 C 42.285156 65.421875 44.574219 64.796875 46.359375 63.722656 C 48.125 62.652344 49.492188 61.074219 49.84375 59.144531 L 47.300781 58.679688 C 47.125 59.664062 46.375 60.699219 45.023438 61.511719 C 43.6875 62.320312 41.871094 62.839844 39.828125 62.839844 Z M 29.8125 59.144531 C 30.160156 61.074219 31.53125 62.652344 33.296875 63.722656 C 35.070312 64.796875 37.359375 65.421875 39.828125 65.421875 L 39.828125 62.839844 C 37.785156 62.839844 35.96875 62.320312 34.632812 61.511719 C 33.28125 60.699219 32.53125 59.671875 32.351562 58.679688 Z M 31.066406 57.621094 C 30.347656 57.621094 29.777344 58.199219 29.777344 58.90625 C 29.777344 59.617188 30.355469 60.195312 31.066406 60.195312 L 31.066406 57.613281 Z M 48.566406 58.90625 L 49.835938 59.136719 C 49.898438 58.761719 49.800781 58.371094 49.558594 58.074219 C 49.3125 57.78125 48.949219 57.613281 48.566406 57.613281 Z M 31.082031 58.90625 L 32.351562 58.679688 C 32.238281 58.066406 31.707031 57.621094 31.082031 57.621094 Z M 31.082031 58.90625 " fill-opacity="1" fill-rule="nonzero"/><path fill="#df4a26" d="M 71.429688 86.617188 C 71.429688 86.808594 71.328125 86.992188 71.128906 87.179688 C 70.929688 87.363281 70.636719 87.542969 70.242188 87.714844 C 69.851562 87.890625 69.371094 88.054688 68.804688 88.210938 C 68.234375 88.367188 67.589844 88.511719 66.863281 88.644531 C 66.140625 88.78125 65.355469 88.898438 64.503906 89.003906 C 63.652344 89.109375 62.753906 89.195312 61.808594 89.269531 C 60.863281 89.339844 59.886719 89.394531 58.886719 89.429688 C 57.882812 89.46875 56.867188 89.484375 55.84375 89.484375 C 54.820312 89.484375 53.808594 89.46875 52.804688 89.429688 C 51.800781 89.394531 50.824219 89.339844 49.878906 89.269531 C 48.933594 89.195312 48.035156 89.109375 47.183594 89.003906 C 46.335938 88.898438 45.546875 88.78125 44.824219 88.644531 C 44.101562 88.511719 43.453125 88.367188 42.886719 88.210938 C 42.316406 88.054688 41.835938 87.890625 41.445312 87.714844 C 41.054688 87.542969 40.757812 87.363281 40.558594 87.179688 C 40.359375 86.992188 40.257812 86.808594 40.257812 86.617188 C 40.257812 86.429688 40.359375 86.242188 40.558594 86.058594 C 40.757812 85.875 41.054688 85.695312 41.445312 85.523438 C 41.835938 85.347656 42.316406 85.183594 42.886719 85.027344 C 43.453125 84.871094 44.101562 84.722656 44.824219 84.589844 C 45.546875 84.457031 46.335938 84.339844 47.183594 84.234375 C 48.035156 84.128906 48.933594 84.042969 49.878906 83.96875 C 50.824219 83.898438 51.800781 83.84375 52.804688 83.804688 C 53.808594 83.769531 54.820312 83.75 55.84375 83.75 C 56.867188 83.75 57.882812 83.769531 58.886719 83.804688 C 59.886719 83.84375 60.863281 83.898438 61.808594 83.96875 C 62.753906 84.042969 63.652344 84.128906 64.503906 84.234375 C 65.355469 84.339844 66.140625 84.457031 66.863281 84.589844 C 67.589844 84.722656 68.234375 84.871094 68.804688 85.027344 C 69.371094 85.183594 69.851562 85.347656 70.242188 85.523438 C 70.636719 85.695312 70.929688 85.875 71.128906 86.058594 C 71.328125 86.242188 71.429688 86.429688 71.429688 86.617188 Z M 71.429688 86.617188 " fill-opacity="1" fill-rule="nonzero"/><path fill="#df4a26" d="M 54.5 29.363281 L 57.082031 29.363281 L 57.082031 86.628906 L 54.5 86.628906 Z M 54.5 29.363281 " fill-opacity="1" fill-rule="nonzero"/><path fill="#df4a26" d="M 59.589844 27.285156 C 59.589844 28.785156 57.90625 29.996094 55.828125 29.996094 C 53.75 29.996094 52.066406 28.785156 52.066406 27.285156 C 52.066406 25.785156 53.75 24.570312 55.828125 24.570312 C 57.90625 24.570312 59.589844 25.785156 59.589844 27.285156 Z M 59.589844 27.285156 " fill-opacity="1" fill-rule="nonzero"/><path fill="#df4a26" d="M 55.835938 25.867188 C 56.632812 25.867188 57.300781 26.105469 57.742188 26.421875 C 58.179688 26.738281 58.304688 27.066406 58.304688 27.292969 L 60.886719 27.292969 C 60.886719 26.023438 60.167969 24.996094 59.25 24.328125 C 58.328125 23.660156 57.113281 23.292969 55.835938 23.292969 L 55.835938 25.875 Z M 53.367188 27.285156 C 53.367188 27.058594 53.492188 26.730469 53.929688 26.414062 C 54.371094 26.09375 55.039062 25.859375 55.835938 25.859375 L 55.835938 23.277344 C 54.558594 23.277344 53.34375 23.652344 52.425781 24.3125 C 51.503906 24.980469 50.789062 26.007812 50.789062 27.277344 L 53.367188 27.277344 Z M 55.835938 28.703125 C 55.039062 28.703125 54.371094 28.464844 53.929688 28.148438 C 53.492188 27.832031 53.367188 27.503906 53.367188 27.277344 L 50.789062 27.277344 C 50.789062 28.546875 51.503906 29.574219 52.425781 30.242188 C 53.34375 30.910156 54.558594 31.277344 55.835938 31.277344 L 55.835938 28.695312 Z M 58.3125 27.285156 C 58.3125 27.511719 58.191406 27.839844 57.75 28.15625 C 57.308594 28.472656 56.640625 28.710938 55.84375 28.710938 L 55.84375 31.292969 C 57.121094 31.292969 58.335938 30.917969 59.257812 30.257812 C 60.175781 29.589844 60.894531 28.5625 60.894531 27.292969 L 58.3125 27.292969 Z M 58.3125 27.285156 " fill-opacity="1" fill-rule="nonzero"/><path fill="#df4a26" d="M 38.761719 48.007812 L 47.554688 59.289062 L 49.589844 57.703125 L 40.796875 46.417969 Z M 32.109375 59.289062 L 40.804688 48.007812 L 38.761719 46.425781 L 30.0625 57.710938 Z M 47.554688 59.289062 C 47.996094 59.851562 48.800781 59.949219 49.363281 59.519531 C 49.925781 59.078125 50.023438 58.269531 49.589844 57.710938 L 47.554688 59.296875 Z M 39.777344 47.21875 L 40.796875 46.425781 C 40.550781 46.109375 40.175781 45.929688 39.777344 45.929688 C 39.378906 45.929688 39.003906 46.117188 38.761719 46.4375 L 39.785156 47.226562 Z M 30.054688 57.710938 C 29.625 58.269531 29.722656 59.085938 30.292969 59.519531 C 30.855469 59.949219 31.667969 59.851562 32.101562 59.28125 L 30.054688 57.703125 Z M 30.054688 57.710938 " fill-opacity="1" fill-rule="nonzero"/><path fill="#df4a26" d="M 38.597656 31.910156 L 38.550781 46.835938 L 41.128906 46.835938 C 41.128906 46.835938 41.179688 31.917969 41.179688 31.917969 L 38.597656 31.917969 Z M 38.550781 46.828125 C 38.550781 47.542969 39.117188 48.121094 39.835938 48.121094 C 40.550781 48.121094 41.128906 47.550781 41.128906 46.835938 L 38.550781 46.835938 Z M 41.179688 31.917969 C 41.179688 31.203125 40.609375 30.625 39.890625 30.625 C 39.175781 30.625 38.597656 31.195312 38.597656 31.910156 L 41.179688 31.910156 Z M 41.179688 31.917969 " fill-opacity="1" fill-rule="nonzero"/><path fill="#df4a26" d="M 62.585938 69.203125 C 63.117188 72.121094 66.828125 74.425781 71.332031 74.425781 C 75.835938 74.425781 79.539062 72.128906 80.078125 69.203125 L 62.578125 69.203125 L 62.59375 69.203125 Z M 62.585938 69.203125 " fill-opacity="1" fill-rule="nonzero"/><path fill="#df4a26" d="M 62.578125 70.488281 L 62.59375 70.488281 L 62.59375 67.90625 L 62.578125 67.90625 Z M 80.078125 67.90625 L 62.578125 67.90625 L 62.578125 70.488281 L 80.078125 70.488281 Z M 71.332031 75.710938 C 73.792969 75.710938 76.078125 75.085938 77.863281 74.007812 C 79.628906 72.941406 80.996094 71.363281 81.347656 69.429688 L 78.808594 68.96875 C 78.628906 69.953125 77.878906 70.988281 76.527344 71.800781 C 75.191406 72.609375 73.375 73.128906 71.332031 73.128906 Z M 61.324219 69.429688 C 61.675781 71.363281 63.042969 72.941406 64.808594 74.007812 C 66.585938 75.085938 68.871094 75.710938 71.339844 75.710938 L 71.339844 73.128906 C 69.296875 73.128906 67.480469 72.609375 66.144531 71.800781 C 64.792969 70.988281 64.042969 69.960938 63.863281 68.96875 Z M 62.578125 67.90625 C 61.863281 67.90625 61.292969 68.484375 61.292969 69.195312 C 61.292969 69.902344 61.871094 70.480469 62.578125 70.480469 L 62.578125 67.898438 Z M 80.078125 69.203125 L 81.347656 69.429688 C 81.414062 69.054688 81.316406 68.664062 81.070312 68.371094 C 80.828125 68.078125 80.460938 67.90625 80.078125 67.90625 Z M 62.585938 69.203125 L 63.855469 68.976562 C 63.742188 68.363281 63.214844 67.917969 62.585938 67.917969 Z M 62.585938 69.203125 " fill-opacity="1" fill-rule="nonzero"/><path fill="#df4a26" d="M 70.273438 58.320312 L 79.074219 69.59375 L 81.113281 68.003906 L 72.308594 56.730469 Z M 63.613281 69.578125 L 72.308594 58.304688 L 70.265625 56.722656 L 61.570312 67.996094 Z M 79.074219 69.585938 C 79.515625 70.148438 80.328125 70.246094 80.882812 69.804688 C 81.445312 69.367188 81.542969 68.558594 81.105469 67.996094 L 79.066406 69.585938 Z M 71.292969 57.523438 L 72.308594 56.722656 C 72.066406 56.40625 71.691406 56.226562 71.292969 56.226562 C 70.890625 56.226562 70.519531 56.414062 70.273438 56.730469 Z M 61.570312 68.003906 C 61.136719 68.566406 61.234375 69.382812 61.804688 69.8125 C 62.367188 70.246094 63.179688 70.148438 63.613281 69.578125 L 61.570312 67.996094 Z M 61.570312 68.003906 " fill-opacity="1" fill-rule="nonzero"/><path fill="#df4a26" d="M 70.183594 43.40625 L 70.0625 57.886719 L 72.644531 57.914062 L 72.765625 43.429688 Z M 70.0625 57.898438 C 70.0625 58.613281 70.632812 59.191406 71.339844 59.199219 C 72.058594 59.199219 72.636719 58.628906 72.644531 57.921875 Z M 72.765625 43.429688 C 72.765625 42.714844 72.195312 42.132812 71.488281 42.125 C 70.769531 42.125 70.191406 42.695312 70.183594 43.40625 Z M 72.765625 43.429688 " fill-opacity="1" fill-rule="nonzero"/><path fill="#df4a26" d="M 39.441406 33.132812 L 40.324219 30.707031 L 71.910156 42.210938 L 71.027344 44.636719 Z M 39.441406 33.132812 " fill-opacity="1" fill-rule="nonzero"/><path fill="#df4a26" d="M 39.445312 33.125 L 71.03125 44.628906 L 71.910156 42.199219 L 40.324219 30.699219 Z M 71.03125 44.636719 C 71.699219 44.878906 72.441406 44.539062 72.683594 43.863281 C 72.929688 43.195312 72.585938 42.453125 71.910156 42.207031 Z M 40.332031 30.699219 C 39.664062 30.453125 38.921875 30.796875 38.679688 31.472656 C 38.433594 32.148438 38.777344 32.882812 39.453125 33.125 Z M 40.332031 30.699219 " fill-opacity="1" fill-rule="nonzero"/></svg>