<svg xmlns="http://www.w3.org/2000/svg" xmlns:xlink="http://www.w3.org/1999/xlink" width="150" zoomAndPan="magnify" viewBox="0 0 113.04 120.96" height="150" preserveAspectRatio="xMidYMid meet" version="1.0"><defs><clipPath id="c6f6e0dfee"><path d="M 0 0.488281 L 111.550781 0.488281 L 111.550781 112.042969 L 0 112.042969 Z M 0 0.488281 " clip-rule="nonzero"/></clipPath></defs><g clip-path="url(#c6f6e0dfee)"><path fill="#ffffff" d="M 0 0.488281 L 111.550781 0.488281 L 111.550781 112.042969 L 0 112.042969 Z M 0 0.488281 " fill-opacity="1" fill-rule="nonzero"/><path fill="#ffffff" d="M 0 0.488281 L 111.550781 0.488281 L 111.550781 112.042969 L 0 112.042969 Z M 0 0.488281 " fill-opacity="1" fill-rule="nonzero"/></g><path fill="#82af40" d="M 39.523438 79.851562 L 40.914062 79.089844 L 44.652344 85.90625 L 43.261719 86.667969 Z M 39.523438 79.851562 " fill-opacity="1" fill-rule="nonzero"/><path fill="#82af40" d="M 30.121094 85.339844 L 33.386719 78.308594 L 34.828125 78.976562 L 31.5625 86.007812 Z M 30.121094 85.339844 " fill-opacity="1" fill-rule="nonzero"/><path fill="#82af40" d="M 26.542969 35.097656 L 27.230469 33.667969 L 35.019531 37.417969 L 34.328125 38.84375 Z M 26.542969 35.097656 " fill-opacity="1" fill-rule="nonzero"/><path fill="#82af40" d="M 33.910156 28.671875 L 35.429688 28.222656 L 37.847656 36.410156 L 36.328125 36.859375 Z M 33.910156 28.671875 " fill-opacity="1" fill-rule="nonzero"/><path fill="#82af40" d="M 41.402344 36.925781 L 45.6875 29.417969 L 47.066406 30.203125 L 42.78125 37.710938 Z M 41.402344 36.925781 " fill-opacity="1" fill-rule="nonzero"/><path fill="#82af40" d="M 39.199219 43.160156 L 41.234375 41.167969 L 49.882812 49.972656 L 47.847656 51.964844 Z M 39.199219 43.160156 " fill-opacity="1" fill-rule="nonzero"/><path fill="#82af40" d="M 64.910156 50.78125 L 76.273438 42.316406 L 77.976562 44.601562 L 66.613281 53.0625 Z M 64.910156 50.78125 " fill-opacity="1" fill-rule="nonzero"/><path fill="#82af40" d="M 38.964844 75.097656 L 47.609375 59.554688 L 50.101562 60.9375 L 41.457031 76.480469 Z M 38.964844 75.097656 " fill-opacity="1" fill-rule="nonzero"/><path fill="#82af40" d="M 71.632812 33.625 L 72.996094 32.8125 L 77.804688 40.863281 L 76.441406 41.675781 Z M 71.632812 33.625 " fill-opacity="1" fill-rule="nonzero"/><path fill="#82af40" d="M 78.644531 40.820312 L 85.0625 31.679688 L 86.363281 32.589844 L 79.941406 41.730469 Z M 78.644531 40.820312 " fill-opacity="1" fill-rule="nonzero"/><path fill="#82af40" d="M 62.492188 60.726562 L 64.117188 58.386719 L 78.59375 68.402344 L 76.96875 70.742188 Z M 62.492188 60.726562 " fill-opacity="1" fill-rule="nonzero"/><path fill="#edecd8" d="M 69.863281 56.226562 C 69.863281 60.898438 63.480469 64.683594 55.585938 64.683594 C 47.6875 64.683594 41.304688 60.898438 41.304688 56.226562 C 41.304688 51.558594 47.6875 47.773438 55.585938 47.773438 C 63.480469 47.773438 69.863281 51.558594 69.863281 56.226562 Z M 69.863281 56.226562 " fill-opacity="1" fill-rule="nonzero"/><path fill="#82af40" d="M 55.585938 49.039062 C 59.339844 49.039062 62.679688 49.941406 65.035156 51.339844 C 67.417969 52.753906 68.597656 54.523438 68.597656 56.226562 L 71.136719 56.226562 C 71.136719 53.269531 69.113281 50.808594 66.332031 49.164062 C 63.515625 47.496094 59.722656 46.511719 55.585938 46.511719 L 55.585938 49.046875 Z M 42.570312 56.226562 C 42.570312 54.515625 43.746094 52.753906 46.132812 51.339844 C 48.488281 49.941406 51.828125 49.039062 55.585938 49.039062 L 55.585938 46.503906 C 51.453125 46.503906 47.652344 47.492188 44.835938 49.15625 C 42.054688 50.800781 40.039062 53.261719 40.039062 56.222656 L 42.578125 56.222656 Z M 55.585938 63.410156 C 51.828125 63.410156 48.488281 62.507812 46.132812 61.109375 C 43.753906 59.695312 42.570312 57.925781 42.570312 56.222656 L 40.03125 56.222656 C 40.03125 59.179688 42.054688 61.640625 44.828125 63.285156 C 47.644531 64.949219 51.445312 65.9375 55.578125 65.9375 L 55.578125 63.402344 Z M 68.597656 56.226562 C 68.597656 57.941406 67.421875 59.703125 65.035156 61.117188 C 62.679688 62.515625 59.339844 63.417969 55.585938 63.417969 L 55.585938 65.953125 C 59.714844 65.953125 63.515625 64.964844 66.332031 63.300781 C 69.113281 61.65625 71.136719 59.195312 71.136719 56.234375 L 68.597656 56.234375 Z M 68.597656 56.226562 " fill-opacity="1" fill-rule="nonzero"/><path fill="#edecd8" d="M 45.617188 38.617188 C 45.617188 40.839844 42.570312 42.648438 38.8125 42.648438 C 35.054688 42.648438 32.011719 40.839844 32.011719 38.617188 C 32.011719 36.398438 35.054688 34.589844 38.8125 34.589844 C 42.570312 34.589844 45.617188 36.398438 45.617188 38.617188 Z M 45.617188 38.617188 " fill-opacity="1" fill-rule="nonzero"/><path fill="#82af40" d="M 38.8125 35.226562 C 40.59375 35.226562 42.179688 35.660156 43.296875 36.316406 C 44.425781 36.988281 44.980469 37.820312 44.980469 38.617188 L 46.246094 38.617188 C 46.246094 37.199219 45.269531 36.015625 43.9375 35.230469 C 42.59375 34.433594 40.78125 33.960938 38.8125 33.960938 Z M 32.652344 38.617188 C 32.652344 37.824219 33.207031 36.988281 34.335938 36.316406 C 35.453125 35.652344 37.039062 35.226562 38.820312 35.226562 L 38.820312 33.960938 C 36.851562 33.960938 35.035156 34.433594 33.695312 35.230469 C 32.363281 36.015625 31.390625 37.199219 31.390625 38.617188 Z M 38.8125 42.011719 C 37.03125 42.011719 35.445312 41.578125 34.328125 40.921875 C 33.199219 40.246094 32.644531 39.417969 32.644531 38.617188 L 31.382812 38.617188 C 31.382812 40.039062 32.355469 41.21875 33.6875 42.003906 C 35.035156 42.804688 36.84375 43.273438 38.8125 43.273438 Z M 44.980469 38.617188 C 44.980469 39.410156 44.425781 40.246094 43.296875 40.921875 C 42.179688 41.585938 40.59375 42.011719 38.8125 42.011719 L 38.8125 43.273438 C 40.78125 43.273438 42.601562 42.804688 43.9375 42.003906 C 45.269531 41.21875 46.246094 40.039062 46.246094 38.617188 Z M 44.980469 38.617188 " fill-opacity="1" fill-rule="nonzero"/><path fill="#edecd8" d="M 48.863281 29.8125 C 48.863281 31.097656 47.402344 32.128906 45.601562 32.128906 C 43.796875 32.128906 42.335938 31.085938 42.335938 29.8125 C 42.335938 28.542969 43.796875 27.496094 45.601562 27.496094 C 47.402344 27.496094 48.863281 28.542969 48.863281 29.8125 Z M 48.863281 29.8125 " fill-opacity="1" fill-rule="nonzero"/><path fill="#82af40" d="M 45.59375 28.132812 C 46.378906 28.132812 47.066406 28.363281 47.539062 28.691406 C 48.011719 29.027344 48.226562 29.433594 48.226562 29.8125 L 49.492188 29.8125 C 49.492188 28.917969 48.976562 28.167969 48.273438 27.660156 C 47.5625 27.152344 46.609375 26.859375 45.59375 26.859375 Z M 42.957031 29.8125 C 42.957031 29.433594 43.175781 29.027344 43.648438 28.691406 C 44.117188 28.355469 44.800781 28.132812 45.59375 28.132812 L 45.59375 26.867188 C 44.574219 26.867188 43.625 27.160156 42.914062 27.667969 C 42.203125 28.167969 41.695312 28.925781 41.695312 29.820312 L 42.957031 29.820312 Z M 45.59375 31.496094 C 44.808594 31.496094 44.117188 31.261719 43.648438 30.933594 C 43.175781 30.597656 42.957031 30.195312 42.957031 29.8125 L 41.695312 29.8125 C 41.695312 30.710938 42.210938 31.457031 42.914062 31.964844 C 43.625 32.472656 44.574219 32.765625 45.59375 32.765625 Z M 48.226562 29.8125 C 48.226562 30.203125 48.011719 30.605469 47.539062 30.933594 C 47.066406 31.269531 46.386719 31.496094 45.59375 31.496094 L 45.59375 32.757812 C 46.609375 32.757812 47.5625 32.46875 48.273438 31.964844 C 48.984375 31.464844 49.492188 30.710938 49.492188 29.8125 Z M 48.226562 29.8125 " fill-opacity="1" fill-rule="nonzero"/><path fill="#edecd8" d="M 47.21875 85.679688 C 47.21875 86.964844 45.757812 87.996094 43.953125 87.996094 C 42.152344 87.996094 40.691406 86.949219 40.691406 85.679688 C 40.691406 84.40625 42.152344 83.359375 43.953125 83.359375 C 45.757812 83.359375 47.21875 84.40625 47.21875 85.679688 Z M 47.21875 85.679688 " fill-opacity="1" fill-rule="nonzero"/><path fill="#82af40" d="M 43.953125 83.996094 C 44.738281 83.996094 45.429688 84.226562 45.898438 84.554688 C 46.371094 84.894531 46.589844 85.296875 46.589844 85.679688 L 47.851562 85.679688 C 47.851562 84.78125 47.335938 84.035156 46.632812 83.523438 C 45.921875 83.015625 44.972656 82.726562 43.953125 82.726562 Z M 41.320312 85.679688 C 41.320312 85.296875 41.535156 84.894531 42.007812 84.554688 C 42.480469 84.21875 43.160156 83.996094 43.953125 83.996094 L 43.953125 82.734375 C 42.9375 82.734375 41.984375 83.023438 41.273438 83.53125 C 40.5625 84.035156 40.054688 84.789062 40.054688 85.683594 L 41.320312 85.683594 Z M 43.953125 87.367188 C 43.167969 87.367188 42.480469 87.136719 42.007812 86.804688 C 41.535156 86.46875 41.320312 86.066406 41.320312 85.683594 L 40.054688 85.683594 C 40.054688 86.582031 40.570312 87.328125 41.273438 87.835938 C 41.984375 88.347656 42.9375 88.636719 43.953125 88.636719 Z M 46.589844 85.679688 C 46.589844 86.066406 46.371094 86.46875 45.898438 86.800781 C 45.429688 87.136719 44.746094 87.359375 43.953125 87.359375 L 43.953125 88.621094 C 44.972656 88.621094 45.921875 88.332031 46.632812 87.832031 C 47.34375 87.328125 47.851562 86.574219 47.851562 85.679688 Z M 46.589844 85.679688 " fill-opacity="1" fill-rule="nonzero"/><path fill="#edecd8" d="M 88.46875 30.90625 C 88.46875 32.191406 87.007812 33.222656 85.207031 33.222656 C 83.402344 33.222656 81.941406 32.175781 81.941406 30.90625 C 81.941406 29.632812 83.402344 28.585938 85.207031 28.585938 C 87.007812 28.585938 88.46875 29.632812 88.46875 30.90625 Z M 88.46875 30.90625 " fill-opacity="1" fill-rule="nonzero"/><path fill="#82af40" d="M 85.207031 29.222656 C 85.992188 29.222656 86.679688 29.453125 87.152344 29.785156 C 87.621094 30.121094 87.839844 30.523438 87.839844 30.90625 L 89.105469 30.90625 C 89.105469 30.007812 88.589844 29.261719 87.882812 28.753906 C 87.171875 28.242188 86.222656 27.953125 85.207031 27.953125 Z M 82.570312 30.90625 C 82.570312 30.523438 82.789062 30.121094 83.257812 29.785156 C 83.730469 29.445312 84.414062 29.222656 85.207031 29.222656 L 85.207031 27.960938 C 84.1875 27.960938 83.238281 28.25 82.527344 28.757812 C 81.816406 29.261719 81.304688 30.015625 81.304688 30.914062 L 82.570312 30.914062 Z M 85.207031 32.585938 C 84.417969 32.585938 83.730469 32.355469 83.257812 32.027344 C 82.789062 31.691406 82.570312 31.285156 82.570312 30.90625 L 81.304688 30.90625 C 81.304688 31.800781 81.824219 32.550781 82.527344 33.058594 C 83.238281 33.566406 84.1875 33.855469 85.207031 33.855469 Z M 87.832031 30.90625 C 87.832031 31.292969 87.617188 31.695312 87.144531 32.027344 C 86.671875 32.363281 85.992188 32.585938 85.199219 32.585938 L 85.199219 33.847656 C 86.214844 33.847656 87.167969 33.558594 87.878906 33.058594 C 88.589844 32.554688 89.097656 31.800781 89.097656 30.90625 Z M 87.832031 30.90625 " fill-opacity="1" fill-rule="nonzero"/><path fill="#edecd8" d="M 37.929688 28.453125 C 37.929688 29.738281 36.46875 30.769531 34.667969 30.769531 C 32.863281 30.769531 31.402344 29.722656 31.402344 28.453125 C 31.402344 27.183594 32.863281 26.136719 34.667969 26.136719 C 36.46875 26.136719 37.929688 27.183594 37.929688 28.453125 Z M 37.929688 28.453125 " fill-opacity="1" fill-rule="nonzero"/><path fill="#82af40" d="M 34.667969 26.769531 C 35.453125 26.769531 36.140625 27.003906 36.613281 27.332031 C 37.082031 27.667969 37.300781 28.070312 37.300781 28.453125 L 38.566406 28.453125 C 38.566406 27.554688 38.050781 26.808594 37.347656 26.300781 C 36.636719 25.792969 35.683594 25.5 34.667969 25.5 Z M 32.03125 28.453125 C 32.03125 28.070312 32.25 27.667969 32.722656 27.332031 C 33.191406 26.996094 33.875 26.769531 34.667969 26.769531 L 34.667969 25.507812 C 33.648438 25.507812 32.699219 25.800781 31.988281 26.308594 C 31.277344 26.808594 30.765625 27.5625 30.765625 28.460938 L 32.03125 28.460938 Z M 34.667969 30.136719 C 33.878906 30.136719 33.191406 29.902344 32.722656 29.574219 C 32.25 29.238281 32.03125 28.835938 32.03125 28.453125 L 30.765625 28.453125 C 30.765625 29.351562 31.285156 30.097656 31.988281 30.605469 C 32.699219 31.113281 33.648438 31.40625 34.667969 31.40625 Z M 37.300781 28.453125 C 37.300781 28.839844 37.082031 29.246094 36.613281 29.574219 C 36.140625 29.910156 35.460938 30.136719 34.667969 30.136719 L 34.667969 31.398438 C 35.683594 31.398438 36.636719 31.105469 37.347656 30.605469 C 38.058594 30.105469 38.566406 29.351562 38.566406 28.453125 Z M 37.300781 28.453125 " fill-opacity="1" fill-rule="nonzero"/><path fill="#edecd8" d="M 30.140625 34.378906 C 30.140625 35.628906 28.679688 36.636719 26.875 36.636719 C 25.074219 36.636719 23.613281 35.628906 23.613281 34.378906 C 23.613281 33.132812 25.074219 32.121094 26.875 32.121094 C 28.679688 32.121094 30.140625 33.132812 30.140625 34.378906 Z M 30.140625 34.378906 " fill-opacity="1" fill-rule="nonzero"/><path fill="#82af40" d="M 26.867188 32.757812 C 27.660156 32.757812 28.351562 32.984375 28.820312 33.304688 C 29.292969 33.632812 29.503906 34.023438 29.503906 34.378906 L 30.765625 34.378906 C 30.765625 33.492188 30.242188 32.75 29.539062 32.265625 C 28.828125 31.773438 27.886719 31.496094 26.867188 31.496094 Z M 24.234375 34.378906 C 24.234375 34.023438 24.445312 33.632812 24.914062 33.304688 C 25.386719 32.976562 26.074219 32.757812 26.867188 32.757812 L 26.867188 31.496094 C 25.851562 31.496094 24.90625 31.777344 24.195312 32.265625 C 23.484375 32.75 22.96875 33.492188 22.96875 34.378906 Z M 26.867188 36.007812 C 26.074219 36.007812 25.386719 35.785156 24.914062 35.464844 C 24.445312 35.136719 24.234375 34.746094 24.234375 34.386719 L 22.96875 34.386719 C 22.96875 35.277344 23.492188 36.015625 24.195312 36.503906 C 24.90625 36.996094 25.851562 37.273438 26.867188 37.273438 Z M 29.503906 34.378906 C 29.503906 34.738281 29.292969 35.128906 28.820312 35.457031 C 28.351562 35.785156 27.660156 36.003906 26.867188 36.003906 L 26.867188 37.265625 C 27.886719 37.265625 28.828125 36.980469 29.539062 36.496094 C 30.25 36.007812 30.765625 35.269531 30.765625 34.378906 Z M 29.503906 34.378906 " fill-opacity="1" fill-rule="nonzero"/><path fill="#edecd8" d="M 34.105469 85.683594 C 34.105469 86.933594 32.644531 87.941406 30.84375 87.941406 C 29.039062 87.941406 27.578125 86.933594 27.578125 85.683594 C 27.578125 84.4375 29.039062 83.429688 30.84375 83.429688 C 32.644531 83.429688 34.105469 84.4375 34.105469 85.683594 Z M 34.105469 85.683594 " fill-opacity="1" fill-rule="nonzero"/><path fill="#82af40" d="M 30.84375 84.054688 C 31.636719 84.054688 32.324219 84.28125 32.796875 84.601562 C 33.265625 84.929688 33.476562 85.320312 33.476562 85.679688 L 34.742188 85.679688 C 34.742188 84.789062 34.21875 84.046875 33.515625 83.5625 C 32.804688 83.070312 31.859375 82.792969 30.84375 82.792969 Z M 28.207031 85.683594 C 28.207031 85.328125 28.417969 84.9375 28.890625 84.609375 C 29.359375 84.28125 30.050781 84.0625 30.84375 84.0625 L 30.84375 82.800781 C 29.824219 82.800781 28.882812 83.085938 28.171875 83.570312 C 27.460938 84.054688 26.941406 84.796875 26.941406 85.683594 Z M 30.84375 87.308594 C 30.050781 87.308594 29.359375 87.082031 28.890625 86.761719 C 28.417969 86.433594 28.207031 86.042969 28.207031 85.683594 L 26.941406 85.683594 C 26.941406 86.574219 27.46875 87.316406 28.171875 87.800781 C 28.882812 88.292969 29.824219 88.570312 30.84375 88.570312 Z M 33.476562 85.683594 C 33.476562 86.042969 33.265625 86.433594 32.796875 86.761719 C 32.324219 87.089844 31.636719 87.308594 30.84375 87.308594 L 30.84375 88.570312 C 31.859375 88.570312 32.804688 88.285156 33.515625 87.800781 C 34.226562 87.316406 34.742188 86.574219 34.742188 85.683594 Z M 33.476562 85.683594 " fill-opacity="1" fill-rule="nonzero"/><path fill="#edecd8" d="M 74.886719 32.617188 C 74.886719 33.863281 73.425781 34.875 71.621094 34.875 C 69.820312 34.875 68.359375 33.863281 68.359375 32.617188 C 68.359375 31.367188 69.820312 30.359375 71.621094 30.359375 C 73.425781 30.359375 74.886719 31.367188 74.886719 32.617188 Z M 74.886719 32.617188 " fill-opacity="1" fill-rule="nonzero"/><path fill="#82af40" d="M 71.613281 30.988281 C 72.40625 30.988281 73.097656 31.210938 73.566406 31.53125 C 74.039062 31.863281 74.25 32.25 74.25 32.609375 L 75.515625 32.609375 C 75.515625 31.71875 74.988281 30.980469 74.285156 30.492188 C 73.574219 30 72.632812 29.722656 71.613281 29.722656 Z M 68.980469 32.617188 C 68.980469 32.257812 69.191406 31.867188 69.660156 31.539062 C 70.132812 31.210938 70.820312 30.996094 71.613281 30.996094 L 71.613281 29.730469 C 70.597656 29.730469 69.652344 30.015625 68.941406 30.5 C 68.230469 30.988281 67.714844 31.726562 67.714844 32.617188 Z M 71.613281 34.238281 C 70.820312 34.238281 70.132812 34.015625 69.660156 33.691406 C 69.191406 33.363281 68.980469 32.976562 68.980469 32.617188 L 67.714844 32.617188 C 67.714844 33.503906 68.238281 34.246094 68.941406 34.730469 C 69.652344 35.226562 70.597656 35.5 71.613281 35.5 Z M 74.25 32.617188 C 74.25 32.976562 74.039062 33.363281 73.566406 33.691406 C 73.097656 34.023438 72.40625 34.238281 71.613281 34.238281 L 71.613281 35.5 C 72.632812 35.5 73.574219 35.21875 74.285156 34.730469 C 74.996094 34.246094 75.515625 33.503906 75.515625 32.617188 Z M 74.25 32.617188 " fill-opacity="1" fill-rule="nonzero"/><path fill="#edecd8" d="M 83.925781 42.152344 C 83.925781 44.375 80.878906 46.183594 77.121094 46.183594 C 73.367188 46.183594 70.320312 44.375 70.320312 42.152344 C 70.320312 39.933594 73.367188 38.125 77.121094 38.125 C 80.878906 38.125 83.925781 39.933594 83.925781 42.152344 Z M 83.925781 42.152344 " fill-opacity="1" fill-rule="nonzero"/><path fill="#82af40" d="M 77.128906 38.761719 C 78.910156 38.761719 80.5 39.195312 81.613281 39.851562 C 82.742188 40.523438 83.296875 41.355469 83.296875 42.152344 L 84.5625 42.152344 C 84.5625 40.734375 83.589844 39.550781 82.257812 38.769531 C 80.910156 37.96875 79.097656 37.496094 77.128906 37.496094 Z M 70.964844 42.152344 C 70.964844 41.363281 71.515625 40.523438 72.648438 39.851562 C 73.761719 39.1875 75.347656 38.761719 77.128906 38.761719 L 77.128906 37.496094 C 75.160156 37.496094 73.34375 37.96875 72.003906 38.769531 C 70.671875 39.550781 69.699219 40.734375 69.699219 42.152344 Z M 77.128906 45.546875 C 75.347656 45.546875 73.761719 45.113281 72.648438 44.457031 C 71.515625 43.785156 70.964844 42.953125 70.964844 42.152344 L 69.699219 42.152344 C 69.699219 43.574219 70.671875 44.753906 72.003906 45.539062 C 73.351562 46.339844 75.160156 46.808594 77.128906 46.808594 Z M 83.296875 42.152344 C 83.296875 42.945312 82.742188 43.785156 81.613281 44.457031 C 80.5 45.121094 78.910156 45.546875 77.128906 45.546875 L 77.128906 46.808594 C 79.097656 46.808594 80.917969 46.339844 82.257812 45.539062 C 83.589844 44.753906 84.5625 43.574219 84.5625 42.152344 Z M 83.296875 42.152344 " fill-opacity="1" fill-rule="nonzero"/><path fill="#edecd8" d="M 44.996094 76.535156 C 44.996094 78.757812 41.949219 80.566406 38.191406 80.566406 C 34.433594 80.566406 31.390625 78.757812 31.390625 76.535156 C 31.390625 74.316406 34.433594 72.507812 38.191406 72.507812 C 41.949219 72.507812 44.996094 74.316406 44.996094 76.535156 Z M 44.996094 76.535156 " fill-opacity="1" fill-rule="nonzero"/><path fill="#82af40" d="M 38.199219 73.144531 C 39.980469 73.144531 41.566406 73.578125 42.683594 74.234375 C 43.8125 74.90625 44.367188 75.738281 44.367188 76.535156 L 45.628906 76.535156 C 45.628906 75.117188 44.65625 73.933594 43.324219 73.152344 C 41.976562 72.351562 40.167969 71.878906 38.199219 71.878906 Z M 32.03125 76.535156 C 32.03125 75.746094 32.585938 74.90625 33.714844 74.234375 C 34.832031 73.570312 36.417969 73.144531 38.199219 73.144531 L 38.199219 71.878906 C 36.230469 71.878906 34.414062 72.351562 33.074219 73.152344 C 31.742188 73.933594 30.765625 75.117188 30.765625 76.535156 Z M 38.199219 79.929688 C 36.417969 79.929688 34.832031 79.496094 33.714844 78.839844 C 32.585938 78.164062 32.03125 77.335938 32.03125 76.535156 L 30.765625 76.535156 C 30.765625 77.957031 31.742188 79.136719 33.074219 79.921875 C 34.417969 80.722656 36.230469 81.191406 38.199219 81.191406 Z M 44.367188 76.535156 C 44.367188 77.328125 43.8125 78.164062 42.683594 78.839844 C 41.566406 79.503906 39.980469 79.929688 38.199219 79.929688 L 38.199219 81.191406 C 40.167969 81.191406 41.984375 80.722656 43.324219 79.921875 C 44.65625 79.136719 45.628906 77.957031 45.628906 76.535156 Z M 44.367188 76.535156 " fill-opacity="1" fill-rule="nonzero"/><path fill="#edecd8" d="M 86.65625 69.578125 C 86.65625 71.796875 83.613281 73.605469 79.855469 73.605469 C 76.097656 73.605469 73.050781 71.796875 73.050781 69.578125 C 73.050781 67.359375 76.097656 65.550781 79.855469 65.550781 C 83.613281 65.550781 86.65625 67.359375 86.65625 69.578125 Z M 86.65625 69.578125 " fill-opacity="1" fill-rule="nonzero"/><path fill="#82af40" d="M 79.863281 66.183594 C 81.644531 66.183594 83.230469 66.617188 84.34375 67.277344 C 85.476562 67.949219 86.027344 68.777344 86.027344 69.578125 L 87.292969 69.578125 C 87.292969 68.15625 86.320312 66.976562 84.988281 66.191406 C 83.640625 65.390625 81.832031 64.921875 79.863281 64.921875 Z M 73.695312 69.578125 C 73.695312 68.785156 74.25 67.949219 75.378906 67.277344 C 76.496094 66.609375 78.082031 66.183594 79.863281 66.183594 L 79.863281 64.921875 C 77.894531 64.921875 76.074219 65.390625 74.734375 66.191406 C 73.402344 66.976562 72.429688 68.15625 72.429688 69.578125 Z M 79.863281 72.972656 C 78.082031 72.972656 76.496094 72.539062 75.378906 71.878906 C 74.25 71.207031 73.695312 70.378906 73.695312 69.578125 L 72.429688 69.578125 C 72.429688 70.996094 73.402344 72.179688 74.734375 72.964844 C 76.082031 73.761719 77.894531 74.234375 79.863281 74.234375 Z M 86.027344 69.578125 C 86.027344 70.371094 85.476562 71.207031 84.34375 71.878906 C 83.230469 72.546875 81.644531 72.972656 79.863281 72.972656 L 79.863281 74.234375 C 81.832031 74.234375 83.648438 73.761719 84.988281 72.964844 C 86.320312 72.179688 87.292969 70.996094 87.292969 69.578125 Z M 86.027344 69.578125 " fill-opacity="1" fill-rule="nonzero"/><path fill="#82af40" d="M 47.1875 52.617188 L 63.316406 52.617188 L 63.316406 54.203125 L 47.1875 54.203125 Z M 47.1875 52.617188 " fill-opacity="1" fill-rule="nonzero"/><path fill="#82af40" d="M 46.371094 56.78125 L 64.667969 56.78125 L 64.667969 58.367188 L 46.371094 58.367188 Z M 46.371094 56.78125 " fill-opacity="1" fill-rule="nonzero"/><path fill="#82af40" d="M 49.785156 58.828125 L 60.84375 58.828125 L 60.84375 60.414062 L 49.785156 60.414062 Z M 49.785156 58.828125 " fill-opacity="1" fill-rule="nonzero"/><path fill="#82af40" d="M 35.863281 37.128906 L 41.304688 37.058594 L 41.3125 37.839844 L 35.875 37.914062 Z M 35.863281 37.128906 " fill-opacity="1" fill-rule="nonzero"/><path fill="#82af40" d="M 34.6875 39.277344 L 42.945312 39.277344 L 42.945312 40.0625 L 34.6875 40.0625 Z M 34.6875 39.277344 " fill-opacity="1" fill-rule="nonzero"/><path fill="#82af40" d="M 74.714844 40.847656 L 79.292969 40.847656 L 79.292969 41.628906 L 74.714844 41.628906 Z M 74.714844 40.847656 " fill-opacity="1" fill-rule="nonzero"/><path fill="#82af40" d="M 72.316406 41.9375 L 81.472656 41.9375 L 81.472656 42.722656 L 72.316406 42.722656 Z M 72.316406 41.9375 " fill-opacity="1" fill-rule="nonzero"/><path fill="#82af40" d="M 77.101562 67.867188 L 82.488281 67.867188 L 82.488281 68.652344 L 77.101562 68.652344 Z M 77.101562 67.867188 " fill-opacity="1" fill-rule="nonzero"/><path fill="#82af40" d="M 76.007812 69.898438 L 83.925781 69.898438 L 83.925781 70.683594 L 76.007812 70.683594 Z M 76.007812 69.898438 " fill-opacity="1" fill-rule="nonzero"/><path fill="#82af40" d="M 35.839844 74.539062 L 40.210938 74.539062 L 40.210938 75.324219 L 35.839844 75.324219 Z M 35.839844 74.539062 " fill-opacity="1" fill-rule="nonzero"/><path fill="#82af40" d="M 34.074219 76.183594 L 42.066406 76.183594 L 42.066406 76.96875 L 34.074219 76.96875 Z M 34.074219 76.183594 " fill-opacity="1" fill-rule="nonzero"/></svg>