<svg xmlns="http://www.w3.org/2000/svg" xmlns:xlink="http://www.w3.org/1999/xlink" width="150" zoomAndPan="magnify" viewBox="0 0 113.04 120.96" height="150" preserveAspectRatio="xMidYMid meet" version="1.0"><defs><clipPath id="00563cd21d"><path d="M 0 0.488281 L 111.550781 0.488281 L 111.550781 112.042969 L 0 112.042969 Z M 0 0.488281 " clip-rule="nonzero"/></clipPath></defs><g clip-path="url(#00563cd21d)"><path fill="#ffffff" d="M 0 0.488281 L 111.550781 0.488281 L 111.550781 112.042969 L 0 112.042969 Z M 0 0.488281 " fill-opacity="1" fill-rule="nonzero"/><path fill="#ffffff" d="M 0 0.488281 L 111.550781 0.488281 L 111.550781 112.042969 L 0 112.042969 Z M 0 0.488281 " fill-opacity="1" fill-rule="nonzero"/></g><path fill="#ededd9" d="M 75.910156 62.46875 C 75.910156 66.871094 72.941406 70.449219 69.265625 70.449219 C 65.589844 70.449219 62.621094 66.871094 62.621094 62.46875 C 62.621094 58.066406 65.589844 54.488281 69.265625 54.488281 C 72.941406 54.488281 75.910156 58.066406 75.910156 62.46875 Z M 75.910156 62.46875 " fill-opacity="1" fill-rule="nonzero"/><path fill="#82af40" d="M 69.265625 55.691406 C 72.078125 55.691406 74.707031 58.507812 74.707031 62.46875 L 77.117188 62.46875 C 77.117188 57.621094 73.804688 53.285156 69.265625 53.285156 Z M 63.824219 62.46875 C 63.824219 58.507812 66.453125 55.691406 69.265625 55.691406 L 69.265625 53.285156 C 64.726562 53.285156 61.414062 57.621094 61.414062 62.46875 Z M 69.265625 69.246094 C 66.453125 69.246094 63.824219 66.433594 63.824219 62.46875 L 61.414062 62.46875 C 61.414062 67.320312 64.726562 71.652344 69.265625 71.652344 Z M 74.699219 62.46875 C 74.699219 66.433594 72.070312 69.246094 69.257812 69.246094 L 69.257812 71.652344 C 73.796875 71.652344 77.109375 67.320312 77.109375 62.46875 Z M 74.699219 62.46875 " fill-opacity="1" fill-rule="nonzero"/><path fill="#ededd9" d="M 85.164062 56.257812 C 83.769531 56.257812 82.632812 57.492188 82.632812 59.027344 L 82.632812 63.574219 L 74.175781 71.59375 C 74.109375 71.660156 74.046875 71.722656 74 71.851562 L 65.671875 71.851562 C 65.324219 71.851562 65.007812 71.894531 64.703125 72.007812 C 64.679688 71.988281 64.65625 71.964844 64.636719 71.941406 L 57.101562 63.847656 L 57.101562 59.695312 C 57.101562 58.128906 55.808594 56.863281 54.214844 56.863281 C 52.625 56.863281 51.335938 58.136719 51.335938 59.695312 C 51.335938 59.695312 51.152344 64.722656 51.488281 65.359375 C 51.746094 66.109375 60.976562 75.535156 60.976562 75.535156 C 61.476562 76.035156 62.785156 85.542969 62.785156 85.542969 C 62.785156 87.128906 64.082031 88.460938 65.6875 88.460938 L 74.015625 88.460938 C 75.609375 88.460938 76.859375 87.101562 76.859375 85.511719 L 76.859375 77.136719 C 76.859375 77.136719 76.949219 76.480469 77.117188 76.328125 L 86.316406 66.5625 C 87.148438 66.117188 87.710938 64.519531 87.710938 63.4375 L 87.710938 59.035156 C 87.710938 57.515625 86.582031 56.265625 85.179688 56.265625 " fill-opacity="1" fill-rule="nonzero"/><path fill="#82af40" d="M 88.914062 59.019531 C 88.914062 56.941406 87.347656 55.050781 85.179688 55.050781 L 85.179688 57.453125 C 85.808594 57.453125 86.503906 58.050781 86.503906 59.019531 Z M 88.914062 63.421875 L 88.914062 59.019531 L 86.503906 59.019531 L 86.503906 63.421875 Z M 86.882812 67.605469 C 87.664062 67.183594 88.15625 66.359375 88.4375 65.683594 C 88.734375 64.964844 88.914062 64.140625 88.914062 63.421875 L 86.503906 63.421875 C 86.503906 63.785156 86.40625 64.300781 86.210938 64.761719 C 86.117188 64.988281 86.011719 65.171875 85.914062 65.308594 C 85.867188 65.375 85.824219 65.421875 85.792969 65.449219 C 85.761719 65.480469 85.738281 65.488281 85.738281 65.488281 L 86.890625 67.605469 Z M 77.988281 77.144531 L 87.1875 67.378906 L 85.429688 65.730469 L 76.230469 75.496094 Z M 76.859375 77.128906 C 77.65625 77.242188 78.054688 77.296875 78.054688 77.296875 C 78.054688 77.296875 78.054688 77.296875 78.054688 77.28125 C 78.054688 77.265625 78.054688 77.25 78.0625 77.230469 C 78.070312 77.183594 78.085938 77.113281 78.101562 77.054688 C 78.117188 76.988281 78.132812 76.949219 78.132812 76.933594 C 78.132812 76.933594 78.132812 76.949219 78.109375 76.980469 C 78.09375 77 78.039062 77.101562 77.933594 77.199219 L 76.289062 75.4375 C 76.03125 75.679688 75.910156 75.980469 75.875 76.078125 C 75.8125 76.230469 75.773438 76.382812 75.746094 76.503906 C 75.714844 76.625 75.691406 76.738281 75.683594 76.8125 C 75.683594 76.851562 75.667969 76.886719 75.667969 76.910156 C 75.667969 76.925781 75.667969 76.933594 75.667969 76.941406 C 75.667969 76.941406 75.667969 76.941406 75.667969 76.949219 C 75.667969 76.949219 75.667969 76.949219 76.867188 77.113281 Z M 78.0625 85.503906 L 78.0625 77.128906 L 75.652344 77.128906 L 75.652344 85.503906 Z M 74.015625 89.65625 C 76.335938 89.65625 78.0625 87.691406 78.0625 85.503906 L 75.652344 85.503906 C 75.652344 86.496094 74.882812 87.25 74.015625 87.25 Z M 65.679688 89.65625 L 74.007812 89.65625 L 74.007812 87.25 L 65.679688 87.25 Z M 61.582031 85.535156 C 61.582031 87.773438 63.398438 89.65625 65.6875 89.65625 L 65.6875 87.25 C 64.765625 87.25 63.992188 86.480469 63.992188 85.535156 Z M 60.117188 76.375 C 60.003906 76.261719 59.960938 76.160156 59.953125 76.15625 C 59.9375 76.132812 59.9375 76.125 59.953125 76.148438 C 59.96875 76.191406 59.996094 76.273438 60.035156 76.410156 C 60.109375 76.683594 60.195312 77.0625 60.292969 77.53125 C 60.484375 78.46875 60.6875 79.6875 60.882812 80.90625 C 61.082031 82.113281 61.253906 83.316406 61.390625 84.210938 C 61.460938 84.65625 61.511719 85.027344 61.550781 85.292969 C 61.566406 85.421875 61.582031 85.527344 61.597656 85.59375 C 61.597656 85.632812 61.605469 85.65625 61.605469 85.671875 C 61.605469 85.679688 61.605469 85.6875 61.605469 85.691406 C 61.605469 85.691406 61.605469 85.691406 62.800781 85.527344 C 63.601562 85.414062 64 85.359375 64 85.359375 C 64 85.359375 64 85.34375 64 85.335938 C 64 85.324219 64 85.292969 63.992188 85.253906 C 63.984375 85.1875 63.96875 85.082031 63.945312 84.953125 C 63.90625 84.6875 63.855469 84.316406 63.785156 83.863281 C 63.65625 82.960938 63.476562 81.753906 63.277344 80.519531 C 63.082031 79.292969 62.871094 78.039062 62.671875 77.054688 C 62.574219 76.5625 62.476562 76.125 62.382812 75.777344 C 62.339844 75.601562 62.285156 75.4375 62.234375 75.285156 C 62.203125 75.207031 62.164062 75.117188 62.121094 75.035156 C 62.082031 74.960938 62 74.816406 61.855469 74.671875 L 60.148438 76.375 Z M 50.34375 65.738281 C 50.394531 65.898438 50.472656 66.027344 50.511719 66.085938 C 50.554688 66.160156 50.609375 66.238281 50.660156 66.304688 C 50.765625 66.441406 50.894531 66.609375 51.039062 66.773438 C 51.335938 67.121094 51.730469 67.570312 52.183594 68.066406 C 53.09375 69.066406 54.285156 70.320312 55.449219 71.546875 C 56.625 72.773438 57.785156 73.984375 58.65625 74.875 C 59.089844 75.320312 59.453125 75.691406 59.710938 75.957031 C 59.839844 76.085938 59.9375 76.191406 60.003906 76.261719 C 60.035156 76.296875 60.066406 76.320312 60.082031 76.335938 C 60.089844 76.34375 60.097656 76.351562 60.105469 76.359375 C 60.105469 76.359375 60.105469 76.359375 60.96875 75.519531 C 61.542969 74.960938 61.832031 74.679688 61.832031 74.679688 C 61.832031 74.679688 61.824219 74.671875 61.808594 74.65625 C 61.792969 74.640625 61.761719 74.609375 61.734375 74.582031 C 61.664062 74.511719 61.566406 74.40625 61.4375 74.277344 C 61.1875 74.019531 60.824219 73.652344 60.390625 73.203125 C 59.519531 72.3125 58.359375 71.109375 57.195312 69.890625 C 56.027344 68.664062 54.851562 67.425781 53.964844 66.449219 C 53.519531 65.957031 53.148438 65.542969 52.890625 65.230469 C 52.761719 65.074219 52.660156 64.957031 52.601562 64.875 C 52.585938 64.851562 52.578125 64.835938 52.570312 64.832031 C 52.570312 64.832031 52.570312 64.824219 52.5625 64.816406 C 52.5625 64.816406 52.5625 64.832031 52.578125 64.839844 C 52.585938 64.851562 52.609375 64.898438 52.632812 64.964844 L 50.351562 65.738281 Z M 51.335938 59.6875 C 50.53125 59.65625 50.132812 59.640625 50.132812 59.640625 C 50.132812 59.640625 50.132812 59.640625 50.132812 59.65625 C 50.132812 59.664062 50.132812 59.679688 50.132812 59.703125 C 50.132812 59.738281 50.132812 59.792969 50.132812 59.867188 C 50.132812 60.011719 50.125 60.207031 50.117188 60.457031 C 50.101562 60.941406 50.09375 61.601562 50.085938 62.28125 C 50.085938 62.953125 50.085938 63.671875 50.125 64.261719 C 50.136719 64.558594 50.160156 64.84375 50.191406 65.085938 C 50.214844 65.277344 50.265625 65.625 50.417969 65.910156 L 52.546875 64.792969 C 52.617188 64.921875 52.601562 64.972656 52.570312 64.769531 C 52.546875 64.617188 52.535156 64.40625 52.519531 64.140625 C 52.488281 63.613281 52.480469 62.953125 52.480469 62.296875 C 52.480469 61.636719 52.496094 61.003906 52.511719 60.527344 C 52.511719 60.292969 52.527344 60.09375 52.527344 59.957031 C 52.527344 59.890625 52.527344 59.835938 52.527344 59.800781 C 52.527344 59.785156 52.527344 59.769531 52.527344 59.761719 C 52.527344 59.761719 52.527344 59.753906 52.527344 59.753906 C 52.527344 59.753906 52.527344 59.753906 51.320312 59.710938 Z M 54.207031 55.664062 C 51.964844 55.664062 50.125 57.453125 50.125 59.695312 L 52.535156 59.695312 C 52.535156 58.816406 53.261719 58.074219 54.207031 58.074219 Z M 58.308594 59.6875 C 58.308594 57.425781 56.449219 55.65625 54.214844 55.65625 L 54.214844 58.058594 C 55.171875 58.058594 55.898438 58.800781 55.898438 59.679688 L 58.308594 59.679688 Z M 58.308594 63.839844 L 58.308594 59.6875 L 55.898438 59.6875 L 55.898438 63.839844 Z M 65.515625 71.117188 L 57.980469 63.023438 L 56.214844 64.664062 L 63.75 72.757812 Z M 65.550781 71.152344 C 65.550781 71.152344 65.53125 71.132812 65.515625 71.117188 C 65.5 71.101562 65.492188 71.09375 65.484375 71.085938 L 63.777344 72.789062 C 63.777344 72.789062 63.800781 72.8125 63.816406 72.824219 C 63.832031 72.839844 63.839844 72.847656 63.847656 72.855469 Z M 65.671875 70.640625 C 65.21875 70.640625 64.742188 70.699219 64.273438 70.882812 L 65.136719 73.128906 C 65.265625 73.082031 65.429688 73.046875 65.671875 73.046875 Z M 74 70.640625 L 65.671875 70.640625 L 65.671875 73.046875 L 74 73.046875 Z M 73.328125 70.738281 C 73.230469 70.835938 73.015625 71.046875 72.871094 71.433594 L 75.136719 72.257812 C 75.136719 72.257812 75.125 72.304688 75.109375 72.328125 C 75.09375 72.355469 75.070312 72.386719 75.054688 72.410156 C 75.039062 72.433594 75.023438 72.457031 75.015625 72.457031 C 75.015625 72.457031 75.015625 72.457031 75.03125 72.441406 Z M 81.808594 62.703125 L 73.351562 70.722656 L 75.007812 72.46875 L 83.46875 64.453125 Z M 81.429688 59.027344 L 81.429688 63.574219 L 83.839844 63.574219 L 83.839844 59.027344 Z M 85.164062 55.058594 C 82.996094 55.058594 81.429688 56.933594 81.429688 59.027344 L 83.839844 59.027344 C 83.839844 58.050781 84.527344 57.460938 85.164062 57.460938 Z M 86.308594 66.554688 L 85.734375 65.496094 L 85.558594 65.585938 L 85.421875 65.730469 L 86.300781 66.554688 Z M 77.109375 76.320312 L 77.925781 77.207031 L 77.988281 77.144531 Z M 76.859375 77.128906 L 75.660156 76.964844 L 75.644531 77.046875 L 75.644531 77.128906 Z M 62.785156 85.535156 L 63.992188 85.535156 L 63.992188 85.449219 L 63.976562 85.367188 L 62.777344 85.535156 Z M 60.96875 75.527344 L 60.105469 76.367188 L 60.109375 76.367188 C 60.109375 76.367188 60.96875 75.527344 60.96875 75.527344 Z M 51.480469 65.351562 L 52.625 64.964844 L 52.59375 64.875 L 52.546875 64.792969 Z M 51.335938 59.6875 L 52.539062 59.730469 L 52.539062 59.710938 C 52.539062 59.710938 52.539062 59.6875 52.539062 59.6875 Z M 57.09375 63.839844 L 55.890625 63.839844 L 55.890625 64.308594 L 56.214844 64.65625 L 57.101562 63.839844 Z M 64.636719 71.941406 L 63.75 72.757812 L 63.765625 72.773438 L 63.777344 72.789062 L 64.636719 71.933594 Z M 64.703125 72.007812 L 63.847656 72.863281 L 64.402344 73.417969 L 65.136719 73.136719 Z M 74 71.84375 L 74 73.046875 L 74.84375 73.046875 L 75.132812 72.25 L 73.996094 71.84375 Z M 74.175781 71.59375 L 73.34375 70.722656 L 73.320312 70.746094 L 74.175781 71.601562 Z M 82.632812 63.574219 L 83.46875 64.445312 L 83.847656 64.089844 L 83.847656 63.574219 Z M 82.632812 63.574219 " fill-opacity="1" fill-rule="nonzero"/><path fill="#82af40" d="M 53.730469 44.988281 L 53.714844 44.988281 L 53.714844 48 L 53.730469 48 Z M 51.496094 44.148438 C 51.957031 44.816406 52.230469 45.625 52.230469 46.492188 L 55.246094 46.492188 C 55.246094 44.988281 54.777344 43.582031 53.972656 42.425781 L 51.503906 44.140625 Z M 48.070312 42.355469 C 49.480469 42.355469 50.730469 43.058594 51.496094 44.148438 L 53.964844 42.425781 C 52.667969 40.578125 50.523438 39.351562 48.078125 39.351562 L 48.078125 42.363281 Z M 43.933594 46.492188 C 43.933594 44.210938 45.789062 42.355469 48.078125 42.355469 L 48.078125 39.34375 C 44.121094 39.34375 40.917969 42.546875 40.917969 46.492188 Z M 48.070312 50.632812 C 45.78125 50.632812 43.925781 48.777344 43.925781 46.492188 L 40.910156 46.492188 C 40.910156 50.441406 44.113281 53.640625 48.070312 53.640625 Z M 51.328125 49.050781 C 50.554688 50.019531 49.386719 50.632812 48.070312 50.632812 L 48.070312 53.640625 C 50.359375 53.640625 52.375 52.566406 53.683594 50.925781 Z M 52.214844 46.492188 C 52.214844 47.46875 51.882812 48.355469 51.328125 49.050781 L 53.683594 50.925781 C 54.65625 49.707031 55.222656 48.164062 55.222656 46.492188 L 52.207031 46.492188 Z M 53.730469 46.492188 L 53.730469 48 L 55.238281 48 L 55.238281 46.492188 Z M 52.730469 43.285156 L 53.964844 42.425781 C 53.964844 42.425781 52.730469 43.285156 52.730469 43.285156 Z M 52.511719 49.988281 L 53.691406 50.925781 C 53.691406 50.925781 52.511719 49.988281 52.511719 49.988281 Z M 53.722656 46.492188 L 53.722656 44.988281 L 52.214844 44.988281 L 52.214844 46.492188 Z M 53.722656 46.492188 " fill-opacity="1" fill-rule="nonzero"/><path fill="#82af40" d="M 43.636719 66.101562 L 53.320312 66.101562 L 53.320312 68.96875 L 43.636719 68.96875 Z M 43.636719 66.101562 " fill-opacity="1" fill-rule="nonzero"/><path fill="#82af40" d="M 52.546875 53.792969 C 52.988281 53.792969 53.285156 53.9375 53.535156 54.269531 C 53.828125 54.679688 54.140625 55.527344 54.140625 57.121094 L 57.011719 57.121094 C 57.011719 55.230469 56.65625 53.6875 55.859375 52.589844 C 55.011719 51.417969 53.796875 50.925781 52.546875 50.925781 Z M 43.628906 53.792969 L 52.546875 53.792969 L 52.546875 50.925781 L 43.628906 50.925781 Z M 42 56.230469 C 41.960938 55.253906 42.226562 54.648438 42.515625 54.308594 C 42.804688 53.96875 43.191406 53.800781 43.628906 53.800781 L 43.628906 50.933594 C 42.378906 50.933594 41.179688 51.457031 40.332031 52.453125 C 39.492188 53.445312 39.066406 54.800781 39.136719 56.351562 Z M 42 56.230469 " fill-opacity="1" fill-rule="nonzero"/><path fill="#82af40" d="M 47.101562 29.640625 L 47.085938 29.640625 L 47.085938 32.652344 L 47.101562 32.652344 Z M 44.863281 28.792969 C 45.328125 29.457031 45.597656 30.269531 45.597656 31.136719 L 48.617188 31.136719 C 48.617188 29.632812 48.144531 28.226562 47.34375 27.070312 L 44.871094 28.785156 Z M 41.4375 27.007812 C 42.847656 27.007812 44.097656 27.710938 44.863281 28.800781 L 47.335938 27.074219 C 46.039062 25.230469 43.894531 24.003906 41.445312 24.003906 L 41.445312 27.015625 Z M 37.300781 31.136719 C 37.300781 28.855469 39.15625 27 41.445312 27 L 41.445312 23.988281 C 37.492188 23.988281 34.285156 27.1875 34.285156 31.136719 Z M 41.4375 35.277344 C 39.152344 35.277344 37.292969 33.421875 37.292969 31.136719 L 34.277344 31.136719 C 34.277344 35.085938 37.484375 38.277344 41.4375 38.277344 L 41.4375 35.269531 Z M 44.699219 33.703125 C 43.925781 34.671875 42.757812 35.285156 41.4375 35.285156 L 41.4375 38.292969 C 43.726562 38.292969 45.742188 37.21875 47.054688 35.578125 Z M 45.585938 31.136719 C 45.585938 32.113281 45.25 33 44.699219 33.695312 L 47.054688 35.570312 C 48.023438 34.351562 48.59375 32.808594 48.59375 31.136719 L 45.578125 31.136719 Z M 47.101562 31.136719 L 47.101562 32.644531 L 48.609375 32.644531 L 48.609375 31.136719 Z M 46.097656 27.9375 L 47.335938 27.074219 C 47.335938 27.074219 46.097656 27.9375 46.097656 27.9375 Z M 45.878906 34.632812 L 47.0625 35.570312 C 47.0625 35.570312 45.878906 34.632812 45.878906 34.632812 Z M 47.09375 31.136719 L 47.09375 29.632812 L 45.585938 29.632812 L 45.585938 31.136719 Z M 47.09375 31.136719 " fill-opacity="1" fill-rule="nonzero"/><path fill="#82af40" d="M 35.246094 50.789062 L 45.910156 50.789062 L 45.910156 53.65625 L 35.246094 53.65625 Z M 35.246094 50.789062 " fill-opacity="1" fill-rule="nonzero"/><path fill="#82af40" d="M 45.910156 38.476562 C 46.660156 38.476562 47.5 39.164062 47.5 40.417969 L 50.375 40.417969 C 50.375 37.878906 48.53125 35.609375 45.910156 35.609375 Z M 36.992188 38.476562 L 45.910156 38.476562 L 45.910156 35.609375 L 36.992188 35.609375 Z M 35.367188 40.804688 C 35.367188 39.695312 35.648438 39.140625 35.890625 38.882812 C 36.121094 38.640625 36.460938 38.476562 37 38.476562 L 37 35.609375 C 35.847656 35.609375 34.664062 35.980469 33.777344 36.949219 C 32.90625 37.894531 32.503906 39.222656 32.503906 40.804688 L 35.375 40.804688 Z M 35.367188 40.804688 " fill-opacity="1" fill-rule="nonzero"/><path fill="#82af40" d="M 46.128906 60.65625 L 46.113281 60.65625 L 46.113281 63.664062 L 46.128906 63.664062 Z M 43.894531 59.808594 C 44.355469 60.472656 44.628906 61.28125 44.628906 62.152344 L 47.644531 62.152344 C 47.644531 60.648438 47.175781 59.238281 46.371094 58.082031 L 43.902344 59.800781 Z M 40.46875 58.023438 C 41.878906 58.023438 43.128906 58.726562 43.894531 59.816406 L 46.363281 58.089844 C 45.070312 56.246094 42.925781 55.019531 40.476562 55.019531 L 40.476562 58.03125 Z M 36.332031 62.160156 C 36.332031 59.875 38.1875 58.023438 40.476562 58.023438 L 40.476562 55.011719 C 36.519531 55.011719 33.316406 58.210938 33.316406 62.152344 L 36.332031 62.152344 Z M 40.46875 66.289062 C 38.179688 66.289062 36.324219 64.4375 36.324219 62.152344 L 33.308594 62.152344 C 33.308594 66.101562 36.511719 69.300781 40.46875 69.300781 Z M 43.726562 64.71875 C 42.953125 65.683594 41.789062 66.296875 40.46875 66.296875 L 40.46875 69.308594 C 42.757812 69.308594 44.773438 68.234375 46.085938 66.59375 Z M 44.613281 62.160156 C 44.613281 63.136719 44.28125 64.019531 43.726562 64.71875 L 46.085938 66.59375 C 47.054688 65.375 47.621094 63.832031 47.621094 62.160156 L 44.605469 62.160156 Z M 46.128906 62.160156 L 46.128906 63.664062 L 47.636719 63.664062 L 47.636719 62.160156 Z M 45.128906 58.953125 L 46.363281 58.089844 C 46.363281 58.089844 45.128906 58.953125 45.128906 58.953125 Z M 44.910156 65.65625 L 46.09375 66.59375 C 46.09375 66.59375 44.910156 65.65625 44.910156 65.65625 Z M 46.121094 62.160156 L 46.121094 60.65625 L 44.613281 60.65625 L 44.613281 62.160156 Z M 46.121094 62.160156 " fill-opacity="1" fill-rule="nonzero"/><path fill="#82af40" d="M 46.523438 71.433594 L 46.523438 79.738281 L 49.394531 79.738281 L 49.394531 71.433594 Z M 44.933594 69.484375 C 45.683594 69.484375 46.523438 70.171875 46.523438 71.425781 L 49.394531 71.425781 C 49.394531 68.886719 47.554688 66.617188 44.933594 66.617188 Z M 36.011719 69.484375 L 44.933594 69.484375 L 44.933594 66.617188 L 36.011719 66.617188 Z M 34.382812 71.433594 C 34.382812 70.199219 35.246094 69.488281 36.011719 69.488281 L 36.011719 66.625 C 33.429688 66.625 31.519531 68.863281 31.519531 71.433594 L 34.390625 71.433594 Z M 34.382812 79.730469 L 34.382812 71.425781 L 31.511719 71.425781 L 31.511719 79.730469 Z M 36.011719 81.8125 C 35.300781 81.8125 34.382812 81.046875 34.382812 79.738281 L 31.511719 79.738281 C 31.511719 82.234375 33.34375 84.679688 36.003906 84.679688 L 36.003906 81.8125 Z M 44.933594 81.8125 L 36.011719 81.8125 L 36.011719 84.679688 L 44.933594 84.679688 Z M 46.523438 79.730469 C 46.523438 81.0625 45.613281 81.804688 44.933594 81.804688 L 44.933594 84.671875 C 47.601562 84.671875 49.394531 82.207031 49.394531 79.730469 Z M 46.523438 79.730469 " fill-opacity="1" fill-rule="nonzero"/><path fill="#82af40" d="M 38.855469 44.828125 L 38.839844 44.828125 L 38.839844 47.839844 L 38.855469 47.839844 Z M 36.613281 43.984375 C 37.074219 44.648438 37.347656 45.457031 37.347656 46.328125 L 40.363281 46.328125 C 40.363281 44.820312 39.894531 43.414062 39.089844 42.257812 L 36.621094 43.976562 Z M 33.1875 42.199219 C 34.597656 42.199219 35.847656 42.902344 36.613281 43.988281 L 39.082031 42.265625 C 37.785156 40.417969 35.640625 39.195312 33.195312 39.195312 L 33.195312 42.203125 Z M 29.050781 46.335938 C 29.050781 44.050781 30.90625 42.199219 33.195312 42.199219 L 33.195312 39.1875 C 29.238281 39.1875 26.03125 42.386719 26.03125 46.335938 Z M 33.1875 50.464844 C 30.898438 50.464844 29.042969 48.613281 29.042969 46.328125 L 26.023438 46.328125 C 26.023438 50.277344 29.230469 53.476562 33.1875 53.476562 Z M 36.445312 48.890625 C 35.671875 49.859375 34.503906 50.472656 33.1875 50.472656 L 33.1875 53.484375 C 35.476562 53.484375 37.492188 52.410156 38.800781 50.769531 Z M 37.332031 46.335938 C 37.332031 47.3125 37 48.195312 36.445312 48.890625 L 38.800781 50.769531 C 39.773438 49.550781 40.339844 48.007812 40.339844 46.335938 L 37.324219 46.335938 Z M 38.855469 46.335938 L 38.855469 47.839844 L 40.363281 47.839844 L 40.363281 46.335938 Z M 37.847656 43.128906 L 39.082031 42.265625 C 39.082031 42.265625 37.847656 43.128906 37.847656 43.128906 Z M 37.628906 49.828125 L 38.808594 50.769531 C 38.808594 50.769531 37.628906 49.828125 37.628906 49.828125 Z M 38.839844 46.335938 L 38.839844 44.828125 L 37.332031 44.828125 L 37.332031 46.335938 Z M 38.839844 46.335938 " fill-opacity="1" fill-rule="nonzero"/><path fill="#82af40" d="M 37.664062 53.648438 C 37.945312 53.648438 38.265625 53.785156 38.558594 54.195312 C 38.863281 54.609375 39.074219 55.238281 39.074219 55.917969 L 41.945312 55.917969 C 41.945312 54.695312 41.582031 53.46875 40.886719 52.515625 C 40.179688 51.546875 39.074219 50.78125 37.671875 50.78125 L 37.671875 53.648438 Z M 28.746094 53.648438 L 37.664062 53.648438 L 37.664062 50.78125 L 28.746094 50.78125 Z M 27.117188 55.59375 C 27.117188 54.359375 27.980469 53.648438 28.746094 53.648438 L 28.746094 50.78125 C 26.160156 50.78125 24.253906 53.023438 24.253906 55.59375 L 27.125 55.59375 Z M 27.117188 63.898438 L 27.117188 55.59375 L 24.246094 55.59375 L 24.246094 63.898438 Z M 28.746094 65.972656 C 28.035156 65.972656 27.117188 65.207031 27.117188 63.898438 L 24.246094 63.898438 C 24.246094 66.394531 26.078125 68.839844 28.738281 68.839844 L 28.738281 65.972656 Z M 37.664062 65.972656 L 28.746094 65.972656 L 28.746094 68.839844 L 37.664062 68.839844 Z M 37.664062 65.972656 " fill-opacity="1" fill-rule="nonzero"/><path fill="#82af40" d="M 62.113281 29.640625 L 62.097656 29.640625 L 62.097656 32.652344 L 62.113281 32.652344 Z M 59.867188 28.792969 C 60.332031 29.457031 60.605469 30.269531 60.605469 31.136719 L 63.621094 31.136719 C 63.621094 29.632812 63.148438 28.226562 62.347656 27.070312 L 59.875 28.785156 Z M 56.449219 27.007812 C 57.859375 27.007812 59.109375 27.710938 59.875 28.800781 L 62.347656 27.074219 C 61.050781 25.230469 58.90625 24.003906 56.457031 24.003906 L 56.457031 27.015625 Z M 52.304688 31.136719 C 52.304688 28.855469 54.164062 27 56.449219 27 L 56.449219 23.988281 C 52.496094 23.988281 49.289062 27.1875 49.289062 31.136719 Z M 56.449219 35.277344 C 54.164062 35.277344 52.304688 33.421875 52.304688 31.136719 L 49.289062 31.136719 C 49.289062 35.085938 52.496094 38.277344 56.449219 38.277344 L 56.449219 35.269531 Z M 59.710938 33.703125 C 58.9375 34.671875 57.769531 35.285156 56.449219 35.285156 L 56.449219 38.292969 C 58.738281 38.292969 60.753906 37.21875 62.066406 35.578125 Z M 60.597656 31.136719 C 60.597656 32.113281 60.261719 33 59.710938 33.695312 L 62.066406 35.570312 C 63.035156 34.351562 63.605469 32.808594 63.605469 31.136719 L 60.589844 31.136719 Z M 62.113281 31.136719 L 62.113281 32.644531 L 63.621094 32.644531 L 63.621094 31.136719 Z M 61.105469 27.9375 L 62.339844 27.074219 C 62.339844 27.074219 61.105469 27.9375 61.105469 27.9375 Z M 60.882812 34.632812 L 62.066406 35.570312 C 62.066406 35.570312 60.882812 34.632812 60.882812 34.632812 Z M 62.105469 31.136719 L 62.105469 29.632812 L 60.597656 29.632812 L 60.597656 31.136719 Z M 62.105469 31.136719 " fill-opacity="1" fill-rule="nonzero"/><path fill="#82af40" d="M 60.929688 50.789062 L 50.933594 50.789062 L 50.933594 53.65625 L 60.929688 53.65625 Z M 62.519531 48.71875 C 62.519531 50.050781 61.613281 50.789062 60.929688 50.789062 L 60.929688 53.65625 C 63.597656 53.65625 65.394531 51.199219 65.394531 48.71875 Z M 62.519531 40.414062 L 62.519531 48.71875 L 65.394531 48.71875 L 65.394531 40.414062 Z M 60.929688 38.46875 C 61.679688 38.46875 62.519531 39.15625 62.519531 40.414062 L 65.394531 40.414062 C 65.394531 37.871094 63.550781 35.601562 60.929688 35.601562 Z M 52.003906 38.46875 L 60.921875 38.46875 L 60.921875 35.601562 L 52.003906 35.601562 Z M 50.382812 40.414062 C 50.382812 39.171875 51.238281 38.46875 52.011719 38.46875 L 52.011719 35.601562 C 49.410156 35.601562 47.515625 37.847656 47.515625 40.414062 L 50.386719 40.414062 Z M 50.382812 40.414062 " fill-opacity="1" fill-rule="nonzero"/><path fill="#82af40" d="M 69.265625 55.691406 C 72.078125 55.691406 74.707031 58.507812 74.707031 62.46875 L 77.117188 62.46875 C 77.117188 57.621094 73.804688 53.285156 69.265625 53.285156 Z M 63.824219 62.46875 C 63.824219 58.507812 66.453125 55.691406 69.265625 55.691406 L 69.265625 53.285156 C 64.726562 53.285156 61.414062 57.621094 61.414062 62.46875 Z M 69.265625 69.246094 C 66.453125 69.246094 63.824219 66.433594 63.824219 62.46875 L 61.414062 62.46875 C 61.414062 67.320312 64.726562 71.652344 69.265625 71.652344 Z M 74.699219 62.46875 C 74.699219 66.433594 72.070312 69.246094 69.257812 69.246094 L 69.257812 71.652344 C 73.796875 71.652344 77.109375 67.320312 77.109375 62.46875 Z M 74.699219 62.46875 " fill-opacity="1" fill-rule="nonzero"/><path fill="#82af40" d="M 84.359375 55.398438 L 84.347656 55.414062 L 86.050781 57.113281 L 86.066406 57.097656 Z M 88.945312 59.019531 C 88.945312 56.941406 87.378906 55.050781 85.210938 55.050781 L 85.210938 57.453125 C 85.839844 57.453125 86.535156 58.050781 86.535156 59.019531 Z M 88.945312 63.421875 L 88.945312 59.019531 L 86.535156 59.019531 L 86.535156 63.421875 Z M 86.90625 67.605469 C 87.6875 67.183594 88.179688 66.359375 88.460938 65.691406 C 88.765625 64.980469 88.945312 64.148438 88.945312 63.421875 L 86.535156 63.421875 C 86.535156 63.777344 86.429688 64.292969 86.242188 64.753906 C 86.140625 64.980469 86.042969 65.164062 85.9375 65.300781 C 85.890625 65.367188 85.847656 65.414062 85.808594 65.441406 C 85.777344 65.472656 85.753906 65.488281 85.753906 65.480469 L 86.90625 67.597656 Z M 78.003906 77.144531 L 87.210938 67.378906 L 85.453125 65.730469 L 76.246094 75.496094 Z M 76.882812 77.128906 C 77.679688 77.226562 78.078125 77.273438 78.078125 77.273438 C 78.078125 77.273438 78.078125 77.273438 78.078125 77.257812 C 78.078125 77.242188 78.078125 77.230469 78.085938 77.207031 C 78.085938 77.160156 78.101562 77.09375 78.117188 77.03125 C 78.132812 76.964844 78.148438 76.925781 78.148438 76.917969 C 78.148438 76.917969 78.148438 76.933594 78.125 76.972656 C 78.109375 77 78.054688 77.09375 77.941406 77.199219 L 76.296875 75.4375 C 76.03125 75.683594 75.917969 75.988281 75.882812 76.09375 C 75.828125 76.246094 75.78125 76.402344 75.761719 76.515625 C 75.730469 76.636719 75.714844 76.75 75.699219 76.835938 C 75.699219 76.871094 75.683594 76.910156 75.683594 76.933594 C 75.683594 76.949219 75.683594 76.957031 75.683594 76.964844 C 75.683594 76.964844 75.683594 76.964844 75.683594 76.972656 C 75.683594 76.972656 75.683594 76.972656 76.882812 77.121094 Z M 78.085938 85.503906 L 78.085938 77.128906 L 75.675781 77.128906 L 75.675781 85.503906 Z M 74 89.625 C 76.289062 89.625 78.085938 87.734375 78.085938 85.503906 L 75.675781 85.503906 C 75.675781 86.457031 74.910156 87.222656 74 87.222656 Z M 65.671875 89.625 L 74 89.625 L 74 87.222656 L 65.671875 87.222656 Z M 61.582031 85.511719 C 61.582031 87.757812 63.398438 89.621094 65.671875 89.621094 L 65.671875 87.214844 C 64.757812 87.214844 63.992188 86.449219 63.992188 85.511719 Z M 60.117188 76.375 C 60.003906 76.261719 59.960938 76.160156 59.953125 76.15625 C 59.9375 76.132812 59.9375 76.125 59.953125 76.148438 C 59.96875 76.191406 59.996094 76.273438 60.035156 76.410156 C 60.109375 76.683594 60.195312 77.0625 60.292969 77.53125 C 60.484375 78.46875 60.6875 79.679688 60.882812 80.898438 C 61.082031 82.109375 61.253906 83.304688 61.390625 84.195312 C 61.460938 84.640625 61.511719 85.011719 61.550781 85.269531 C 61.566406 85.398438 61.582031 85.503906 61.597656 85.570312 C 61.597656 85.609375 61.605469 85.632812 61.605469 85.648438 C 61.605469 85.65625 61.605469 85.664062 61.605469 85.671875 C 61.605469 85.671875 61.605469 85.671875 62.800781 85.503906 C 63.601562 85.394531 64 85.335938 64 85.335938 C 64 85.335938 64 85.324219 64 85.316406 C 64 85.300781 64 85.269531 63.992188 85.230469 C 63.984375 85.164062 63.96875 85.058594 63.945312 84.929688 C 63.90625 84.664062 63.855469 84.292969 63.785156 83.839844 C 63.65625 82.941406 63.476562 81.730469 63.277344 80.503906 C 63.082031 79.277344 62.871094 78.03125 62.671875 77.046875 C 62.574219 76.554688 62.476562 76.117188 62.382812 75.769531 C 62.339844 75.59375 62.285156 75.429688 62.234375 75.277344 C 62.203125 75.203125 62.164062 75.109375 62.121094 75.027344 C 62.082031 74.953125 62 74.808594 61.855469 74.664062 L 60.148438 76.367188 Z M 50.34375 65.738281 C 50.394531 65.898438 50.472656 66.027344 50.511719 66.085938 C 50.554688 66.160156 50.609375 66.238281 50.660156 66.304688 C 50.765625 66.441406 50.894531 66.609375 51.039062 66.773438 C 51.335938 67.121094 51.730469 67.570312 52.183594 68.066406 C 53.09375 69.066406 54.285156 70.320312 55.449219 71.546875 C 56.625 72.773438 57.785156 73.984375 58.65625 74.875 C 59.089844 75.320312 59.453125 75.691406 59.710938 75.957031 C 59.839844 76.085938 59.9375 76.191406 60.003906 76.261719 C 60.035156 76.296875 60.066406 76.320312 60.082031 76.335938 C 60.089844 76.34375 60.097656 76.351562 60.105469 76.359375 C 60.105469 76.359375 60.390625 76.078125 60.96875 75.519531 C 61.542969 74.960938 61.832031 74.679688 61.832031 74.679688 C 61.832031 74.679688 61.824219 74.671875 61.808594 74.65625 C 61.792969 74.640625 61.761719 74.609375 61.734375 74.582031 C 61.664062 74.511719 61.566406 74.40625 61.4375 74.277344 C 61.1875 74.019531 60.824219 73.652344 60.390625 73.203125 C 59.519531 72.3125 58.359375 71.109375 57.195312 69.890625 C 56.027344 68.664062 54.851562 67.425781 53.964844 66.449219 C 53.519531 65.957031 53.148438 65.542969 52.890625 65.230469 C 52.761719 65.074219 52.660156 64.957031 52.601562 64.875 C 52.585938 64.851562 52.578125 64.835938 52.570312 64.832031 C 52.570312 64.832031 52.570312 64.824219 52.5625 64.816406 C 52.5625 64.816406 52.5625 64.832031 52.578125 64.839844 C 52.585938 64.851562 52.609375 64.898438 52.632812 64.964844 L 50.351562 65.738281 Z M 51.335938 59.703125 C 50.53125 59.671875 50.132812 59.65625 50.132812 59.65625 C 50.132812 59.65625 50.132812 59.65625 50.132812 59.671875 C 50.132812 59.679688 50.132812 59.695312 50.132812 59.714844 C 50.132812 59.753906 50.132812 59.808594 50.132812 59.882812 C 50.132812 60.027344 50.125 60.222656 50.117188 60.464844 C 50.101562 60.949219 50.09375 61.609375 50.085938 62.289062 C 50.085938 62.960938 50.085938 63.679688 50.125 64.269531 C 50.136719 64.566406 50.160156 64.851562 50.191406 65.09375 C 50.214844 65.277344 50.265625 65.632812 50.425781 65.917969 L 52.546875 64.777344 C 52.625 64.914062 52.609375 64.972656 52.578125 64.761719 C 52.554688 64.609375 52.539062 64.398438 52.527344 64.132812 C 52.496094 63.613281 52.488281 62.945312 52.488281 62.289062 C 52.488281 61.628906 52.503906 60.996094 52.519531 60.519531 C 52.519531 60.285156 52.535156 60.085938 52.535156 59.953125 C 52.535156 59.882812 52.535156 59.832031 52.535156 59.792969 C 52.535156 59.777344 52.535156 59.761719 52.535156 59.753906 C 52.535156 59.753906 52.535156 59.746094 52.535156 59.746094 C 52.535156 59.746094 52.535156 59.746094 51.328125 59.703125 Z M 54.207031 55.683594 C 51.972656 55.683594 50.125 57.449219 50.125 59.703125 L 52.535156 59.703125 C 52.535156 58.824219 53.253906 58.089844 54.207031 58.089844 Z M 58.269531 59.679688 C 58.269531 57.417969 56.445312 55.683594 54.207031 55.683594 L 54.207031 58.089844 C 55.164062 58.089844 55.851562 58.800781 55.851562 59.679688 Z M 58.269531 63.832031 L 58.269531 59.679688 L 55.859375 59.679688 L 55.859375 63.832031 Z M 65.507812 71.117188 L 57.953125 63.007812 L 56.1875 64.648438 L 63.742188 72.757812 Z M 65.566406 71.167969 C 65.566406 71.167969 65.53125 71.132812 65.515625 71.125 C 65.5 71.109375 65.492188 71.101562 65.476562 71.09375 C 65.460938 71.078125 65.4375 71.0625 65.4375 71.054688 C 65.429688 71.046875 65.429688 71.046875 65.429688 71.054688 C 65.429688 71.054688 65.429688 71.054688 65.445312 71.0625 C 65.445312 71.0625 65.460938 71.078125 65.476562 71.09375 L 63.769531 72.796875 C 63.769531 72.796875 63.808594 72.832031 63.824219 72.839844 C 63.839844 72.855469 63.847656 72.863281 63.863281 72.871094 C 63.878906 72.886719 63.898438 72.902344 63.898438 72.910156 C 63.90625 72.917969 63.90625 72.917969 63.90625 72.910156 C 63.90625 72.910156 63.90625 72.910156 63.894531 72.902344 C 63.894531 72.902344 63.878906 72.886719 63.863281 72.871094 Z M 65.679688 70.675781 C 65.257812 70.675781 64.785156 70.714844 64.316406 70.882812 L 65.105469 73.160156 C 65.234375 73.113281 65.410156 73.082031 65.679688 73.082031 Z M 74.015625 70.675781 L 65.6875 70.675781 L 65.6875 73.082031 L 74.015625 73.082031 Z M 73.351562 70.761719 C 73.265625 70.84375 73.03125 71.070312 72.886719 71.464844 L 75.152344 72.289062 C 75.152344 72.289062 75.132812 72.34375 75.117188 72.371094 C 75.101562 72.402344 75.085938 72.425781 75.070312 72.449219 C 75.054688 72.46875 75.046875 72.476562 75.039062 72.484375 C 75.039062 72.484375 75.039062 72.484375 75.0625 72.464844 L 73.359375 70.761719 Z M 81.835938 62.703125 L 73.367188 70.746094 L 75.023438 72.492188 L 83.496094 64.453125 Z M 81.464844 59.027344 L 81.464844 63.574219 L 83.875 63.574219 L 83.875 59.027344 Z M 85.203125 55.058594 C 83.035156 55.058594 81.464844 56.933594 81.464844 59.027344 L 83.875 59.027344 C 83.875 58.050781 84.566406 57.460938 85.203125 57.460938 Z M 85.210938 56.253906 L 85.210938 55.050781 L 84.710938 55.050781 L 84.351562 55.40625 L 85.210938 56.257812 Z M 86.332031 66.554688 L 85.753906 65.496094 L 85.582031 65.585938 L 85.445312 65.730469 L 86.324219 66.554688 Z M 77.125 76.320312 L 77.941406 77.207031 L 78.003906 77.144531 Z M 76.882812 77.128906 L 75.683594 76.988281 L 75.683594 77.0625 C 75.683594 77.0625 75.675781 77.136719 75.675781 77.136719 L 76.882812 77.136719 Z M 62.785156 85.511719 L 63.992188 85.511719 L 63.992188 85.429688 L 63.976562 85.34375 L 62.777344 85.511719 Z M 60.96875 75.527344 L 60.105469 76.367188 L 60.109375 76.367188 C 60.109375 76.367188 60.96875 75.527344 60.96875 75.527344 Z M 51.480469 65.351562 L 52.625 64.964844 L 52.59375 64.867188 L 52.546875 64.777344 L 51.488281 65.34375 Z M 51.335938 59.703125 L 52.539062 59.746094 L 52.539062 59.722656 C 52.539062 59.722656 52.539062 59.703125 52.539062 59.703125 Z M 57.066406 63.832031 L 55.859375 63.832031 L 55.859375 64.308594 L 56.1875 64.65625 L 57.074219 63.839844 Z M 64.621094 71.941406 L 63.742188 72.757812 L 63.757812 72.773438 L 63.769531 72.789062 L 64.628906 71.933594 Z M 64.710938 72.015625 L 63.855469 72.871094 L 64.386719 73.402344 L 65.097656 73.152344 L 64.703125 72.015625 Z M 74.015625 71.878906 L 74.015625 73.082031 L 74.859375 73.082031 L 75.144531 72.289062 L 74.007812 71.878906 Z M 74.199219 71.617188 L 73.367188 70.746094 L 73.34375 70.769531 L 74.199219 71.625 Z M 82.671875 63.574219 L 83.503906 64.445312 L 83.875 64.089844 L 83.875 63.574219 Z M 85.203125 56.257812 L 85.203125 57.460938 L 85.703125 57.460938 L 86.058594 57.105469 L 85.203125 56.253906 Z M 85.203125 56.257812 " fill-opacity="1" fill-rule="nonzero"/></svg>