<svg xmlns="http://www.w3.org/2000/svg" xmlns:xlink="http://www.w3.org/1999/xlink" width="150" zoomAndPan="magnify" viewBox="0 0 113.04 120.96" height="150" preserveAspectRatio="xMidYMid meet" version="1.0"><defs><clipPath id="fcf48cc155"><path d="M 0 0.488281 L 111.550781 0.488281 L 111.550781 112.042969 L 0 112.042969 Z M 0 0.488281 " clip-rule="nonzero"/></clipPath></defs><g clip-path="url(#fcf48cc155)"><path fill="#ffffff" d="M 0 0.488281 L 111.550781 0.488281 L 111.550781 112.042969 L 0 112.042969 Z M 0 0.488281 " fill-opacity="1" fill-rule="nonzero"/><path fill="#ffffff" d="M 0 0.488281 L 111.550781 0.488281 L 111.550781 112.042969 L 0 112.042969 Z M 0 0.488281 " fill-opacity="1" fill-rule="nonzero"/></g><path fill="#df4a26" d="M 62.335938 59.882812 L 62.335938 59.859375 L 59.617188 59.859375 L 59.617188 59.882812 Z M 58.511719 56.332031 C 59.214844 57.34375 59.625 58.570312 59.625 59.882812 L 62.34375 59.882812 C 62.34375 57.996094 61.753906 56.242188 60.753906 54.792969 Z M 53.34375 53.628906 C 55.480469 53.628906 57.367188 54.695312 58.519531 56.339844 L 60.753906 54.792969 C 59.121094 52.457031 56.417969 50.929688 53.351562 50.929688 L 53.351562 53.636719 Z M 47.070312 59.867188 C 47.070312 56.417969 49.878906 53.621094 53.34375 53.621094 L 53.34375 50.914062 C 48.382812 50.914062 44.359375 54.921875 44.359375 59.859375 L 47.078125 59.859375 Z M 53.34375 66.113281 C 49.878906 66.113281 47.070312 63.316406 47.070312 59.867188 L 44.351562 59.867188 C 44.351562 64.808594 48.375 68.816406 53.335938 68.816406 L 53.335938 66.105469 Z M 58.273438 63.730469 C 57.113281 65.183594 55.34375 66.113281 53.335938 66.113281 L 53.335938 68.824219 C 56.207031 68.824219 58.753906 67.476562 60.394531 65.421875 L 58.265625 63.742188 Z M 59.625 59.859375 C 59.625 61.316406 59.121094 62.664062 58.273438 63.742188 L 60.410156 65.414062 C 61.617188 63.882812 62.34375 61.957031 62.34375 59.859375 Z M 59.625 55.558594 L 60.746094 54.792969 C 60.746094 54.792969 59.632812 55.558594 59.632812 55.558594 Z M 59.335938 64.578125 L 60.402344 65.421875 C 60.402344 65.421875 59.328125 64.578125 59.328125 64.578125 Z M 59.335938 64.578125 " fill-opacity="1" fill-rule="nonzero"/><path fill="#df4a26" d="M 62.113281 72.34375 L 62.113281 83.53125 L 64.832031 83.53125 L 64.832031 72.34375 Z M 59.375 69.15625 C 60.777344 69.15625 62.113281 70.402344 62.113281 72.34375 L 64.832031 72.34375 C 64.832031 69.175781 62.539062 66.449219 59.375 66.449219 Z M 47.335938 69.15625 L 59.375 69.15625 L 59.375 66.449219 L 47.335938 66.449219 Z M 44.550781 72.34375 C 44.550781 70.425781 45.917969 69.15625 47.335938 69.15625 L 47.335938 66.449219 C 44.199219 66.449219 41.835938 69.15625 41.835938 72.34375 L 44.558594 72.34375 Z M 44.550781 83.53125 L 44.550781 72.34375 L 41.828125 72.34375 L 41.828125 83.53125 Z M 47.335938 86.894531 C 45.980469 86.894531 44.550781 85.523438 44.550781 83.53125 L 41.828125 83.53125 C 41.828125 86.65625 44.132812 89.601562 47.328125 89.601562 L 47.328125 86.894531 Z M 59.375 86.894531 L 47.335938 86.894531 L 47.335938 89.601562 L 59.375 89.601562 Z M 62.113281 83.53125 C 62.113281 85.546875 60.714844 86.894531 59.375 86.894531 L 59.375 89.601562 C 62.59375 89.601562 64.832031 86.628906 64.832031 83.53125 Z M 62.113281 83.53125 " fill-opacity="1" fill-rule="nonzero"/><path fill="#df4a26" d="M 49.703125 40.953125 C 54.015625 40.953125 59.394531 42.832031 63.699219 46.554688 C 67.960938 50.242188 71.125 55.683594 71.132812 62.800781 L 73.851562 62.800781 C 73.835938 54.808594 70.265625 48.648438 65.480469 44.507812 C 60.730469 40.394531 54.726562 38.238281 49.703125 38.246094 Z M 71.125 62.800781 C 71.125 63.550781 71.730469 64.15625 72.484375 64.15625 C 73.234375 64.15625 73.84375 63.550781 73.84375 62.800781 Z M 49.695312 38.246094 C 48.941406 38.246094 48.335938 38.851562 48.335938 39.597656 C 48.335938 40.347656 48.941406 40.953125 49.695312 40.953125 Z M 49.695312 38.246094 " fill-opacity="1" fill-rule="nonzero"/><path fill="#df4a26" d="M 51.503906 36.882812 C 56.28125 36.882812 62.234375 38.96875 66.976562 43.082031 C 71.699219 47.160156 75.1875 53.183594 75.195312 61.054688 L 77.917969 61.054688 C 77.902344 52.308594 73.996094 45.566406 68.761719 41.039062 C 63.554688 36.539062 56.984375 34.171875 51.496094 34.179688 L 51.496094 36.890625 Z M 75.195312 61.054688 C 75.195312 61.804688 75.804688 62.410156 76.554688 62.410156 C 77.308594 62.410156 77.917969 61.804688 77.917969 61.054688 Z M 51.496094 34.179688 C 50.742188 34.179688 50.136719 34.785156 50.136719 35.535156 C 50.136719 36.285156 50.742188 36.890625 51.496094 36.890625 Z M 51.496094 34.179688 " fill-opacity="1" fill-rule="nonzero"/><path fill="#df4a26" d="M 53.777344 32.238281 C 59.046875 32.238281 65.59375 34.539062 70.820312 39.058594 C 76.011719 43.550781 79.859375 50.1875 79.878906 58.847656 L 82.597656 58.847656 C 82.582031 49.304688 78.316406 41.957031 72.605469 37.007812 C 66.921875 32.09375 59.753906 29.519531 53.777344 29.527344 Z M 79.878906 58.847656 C 79.878906 59.597656 80.484375 60.203125 81.238281 60.195312 C 81.988281 60.1875 82.597656 59.589844 82.589844 58.839844 L 79.867188 58.839844 Z M 53.777344 29.535156 C 53.023438 29.535156 52.414062 30.140625 52.414062 30.890625 C 52.414062 31.640625 53.023438 32.246094 53.777344 32.246094 Z M 53.777344 29.535156 " fill-opacity="1" fill-rule="nonzero"/><path fill="#df4a26" d="M 57.878906 27.003906 C 63.386719 26.996094 70.210938 29.402344 75.667969 34.109375 C 81.09375 38.792969 85.101562 45.726562 85.109375 54.761719 L 87.832031 54.761719 C 87.816406 44.847656 83.390625 37.207031 77.453125 32.070312 C 71.546875 26.960938 64.089844 24.285156 57.878906 24.292969 Z M 85.109375 54.761719 C 85.109375 55.511719 85.71875 56.117188 86.46875 56.117188 C 87.222656 56.117188 87.832031 55.511719 87.832031 54.761719 Z M 57.871094 24.292969 C 57.121094 24.292969 56.511719 24.898438 56.519531 25.648438 C 56.519531 26.398438 57.128906 27.003906 57.878906 26.996094 L 57.878906 24.285156 Z M 57.871094 24.292969 " fill-opacity="1" fill-rule="nonzero"/></svg>