<svg xmlns="http://www.w3.org/2000/svg" xmlns:xlink="http://www.w3.org/1999/xlink" width="150" zoomAndPan="magnify" viewBox="0 0 113.04 120.96" height="150" preserveAspectRatio="xMidYMid meet" version="1.0"><defs><clipPath id="cdffa6c839"><path d="M 0 0.488281 L 111.550781 0.488281 L 111.550781 112.042969 L 0 112.042969 Z M 0 0.488281 " clip-rule="nonzero"/></clipPath></defs><g clip-path="url(#cdffa6c839)"><path fill="#ffffff" d="M 0 0.488281 L 111.550781 0.488281 L 111.550781 112.042969 L 0 112.042969 Z M 0 0.488281 " fill-opacity="1" fill-rule="nonzero"/><path fill="#ffffff" d="M 0 0.488281 L 111.550781 0.488281 L 111.550781 112.042969 L 0 112.042969 Z M 0 0.488281 " fill-opacity="1" fill-rule="nonzero"/></g><path fill="#0080bf" d="M 26.578125 83.222656 C 27.457031 83.222656 28.175781 83.945312 28.175781 84.820312 L 30.726562 84.820312 C 30.726562 82.53125 28.867188 80.675781 26.578125 80.675781 Z M 24.988281 84.820312 C 24.988281 83.945312 25.707031 83.222656 26.585938 83.222656 L 26.585938 80.675781 C 24.296875 80.675781 22.4375 82.53125 22.4375 84.820312 Z M 26.578125 86.417969 C 25.699219 86.417969 24.980469 85.699219 24.980469 84.820312 L 22.429688 84.820312 C 22.429688 87.109375 24.289062 88.96875 26.578125 88.96875 Z M 28.175781 84.820312 C 28.175781 85.699219 27.457031 86.417969 26.578125 86.417969 L 26.578125 88.96875 C 28.867188 88.96875 30.726562 87.109375 30.726562 84.820312 Z M 28.175781 84.820312 " fill-opacity="1" fill-rule="nonzero"/><path fill="#f6f3df" d="M 72.515625 58.207031 L 70.589844 58.207031 C 70.507812 58.207031 70.417969 58.230469 70.359375 58.304688 C 70.300781 58.378906 70.285156 58.460938 70.308594 58.550781 C 70.359375 58.757812 70.457031 59.121094 70.457031 59.277344 C 70.457031 59.640625 70.128906 59.925781 69.734375 59.925781 C 69.339844 59.925781 69.011719 59.636719 69.011719 59.269531 C 69.011719 59.101562 69.125 58.75 69.199219 58.566406 C 69.234375 58.484375 69.222656 58.378906 69.175781 58.3125 C 69.125 58.230469 69.027344 58.199219 68.929688 58.199219 L 67.214844 58.199219 C 66.980469 58.199219 66.789062 58.371094 66.789062 58.601562 L 66.789062 60.304688 C 66.582031 60.222656 66.386719 60.148438 66.214844 60.109375 C 66.121094 60.089844 66.007812 60.074219 65.910156 60.074219 C 65.242188 60.074219 64.742188 60.585938 64.742188 61.261719 C 64.742188 61.9375 65.242188 62.445312 65.875 62.445312 C 65.992188 62.445312 66.105469 62.429688 66.222656 62.390625 C 66.394531 62.339844 66.574219 62.273438 66.78125 62.183594 L 66.78125 63.898438 C 66.78125 64.128906 66.976562 64.277344 67.207031 64.277344 L 68.886719 64.277344 C 68.8125 64.488281 68.753906 64.664062 68.714844 64.828125 C 68.632812 65.214844 68.714844 65.59375 68.929688 65.875 C 69.148438 66.15625 69.488281 66.3125 69.867188 66.3125 C 70.246094 66.3125 70.613281 66.144531 70.828125 65.855469 C 71.042969 65.570312 71.109375 65.199219 71 64.804688 C 70.960938 64.65625 70.886719 64.488281 70.8125 64.285156 L 72.515625 64.285156 C 72.746094 64.285156 72.9375 64.136719 72.9375 63.90625 L 72.9375 62.050781 C 72.9375 61.953125 72.878906 61.855469 72.804688 61.804688 C 72.753906 61.78125 72.707031 61.753906 72.648438 61.753906 C 72.597656 61.753906 72.566406 61.753906 72.53125 61.773438 C 72.300781 61.886719 71.898438 62.042969 71.742188 62.042969 C 71.265625 62.042969 71.019531 61.796875 71.019531 61.3125 C 71.019531 60.832031 71.289062 60.554688 71.765625 60.554688 C 71.972656 60.554688 72.335938 60.703125 72.523438 60.785156 C 72.558594 60.808594 72.605469 60.808594 72.640625 60.808594 C 72.695312 60.808594 72.753906 60.792969 72.796875 60.757812 C 72.878906 60.703125 72.945312 60.609375 72.945312 60.511719 L 72.945312 58.566406 C 72.945312 58.335938 72.753906 58.164062 72.523438 58.164062 M 72.539062 58.476562 C 72.613281 58.476562 72.6875 58.527344 72.6875 58.59375 L 72.6875 60.542969 C 72.6875 60.542969 72.136719 60.289062 71.785156 60.289062 C 71.140625 60.289062 70.753906 60.691406 70.753906 61.335938 C 70.753906 61.984375 71.117188 62.363281 71.765625 62.363281 C 72.070312 62.363281 72.6875 62.070312 72.6875 62.070312 L 72.6875 63.929688 C 72.6875 64.003906 72.613281 64.039062 72.539062 64.039062 L 70.375 64.039062 C 70.53125 64.308594 70.679688 64.6875 70.738281 64.933594 C 70.925781 65.601562 70.417969 66.054688 69.882812 66.054688 C 69.347656 66.054688 68.871094 65.601562 69.003906 64.933594 C 69.066406 64.679688 69.199219 64.324219 69.355469 64.039062 L 67.214844 64.039062 C 67.136719 64.039062 67.0625 64.003906 67.0625 63.929688 L 67.0625 61.738281 C 66.78125 61.910156 66.410156 62.066406 66.148438 62.140625 C 66.054688 62.160156 65.964844 62.175781 65.867188 62.175781 C 65.355469 62.175781 65.027344 61.753906 65.027344 61.277344 C 65.027344 60.800781 65.367188 60.378906 65.902344 60.378906 C 65.976562 60.378906 66.054688 60.378906 66.132812 60.398438 C 66.417969 60.460938 66.78125 60.609375 67.058594 60.777344 L 67.058594 58.617188 C 67.058594 58.542969 67.136719 58.5 67.207031 58.5 L 68.921875 58.5 C 68.921875 58.5 68.714844 59.011719 68.714844 59.300781 C 68.714844 59.835938 69.191406 60.238281 69.726562 60.238281 C 70.261719 60.238281 70.738281 59.835938 70.738281 59.300781 C 70.738281 59.046875 70.582031 58.5 70.582031 58.5 L 72.515625 58.5 " fill-opacity="1" fill-rule="nonzero"/><path fill="#0080bf" d="M 73.28125 58.574219 C 73.28125 58.140625 72.917969 57.851562 72.539062 57.851562 L 72.539062 58.484375 C 72.574219 58.484375 72.605469 58.5 72.621094 58.511719 C 72.632812 58.527344 72.640625 58.542969 72.640625 58.566406 L 73.273438 58.566406 Z M 73.28125 60.519531 L 73.28125 58.574219 L 72.648438 58.574219 L 72.648438 60.519531 Z M 72.976562 61.039062 C 73.15625 60.941406 73.28125 60.742188 73.28125 60.519531 L 72.648438 60.519531 C 72.648438 60.519531 72.648438 60.496094 72.648438 60.496094 C 72.648438 60.496094 72.648438 60.496094 72.65625 60.488281 L 72.96875 61.039062 Z M 72.664062 61.128906 C 72.761719 61.128906 72.894531 61.105469 73.015625 61.015625 L 72.632812 60.511719 C 72.632812 60.511719 72.65625 60.496094 72.664062 60.496094 Z M 72.367188 61.046875 C 72.5 61.136719 72.648438 61.121094 72.664062 61.121094 L 72.664062 60.488281 C 72.664062 60.488281 72.648438 60.488281 72.648438 60.488281 C 72.648438 60.488281 72.6875 60.488281 72.714844 60.519531 Z M 71.785156 60.875 C 71.832031 60.875 71.933594 60.898438 72.070312 60.941406 C 72.195312 60.988281 72.320312 61.039062 72.402344 61.078125 L 72.671875 60.503906 C 72.574219 60.460938 72.425781 60.394531 72.269531 60.339844 C 72.128906 60.289062 71.941406 60.238281 71.777344 60.238281 L 71.777344 60.867188 Z M 71.363281 61.308594 C 71.363281 61.121094 71.414062 61.023438 71.46875 60.972656 C 71.519531 60.921875 71.609375 60.867188 71.785156 60.867188 L 71.785156 60.238281 C 71.488281 60.238281 71.214844 60.320312 71.011719 60.527344 C 70.8125 60.726562 70.730469 61.007812 70.730469 61.308594 Z M 71.765625 61.722656 C 71.578125 61.722656 71.496094 61.679688 71.453125 61.632812 C 71.40625 61.589844 71.363281 61.5 71.363281 61.308594 L 70.730469 61.308594 C 70.730469 61.597656 70.804688 61.878906 71.003906 62.078125 C 71.207031 62.28125 71.480469 62.355469 71.773438 62.355469 L 71.773438 61.722656 Z M 72.417969 61.484375 C 72.316406 61.535156 72.164062 61.597656 72.023438 61.648438 C 71.957031 61.671875 71.890625 61.691406 71.839844 61.707031 C 71.777344 61.722656 71.757812 61.722656 71.765625 61.722656 L 71.765625 62.355469 C 71.847656 62.355469 71.933594 62.332031 72.003906 62.316406 C 72.078125 62.292969 72.160156 62.273438 72.242188 62.242188 C 72.394531 62.183594 72.566406 62.117188 72.695312 62.058594 Z M 72.671875 61.433594 C 72.671875 61.433594 72.5 61.425781 72.375 61.507812 L 72.722656 62.035156 C 72.722656 62.035156 72.703125 62.050781 72.6875 62.058594 C 72.671875 62.058594 72.664062 62.058594 72.65625 62.066406 C 72.65625 62.066406 72.648438 62.066406 72.65625 62.066406 C 72.65625 62.066406 72.664062 62.066406 72.679688 62.066406 L 72.679688 61.433594 Z M 72.976562 61.515625 C 72.933594 61.492188 72.820312 61.433594 72.679688 61.433594 L 72.679688 62.066406 C 72.679688 62.066406 72.65625 62.066406 72.65625 62.066406 C 72.65625 62.066406 72.65625 62.066406 72.664062 62.066406 C 72.664062 62.066406 72.679688 62.066406 72.695312 62.078125 Z M 73.28125 62.042969 C 73.28125 61.828125 73.15625 61.632812 73.007812 61.535156 L 72.65625 62.066406 C 72.65625 62.066406 72.65625 62.066406 72.65625 62.050781 L 73.289062 62.050781 Z M 73.28125 63.898438 L 73.28125 62.042969 L 72.648438 62.042969 L 72.648438 63.898438 Z M 72.539062 64.597656 C 72.894531 64.597656 73.28125 64.359375 73.28125 63.90625 L 72.648438 63.90625 C 72.648438 63.90625 72.648438 63.921875 72.648438 63.929688 C 72.648438 63.929688 72.648438 63.929688 72.640625 63.945312 C 72.628906 63.953125 72.597656 63.972656 72.546875 63.972656 L 72.546875 64.605469 Z M 70.835938 64.597656 L 72.539062 64.597656 L 72.539062 63.964844 L 70.835938 63.964844 Z M 71.324219 64.722656 C 71.28125 64.5625 71.199219 64.34375 71.132812 64.175781 L 70.53125 64.382812 C 70.613281 64.621094 70.671875 64.746094 70.699219 64.878906 L 71.316406 64.722656 Z M 71.09375 66.039062 C 71.386719 65.667969 71.453125 65.183594 71.316406 64.710938 L 70.707031 64.878906 C 70.796875 65.183594 70.738281 65.460938 70.597656 65.644531 Z M 69.882812 66.625 C 70.351562 66.625 70.8125 66.417969 71.101562 66.039062 L 70.597656 65.660156 C 70.441406 65.867188 70.171875 65.996094 69.890625 65.996094 L 69.890625 66.625 Z M 68.699219 66.070312 C 68.984375 66.433594 69.421875 66.625 69.890625 66.625 L 69.890625 65.996094 C 69.601562 65.996094 69.355469 65.875 69.207031 65.675781 L 68.707031 66.070312 Z M 68.417969 64.753906 C 68.3125 65.230469 68.417969 65.703125 68.699219 66.0625 L 69.199219 65.667969 C 69.042969 65.46875 68.976562 65.183594 69.042969 64.886719 L 68.425781 64.753906 Z M 68.605469 64.175781 C 68.527344 64.382812 68.460938 64.574219 68.425781 64.753906 L 69.042969 64.894531 C 69.070312 64.753906 69.132812 64.589844 69.207031 64.382812 Z M 67.21875 64.597656 L 68.902344 64.597656 L 68.902344 63.964844 L 67.21875 63.964844 Z M 66.476562 63.898438 C 66.476562 64.351562 66.863281 64.589844 67.21875 64.589844 L 67.21875 63.960938 C 67.167969 63.960938 67.136719 63.945312 67.125 63.929688 C 67.125 63.929688 67.117188 63.921875 67.117188 63.914062 C 67.117188 63.914062 67.117188 63.90625 67.117188 63.890625 L 66.484375 63.890625 Z M 66.476562 62.183594 L 66.476562 63.898438 L 67.109375 63.898438 L 67.109375 62.183594 Z M 66.320312 62.695312 C 66.515625 62.644531 66.707031 62.5625 66.914062 62.480469 L 66.671875 61.894531 C 66.460938 61.984375 66.296875 62.042969 66.140625 62.085938 L 66.3125 62.695312 Z M 65.882812 62.753906 C 66.03125 62.753906 66.171875 62.742188 66.328125 62.695312 L 66.140625 62.085938 C 66.054688 62.109375 65.976562 62.125 65.882812 62.125 Z M 64.429688 61.261719 C 64.429688 62.109375 65.0625 62.761719 65.882812 62.761719 L 65.882812 62.132812 C 65.433594 62.132812 65.0625 61.78125 65.0625 61.269531 L 64.429688 61.269531 Z M 65.917969 59.753906 C 65.0625 59.753906 64.429688 60.414062 64.429688 61.261719 L 65.0625 61.261719 C 65.0625 60.75 65.429688 60.386719 65.910156 60.386719 L 65.910156 59.753906 Z M 66.296875 59.796875 C 66.171875 59.769531 66.039062 59.753906 65.917969 59.753906 L 65.917969 60.386719 C 65.992188 60.386719 66.074219 60.394531 66.148438 60.414062 L 66.304688 59.796875 Z M 66.914062 60.007812 C 66.707031 59.917969 66.492188 59.835938 66.289062 59.796875 L 66.15625 60.421875 C 66.296875 60.453125 66.46875 60.519531 66.675781 60.601562 L 66.921875 60.015625 Z M 66.476562 58.59375 L 66.476562 60.296875 L 67.109375 60.296875 L 67.109375 58.59375 Z M 67.21875 57.882812 C 66.839844 57.882812 66.476562 58.171875 66.476562 58.601562 L 67.109375 58.601562 C 67.109375 58.601562 67.117188 58.566406 67.132812 58.550781 C 67.144531 58.535156 67.175781 58.519531 67.214844 58.519531 L 67.214844 57.890625 Z M 68.9375 57.882812 L 67.21875 57.882812 L 67.21875 58.511719 L 68.9375 58.511719 Z M 69.457031 58.148438 C 69.324219 57.910156 69.066406 57.882812 68.9375 57.882812 L 68.9375 58.511719 C 68.9375 58.511719 68.960938 58.511719 68.960938 58.511719 C 68.960938 58.511719 68.945312 58.511719 68.9375 58.5 C 68.921875 58.492188 68.914062 58.476562 68.910156 58.460938 Z M 69.496094 58.683594 C 69.578125 58.5 69.546875 58.28125 69.445312 58.125 L 68.914062 58.476562 C 68.914062 58.476562 68.914062 58.460938 68.910156 58.453125 C 68.910156 58.453125 68.910156 58.4375 68.910156 58.429688 Z M 69.339844 59.261719 C 69.339844 59.226562 69.355469 59.128906 69.390625 58.996094 C 69.429688 58.878906 69.464844 58.75 69.496094 58.667969 L 68.910156 58.429688 C 68.863281 58.535156 68.820312 58.675781 68.78125 58.824219 C 68.746094 58.957031 68.707031 59.121094 68.707031 59.257812 L 69.339844 59.257812 Z M 69.742188 59.605469 C 69.496094 59.605469 69.339844 59.425781 69.339844 59.261719 L 68.707031 59.261719 C 68.707031 59.835938 69.207031 60.238281 69.742188 60.238281 Z M 70.144531 59.277344 C 70.144531 59.433594 69.996094 59.605469 69.742188 59.605469 L 69.742188 60.238281 C 70.269531 60.238281 70.773438 59.851562 70.773438 59.277344 Z M 70 58.625 C 70.03125 58.734375 70.0625 58.871094 70.089844 59.003906 C 70.121094 59.144531 70.136719 59.242188 70.136719 59.277344 L 70.769531 59.277344 C 70.769531 59.160156 70.738281 58.996094 70.707031 58.863281 C 70.679688 58.722656 70.640625 58.566406 70.617188 58.476562 Z M 70.113281 58.105469 C 69.980469 58.269531 69.949219 58.460938 70 58.640625 L 70.613281 58.46875 C 70.613281 58.46875 70.613281 58.46875 70.613281 58.492188 C 70.613281 58.503906 70.605469 58.511719 70.597656 58.519531 L 70.105469 58.113281 Z M 70.589844 57.890625 C 70.449219 57.890625 70.253906 57.933594 70.113281 58.097656 L 70.605469 58.503906 C 70.605469 58.503906 70.589844 58.519531 70.582031 58.519531 C 70.582031 58.519531 70.582031 58.519531 70.589844 58.519531 Z M 72.515625 57.890625 L 70.589844 57.890625 L 70.589844 58.519531 L 72.515625 58.519531 Z M 70.589844 58.804688 L 72.523438 58.804688 L 72.523438 58.171875 L 70.589844 58.171875 Z M 71.066406 59.292969 C 71.066406 59.121094 71.011719 58.890625 70.976562 58.722656 C 70.953125 58.632812 70.929688 58.550781 70.917969 58.5 C 70.910156 58.46875 70.902344 58.445312 70.894531 58.429688 C 70.894531 58.425781 70.894531 58.417969 70.894531 58.410156 C 70.894531 58.410156 70.894531 58.410156 70.589844 58.5 L 70.285156 58.585938 C 70.285156 58.585938 70.285156 58.59375 70.285156 58.601562 C 70.285156 58.617188 70.292969 58.640625 70.300781 58.660156 C 70.3125 58.714844 70.328125 58.789062 70.351562 58.871094 C 70.386719 59.039062 70.425781 59.210938 70.425781 59.292969 Z M 69.742188 60.542969 C 70.417969 60.542969 71.074219 60.027344 71.074219 59.285156 L 70.441406 59.285156 C 70.441406 59.613281 70.144531 59.902344 69.75 59.902344 L 69.75 60.535156 Z M 68.410156 59.292969 C 68.410156 60.035156 69.058594 60.550781 69.742188 60.550781 L 69.742188 59.917969 C 69.347656 59.917969 69.050781 59.628906 69.050781 59.300781 L 68.417969 59.300781 Z M 68.9375 58.492188 L 68.640625 58.371094 C 68.640625 58.371094 68.640625 58.378906 68.640625 58.394531 C 68.640625 58.410156 68.625 58.429688 68.617188 58.460938 C 68.597656 58.519531 68.566406 58.59375 68.542969 58.683594 C 68.492188 58.847656 68.425781 59.09375 68.425781 59.292969 L 69.058594 59.292969 C 69.058594 59.203125 69.09375 59.039062 69.148438 58.878906 C 69.167969 58.804688 69.191406 58.734375 69.214844 58.683594 C 69.222656 58.660156 69.226562 58.640625 69.234375 58.625 C 69.234375 58.625 69.234375 58.609375 69.234375 58.609375 C 69.234375 58.609375 69.234375 58.609375 68.9375 58.492188 Z M 67.21875 58.804688 L 68.9375 58.804688 L 68.9375 58.171875 L 67.21875 58.171875 Z M 67.390625 58.609375 C 67.390625 58.707031 67.332031 58.757812 67.308594 58.78125 C 67.289062 58.796875 67.257812 58.808594 67.21875 58.808594 L 67.21875 58.179688 C 67.117188 58.179688 67.011719 58.214844 66.9375 58.277344 C 66.855469 58.335938 66.757812 58.445312 66.757812 58.617188 L 67.390625 58.617188 Z M 67.390625 60.773438 L 67.390625 58.609375 L 66.757812 58.609375 L 66.757812 60.773438 Z M 66.082031 60.703125 C 66.328125 60.757812 66.65625 60.890625 66.90625 61.046875 L 67.234375 60.503906 C 66.929688 60.320312 66.527344 60.15625 66.207031 60.089844 L 66.074219 60.703125 Z M 65.917969 60.691406 C 65.992188 60.691406 66.023438 60.691406 66.058594 60.703125 L 66.230469 60.09375 C 66.097656 60.058594 65.984375 60.058594 65.910156 60.058594 L 65.910156 60.691406 Z M 65.359375 61.269531 C 65.359375 60.941406 65.585938 60.691406 65.917969 60.691406 L 65.917969 60.058594 C 65.183594 60.058594 64.722656 60.652344 64.722656 61.277344 L 65.355469 61.277344 Z M 65.882812 61.855469 C 65.585938 61.855469 65.359375 61.609375 65.359375 61.277344 L 64.730469 61.277344 C 64.730469 61.886719 65.160156 62.496094 65.890625 62.496094 L 65.890625 61.863281 Z M 66.082031 61.828125 C 66.007812 61.847656 65.949219 61.855469 65.882812 61.855469 L 65.882812 62.488281 C 66.007812 62.488281 66.121094 62.472656 66.238281 62.445312 Z M 66.90625 61.460938 C 66.65625 61.617188 66.304688 61.765625 66.074219 61.828125 L 66.246094 62.4375 C 66.527344 62.355469 66.929688 62.183594 67.234375 61.996094 L 66.90625 61.457031 Z M 67.390625 63.921875 L 67.390625 61.730469 L 66.757812 61.730469 L 66.757812 63.921875 Z M 67.21875 63.714844 C 67.21875 63.714844 67.257812 63.714844 67.292969 63.734375 C 67.316406 63.75 67.339844 63.773438 67.363281 63.804688 C 67.382812 63.839844 67.390625 63.878906 67.390625 63.914062 L 66.757812 63.914062 C 66.757812 64.070312 66.847656 64.195312 66.945312 64.261719 C 67.035156 64.324219 67.136719 64.34375 67.21875 64.34375 Z M 69.363281 63.714844 L 67.21875 63.714844 L 67.21875 64.34375 L 69.363281 64.34375 Z M 69.316406 65 C 69.371094 64.769531 69.496094 64.449219 69.636719 64.195312 L 69.085938 63.882812 C 68.914062 64.1875 68.765625 64.566406 68.699219 64.859375 L 69.316406 65.007812 Z M 69.882812 65.71875 C 69.703125 65.71875 69.539062 65.644531 69.4375 65.519531 C 69.332031 65.398438 69.273438 65.222656 69.316406 64.976562 L 68.691406 64.851562 C 68.609375 65.273438 68.714844 65.652344 68.953125 65.929688 C 69.183594 66.195312 69.527344 66.34375 69.882812 66.34375 L 69.882812 65.710938 Z M 70.433594 65.007812 C 70.5 65.246094 70.433594 65.414062 70.34375 65.527344 C 70.238281 65.644531 70.070312 65.726562 69.890625 65.726562 L 69.890625 66.359375 C 70.246094 66.359375 70.589844 66.210938 70.828125 65.941406 C 71.066406 65.660156 71.167969 65.273438 71.050781 64.84375 L 70.441406 65.007812 Z M 70.097656 64.195312 C 70.238281 64.433594 70.375 64.785156 70.425781 65 L 71.042969 64.84375 C 70.976562 64.574219 70.820312 64.167969 70.640625 63.871094 L 70.089844 64.1875 Z M 72.539062 63.714844 L 70.375 63.714844 L 70.375 64.34375 L 72.539062 64.34375 Z M 72.367188 63.921875 C 72.367188 63.921875 72.375 63.847656 72.394531 63.808594 C 72.417969 63.773438 72.441406 63.75 72.464844 63.742188 C 72.5 63.722656 72.53125 63.722656 72.539062 63.722656 L 72.539062 64.351562 C 72.621094 64.351562 72.722656 64.332031 72.8125 64.269531 C 72.917969 64.203125 73 64.085938 73 63.921875 Z M 72.367188 62.066406 L 72.367188 63.921875 L 73 63.921875 L 73 62.066406 Z M 71.765625 62.671875 C 71.882812 62.671875 72.007812 62.644531 72.121094 62.613281 C 72.234375 62.585938 72.351562 62.539062 72.457031 62.503906 C 72.558594 62.464844 72.648438 62.429688 72.714844 62.398438 C 72.746094 62.382812 72.777344 62.367188 72.796875 62.363281 C 72.804688 62.363281 72.8125 62.355469 72.820312 62.355469 L 72.6875 62.066406 L 72.550781 61.773438 C 72.550781 61.773438 72.546875 61.773438 72.539062 61.78125 C 72.523438 61.78125 72.5 61.796875 72.472656 61.8125 C 72.410156 61.835938 72.328125 61.871094 72.242188 61.910156 C 72.152344 61.945312 72.054688 61.976562 71.964844 61.996094 C 71.875 62.019531 71.808594 62.035156 71.773438 62.035156 L 71.773438 62.667969 Z M 70.433594 61.335938 C 70.433594 61.714844 70.542969 62.066406 70.789062 62.308594 C 71.035156 62.5625 71.378906 62.671875 71.765625 62.671875 L 71.765625 62.042969 C 71.503906 62.042969 71.339844 61.96875 71.242188 61.871094 C 71.148438 61.773438 71.074219 61.605469 71.074219 61.34375 L 70.441406 61.34375 Z M 71.785156 59.96875 C 71.398438 59.96875 71.050781 60.089844 70.796875 60.347656 C 70.550781 60.601562 70.433594 60.949219 70.433594 61.335938 L 71.066406 61.335938 C 71.066406 61.078125 71.140625 60.90625 71.25 60.792969 C 71.355469 60.683594 71.527344 60.609375 71.785156 60.609375 Z M 72.6875 60.542969 L 72.820312 60.25 C 72.820312 60.25 72.804688 60.25 72.796875 60.246094 C 72.78125 60.238281 72.753906 60.222656 72.722656 60.214844 C 72.664062 60.191406 72.574219 60.15625 72.476562 60.117188 C 72.292969 60.050781 72.023438 59.96875 71.785156 59.96875 L 71.785156 60.601562 C 71.90625 60.601562 72.085938 60.644531 72.261719 60.710938 C 72.34375 60.742188 72.417969 60.773438 72.472656 60.792969 C 72.5 60.800781 72.515625 60.816406 72.53125 60.824219 C 72.53125 60.824219 72.546875 60.824219 72.546875 60.824219 C 72.546875 60.824219 72.546875 60.824219 72.679688 60.535156 Z M 72.367188 58.59375 L 72.367188 60.542969 L 73 60.542969 L 73 58.59375 Z M 72.539062 58.796875 C 72.539062 58.796875 72.476562 58.789062 72.441406 58.757812 C 72.402344 58.730469 72.367188 58.675781 72.367188 58.59375 L 73 58.59375 C 73 58.445312 72.917969 58.328125 72.828125 58.253906 C 72.738281 58.1875 72.632812 58.15625 72.53125 58.15625 L 72.53125 58.789062 Z M 72.820312 60.765625 L 72.664062 60.488281 L 72.632812 60.511719 L 72.828125 60.765625 Z M 72.539062 60.785156 L 72.714844 60.519531 L 72.695312 60.503906 L 72.671875 60.503906 C 72.671875 60.503906 72.539062 60.777344 72.539062 60.777344 Z M 72.550781 61.773438 L 72.6875 62.066406 L 72.707031 62.066406 C 72.707031 62.066406 72.730469 62.042969 72.730469 62.042969 Z M 72.835938 61.796875 L 73.015625 61.53125 L 72.976562 61.515625 Z M 70.835938 64.277344 L 70.835938 63.960938 L 70.386719 63.960938 L 70.539062 64.382812 Z M 71.019531 64.796875 L 70.714844 64.871094 C 70.714844 64.871094 71.019531 64.796875 71.019531 64.796875 Z M 70.847656 65.847656 L 70.597656 65.652344 C 70.597656 65.652344 70.847656 65.847656 70.847656 65.847656 Z M 68.730469 64.820312 L 68.417969 64.746094 C 68.417969 64.746094 68.730469 64.820312 68.730469 64.820312 Z M 68.902344 64.277344 L 69.199219 64.382812 L 69.347656 63.960938 L 68.902344 63.960938 Z M 66.796875 62.183594 L 67.117188 62.183594 L 67.117188 61.707031 L 66.675781 61.886719 Z M 66.230469 62.390625 L 66.140625 62.085938 C 66.140625 62.085938 66.230469 62.390625 66.230469 62.390625 Z M 66.222656 60.101562 L 66.148438 60.40625 L 66.15625 60.40625 C 66.15625 60.40625 66.222656 60.101562 66.222656 60.101562 Z M 66.796875 60.296875 L 66.675781 60.585938 L 67.117188 60.765625 L 67.117188 60.289062 L 66.796875 60.289062 Z M 69.175781 58.304688 L 68.902344 58.460938 L 68.914062 58.476562 L 69.183594 58.296875 Z M 69.207031 58.558594 L 68.914062 58.429688 C 68.914062 58.429688 69.214844 58.558594 69.214844 58.558594 Z M 70.3125 58.550781 L 70.625 58.476562 L 70.625 58.460938 C 70.625 58.460938 70.3125 58.550781 70.3125 58.550781 Z M 70.589844 58.492188 L 70.589844 58.171875 L 70.164062 58.171875 L 70.285156 58.578125 Z M 68.9375 58.492188 L 69.234375 58.609375 L 69.414062 58.171875 L 68.945312 58.171875 L 68.945312 58.492188 Z M 67.070312 60.773438 L 66.90625 61.039062 L 67.390625 61.335938 L 67.390625 60.773438 Z M 66.148438 60.398438 L 66.058594 60.703125 L 66.082031 60.703125 C 66.082031 60.703125 66.148438 60.398438 66.148438 60.398438 Z M 66.15625 62.140625 L 66.230469 62.445312 L 66.238281 62.445312 C 66.238281 62.445312 66.148438 62.140625 66.148438 62.140625 Z M 67.070312 61.738281 L 67.390625 61.738281 L 67.390625 61.171875 L 66.90625 61.46875 Z M 69.363281 64.035156 L 69.636719 64.1875 L 69.90625 63.714844 L 69.363281 63.714844 Z M 69.011719 64.925781 L 68.699219 64.851562 L 68.699219 64.867188 C 68.699219 64.867188 69.011719 64.925781 69.011719 64.925781 Z M 70.738281 64.925781 L 70.433594 65 C 70.433594 65 70.738281 64.925781 70.738281 64.925781 Z M 70.375 64.035156 L 70.375 63.714844 L 69.816406 63.714844 L 70.097656 64.1875 L 70.375 64.027344 Z M 72.6875 62.066406 L 73.007812 62.066406 L 73.007812 61.566406 L 72.550781 61.78125 L 72.6875 62.070312 Z M 72.6875 60.542969 L 72.550781 60.832031 L 73.007812 61.039062 L 73.007812 60.542969 Z M 72.6875 60.542969 " fill-opacity="1" fill-rule="nonzero"/><path fill="#f6f3df" d="M 65.109375 34.746094 C 64.839844 34.746094 64.574219 34.859375 64.363281 35.050781 L 61.671875 37.738281 C 61.5 37.285156 61.292969 36.863281 61.113281 36.523438 C 60.578125 35.570312 59.703125 35.035156 58.707031 35.035156 C 57.945312 35.035156 57.179688 35.363281 56.621094 35.925781 C 55.992188 36.558594 55.671875 37.414062 55.761719 38.261719 C 55.84375 39.121094 56.347656 39.886719 57.160156 40.414062 C 57.484375 40.628906 57.917969 40.839844 58.378906 41.03125 L 55.277344 44.128906 C 54.875 44.53125 54.875 45.15625 55.277344 45.554688 L 58.082031 48.355469 C 58.214844 48.492188 58.398438 48.566406 58.578125 48.566406 C 58.636719 48.566406 58.699219 48.566406 58.75 48.542969 C 58.996094 48.484375 59.171875 48.296875 59.25 48.058594 C 59.441406 47.390625 59.941406 46.683594 60.355469 46.269531 C 60.796875 45.832031 61.332031 45.75 61.695312 45.75 C 62.328125 45.75 62.988281 46.015625 63.433594 46.476562 C 64.199219 47.242188 64.625 48.445312 63.53125 49.566406 C 62.707031 50.40625 61.851562 50.636719 61.851562 50.652344 C 61.605469 50.710938 61.414062 50.90625 61.351562 51.152344 C 61.277344 51.394531 61.351562 51.648438 61.539062 51.835938 L 64.371094 54.664062 C 64.566406 54.859375 64.832031 54.96875 65.117188 54.96875 C 65.398438 54.96875 65.628906 54.871094 65.820312 54.679688 L 68.914062 51.589844 C 69.101562 52.042969 69.316406 52.449219 69.535156 52.792969 C 70.121094 53.691406 71.003906 54.203125 71.964844 54.203125 C 72.730469 54.203125 73.460938 53.882812 74.023438 53.328125 C 74.679688 52.671875 75.015625 51.757812 74.886719 50.898438 C 74.777344 50.042969 74.253906 49.316406 73.429688 48.855469 C 73.101562 48.667969 72.671875 48.476562 72.226562 48.296875 L 74.917969 45.609375 C 75.304688 45.222656 75.304688 44.554688 74.917969 44.152344 L 65.820312 35.066406 C 65.636719 34.878906 65.382812 34.777344 65.117188 34.777344 M 65.09375 35.4375 C 65.167969 35.4375 65.242188 35.460938 65.300781 35.519531 L 74.398438 44.605469 C 74.515625 44.722656 74.515625 44.945312 74.398438 45.066406 L 70.902344 48.558594 C 71.683594 48.773438 72.523438 49.113281 73.058594 49.417969 C 74.53125 50.257812 74.433594 51.863281 73.511719 52.800781 C 73.089844 53.222656 72.523438 53.46875 71.949219 53.46875 C 71.28125 53.46875 70.597656 53.140625 70.113281 52.375 C 69.765625 51.828125 69.40625 51 69.214844 50.257812 L 65.316406 54.152344 C 65.316406 54.152344 65.183594 54.234375 65.109375 54.234375 C 65.027344 54.234375 64.9375 54.195312 64.863281 54.136719 L 62.03125 51.304688 C 62.03125 51.304688 63.054688 51.054688 64.039062 50.042969 C 65.359375 48.691406 65.035156 47.0625 63.941406 45.972656 C 63.347656 45.378906 62.503906 45.035156 61.703125 45.035156 C 61.019531 45.035156 60.363281 45.265625 59.867188 45.765625 C 59.367188 46.261719 58.792969 47.101562 58.585938 47.859375 L 55.78125 45.058594 C 55.664062 44.9375 55.664062 44.753906 55.78125 44.632812 L 59.679688 40.742188 C 58.914062 40.527344 58.09375 40.183594 57.546875 39.828125 C 56.132812 38.914062 56.183594 37.359375 57.121094 36.425781 C 57.546875 36 58.132812 35.742188 58.707031 35.742188 C 59.375 35.742188 60.042969 36.082031 60.496094 36.871094 C 60.800781 37.40625 61.152344 38.261719 61.375 39.03125 L 64.871094 35.539062 C 64.929688 35.480469 65.027344 35.445312 65.117188 35.445312 " fill-opacity="1" fill-rule="nonzero"/><path fill="#0080bf" d="M 66.261719 34.597656 C 65.964844 34.300781 65.546875 34.121094 65.109375 34.121094 L 65.109375 35.390625 C 65.203125 35.390625 65.300781 35.429688 65.367188 35.496094 L 66.269531 34.597656 Z M 75.355469 43.683594 L 66.261719 34.597656 L 65.359375 35.496094 L 74.457031 44.582031 Z M 75.355469 46.039062 C 75.996094 45.398438 75.988281 44.332031 75.355469 43.691406 L 74.441406 44.574219 C 74.597656 44.730469 74.582031 45.007812 74.441406 45.148438 L 75.339844 46.046875 Z M 72.664062 48.726562 L 75.355469 46.039062 L 74.457031 45.140625 L 71.765625 47.828125 Z M 73.726562 48.289062 C 73.371094 48.089844 72.917969 47.882812 72.457031 47.695312 L 71.980469 48.871094 C 72.417969 49.046875 72.820312 49.234375 73.117188 49.398438 L 73.734375 48.289062 Z M 75.511719 50.800781 C 75.371094 49.722656 74.710938 48.832031 73.726562 48.28125 L 73.109375 49.390625 C 73.789062 49.769531 74.175781 50.332031 74.25 50.957031 L 75.503906 50.792969 Z M 74.464844 53.765625 C 75.253906 52.976562 75.660156 51.871094 75.503906 50.792969 L 74.25 50.972656 C 74.335938 51.617188 74.09375 52.339844 73.5625 52.867188 Z M 71.957031 54.828125 C 72.902344 54.828125 73.792969 54.433594 74.464844 53.765625 L 73.5625 52.867188 C 73.117188 53.3125 72.546875 53.558594 71.957031 53.558594 Z M 68.992188 53.125 C 69.675781 54.183594 70.753906 54.828125 71.957031 54.828125 L 71.957031 53.558594 C 71.234375 53.558594 70.539062 53.179688 70.054688 52.4375 Z M 68.3125 51.820312 C 68.515625 52.308594 68.746094 52.753906 68.992188 53.125 L 70.0625 52.441406 C 69.859375 52.136719 69.660156 51.757812 69.496094 51.34375 L 68.320312 51.820312 Z M 66.261719 55.117188 L 69.355469 52.027344 L 68.453125 51.128906 L 65.359375 54.21875 Z M 65.109375 55.59375 C 65.554688 55.59375 65.949219 55.429688 66.261719 55.117188 L 65.359375 54.21875 C 65.285156 54.292969 65.210938 54.324219 65.101562 54.324219 L 65.101562 55.59375 Z M 63.910156 55.101562 C 64.230469 55.421875 64.65625 55.59375 65.101562 55.59375 L 65.101562 54.324219 C 64.988281 54.324219 64.878906 54.277344 64.8125 54.203125 Z M 61.078125 52.273438 L 63.910156 55.101562 L 64.8125 54.203125 L 61.976562 51.375 Z M 60.734375 50.957031 C 60.585938 51.441406 60.742188 51.9375 61.078125 52.273438 L 61.976562 51.375 C 61.976562 51.375 61.957031 51.34375 61.957031 51.335938 C 61.957031 51.335938 61.957031 51.328125 61.957031 51.320312 Z M 61.6875 50.027344 C 61.21875 50.148438 60.847656 50.519531 60.726562 50.988281 L 61.960938 51.292969 C 61.960938 51.292969 61.960938 51.277344 61.976562 51.269531 C 61.984375 51.261719 61.992188 51.253906 62 51.253906 L 61.695312 50.019531 Z M 63.070312 49.113281 C 62.714844 49.480469 62.347656 49.710938 62.082031 49.851562 C 61.949219 49.917969 61.835938 49.96875 61.761719 50 C 61.722656 50.015625 61.695312 50.027344 61.664062 50.035156 C 61.65625 50.035156 61.636719 50.042969 61.621094 50.050781 C 61.621094 50.050781 61.589844 50.066406 61.5625 50.074219 C 61.554688 50.074219 61.515625 50.09375 61.472656 50.125 C 61.449219 50.140625 61.40625 50.175781 61.359375 50.230469 C 61.324219 50.273438 61.210938 50.414062 61.210938 50.636719 L 62.484375 50.636719 C 62.484375 50.859375 62.363281 51.007812 62.335938 51.046875 C 62.289062 51.097656 62.246094 51.136719 62.222656 51.152344 C 62.179688 51.179688 62.148438 51.195312 62.132812 51.203125 C 62.117188 51.203125 62.109375 51.21875 62.105469 51.21875 C 62.105469 51.21875 62.097656 51.21875 62.089844 51.21875 C 62.089844 51.21875 62.089844 51.21875 62.105469 51.21875 C 62.125 51.210938 62.171875 51.195312 62.222656 51.171875 C 62.335938 51.128906 62.484375 51.0625 62.667969 50.972656 C 63.035156 50.785156 63.507812 50.480469 63.976562 50.007812 Z M 62.972656 46.914062 C 63.285156 47.226562 63.496094 47.597656 63.539062 47.957031 C 63.578125 48.28125 63.496094 48.675781 63.0625 49.113281 L 63.96875 50 C 64.640625 49.316406 64.886719 48.550781 64.796875 47.800781 C 64.707031 47.078125 64.320312 46.460938 63.867188 46.015625 L 62.964844 46.914062 Z M 61.6875 46.375 C 62.15625 46.375 62.648438 46.574219 62.972656 46.90625 L 63.882812 46.023438 C 63.308594 45.4375 62.484375 45.101562 61.6875 45.101562 Z M 60.796875 46.707031 C 61.070312 46.433594 61.414062 46.375 61.6875 46.375 L 61.6875 45.101562 C 61.234375 45.101562 60.503906 45.207031 59.902344 45.808594 L 60.800781 46.707031 Z M 59.84375 48.230469 C 60 47.695312 60.429688 47.078125 60.789062 46.714844 L 59.886719 45.816406 C 59.425781 46.277344 58.855469 47.070312 58.617188 47.875 L 59.835938 48.230469 Z M 58.890625 49.152344 C 59.367188 49.03125 59.710938 48.675781 59.84375 48.230469 L 58.625 47.867188 C 58.625 47.867188 58.609375 47.902344 58.601562 47.910156 C 58.601562 47.910156 58.585938 47.917969 58.578125 47.925781 L 58.882812 49.160156 Z M 58.5625 49.195312 C 58.5625 49.195312 58.808594 49.210938 59.015625 49.105469 L 58.453125 47.96875 C 58.519531 47.933594 58.578125 47.933594 58.585938 47.925781 C 58.59375 47.925781 58.59375 47.925781 58.585938 47.925781 C 58.585938 47.925781 58.570312 47.925781 58.554688 47.925781 L 58.554688 49.195312 Z M 57.621094 48.800781 C 57.871094 49.054688 58.222656 49.195312 58.570312 49.195312 L 58.570312 47.925781 C 58.570312 47.925781 58.554688 47.925781 58.542969 47.925781 C 58.535156 47.925781 58.527344 47.917969 58.519531 47.910156 L 57.621094 48.808594 Z M 54.816406 46.007812 L 57.621094 48.808594 L 58.519531 47.910156 L 55.714844 45.109375 Z M 54.816406 43.683594 C 54.167969 44.332031 54.167969 45.355469 54.816406 46 L 55.714844 45.101562 C 55.558594 44.945312 55.558594 44.730469 55.714844 44.574219 L 54.816406 43.675781 Z M 57.925781 40.585938 L 54.824219 43.683594 L 55.722656 44.582031 L 58.824219 41.484375 Z M 56.800781 40.941406 C 57.179688 41.195312 57.648438 41.417969 58.125 41.617188 L 58.617188 40.453125 C 58.167969 40.265625 57.78125 40.074219 57.507812 39.886719 Z M 55.121094 38.320312 C 55.226562 39.40625 55.847656 40.332031 56.808594 40.941406 L 57.492188 39.871094 C 56.816406 39.441406 56.445312 38.839844 56.386719 38.191406 Z M 56.167969 35.472656 C 55.410156 36.230469 55.015625 37.273438 55.121094 38.320312 L 56.386719 38.191406 C 56.316406 37.539062 56.5625 36.878906 57.070312 36.375 Z M 58.699219 34.402344 C 57.761719 34.402344 56.839844 34.804688 56.167969 35.480469 L 57.070312 36.378906 C 57.515625 35.933594 58.125 35.683594 58.707031 35.683594 L 58.707031 34.410156 Z M 61.664062 36.210938 C 61.027344 35.082031 59.945312 34.402344 58.699219 34.402344 L 58.699219 35.675781 C 59.441406 35.675781 60.117188 36.070312 60.558594 36.832031 Z M 62.265625 37.511719 C 62.082031 37.027344 61.867188 36.574219 61.671875 36.21875 L 60.550781 36.820312 C 60.71875 37.144531 60.914062 37.539062 61.078125 37.964844 L 62.265625 37.515625 Z M 63.910156 34.597656 L 61.21875 37.285156 L 62.117188 38.1875 L 64.8125 35.496094 Z M 65.109375 34.105469 C 64.667969 34.105469 64.246094 34.285156 63.933594 34.582031 L 64.804688 35.503906 C 64.898438 35.414062 65.011719 35.371094 65.109375 35.371094 L 65.109375 34.101562 Z M 65.308594 35.996094 C 65.265625 36.039062 65.226562 36.054688 65.203125 36.070312 C 65.183594 36.074219 65.144531 36.082031 65.101562 36.082031 L 65.101562 34.8125 C 64.863281 34.8125 64.601562 34.902344 64.410156 35.09375 Z M 61.8125 39.484375 L 65.308594 35.996094 L 64.410156 35.09375 L 60.914062 38.585938 Z M 59.941406 37.183594 C 60.214844 37.664062 60.550781 38.46875 60.757812 39.203125 L 61.976562 38.863281 C 61.746094 38.042969 61.375 37.136719 61.039062 36.550781 L 59.933594 37.175781 Z M 58.699219 36.375 C 59.128906 36.375 59.589844 36.582031 59.933594 37.183594 L 61.03125 36.550781 C 60.476562 35.570312 59.605469 35.101562 58.691406 35.101562 L 58.691406 36.375 Z M 57.566406 36.871094 C 57.886719 36.550781 58.3125 36.375 58.699219 36.375 L 58.699219 35.101562 C 57.945312 35.101562 57.203125 35.4375 56.667969 35.972656 Z M 57.886719 39.292969 C 57.328125 38.9375 57.113281 38.492188 57.082031 38.082031 C 57.054688 37.664062 57.21875 37.210938 57.566406 36.863281 L 56.667969 35.964844 C 56.078125 36.550781 55.753906 37.355469 55.8125 38.171875 C 55.878906 39.003906 56.339844 39.796875 57.195312 40.347656 L 57.886719 39.285156 Z M 59.851562 40.132812 C 59.121094 39.925781 58.371094 39.605469 57.886719 39.300781 L 57.195312 40.371094 C 57.8125 40.765625 58.691406 41.128906 59.492188 41.359375 L 59.84375 40.140625 Z M 56.230469 45.082031 L 60.125 41.1875 L 59.226562 40.289062 L 55.328125 44.179688 Z M 56.230469 44.613281 C 56.28125 44.664062 56.324219 44.753906 56.324219 44.851562 C 56.324219 44.945312 56.289062 45.027344 56.230469 45.089844 L 55.328125 44.1875 C 54.957031 44.558594 54.957031 45.140625 55.328125 45.511719 Z M 59.023438 47.40625 L 56.222656 44.605469 L 55.320312 45.503906 L 58.125 48.304688 Z M 59.410156 45.316406 C 58.832031 45.898438 58.214844 46.804688 57.96875 47.6875 L 59.195312 48.023438 C 59.367188 47.398438 59.84375 46.679688 60.3125 46.210938 L 59.410156 45.3125 Z M 61.695312 44.398438 C 60.871094 44.398438 60.042969 44.679688 59.402344 45.3125 L 60.304688 46.210938 C 60.667969 45.847656 61.160156 45.667969 61.695312 45.667969 Z M 64.386719 45.519531 C 63.671875 44.804688 62.667969 44.398438 61.695312 44.398438 L 61.695312 45.667969 C 62.328125 45.667969 63.011719 45.941406 63.488281 46.417969 Z M 64.484375 50.488281 C 65.265625 49.695312 65.589844 48.773438 65.523438 47.867188 C 65.457031 46.976562 65.019531 46.15625 64.378906 45.527344 L 63.480469 46.425781 C 63.941406 46.886719 64.214844 47.4375 64.253906 47.964844 C 64.289062 48.476562 64.121094 49.046875 63.578125 49.605469 L 64.484375 50.496094 Z M 62.023438 51.3125 C 62.125 51.726562 62.179688 51.929688 62.179688 51.929688 C 62.179688 51.929688 62.1875 51.929688 62.191406 51.929688 C 62.207031 51.929688 62.222656 51.921875 62.246094 51.914062 C 62.28125 51.902344 62.34375 51.886719 62.410156 51.863281 C 62.542969 51.820312 62.722656 51.746094 62.9375 51.632812 C 63.367188 51.417969 63.925781 51.0625 64.484375 50.496094 L 63.578125 49.613281 C 63.136719 50.058594 62.699219 50.332031 62.371094 50.496094 C 62.207031 50.578125 62.074219 50.628906 61.984375 50.667969 C 61.941406 50.683594 61.902344 50.699219 61.886719 50.699219 C 61.878906 50.699219 61.875 50.699219 61.867188 50.699219 C 61.867188 50.699219 61.917969 50.902344 62.023438 51.3125 Z M 65.308594 53.699219 L 62.476562 50.867188 L 61.574219 51.765625 L 64.410156 54.597656 Z M 65.109375 53.609375 C 65.203125 53.609375 65.257812 53.648438 65.273438 53.660156 L 64.460938 54.636719 C 64.617188 54.769531 64.839844 54.878906 65.109375 54.878906 Z M 65.308594 54.160156 C 65.082031 53.804688 64.96875 53.625 64.96875 53.625 C 64.96875 53.625 64.953125 53.625 64.953125 53.632812 C 64.945312 53.632812 64.953125 53.632812 64.953125 53.632812 C 64.953125 53.632812 65.011719 53.609375 65.101562 53.609375 L 65.101562 54.878906 C 65.226562 54.878906 65.324219 54.851562 65.375 54.828125 C 65.4375 54.804688 65.480469 54.785156 65.515625 54.769531 C 65.554688 54.753906 65.585938 54.730469 65.605469 54.714844 C 65.621094 54.714844 65.628906 54.703125 65.636719 54.703125 C 65.636719 54.703125 65.636719 54.703125 65.644531 54.703125 C 65.644531 54.703125 65.644531 54.703125 65.300781 54.167969 Z M 68.761719 49.8125 L 64.863281 53.707031 L 65.761719 54.605469 L 69.660156 50.710938 Z M 70.640625 52.035156 C 70.328125 51.550781 70 50.785156 69.824219 50.101562 L 68.597656 50.421875 C 68.804688 51.21875 69.183594 52.109375 69.578125 52.71875 L 70.648438 52.027344 Z M 71.949219 52.84375 C 71.511719 52.84375 71.027344 52.636719 70.648438 52.042969 L 69.578125 52.726562 C 70.171875 53.667969 71.058594 54.113281 71.949219 54.113281 Z M 73.058594 52.355469 C 72.738281 52.671875 72.335938 52.835938 71.949219 52.835938 L 71.949219 54.109375 C 72.703125 54.109375 73.421875 53.789062 73.957031 53.253906 Z M 72.738281 49.976562 C 73.304688 50.296875 73.519531 50.726562 73.542969 51.121094 C 73.570312 51.542969 73.402344 52.003906 73.050781 52.355469 L 73.957031 53.246094 C 74.539062 52.660156 74.871094 51.847656 74.8125 51.023438 C 74.753906 50.175781 74.277344 49.382812 73.371094 48.863281 L 72.738281 49.960938 Z M 70.730469 49.175781 C 71.472656 49.382812 72.261719 49.703125 72.746094 49.976562 L 73.371094 48.871094 C 72.78125 48.535156 71.890625 48.179688 71.074219 47.949219 L 70.730469 49.167969 Z M 73.941406 44.621094 L 70.449219 48.113281 L 71.347656 49.011719 L 74.84375 45.519531 Z M 73.941406 45.058594 C 73.867188 44.984375 73.847656 44.902344 73.847656 44.84375 C 73.847656 44.785156 73.867188 44.703125 73.941406 44.628906 L 74.84375 45.527344 C 75.214844 45.15625 75.214844 44.539062 74.84375 44.167969 L 73.941406 45.066406 Z M 64.847656 35.972656 L 73.941406 45.058594 L 74.84375 44.160156 L 65.746094 35.074219 Z M 65.09375 36.070312 C 65.09375 36.070312 65.019531 36.070312 64.96875 36.046875 C 64.921875 36.03125 64.878906 36 64.847656 35.972656 L 65.746094 35.074219 C 65.554688 34.878906 65.316406 34.804688 65.09375 34.804688 L 65.09375 36.074219 Z M 65.816406 35.050781 L 65.367188 35.496094 Z M 74.910156 44.136719 L 75.363281 43.699219 C 75.363281 43.699219 74.917969 44.136719 74.917969 44.136719 Z M 74.910156 45.59375 L 75.355469 46.039062 Z M 72.21875 48.28125 L 71.773438 47.835938 L 71.09375 48.511719 L 71.980469 48.871094 Z M 73.421875 48.839844 L 73.734375 48.28125 C 73.734375 48.28125 73.429688 48.839844 73.429688 48.839844 Z M 74.878906 50.882812 L 74.25 50.964844 C 74.25 50.964844 74.878906 50.882812 74.878906 50.882812 Z M 69.527344 52.785156 L 68.992188 53.125 C 68.992188 53.125 69.527344 52.785156 69.527344 52.785156 Z M 68.902344 51.582031 L 69.488281 51.34375 L 69.132812 50.460938 L 68.453125 51.136719 Z M 65.816406 54.664062 L 66.261719 55.109375 Z M 64.363281 54.65625 L 64.8125 54.210938 Z M 61.523438 51.820312 L 61.078125 52.265625 Z M 61.34375 51.144531 L 61.957031 51.328125 L 61.957031 51.300781 C 61.957031 51.300781 61.34375 51.144531 61.34375 51.144531 Z M 61.84375 50.636719 L 62 51.253906 L 62.484375 51.136719 L 62.484375 50.636719 Z M 63.523438 49.558594 L 63.976562 50.007812 C 63.976562 50.007812 63.523438 49.558594 63.523438 49.558594 Z M 63.425781 46.46875 L 62.972656 46.914062 C 62.972656 46.914062 63.421875 46.46875 63.421875 46.46875 Z M 59.234375 48.050781 L 59.84375 48.238281 C 59.84375 48.238281 59.234375 48.050781 59.234375 48.050781 Z M 58.734375 48.535156 L 58.578125 47.917969 L 58.511719 47.933594 L 58.453125 47.964844 L 58.734375 48.527344 Z M 58.066406 48.355469 L 57.621094 48.800781 Z M 55.269531 45.554688 L 55.714844 45.109375 Z M 55.269531 44.136719 L 54.824219 43.691406 Z M 58.371094 41.03125 L 58.816406 41.476562 L 59.484375 40.808594 L 58.617188 40.445312 Z M 57.152344 40.414062 L 57.5 39.886719 L 57.492188 39.886719 C 57.492188 39.886719 57.152344 40.414062 57.152344 40.414062 Z M 55.753906 38.261719 L 56.386719 38.199219 C 56.386719 38.199219 55.753906 38.261719 55.753906 38.261719 Z M 56.617188 35.917969 L 56.167969 35.472656 Z M 61.113281 36.523438 L 61.671875 36.222656 L 61.671875 36.210938 C 61.671875 36.210938 61.113281 36.523438 61.113281 36.523438 Z M 61.671875 37.734375 L 61.078125 37.957031 L 61.425781 38.875 L 62.117188 38.179688 Z M 64.363281 35.050781 L 63.925781 34.589844 L 63.910156 34.605469 L 64.355469 35.050781 Z M 64.863281 35.546875 L 65.308594 35.996094 Z M 61.367188 39.039062 L 60.757812 39.210938 L 61.046875 40.25 L 61.8125 39.484375 Z M 60.488281 36.871094 L 61.039062 36.558594 C 61.039062 36.558594 60.488281 36.871094 60.488281 36.871094 Z M 57.121094 36.425781 L 57.566406 36.871094 Z M 57.546875 39.828125 L 57.203125 40.363281 C 57.203125 40.363281 57.546875 39.828125 57.546875 39.828125 Z M 59.671875 40.742188 L 60.117188 41.1875 L 60.882812 40.421875 L 59.84375 40.125 L 59.671875 40.734375 Z M 55.78125 44.632812 L 55.335938 44.1875 Z M 55.78125 45.058594 L 56.230469 44.613281 Z M 58.578125 47.859375 L 58.132812 48.304688 L 58.90625 49.078125 L 59.195312 48.023438 L 58.585938 47.851562 Z M 63.933594 45.972656 L 64.378906 45.527344 Z M 64.039062 50.042969 L 63.582031 49.597656 C 63.582031 49.597656 64.039062 50.042969 64.039062 50.042969 Z M 62.023438 51.3125 L 61.867188 50.699219 L 60.78125 50.972656 L 61.574219 51.765625 L 62.023438 51.320312 Z M 64.863281 54.144531 L 64.417969 54.589844 L 64.4375 54.613281 L 64.460938 54.628906 L 64.871094 54.136719 Z M 65.308594 54.160156 L 65.652344 54.695312 L 65.710938 54.65625 L 65.761719 54.605469 L 65.316406 54.160156 Z M 69.207031 50.265625 L 69.824219 50.101562 L 69.539062 49.03125 L 68.761719 49.8125 L 69.207031 50.257812 Z M 70.105469 52.382812 L 70.640625 52.042969 C 70.640625 52.042969 70.105469 52.382812 70.105469 52.382812 Z M 73.503906 52.808594 L 73.949219 53.253906 C 73.949219 53.253906 73.496094 52.808594 73.496094 52.808594 Z M 73.058594 49.425781 L 73.371094 48.878906 C 73.371094 48.878906 73.058594 49.425781 73.058594 49.425781 Z M 70.902344 48.558594 L 70.457031 48.113281 L 69.6875 48.878906 L 70.730469 49.167969 Z M 74.398438 44.605469 L 74.84375 44.160156 Z M 65.300781 35.519531 L 64.855469 35.964844 Z M 65.300781 35.519531 " fill-opacity="1" fill-rule="nonzero"/><path fill="#0080bf" d="M 34.402344 75.074219 C 36.113281 75.074219 37.496094 76.457031 37.496094 78.164062 L 40.046875 78.164062 C 40.046875 75.050781 37.519531 72.523438 34.402344 72.523438 Z M 31.308594 78.171875 C 31.308594 76.464844 32.691406 75.082031 34.402344 75.082031 L 34.402344 72.53125 C 31.285156 72.53125 28.757812 75.058594 28.757812 78.171875 Z M 34.402344 81.261719 C 32.691406 81.261719 31.308594 79.878906 31.308594 78.171875 L 28.757812 78.171875 C 28.757812 81.285156 31.285156 83.8125 34.402344 83.8125 Z M 37.496094 78.171875 C 37.496094 79.878906 36.113281 81.261719 34.402344 81.261719 L 34.402344 83.8125 C 37.519531 83.8125 40.046875 81.285156 40.046875 78.171875 Z M 37.496094 78.171875 " fill-opacity="1" fill-rule="nonzero"/><path fill="#0080bf" d="M 80.667969 56.894531 L 80.667969 56.910156 L 83.21875 56.910156 L 83.21875 56.894531 Z M 86.304688 63.914062 C 86.304688 60.765625 84.949219 57.941406 82.816406 55.964844 L 81.074219 57.828125 C 82.71875 59.351562 83.746094 61.515625 83.746094 63.914062 Z M 75.488281 74.710938 C 81.46875 74.710938 86.304688 69.867188 86.304688 63.90625 L 83.753906 63.90625 C 83.753906 68.460938 80.0625 72.152344 75.496094 72.152344 L 75.496094 74.703125 Z M 71.050781 73.757812 C 72.402344 74.367188 73.90625 74.710938 75.488281 74.710938 L 75.488281 72.160156 C 74.277344 72.160156 73.125 71.902344 72.089844 71.433594 L 71.042969 73.757812 Z M 62.550781 80.320312 C 67.300781 80.320312 71.332031 77.257812 72.78125 73.007812 L 70.367188 72.183594 C 69.257812 75.429688 66.179688 77.769531 62.550781 77.769531 Z M 52.027344 72.027344 C 53.15625 76.789062 57.441406 80.320312 62.542969 80.320312 L 62.542969 77.769531 C 58.636719 77.769531 55.375 75.074219 54.503906 71.441406 L 52.019531 72.027344 Z M 45.640625 76.828125 C 49.1875 76.828125 52.332031 75.132812 54.296875 72.496094 L 52.25 70.972656 C 50.753906 72.984375 48.351562 74.277344 45.640625 74.277344 Z M 34.824219 66.03125 C 34.824219 71.992188 39.667969 76.835938 45.640625 76.835938 L 45.640625 74.285156 C 41.078125 74.285156 37.382812 70.585938 37.382812 66.039062 L 34.832031 66.039062 Z M 34.890625 64.859375 C 34.855469 65.230469 34.824219 65.617188 34.824219 66.023438 L 37.375 66.023438 C 37.375 65.726562 37.398438 65.4375 37.429688 65.125 L 34.890625 64.851562 Z M 33.109375 66.765625 C 34.320312 66.765625 35.480469 66.574219 36.574219 66.203125 L 35.746094 63.789062 C 34.921875 64.070312 34.039062 64.21875 33.109375 64.21875 Z M 22.292969 55.972656 C 22.292969 61.945312 27.144531 66.773438 33.109375 66.773438 L 33.109375 64.226562 C 28.546875 64.226562 24.851562 60.542969 24.851562 55.980469 L 22.300781 55.980469 Z M 28.46875 46.210938 C 24.808594 47.949219 22.292969 51.65625 22.292969 55.972656 L 24.84375 55.972656 C 24.84375 52.671875 26.765625 49.84375 29.558594 48.511719 Z M 26.398438 42.496094 C 26.398438 44.507812 26.949219 46.394531 27.917969 48.015625 L 30.101562 46.707031 C 29.367188 45.472656 28.941406 44.039062 28.941406 42.496094 L 26.390625 42.496094 Z M 37.210938 31.691406 C 31.234375 31.691406 26.398438 36.535156 26.398438 42.496094 L 28.949219 42.496094 C 28.949219 37.941406 32.640625 34.25 37.207031 34.25 L 37.207031 31.699219 Z M 44.648438 34.65625 C 42.714844 32.820312 40.089844 31.691406 37.207031 31.691406 L 37.207031 34.242188 C 39.40625 34.242188 41.414062 35.101562 42.886719 36.507812 L 44.640625 34.65625 Z M 53.304688 24.917969 C 47.386719 24.917969 42.582031 29.664062 42.5 35.5625 L 45.050781 35.601562 C 45.117188 31.089844 48.785156 27.464844 53.304688 27.464844 Z M 63.464844 32.035156 C 61.960938 27.882812 57.96875 24.917969 53.304688 24.917969 L 53.304688 27.464844 C 56.867188 27.464844 59.917969 29.730469 61.070312 32.902344 L 63.472656 32.035156 Z M 69.949219 27.316406 C 66.371094 27.316406 63.210938 29.039062 61.242188 31.714844 L 63.292969 33.230469 C 64.804688 31.179688 67.21875 29.871094 69.949219 29.871094 Z M 80.761719 38.113281 C 80.761719 32.136719 75.914062 27.316406 69.949219 27.316406 L 69.949219 29.863281 C 74.507812 29.863281 78.203125 33.550781 78.203125 38.113281 Z M 80.734375 38.898438 C 80.746094 38.667969 80.761719 38.394531 80.761719 38.113281 L 78.210938 38.113281 C 78.210938 38.320312 78.203125 38.527344 78.191406 38.765625 L 80.742188 38.898438 Z M 88.773438 48.246094 C 88.773438 42.851562 84.824219 38.386719 79.664062 37.570312 L 79.269531 40.085938 C 83.210938 40.710938 86.230469 44.121094 86.230469 48.246094 L 88.78125 48.246094 Z M 82.480469 58.066406 C 86.191406 56.359375 88.773438 52.605469 88.773438 48.253906 L 86.222656 48.253906 C 86.222656 51.582031 84.25 54.449219 81.410156 55.757812 L 82.480469 58.074219 Z M 81.945312 56.894531 L 82.816406 55.957031 C 82.445312 55.617188 81.902344 55.519531 81.441406 55.71875 C 80.972656 55.921875 80.671875 56.382812 80.671875 56.886719 L 81.953125 56.886719 Z M 71.570312 72.601562 L 72.089844 71.433594 C 71.765625 71.285156 71.390625 71.285156 71.058594 71.433594 C 70.730469 71.574219 70.476562 71.847656 70.359375 72.191406 L 71.5625 72.601562 Z M 53.269531 71.730469 L 54.511719 71.433594 C 54.398438 70.949219 54.011719 70.578125 53.527344 70.480469 C 53.046875 70.386719 52.539062 70.570312 52.25 70.972656 L 53.277344 71.730469 Z M 36.164062 64.992188 L 37.4375 65.125 C 37.480469 64.695312 37.300781 64.261719 36.960938 63.996094 C 36.617188 63.730469 36.164062 63.648438 35.746094 63.789062 L 36.15625 64.992188 Z M 29.015625 47.355469 L 29.566406 48.503906 C 29.894531 48.347656 30.140625 48.066406 30.246094 47.726562 C 30.347656 47.382812 30.304688 47.011719 30.117188 46.699219 L 29.023438 47.355469 Z M 43.773438 35.585938 L 42.894531 36.507812 C 43.257812 36.855469 43.800781 36.953125 44.269531 36.757812 C 44.738281 36.566406 45.042969 36.105469 45.050781 35.601562 Z M 62.265625 32.472656 L 61.070312 32.902344 C 61.234375 33.347656 61.621094 33.660156 62.089844 33.726562 C 62.558594 33.796875 63.019531 33.601562 63.300781 33.222656 L 62.273438 32.464844 Z M 79.460938 38.832031 L 78.191406 38.765625 C 78.152344 39.417969 78.621094 39.992188 79.269531 40.09375 L 79.46875 38.839844 Z M 81.945312 56.910156 L 80.667969 56.910156 C 80.667969 57.339844 80.890625 57.746094 81.253906 57.976562 C 81.617188 58.214844 82.078125 58.246094 82.472656 58.058594 L 81.9375 56.902344 Z M 81.945312 56.910156 " fill-opacity="1" fill-rule="nonzero"/><path fill="#f6f3df" d="M 46.257812 39.179688 L 46.21875 39.179688 L 41.675781 39.679688 C 41.578125 39.679688 41.488281 39.738281 41.445312 39.8125 C 41.386719 39.886719 41.363281 39.984375 41.371094 40.082031 L 41.519531 41.433594 C 41.363281 41.378906 41.191406 41.351562 41.058594 41.320312 C 41 41.320312 40.921875 41.304688 40.863281 41.304688 C 40.582031 41.304688 40.3125 41.417969 40.144531 41.625 C 39.949219 41.839844 39.859375 42.136719 39.890625 42.441406 C 39.949219 42.964844 40.367188 43.355469 40.878906 43.355469 C 41 43.355469 41.132812 43.335938 41.257812 43.296875 C 41.390625 43.246094 41.539062 43.1875 41.695312 43.089844 L 41.867188 44.632812 C 41.890625 44.820312 42.039062 44.953125 42.21875 44.953125 L 42.253906 44.953125 L 43.652344 44.796875 C 43.734375 44.796875 43.808594 44.738281 43.847656 44.648438 C 43.882812 44.566406 43.867188 44.480469 43.824219 44.40625 C 43.675781 44.210938 43.59375 43.90625 43.570312 43.699219 C 43.519531 43.273438 43.921875 42.933594 44.316406 42.882812 L 44.433594 42.882812 C 44.640625 42.882812 45.117188 42.941406 45.191406 43.550781 C 45.246094 43.964844 45.117188 44.253906 45.117188 44.253906 C 45.082031 44.335938 45.097656 44.425781 45.140625 44.5 C 45.191406 44.558594 45.257812 44.597656 45.347656 44.597656 L 45.371094 44.597656 L 46.785156 44.441406 C 46.878906 44.441406 46.96875 44.382812 47.03125 44.308594 C 47.089844 44.234375 47.109375 44.136719 47.105469 44.054688 L 46.933594 42.511719 C 47.105469 42.5625 47.261719 42.589844 47.410156 42.605469 L 47.542969 42.605469 C 47.847656 42.605469 48.128906 42.488281 48.308594 42.28125 C 48.5 42.0625 48.589844 41.765625 48.554688 41.476562 C 48.496094 40.941406 48.09375 40.5625 47.59375 40.5625 C 47.460938 40.5625 47.3125 40.585938 47.179688 40.644531 C 47.058594 40.695312 46.894531 40.765625 46.753906 40.851562 L 46.605469 39.5 C 46.582031 39.316406 46.417969 39.175781 46.242188 39.175781 M 46.277344 39.410156 C 46.277344 39.410156 46.390625 39.464844 46.398438 39.523438 L 46.589844 41.261719 C 46.820312 41.089844 47.105469 40.933594 47.3125 40.859375 C 47.421875 40.808594 47.527344 40.800781 47.632812 40.800781 C 48.035156 40.800781 48.316406 41.121094 48.351562 41.492188 C 48.40625 41.929688 48.109375 42.347656 47.585938 42.347656 L 47.476562 42.347656 C 47.246094 42.324219 46.941406 42.234375 46.6875 42.132812 L 46.902344 44.078125 C 46.902344 44.136719 46.851562 44.1875 46.792969 44.195312 L 45.378906 44.351562 C 45.378906 44.351562 45.535156 44.011719 45.476562 43.511719 C 45.402344 42.902344 44.960938 42.621094 44.464844 42.621094 L 44.316406 42.621094 C 43.765625 42.679688 43.289062 43.15625 43.355469 43.707031 C 43.378906 43.957031 43.488281 44.300781 43.644531 44.53125 L 42.246094 44.6875 L 42.234375 44.6875 C 42.171875 44.6875 42.136719 44.648438 42.121094 44.589844 L 41.90625 42.644531 C 41.675781 42.816406 41.390625 42.964844 41.175781 43.03125 C 41.066406 43.066406 40.96875 43.082031 40.886719 43.082031 C 40.46875 43.082031 40.179688 42.777344 40.144531 42.390625 C 40.089844 41.96875 40.359375 41.535156 40.863281 41.535156 C 40.917969 41.535156 40.960938 41.535156 41.019531 41.550781 C 41.234375 41.589844 41.554688 41.671875 41.808594 41.796875 L 41.617188 40.058594 C 41.617188 40 41.652344 39.9375 41.710938 39.9375 L 46.257812 39.441406 " fill-opacity="1" fill-rule="nonzero"/><path fill="#0080bf" d="M 46.910156 39.457031 C 46.867188 39.128906 46.582031 38.855469 46.234375 38.855469 L 46.234375 39.484375 C 46.234375 39.484375 46.25 39.484375 46.261719 39.5 C 46.277344 39.515625 46.285156 39.53125 46.285156 39.539062 L 46.917969 39.457031 Z M 47.058594 40.816406 L 46.910156 39.464844 L 46.277344 39.53125 L 46.425781 40.882812 Z M 47.050781 40.347656 C 46.917969 40.398438 46.746094 40.480469 46.582031 40.578125 L 46.902344 41.128906 C 47.03125 41.054688 47.179688 40.988281 47.289062 40.941406 L 47.050781 40.355469 Z M 47.578125 40.242188 C 47.410156 40.242188 47.214844 40.273438 47.035156 40.355469 L 47.296875 40.933594 C 47.378906 40.898438 47.484375 40.875 47.578125 40.875 Z M 48.859375 41.433594 C 48.785156 40.757812 48.257812 40.238281 47.578125 40.238281 L 47.578125 40.867188 C 47.898438 40.867188 48.183594 41.105469 48.226562 41.5 L 48.859375 41.425781 Z M 48.539062 42.488281 C 48.800781 42.199219 48.910156 41.8125 48.859375 41.433594 L 48.226562 41.515625 C 48.25 41.722656 48.191406 41.921875 48.0625 42.0625 Z M 47.535156 42.917969 C 47.921875 42.917969 48.292969 42.761719 48.539062 42.480469 L 48.0625 42.0625 C 47.945312 42.199219 47.757812 42.285156 47.535156 42.285156 Z M 47.402344 42.917969 L 47.535156 42.917969 L 47.535156 42.285156 L 47.402344 42.285156 Z M 46.835938 42.808594 C 47.015625 42.859375 47.191406 42.902344 47.371094 42.917969 L 47.421875 42.285156 C 47.304688 42.28125 47.171875 42.25 47.007812 42.199219 Z M 47.410156 44.011719 L 47.238281 42.464844 L 46.605469 42.53125 L 46.777344 44.078125 Z M 47.265625 44.507812 C 47.386719 44.367188 47.4375 44.175781 47.410156 44.003906 L 46.777344 44.09375 L 47.265625 44.5 Z M 46.777344 44.753906 C 47.007812 44.753906 47.179688 44.613281 47.265625 44.507812 L 46.777344 44.101562 C 46.777344 44.101562 46.753906 44.121094 46.753906 44.121094 C 46.753906 44.121094 46.753906 44.121094 46.785156 44.121094 L 46.785156 44.753906 Z M 45.402344 44.910156 L 46.8125 44.753906 L 46.738281 44.121094 L 45.328125 44.277344 Z M 45.339844 44.917969 L 45.363281 44.917969 L 45.363281 44.285156 L 45.339844 44.285156 Z M 44.886719 44.695312 C 45 44.828125 45.164062 44.910156 45.339844 44.910156 L 45.339844 44.277344 C 45.339844 44.277344 45.347656 44.277344 45.363281 44.277344 C 45.371094 44.277344 45.378906 44.285156 45.386719 44.292969 L 44.886719 44.6875 Z M 44.820312 44.128906 C 44.738281 44.324219 44.769531 44.515625 44.871094 44.671875 L 45.402344 44.324219 C 45.402344 44.324219 45.402344 44.332031 45.402344 44.34375 C 45.402344 44.359375 45.402344 44.375 45.402344 44.382812 L 44.8125 44.128906 Z M 44.867188 43.585938 C 44.886719 43.757812 44.867188 43.898438 44.851562 43.996094 C 44.84375 44.046875 44.828125 44.085938 44.820312 44.105469 C 44.820312 44.121094 44.820312 44.128906 44.8125 44.128906 C 44.8125 44.128906 44.8125 44.128906 45.101562 44.25 C 45.394531 44.367188 45.394531 44.367188 45.394531 44.367188 C 45.394531 44.367188 45.394531 44.359375 45.394531 44.351562 C 45.394531 44.335938 45.402344 44.324219 45.40625 44.300781 C 45.421875 44.253906 45.4375 44.195312 45.453125 44.121094 C 45.484375 43.972656 45.503906 43.765625 45.476562 43.511719 L 44.84375 43.585938 Z M 44.425781 43.199219 C 44.507812 43.199219 44.613281 43.214844 44.695312 43.261719 C 44.761719 43.296875 44.84375 43.378906 44.867188 43.585938 L 45.496094 43.511719 C 45.453125 43.117188 45.257812 42.859375 45.015625 42.71875 C 44.789062 42.585938 44.554688 42.570312 44.425781 42.570312 Z M 44.308594 43.199219 L 44.425781 43.199219 L 44.425781 42.570312 L 44.308594 42.570312 Z M 43.875 43.660156 C 43.867188 43.566406 43.898438 43.460938 43.996094 43.371094 C 44.09375 43.273438 44.21875 43.214844 44.34375 43.199219 L 44.261719 42.570312 C 43.996094 42.597656 43.734375 42.734375 43.542969 42.925781 C 43.347656 43.117188 43.207031 43.410156 43.242188 43.734375 Z M 44.070312 44.210938 C 43.972656 44.078125 43.898438 43.839844 43.875 43.660156 L 43.242188 43.734375 C 43.273438 43.972656 43.371094 44.335938 43.5625 44.597656 L 44.070312 44.21875 Z M 44.136719 44.769531 C 44.21875 44.574219 44.1875 44.382812 44.085938 44.226562 L 43.554688 44.574219 C 43.554688 44.574219 43.554688 44.566406 43.554688 44.554688 C 43.554688 44.539062 43.554688 44.523438 43.554688 44.515625 L 44.144531 44.769531 Z M 43.644531 45.109375 C 43.890625 45.109375 44.0625 44.9375 44.128906 44.769531 L 43.542969 44.515625 C 43.542969 44.515625 43.542969 44.507812 43.5625 44.492188 C 43.578125 44.480469 43.609375 44.472656 43.644531 44.472656 Z M 42.285156 45.265625 L 43.683594 45.109375 L 43.609375 44.480469 L 42.210938 44.632812 Z M 42.210938 45.265625 L 42.246094 45.265625 L 42.246094 44.632812 L 42.210938 44.632812 Z M 41.539062 44.671875 C 41.585938 45.007812 41.859375 45.265625 42.210938 45.265625 L 42.210938 44.632812 C 42.210938 44.632812 42.195312 44.632812 42.1875 44.628906 C 42.1875 44.628906 42.171875 44.613281 42.171875 44.597656 L 41.539062 44.679688 Z M 41.371094 43.117188 L 41.539062 44.664062 L 42.171875 44.597656 L 42.003906 43.050781 Z M 41.355469 43.59375 C 41.503906 43.542969 41.667969 43.476562 41.851562 43.355469 L 41.519531 42.816406 C 41.386719 42.894531 41.257812 42.949219 41.140625 42.992188 L 41.355469 43.585938 Z M 40.871094 43.675781 C 41.035156 43.675781 41.199219 43.648438 41.339844 43.601562 L 41.152344 42.992188 C 41.050781 43.023438 40.953125 43.039062 40.871094 43.039062 Z M 39.570312 42.480469 C 39.644531 43.148438 40.1875 43.675781 40.871094 43.675781 L 40.871094 43.042969 C 40.535156 43.042969 40.246094 42.792969 40.203125 42.414062 L 39.570312 42.488281 Z M 39.90625 41.417969 C 39.644531 41.707031 39.539062 42.09375 39.570312 42.464844 L 40.203125 42.414062 C 40.1875 42.183594 40.246094 41.980469 40.378906 41.832031 L 39.90625 41.410156 Z M 40.855469 40.996094 C 40.5 40.996094 40.136719 41.136719 39.890625 41.425781 L 40.378906 41.828125 C 40.484375 41.707031 40.65625 41.625 40.855469 41.625 Z M 41.058594 41.007812 C 41.058594 41.007812 41.027344 41.007812 40.992188 41.007812 C 40.960938 41.007812 40.910156 41.007812 40.863281 41.007812 L 40.863281 41.640625 C 40.863281 41.640625 40.894531 41.640625 40.929688 41.640625 C 40.960938 41.640625 41.011719 41.640625 41.058594 41.640625 Z M 41.609375 41.128906 C 41.429688 41.074219 41.25 41.03125 41.109375 41.007812 L 41 41.632812 C 41.125 41.65625 41.28125 41.691406 41.421875 41.738281 Z M 41.058594 40.117188 L 41.207031 41.46875 L 41.839844 41.402344 L 41.691406 40.050781 Z M 41.199219 39.613281 C 41.074219 39.761719 41.035156 39.945312 41.058594 40.125 L 41.691406 40.042969 C 41.691406 40.042969 41.691406 40.011719 41.691406 40.019531 Z M 41.675781 39.367188 C 41.445312 39.367188 41.273438 39.507812 41.175781 39.640625 L 41.703125 39.992188 C 41.703125 39.992188 41.691406 40 41.675781 40 Z M 46.179688 38.871094 L 41.636719 39.367188 L 41.703125 40 L 46.25 39.5 Z M 46.257812 39.179688 L 46.257812 38.863281 L 46.21875 38.863281 L 46.21875 39.492188 L 46.257812 39.492188 L 46.257812 39.175781 Z M 41.75 40.25 L 46.292969 39.753906 L 46.226562 39.121094 L 41.683594 39.621094 Z M 41.933594 40.058594 C 41.933594 40.058594 41.925781 40.125 41.898438 40.164062 C 41.867188 40.207031 41.800781 40.25 41.710938 40.25 L 41.710938 39.621094 C 41.5625 39.621094 41.453125 39.703125 41.386719 39.789062 C 41.324219 39.871094 41.296875 39.96875 41.296875 40.058594 Z M 42.128906 41.765625 L 41.933594 40.027344 L 41.304688 40.101562 L 41.496094 41.839844 Z M 40.96875 41.871094 C 41.167969 41.902344 41.453125 41.980469 41.675781 42.085938 L 41.949219 41.515625 C 41.660156 41.378906 41.316406 41.285156 41.074219 41.246094 Z M 40.855469 41.863281 C 40.902344 41.863281 40.921875 41.863281 40.953125 41.863281 L 41.078125 41.238281 C 40.984375 41.21875 40.910156 41.222656 40.855469 41.222656 Z M 40.457031 42.359375 C 40.441406 42.21875 40.476562 42.09375 40.542969 42.003906 C 40.613281 41.921875 40.707031 41.863281 40.855469 41.863281 L 40.855469 41.230469 C 40.507812 41.230469 40.226562 41.386719 40.039062 41.617188 C 39.859375 41.847656 39.785156 42.144531 39.824219 42.4375 Z M 40.886719 42.769531 C 40.65625 42.769531 40.484375 42.605469 40.460938 42.359375 L 39.832031 42.421875 C 39.882812 42.957031 40.300781 43.402344 40.886719 43.402344 Z M 41.078125 42.738281 C 41.003906 42.761719 40.9375 42.769531 40.886719 42.769531 L 40.886719 43.402344 C 41.003906 43.402344 41.132812 43.386719 41.28125 43.335938 L 41.078125 42.734375 Z M 41.71875 42.390625 C 41.511719 42.546875 41.257812 42.671875 41.078125 42.734375 L 41.28125 43.335938 C 41.535156 43.253906 41.847656 43.089844 42.097656 42.894531 L 41.71875 42.382812 Z M 42.441406 44.558594 L 42.226562 42.613281 L 41.59375 42.6875 L 41.808594 44.632812 Z M 42.234375 44.375 C 42.234375 44.375 42.328125 44.390625 42.375 44.433594 C 42.417969 44.480469 42.433594 44.515625 42.433594 44.53125 L 41.808594 44.65625 C 41.824219 44.730469 41.859375 44.828125 41.941406 44.902344 C 42.023438 44.984375 42.136719 45.011719 42.234375 45.011719 Z M 42.246094 44.695312 L 42.246094 44.375 L 42.234375 44.375 L 42.234375 45.007812 L 42.246094 45.007812 L 42.246094 44.6875 Z M 43.617188 44.21875 L 42.21875 44.375 L 42.292969 45.007812 L 43.691406 44.851562 Z M 43.042969 43.734375 C 43.074219 44.039062 43.199219 44.433594 43.394531 44.710938 L 43.914062 44.351562 C 43.785156 44.175781 43.699219 43.882812 43.675781 43.675781 Z M 44.285156 42.308594 C 43.609375 42.382812 42.960938 42.976562 43.042969 43.742188 L 43.675781 43.675781 C 43.636719 43.34375 43.941406 42.992188 44.359375 42.941406 L 44.292969 42.308594 Z M 44.464844 42.308594 L 44.316406 42.308594 L 44.316406 42.941406 L 44.464844 42.941406 Z M 45.789062 43.476562 C 45.742188 43.097656 45.578125 42.800781 45.328125 42.589844 C 45.082031 42.390625 44.769531 42.300781 44.464844 42.300781 L 44.464844 42.933594 C 44.65625 42.933594 44.8125 42.984375 44.933594 43.082031 C 45.042969 43.171875 45.132812 43.3125 45.164062 43.542969 L 45.792969 43.46875 Z M 45.378906 44.351562 C 45.570312 44.441406 45.667969 44.484375 45.667969 44.484375 C 45.667969 44.484375 45.667969 44.480469 45.675781 44.464844 C 45.675781 44.449219 45.691406 44.425781 45.699219 44.40625 C 45.714844 44.351562 45.734375 44.285156 45.757812 44.195312 C 45.792969 44.019531 45.824219 43.773438 45.789062 43.484375 L 45.15625 43.558594 C 45.175781 43.765625 45.15625 43.9375 45.132812 44.054688 C 45.117188 44.113281 45.101562 44.160156 45.097656 44.1875 C 45.097656 44.203125 45.089844 44.210938 45.082031 44.21875 C 45.082031 44.21875 45.175781 44.261719 45.371094 44.351562 Z M 46.753906 43.875 L 45.339844 44.03125 L 45.414062 44.664062 L 46.828125 44.507812 Z M 46.582031 44.070312 C 46.582031 43.945312 46.671875 43.890625 46.730469 43.875 L 46.859375 44.5 C 47.035156 44.464844 47.222656 44.316406 47.222656 44.070312 Z M 46.367188 42.160156 L 46.582031 44.105469 L 47.214844 44.03125 L 47 42.085938 Z M 47.503906 42.027344 C 47.3125 42.003906 47.035156 41.929688 46.804688 41.832031 L 46.554688 42.421875 C 46.828125 42.539062 47.171875 42.636719 47.4375 42.664062 L 47.503906 42.035156 Z M 47.578125 42.027344 L 47.46875 42.027344 L 47.46875 42.660156 L 47.578125 42.660156 Z M 48.035156 41.527344 C 48.046875 41.671875 48.011719 41.796875 47.9375 41.878906 C 47.871094 41.960938 47.757812 42.027344 47.578125 42.027344 L 47.578125 42.660156 C 47.929688 42.660156 48.226562 42.515625 48.421875 42.28125 C 48.613281 42.050781 48.695312 41.753906 48.65625 41.449219 L 48.027344 41.515625 Z M 47.632812 41.121094 C 47.839844 41.121094 48.011719 41.285156 48.035156 41.527344 L 48.664062 41.46875 C 48.613281 40.964844 48.226562 40.488281 47.632812 40.488281 Z M 47.445312 41.148438 C 47.496094 41.128906 47.566406 41.113281 47.632812 41.113281 L 47.632812 40.480469 C 47.503906 40.480469 47.347656 40.496094 47.183594 40.570312 Z M 46.785156 41.523438 C 47 41.367188 47.253906 41.222656 47.417969 41.164062 L 47.207031 40.5625 C 46.960938 40.652344 46.65625 40.824219 46.40625 41.007812 Z M 46.085938 39.558594 L 46.277344 41.300781 L 46.910156 41.222656 L 46.71875 39.484375 Z M 46.277344 39.410156 C 46.195312 39.605469 46.152344 39.703125 46.152344 39.703125 C 46.152344 39.703125 46.152344 39.703125 46.160156 39.703125 C 46.160156 39.703125 46.160156 39.703125 46.144531 39.6875 C 46.136719 39.679688 46.105469 39.640625 46.09375 39.574219 L 46.71875 39.449219 C 46.695312 39.351562 46.648438 39.292969 46.613281 39.253906 C 46.574219 39.21875 46.546875 39.1875 46.515625 39.175781 C 46.488281 39.152344 46.464844 39.144531 46.449219 39.128906 C 46.441406 39.128906 46.433594 39.121094 46.425781 39.113281 C 46.425781 39.113281 46.425781 39.113281 46.417969 39.113281 C 46.417969 39.113281 46.417969 39.113281 46.292969 39.40625 Z M 46.597656 39.5 L 46.910156 39.464844 C 46.910156 39.464844 46.597656 39.5 46.597656 39.5 Z M 46.738281 40.851562 L 46.425781 40.890625 L 46.480469 41.375 L 46.902344 41.128906 Z M 47.171875 40.644531 L 47.289062 40.941406 L 47.304688 40.941406 C 47.304688 40.941406 47.171875 40.644531 47.171875 40.644531 Z M 48.546875 41.46875 L 48.234375 41.507812 C 48.234375 41.507812 48.546875 41.46875 48.546875 41.46875 Z M 48.300781 42.273438 L 48.0625 42.0625 C 48.0625 42.0625 48.300781 42.273438 48.300781 42.273438 Z M 47.402344 42.597656 L 47.371094 42.917969 L 47.402344 42.917969 Z M 46.925781 42.503906 L 47.015625 42.199219 L 46.5625 42.070312 L 46.613281 42.539062 Z M 47.097656 44.046875 L 46.785156 44.085938 C 46.785156 44.085938 47.097656 44.046875 47.097656 44.046875 Z M 46.777344 44.441406 L 46.777344 44.121094 L 46.738281 44.121094 C 46.738281 44.121094 46.777344 44.441406 46.777344 44.441406 Z M 45.363281 44.597656 L 45.363281 44.917969 L 45.402344 44.917969 C 45.402344 44.917969 45.363281 44.597656 45.363281 44.597656 Z M 45.132812 44.5 L 44.867188 44.679688 L 44.878906 44.703125 L 45.125 44.5 Z M 45.109375 44.253906 L 45.402344 44.382812 C 45.402344 44.382812 45.109375 44.253906 45.109375 44.253906 Z M 45.183594 43.550781 L 45.496094 43.511719 C 45.496094 43.511719 45.183594 43.550781 45.183594 43.550781 Z M 44.308594 42.882812 L 44.308594 42.5625 L 44.269531 42.5625 C 44.269531 42.5625 44.308594 42.882812 44.308594 42.882812 Z M 43.5625 43.699219 L 43.25 43.734375 C 43.25 43.734375 43.5625 43.699219 43.5625 43.699219 Z M 43.816406 44.40625 L 44.085938 44.226562 L 44.085938 44.210938 C 44.085938 44.210938 43.816406 44.40625 43.816406 44.40625 Z M 43.644531 44.789062 L 43.644531 44.472656 L 43.609375 44.472656 C 43.609375 44.472656 43.644531 44.789062 43.644531 44.789062 Z M 42.246094 44.945312 L 42.246094 45.265625 L 42.285156 45.265625 C 42.285156 45.265625 42.246094 44.945312 42.246094 44.945312 Z M 41.859375 44.632812 L 41.546875 44.671875 C 41.546875 44.671875 41.859375 44.632812 41.859375 44.632812 Z M 41.691406 43.089844 L 42.003906 43.050781 L 41.949219 42.554688 L 41.527344 42.816406 L 41.691406 43.082031 Z M 41.25 43.296875 L 41.339844 43.601562 L 41.355469 43.601562 C 41.355469 43.601562 41.242188 43.296875 41.242188 43.296875 Z M 39.882812 42.441406 L 39.5625 42.464844 L 39.5625 42.480469 C 39.5625 42.480469 39.882812 42.441406 39.882812 42.441406 Z M 40.144531 41.625 L 40.378906 41.832031 L 40.386719 41.832031 C 40.386719 41.832031 40.144531 41.625 40.144531 41.625 Z M 41.058594 41.320312 L 41.117188 41.007812 L 41.085938 41.007812 C 41.085938 41.007812 41.058594 41.007812 41.058594 41.007812 L 41.058594 41.328125 Z M 41.519531 41.433594 L 41.421875 41.738281 L 41.882812 41.878906 L 41.832031 41.394531 Z M 41.371094 40.082031 L 41.683594 40.042969 C 41.683594 40.042969 41.371094 40.082031 41.371094 40.082031 Z M 41.445312 39.8125 L 41.691406 40.011719 L 41.710938 39.984375 L 41.445312 39.804688 Z M 41.675781 39.679688 L 41.675781 40 L 41.710938 40 C 41.710938 40 41.675781 39.679688 41.675781 39.679688 Z M 46.21875 39.179688 L 46.21875 38.863281 L 46.179688 38.863281 C 46.179688 38.863281 46.21875 39.179688 46.21875 39.179688 Z M 41.710938 39.9375 L 41.710938 40.257812 L 41.75 40.257812 C 41.75 40.257812 41.710938 39.9375 41.710938 39.9375 Z M 41.617188 40.058594 L 41.296875 40.058594 L 41.296875 40.09375 C 41.296875 40.09375 41.617188 40.058594 41.617188 40.058594 Z M 41.808594 41.796875 L 41.675781 42.085938 L 42.1875 42.332031 L 42.121094 41.765625 L 41.808594 41.804688 Z M 41.019531 41.558594 L 40.960938 41.871094 L 40.96875 41.871094 C 40.96875 41.871094 41.019531 41.558594 41.019531 41.558594 Z M 40.144531 42.390625 L 40.460938 42.359375 C 40.460938 42.359375 40.148438 42.390625 40.148438 42.390625 Z M 41.90625 42.652344 L 42.21875 42.613281 L 42.160156 42.070312 L 41.710938 42.398438 L 41.898438 42.652344 Z M 42.128906 44.597656 L 41.808594 44.632812 L 41.808594 44.664062 C 41.808594 44.664062 42.128906 44.605469 42.128906 44.605469 Z M 42.246094 44.695312 L 42.246094 45.011719 L 42.285156 45.011719 C 42.285156 45.011719 42.246094 44.695312 42.246094 44.695312 Z M 43.644531 44.539062 L 43.683594 44.851562 L 44.210938 44.789062 L 43.914062 44.351562 L 43.652344 44.53125 Z M 43.355469 43.707031 L 43.675781 43.675781 C 43.675781 43.675781 43.363281 43.707031 43.363281 43.707031 Z M 44.316406 42.628906 L 44.316406 42.308594 L 44.277344 42.308594 C 44.277344 42.308594 44.316406 42.628906 44.316406 42.628906 Z M 45.476562 43.511719 L 45.164062 43.550781 C 45.164062 43.550781 45.476562 43.511719 45.476562 43.511719 Z M 45.378906 44.351562 L 45.089844 44.21875 L 44.851562 44.730469 L 45.40625 44.671875 L 45.371094 44.359375 Z M 46.792969 44.195312 L 46.828125 44.515625 L 46.859375 44.515625 C 46.859375 44.515625 46.796875 44.195312 46.796875 44.195312 Z M 46.902344 44.070312 L 47.222656 44.070312 L 47.222656 44.03125 C 47.222656 44.03125 46.902344 44.070312 46.902344 44.070312 Z M 46.679688 42.125 L 46.804688 41.832031 L 46.308594 41.617188 L 46.367188 42.160156 Z M 47.46875 42.347656 L 47.4375 42.664062 L 47.46875 42.664062 Z M 48.34375 41.492188 L 48.027344 41.523438 C 48.027344 41.523438 48.339844 41.492188 48.339844 41.492188 Z M 47.3125 40.859375 L 47.417969 41.15625 L 47.4375 41.15625 C 47.4375 41.15625 47.3125 40.859375 47.3125 40.859375 Z M 46.597656 41.261719 L 46.285156 41.300781 L 46.34375 41.847656 L 46.792969 41.523438 L 46.605469 41.269531 Z M 46.398438 39.523438 L 46.71875 39.484375 L 46.71875 39.457031 C 46.71875 39.457031 46.398438 39.515625 46.398438 39.515625 Z M 46.398438 39.523438 " fill-opacity="1" fill-rule="nonzero"/><path fill="#f6f3df" d="M 50.175781 50.265625 C 49.90625 50.265625 49.625 50.378906 49.429688 50.570312 L 46.566406 53.429688 C 46.382812 52.972656 46.179688 52.570312 45.957031 52.242188 C 45.371094 51.34375 44.484375 50.832031 43.527344 50.832031 C 42.761719 50.832031 42.03125 51.152344 41.464844 51.707031 C 40.8125 52.363281 40.476562 53.273438 40.605469 54.136719 C 40.714844 54.992188 41.234375 55.71875 42.0625 56.179688 C 42.390625 56.367188 42.804688 56.558594 43.25 56.738281 L 40.328125 59.65625 C 39.925781 60.058594 39.925781 60.683594 40.328125 61.082031 L 43.503906 64.257812 C 43.636719 64.390625 43.824219 64.464844 44.003906 64.464844 C 44.054688 64.464844 44.113281 64.464844 44.160156 64.449219 C 44.390625 64.398438 44.582031 64.21875 44.671875 63.996094 C 44.878906 63.410156 45.28125 62.464844 45.5625 62.199219 C 45.964844 61.796875 46.382812 61.589844 46.769531 61.589844 C 47.15625 61.589844 47.609375 61.804688 48.027344 62.21875 C 48.441406 62.636719 48.65625 63.074219 48.65625 63.511719 C 48.65625 63.953125 48.449219 64.390625 48.046875 64.792969 C 47.648438 65.191406 46.65625 65.578125 46.351562 65.691406 C 46.121094 65.765625 45.949219 65.957031 45.890625 66.203125 C 45.832031 66.433594 45.90625 66.6875 46.078125 66.855469 L 49.417969 70.191406 C 49.609375 70.386719 49.878906 70.496094 50.160156 70.496094 C 50.441406 70.496094 50.671875 70.386719 50.867188 70.207031 L 54.167969 66.910156 C 54.324219 66.753906 54.398438 66.53125 54.363281 66.320312 C 54.339844 66.105469 54.207031 65.921875 54.019531 65.808594 C 53.582031 65.554688 52.792969 65.050781 52.523438 64.796875 C 52.234375 64.507812 52.070312 64.09375 52.101562 63.65625 C 52.125 63.214844 52.316406 62.761719 52.652344 62.4375 C 53 62.085938 53.46875 61.886719 53.945312 61.886719 C 54.234375 61.886719 54.652344 61.960938 55 62.308594 C 55.304688 62.613281 55.707031 63.402344 55.878906 63.832031 C 55.960938 64.046875 56.160156 64.195312 56.390625 64.25 C 56.445312 64.25 56.472656 64.261719 56.527344 64.261719 C 56.710938 64.261719 56.890625 64.1875 57.023438 64.054688 L 59.96875 61.113281 C 60.355469 60.710938 60.355469 60.058594 59.96875 59.65625 L 57.0625 56.753906 C 57.558594 56.558594 58.011719 56.328125 58.378906 56.097656 C 59.195312 55.578125 59.695312 54.804688 59.777344 53.957031 C 59.859375 53.105469 59.558594 52.257812 58.914062 51.625 C 58.355469 51.070312 57.589844 50.734375 56.832031 50.734375 C 55.84375 50.734375 54.972656 51.269531 54.429688 52.21875 C 54.222656 52.585938 54.003906 53.046875 53.820312 53.535156 L 50.875 50.59375 C 50.6875 50.40625 50.433594 50.304688 50.167969 50.304688 M 50.203125 50.921875 C 50.277344 50.921875 50.355469 50.941406 50.414062 51 L 54.175781 54.761719 C 54.382812 53.972656 54.765625 53.058594 55.074219 52.496094 C 55.53125 51.707031 56.199219 51.367188 56.867188 51.367188 C 57.441406 51.367188 58.027344 51.617188 58.453125 52.050781 C 59.390625 52.984375 59.441406 54.546875 58.027344 55.453125 C 57.457031 55.832031 56.578125 56.179688 55.789062 56.386719 L 59.5 60.09375 C 59.621094 60.214844 59.621094 60.4375 59.5 60.554688 L 56.554688 63.5 C 56.554688 63.5 56.035156 62.273438 55.523438 61.761719 C 55.082031 61.320312 54.53125 61.128906 53.960938 61.128906 C 53.3125 61.128906 52.660156 61.394531 52.167969 61.886719 C 51.246094 62.808594 51.121094 64.308594 52.050781 65.230469 C 52.488281 65.667969 53.691406 66.359375 53.691406 66.359375 L 50.390625 69.65625 C 50.390625 69.65625 50.257812 69.738281 50.183594 69.738281 C 50.101562 69.738281 50.011719 69.703125 49.9375 69.644531 L 46.597656 66.308594 C 46.597656 66.308594 47.953125 65.847656 48.5625 65.238281 C 49.65625 64.144531 49.632812 62.777344 48.539062 61.6875 C 47.980469 61.128906 47.378906 60.847656 46.785156 60.847656 C 46.1875 60.847656 45.617188 61.113281 45.082031 61.664062 C 44.546875 62.214844 44.023438 63.730469 44.023438 63.730469 L 40.847656 60.554688 C 40.730469 60.4375 40.730469 60.25 40.847656 60.132812 L 44.558594 56.425781 C 43.792969 56.210938 42.953125 55.851562 42.425781 55.5625 C 40.953125 54.722656 41.035156 53.121094 41.972656 52.183594 C 42.394531 51.757812 42.960938 51.515625 43.535156 51.515625 C 44.203125 51.515625 44.886719 51.855469 45.386719 52.605469 C 45.734375 53.140625 46.070312 53.929688 46.285156 54.710938 L 49.9375 51.0625 C 49.996094 51 50.09375 50.964844 50.183594 50.964844 " fill-opacity="1" fill-rule="nonzero"/><path fill="#0080bf" d="M 51.320312 50.132812 C 51.023438 49.835938 50.605469 49.65625 50.167969 49.65625 L 50.167969 50.925781 C 50.265625 50.925781 50.359375 50.964844 50.429688 51.03125 L 51.328125 50.132812 Z M 54.265625 53.074219 L 51.320312 50.132812 L 50.421875 51.03125 L 53.367188 53.972656 Z M 53.871094 51.902344 C 53.648438 52.292969 53.417969 52.785156 53.21875 53.304688 L 54.40625 53.75 C 54.578125 53.296875 54.785156 52.859375 54.972656 52.523438 L 53.863281 51.902344 Z M 56.824219 50.09375 C 55.582031 50.09375 54.511719 50.777344 53.871094 51.902344 L 54.980469 52.523438 C 55.417969 51.753906 56.085938 51.367188 56.824219 51.367188 Z M 59.359375 51.164062 C 58.691406 50.496094 57.761719 50.089844 56.832031 50.089844 L 56.832031 51.359375 C 57.402344 51.359375 58.011719 51.609375 58.46875 52.0625 L 59.367188 51.164062 Z M 60.402344 54.011719 C 60.503906 52.964844 60.132812 51.921875 59.351562 51.15625 L 58.460938 52.0625 C 58.972656 52.5625 59.203125 53.222656 59.136719 53.882812 Z M 58.710938 56.625 C 59.671875 56.015625 60.296875 55.082031 60.402344 54.011719 L 59.136719 53.882812 C 59.070312 54.515625 58.699219 55.117188 58.027344 55.554688 Z M 57.285156 57.339844 C 57.820312 57.132812 58.3125 56.878906 58.707031 56.625 L 58.027344 55.554688 C 57.703125 55.765625 57.285156 55.980469 56.824219 56.15625 Z M 60.414062 59.203125 L 57.507812 56.300781 L 56.609375 57.199219 L 59.515625 60.101562 Z M 60.421875 61.558594 C 61.054688 60.914062 61.054688 59.867188 60.421875 59.21875 L 59.507812 60.101562 C 59.65625 60.257812 59.65625 60.527344 59.507812 60.683594 L 60.421875 61.566406 Z M 57.46875 64.507812 L 60.414062 61.566406 L 59.515625 60.667969 L 56.570312 63.609375 Z M 56.519531 64.902344 C 56.867188 64.902344 57.210938 64.761719 57.46875 64.507812 L 56.570312 63.609375 C 56.570312 63.609375 56.554688 63.625 56.546875 63.625 C 56.542969 63.625 56.527344 63.625 56.519531 63.625 Z M 56.386719 64.886719 C 56.386719 64.886719 56.339844 64.886719 56.363281 64.886719 C 56.378906 64.886719 56.445312 64.902344 56.519531 64.902344 L 56.519531 63.632812 C 56.519531 63.632812 56.5625 63.632812 56.542969 63.632812 C 56.527344 63.632812 56.460938 63.617188 56.386719 63.617188 Z M 55.285156 64.070312 C 55.457031 64.515625 55.847656 64.792969 56.257812 64.871094 L 56.519531 63.632812 C 56.519531 63.632812 56.480469 63.617188 56.472656 63.609375 L 55.292969 64.070312 Z M 54.546875 62.769531 C 54.628906 62.851562 54.769531 63.058594 54.925781 63.34375 C 55.074219 63.609375 55.210938 63.890625 55.285156 64.078125 L 56.464844 63.609375 C 56.371094 63.371094 56.214844 63.046875 56.042969 62.734375 C 55.878906 62.4375 55.671875 62.09375 55.449219 61.878906 L 54.546875 62.777344 Z M 53.9375 62.523438 C 54.125 62.523438 54.355469 62.570312 54.546875 62.761719 L 55.449219 61.863281 C 54.933594 61.351562 54.332031 61.253906 53.9375 61.253906 Z M 53.097656 62.890625 C 53.335938 62.652344 53.640625 62.523438 53.9375 62.523438 L 53.9375 61.253906 C 53.292969 61.253906 52.667969 61.523438 52.199219 61.988281 Z M 52.734375 63.691406 C 52.75 63.410156 52.882812 63.105469 53.097656 62.890625 L 52.199219 61.988281 C 51.757812 62.429688 51.5 63.03125 51.460938 63.617188 L 52.734375 63.683594 Z M 52.980469 64.351562 C 52.816406 64.1875 52.726562 63.960938 52.742188 63.691406 L 51.46875 63.625 C 51.433594 64.234375 51.65625 64.828125 52.078125 65.25 Z M 54.347656 65.257812 C 54.140625 65.140625 53.839844 64.953125 53.566406 64.777344 C 53.277344 64.582031 53.0625 64.425781 52.972656 64.34375 L 52.09375 65.265625 C 52.273438 65.4375 52.585938 65.652344 52.867188 65.839844 C 53.164062 66.03125 53.484375 66.226562 53.707031 66.359375 Z M 54.996094 66.246094 C 54.941406 65.800781 54.675781 65.460938 54.347656 65.257812 L 53.691406 66.34375 C 53.691406 66.34375 53.722656 66.367188 53.722656 66.375 L 54.988281 66.234375 Z M 54.621094 67.355469 C 54.914062 67.066406 55.070312 66.632812 54.996094 66.210938 L 53.746094 66.433594 C 53.746094 66.433594 53.746094 66.449219 53.730469 66.457031 L 54.628906 67.355469 Z M 51.320312 70.644531 L 54.621094 67.347656 L 53.722656 66.449219 L 50.421875 69.746094 Z M 50.167969 71.128906 C 50.636719 71.128906 51.015625 70.941406 51.304688 70.667969 L 50.433594 69.738281 C 50.339844 69.828125 50.257812 69.859375 50.160156 69.859375 L 50.160156 71.128906 Z M 48.96875 70.636719 C 49.289062 70.957031 49.714844 71.128906 50.160156 71.128906 L 50.160156 69.859375 C 50.046875 69.859375 49.9375 69.8125 49.871094 69.738281 Z M 45.640625 67.300781 L 48.976562 70.636719 L 49.878906 69.738281 L 46.539062 66.402344 Z M 45.289062 66.039062 C 45.171875 66.5 45.3125 66.984375 45.640625 67.308594 L 46.539062 66.410156 C 46.539062 66.410156 46.523438 66.394531 46.523438 66.382812 C 46.523438 66.367188 46.523438 66.359375 46.523438 66.359375 L 45.296875 66.039062 Z M 46.175781 65.082031 C 45.714844 65.230469 45.394531 65.609375 45.289062 66.039062 L 46.523438 66.34375 C 46.523438 66.34375 46.539062 66.300781 46.546875 66.292969 C 46.546875 66.285156 46.5625 66.285156 46.5625 66.285156 L 46.179688 65.074219 Z M 47.609375 64.339844 C 47.492188 64.457031 47.230469 64.613281 46.902344 64.777344 C 46.589844 64.925781 46.292969 65.042969 46.152344 65.089844 L 46.582031 66.285156 C 46.746094 66.226562 47.097656 66.089844 47.453125 65.921875 C 47.796875 65.757812 48.226562 65.519531 48.507812 65.238281 Z M 48.035156 63.511719 C 48.035156 63.734375 47.929688 64.027344 47.609375 64.34375 L 48.507812 65.246094 C 48.992188 64.761719 49.304688 64.167969 49.304688 63.519531 L 48.035156 63.519531 Z M 47.585938 62.667969 C 47.929688 63.007812 48.035156 63.289062 48.035156 63.503906 L 49.304688 63.503906 C 49.304688 62.84375 48.96875 62.257812 48.488281 61.765625 Z M 46.777344 62.21875 C 46.941406 62.21875 47.238281 62.324219 47.578125 62.667969 L 48.480469 61.765625 C 47.996094 61.285156 47.394531 60.949219 46.777344 60.949219 Z M 46.023438 62.644531 C 46.359375 62.308594 46.621094 62.21875 46.785156 62.21875 L 46.785156 60.949219 C 46.167969 60.949219 45.601562 61.277344 45.132812 61.746094 L 46.03125 62.644531 Z M 45.28125 64.210938 C 45.378906 63.9375 45.527344 63.574219 45.675781 63.253906 C 45.75 63.089844 45.824219 62.949219 45.890625 62.835938 C 45.921875 62.777344 45.949219 62.742188 45.972656 62.703125 C 45.996094 62.667969 46.011719 62.660156 46.011719 62.660156 L 45.132812 61.746094 C 45 61.871094 44.886719 62.042969 44.796875 62.191406 C 44.703125 62.347656 44.613281 62.53125 44.523438 62.710938 C 44.351562 63.074219 44.1875 63.476562 44.085938 63.789062 Z M 44.308594 65.066406 C 44.777344 64.96875 45.125 64.621094 45.28125 64.226562 L 44.097656 63.765625 C 44.097656 63.765625 44.085938 63.796875 44.070312 63.808594 C 44.054688 63.824219 44.046875 63.824219 44.054688 63.824219 L 44.316406 65.066406 Z M 44.015625 65.097656 C 44.015625 65.097656 44.1875 65.097656 44.328125 65.066406 L 44.023438 63.832031 C 44.023438 63.832031 44.054688 63.832031 44.0625 63.832031 C 44.0625 63.832031 44.0625 63.832031 44.046875 63.832031 C 44.039062 63.832031 44.03125 63.832031 44.015625 63.832031 L 44.015625 65.101562 Z M 43.066406 64.703125 C 43.320312 64.953125 43.667969 65.097656 44.015625 65.097656 L 44.015625 63.824219 C 44.015625 63.824219 44.003906 63.824219 43.988281 63.824219 C 43.980469 63.824219 43.972656 63.816406 43.964844 63.808594 L 43.066406 64.710938 Z M 39.890625 61.53125 L 43.066406 64.703125 L 43.964844 63.804688 L 40.789062 60.628906 Z M 39.890625 59.203125 C 39.242188 59.851562 39.242188 60.875 39.890625 61.523438 L 40.789062 60.625 C 40.632812 60.46875 40.632812 60.25 40.789062 60.09375 L 39.890625 59.195312 Z M 42.8125 56.285156 L 39.890625 59.203125 L 40.789062 60.101562 L 43.710938 57.183594 Z M 41.757812 56.730469 C 42.113281 56.929688 42.550781 57.132812 43.019531 57.324219 L 43.496094 56.152344 C 43.066406 55.972656 42.671875 55.792969 42.375 55.625 Z M 39.980469 54.210938 C 40.121094 55.289062 40.78125 56.179688 41.765625 56.730469 L 42.382812 55.625 C 41.703125 55.246094 41.316406 54.679688 41.242188 54.054688 L 39.988281 54.21875 Z M 41.019531 51.253906 C 40.230469 52.042969 39.824219 53.148438 39.980469 54.226562 L 41.234375 54.046875 C 41.148438 53.402344 41.390625 52.679688 41.921875 52.152344 Z M 43.527344 50.191406 C 42.582031 50.191406 41.691406 50.585938 41.019531 51.253906 L 41.921875 52.152344 C 42.367188 51.707031 42.9375 51.460938 43.527344 51.460938 Z M 46.492188 51.886719 C 45.808594 50.832031 44.730469 50.183594 43.527344 50.183594 L 43.527344 51.457031 C 44.246094 51.457031 44.945312 51.835938 45.429688 52.578125 Z M 47.164062 53.195312 C 46.96875 52.695312 46.738281 52.257812 46.492188 51.886719 L 45.4375 52.59375 C 45.632812 52.875 45.816406 53.238281 45.980469 53.660156 Z M 48.984375 50.117188 L 46.121094 52.976562 L 47.023438 53.878906 L 49.886719 51.015625 Z M 50.175781 49.628906 C 49.742188 49.628906 49.304688 49.796875 48.984375 50.117188 L 49.886719 51.015625 C 49.953125 50.949219 50.070312 50.898438 50.175781 50.898438 Z M 50.382812 51.515625 C 50.339844 51.558594 50.300781 51.574219 50.277344 51.582031 C 50.257812 51.589844 50.21875 51.597656 50.175781 51.597656 L 50.175781 50.324219 C 49.9375 50.324219 49.675781 50.414062 49.484375 50.609375 L 50.382812 51.507812 Z M 46.730469 55.164062 L 50.382812 51.515625 L 49.484375 50.617188 L 45.832031 54.261719 Z M 44.851562 52.964844 C 45.15625 53.425781 45.460938 54.152344 45.667969 54.886719 L 46.886719 54.546875 C 46.65625 53.730469 46.308594 52.875 45.90625 52.265625 L 44.84375 52.964844 Z M 43.527344 52.152344 C 43.957031 52.152344 44.457031 52.367188 44.851562 52.964844 L 45.90625 52.265625 C 45.304688 51.351562 44.425781 50.882812 43.527344 50.882812 Z M 42.417969 52.636719 C 42.738281 52.316406 43.140625 52.152344 43.527344 52.152344 L 43.527344 50.882812 C 42.777344 50.882812 42.054688 51.203125 41.519531 51.738281 Z M 42.738281 55.015625 C 42.171875 54.695312 41.957031 54.261719 41.925781 53.863281 C 41.898438 53.4375 42.070312 52.976562 42.417969 52.628906 L 41.519531 51.730469 C 40.929688 52.316406 40.597656 53.125 40.65625 53.953125 C 40.714844 54.796875 41.199219 55.59375 42.105469 56.113281 Z M 44.722656 55.824219 C 44.003906 55.617188 43.207031 55.28125 42.730469 55.015625 L 42.113281 56.121094 C 42.6875 56.441406 43.570312 56.8125 44.382812 57.042969 L 44.730469 55.824219 Z M 41.289062 60.59375 L 45 56.886719 L 44.097656 55.988281 L 40.386719 59.695312 Z M 41.289062 60.117188 C 41.339844 60.171875 41.386719 60.257812 41.386719 60.355469 C 41.386719 60.453125 41.347656 60.535156 41.289062 60.59375 L 40.386719 59.695312 C 40.015625 60.066406 40.015625 60.644531 40.386719 61.015625 Z M 44.464844 63.289062 L 41.289062 60.117188 L 40.386719 61.015625 L 43.5625 64.1875 Z M 44.621094 61.230469 C 44.261719 61.597656 43.957031 62.21875 43.765625 62.660156 C 43.660156 62.898438 43.570312 63.113281 43.511719 63.269531 C 43.480469 63.351562 43.460938 63.410156 43.445312 63.460938 C 43.4375 63.484375 43.429688 63.503906 43.421875 63.511719 C 43.421875 63.511719 43.421875 63.527344 43.421875 63.527344 C 43.421875 63.527344 43.421875 63.527344 44.023438 63.734375 L 44.628906 63.945312 C 44.628906 63.945312 44.628906 63.945312 44.628906 63.9375 C 44.628906 63.929688 44.632812 63.914062 44.640625 63.890625 C 44.65625 63.855469 44.679688 63.796875 44.703125 63.722656 C 44.753906 63.582031 44.835938 63.378906 44.925781 63.171875 C 45.125 62.71875 45.347656 62.300781 45.527344 62.117188 Z M 46.777344 60.222656 C 45.964844 60.222656 45.246094 60.59375 44.621094 61.226562 L 45.527344 62.109375 C 45.972656 61.648438 46.390625 61.484375 46.777344 61.484375 L 46.777344 60.214844 Z M 48.984375 61.246094 C 48.34375 60.601562 47.59375 60.222656 46.785156 60.222656 L 46.785156 61.492188 C 47.171875 61.492188 47.609375 61.671875 48.085938 62.144531 Z M 49.007812 65.699219 C 49.65625 65.050781 50.011719 64.285156 50.003906 63.46875 C 49.996094 62.652344 49.625 61.886719 48.984375 61.246094 L 48.085938 62.144531 C 48.539062 62.597656 48.730469 63.066406 48.730469 63.476562 C 48.730469 63.890625 48.5625 64.34375 48.109375 64.796875 Z M 46.597656 66.320312 C 46.738281 66.722656 46.804688 66.921875 46.804688 66.921875 C 46.804688 66.921875 46.8125 66.921875 46.820312 66.921875 C 46.835938 66.921875 46.851562 66.914062 46.875 66.910156 C 46.917969 66.894531 46.976562 66.871094 47.042969 66.839844 C 47.191406 66.78125 47.394531 66.699219 47.609375 66.605469 C 48.035156 66.410156 48.613281 66.097656 49 65.710938 L 48.101562 64.8125 C 47.878906 65.035156 47.476562 65.257812 47.074219 65.453125 C 46.878906 65.542969 46.710938 65.617188 46.582031 65.660156 C 46.523438 65.683594 46.472656 65.703125 46.433594 65.710938 C 46.417969 65.710938 46.40625 65.71875 46.398438 65.726562 C 46.398438 65.726562 46.398438 65.726562 46.390625 65.726562 C 46.390625 65.726562 46.390625 65.726562 46.597656 66.328125 Z M 50.382812 69.203125 L 47.042969 65.867188 L 46.144531 66.765625 L 49.484375 70.101562 Z M 50.175781 69.113281 C 50.273438 69.113281 50.324219 69.152344 50.339844 69.167969 L 49.527344 70.140625 C 49.683594 70.273438 49.90625 70.386719 50.175781 70.386719 Z M 50.382812 69.664062 C 50.15625 69.308594 50.042969 69.128906 50.042969 69.128906 C 50.042969 69.128906 50.027344 69.128906 50.027344 69.136719 C 50.027344 69.136719 50.085938 69.113281 50.175781 69.113281 L 50.175781 70.386719 C 50.300781 70.386719 50.398438 70.355469 50.449219 70.332031 C 50.511719 70.3125 50.554688 70.289062 50.589844 70.273438 C 50.628906 70.257812 50.660156 70.238281 50.679688 70.222656 C 50.695312 70.222656 50.703125 70.207031 50.710938 70.207031 C 50.710938 70.207031 50.710938 70.207031 50.71875 70.207031 C 50.71875 70.207031 50.71875 70.207031 50.375 69.671875 Z M 53.230469 65.921875 L 49.929688 69.21875 L 50.828125 70.117188 L 54.132812 66.820312 Z M 51.589844 65.691406 C 51.863281 65.964844 52.332031 66.285156 52.679688 66.507812 C 52.867188 66.625 53.039062 66.730469 53.15625 66.804688 C 53.21875 66.839844 53.269531 66.871094 53.304688 66.894531 C 53.320312 66.902344 53.335938 66.910156 53.351562 66.914062 C 53.351562 66.914062 53.359375 66.914062 53.367188 66.914062 C 53.367188 66.914062 53.367188 66.914062 53.683594 66.367188 C 53.898438 66 54.003906 65.816406 54.003906 65.816406 C 54.003906 65.816406 54.003906 65.816406 53.996094 65.816406 C 53.992188 65.816406 53.976562 65.800781 53.960938 65.792969 C 53.929688 65.773438 53.878906 65.75 53.828125 65.710938 C 53.707031 65.644531 53.550781 65.550781 53.378906 65.4375 C 53.015625 65.207031 52.667969 64.953125 52.503906 64.792969 L 51.601562 65.691406 Z M 51.714844 61.441406 C 50.585938 62.570312 50.375 64.472656 51.59375 65.683594 L 52.496094 64.785156 C 51.863281 64.144531 51.894531 63.050781 52.613281 62.339844 Z M 53.953125 60.503906 C 53.136719 60.503906 52.316406 60.839844 51.714844 61.449219 L 52.613281 62.347656 C 52.984375 61.976562 53.484375 61.773438 53.953125 61.773438 Z M 55.960938 61.320312 C 55.386719 60.75 54.675781 60.503906 53.953125 60.503906 L 53.953125 61.773438 C 54.378906 61.773438 54.757812 61.914062 55.0625 62.21875 Z M 56.546875 63.511719 C 56.941406 63.351562 57.136719 63.269531 57.136719 63.269531 C 57.136719 63.269531 57.136719 63.269531 57.136719 63.253906 C 57.136719 63.246094 57.128906 63.230469 57.113281 63.207031 C 57.097656 63.171875 57.078125 63.121094 57.039062 63.050781 C 56.980469 62.917969 56.890625 62.742188 56.785156 62.546875 C 56.59375 62.175781 56.296875 61.664062 55.960938 61.328125 L 55.0625 62.226562 C 55.238281 62.40625 55.460938 62.761719 55.65625 63.132812 C 55.746094 63.304688 55.828125 63.46875 55.878906 63.585938 C 55.910156 63.648438 55.925781 63.691406 55.9375 63.722656 C 55.9375 63.734375 55.953125 63.75 55.953125 63.757812 C 55.953125 63.757812 55.953125 63.757812 55.953125 63.765625 C 55.953125 63.765625 55.953125 63.765625 56.542969 63.519531 Z M 59.039062 60.117188 L 56.09375 63.058594 L 56.996094 63.960938 L 59.941406 61.015625 Z M 59.039062 60.554688 C 58.964844 60.480469 58.941406 60.398438 58.941406 60.339844 C 58.941406 60.28125 58.964844 60.199219 59.039062 60.125 L 59.941406 61.023438 C 60.3125 60.652344 60.3125 60.035156 59.941406 59.664062 L 59.039062 60.5625 Z M 55.328125 56.839844 L 59.039062 60.550781 L 59.941406 59.648438 L 56.230469 55.941406 Z M 57.671875 54.925781 C 57.171875 55.25 56.371094 55.578125 55.617188 55.777344 L 55.9375 57.003906 C 56.773438 56.789062 57.722656 56.410156 58.371094 55.988281 Z M 58 52.503906 C 58.347656 52.851562 58.511719 53.296875 58.480469 53.722656 C 58.453125 54.128906 58.230469 54.566406 57.679688 54.933594 L 58.371094 55.996094 C 59.226562 55.4375 59.6875 54.648438 59.753906 53.816406 C 59.8125 52.992188 59.484375 52.199219 58.898438 51.609375 L 58 52.511719 Z M 56.859375 52.003906 C 57.246094 52.003906 57.679688 52.183594 57.992188 52.503906 L 58.890625 51.605469 C 58.355469 51.070312 57.613281 50.734375 56.859375 50.734375 Z M 55.625 52.816406 C 55.96875 52.214844 56.4375 52.003906 56.859375 52.003906 L 56.859375 50.734375 C 55.953125 50.734375 55.074219 51.210938 54.519531 52.183594 L 55.617188 52.816406 Z M 54.785156 54.925781 C 54.980469 54.183594 55.335938 53.328125 55.625 52.816406 L 54.519531 52.191406 C 54.175781 52.800781 53.773438 53.765625 53.558594 54.605469 Z M 49.960938 51.457031 L 53.722656 55.214844 L 54.621094 54.316406 L 50.859375 50.554688 Z M 50.203125 51.558594 C 50.203125 51.558594 50.128906 51.558594 50.078125 51.535156 C 50.035156 51.523438 49.988281 51.492188 49.960938 51.460938 L 50.859375 50.5625 C 50.664062 50.371094 50.429688 50.296875 50.203125 50.296875 L 50.203125 51.566406 Z M 50.875 50.578125 L 51.320312 50.132812 Z M 53.820312 53.519531 L 53.371094 53.964844 L 54.070312 54.664062 L 54.421875 53.742188 L 53.828125 53.519531 Z M 54.429688 52.214844 L 54.980469 52.523438 C 54.980469 52.523438 54.429688 52.214844 54.429688 52.214844 Z M 58.90625 51.609375 L 58.460938 52.058594 C 58.460938 52.058594 58.90625 51.609375 58.90625 51.609375 Z M 58.371094 56.089844 L 58.710938 56.625 C 58.710938 56.625 58.371094 56.089844 58.371094 56.089844 Z M 57.054688 56.746094 L 56.824219 56.152344 L 55.917969 56.507812 L 56.601562 57.191406 L 57.046875 56.746094 Z M 59.96875 59.65625 L 60.421875 59.21875 C 60.421875 59.21875 59.976562 59.65625 59.976562 59.65625 Z M 59.96875 61.113281 L 60.414062 61.558594 C 60.414062 61.558594 59.960938 61.113281 59.960938 61.113281 Z M 57.015625 64.054688 L 56.570312 63.609375 Z M 56.386719 64.25 L 56.25 64.871094 L 56.316406 64.886719 L 56.386719 64.886719 Z M 55.871094 63.839844 L 56.464844 63.609375 C 56.464844 63.609375 55.878906 63.839844 55.878906 63.839844 Z M 52.523438 64.796875 L 52.078125 65.246094 L 52.085938 65.246094 C 52.085938 65.246094 52.523438 64.796875 52.523438 64.796875 Z M 54.027344 65.808594 L 54.355469 65.265625 C 54.355469 65.265625 54.035156 65.808594 54.035156 65.808594 Z M 54.363281 66.320312 L 53.730469 66.386719 L 53.730469 66.425781 C 53.730469 66.425781 54.363281 66.3125 54.363281 66.3125 Z M 54.167969 66.902344 L 54.613281 67.347656 Z M 50.875 70.199219 L 51.304688 70.660156 L 51.320312 70.644531 Z M 49.425781 70.183594 L 49.871094 69.738281 Z M 46.085938 66.855469 L 45.640625 67.300781 Z M 45.90625 66.195312 L 46.523438 66.359375 C 46.523438 66.359375 45.90625 66.195312 45.90625 66.195312 Z M 46.367188 65.691406 L 46.5625 66.300781 L 46.582031 66.300781 C 46.582031 66.300781 46.367188 65.691406 46.367188 65.691406 Z M 45.570312 62.199219 L 46.011719 62.660156 L 46.019531 62.660156 C 46.019531 62.660156 45.570312 62.199219 45.570312 62.199219 Z M 44.6875 63.996094 L 45.28125 64.226562 L 45.28125 64.210938 C 45.28125 64.210938 44.6875 63.996094 44.6875 63.996094 Z M 44.171875 64.449219 L 44.039062 63.824219 L 44.015625 63.824219 C 44.015625 63.824219 44.171875 64.449219 44.171875 64.449219 Z M 43.519531 64.25 L 43.964844 63.804688 Z M 40.335938 61.078125 L 39.890625 61.523438 Z M 40.335938 59.65625 L 39.890625 59.210938 Z M 43.257812 56.738281 L 43.707031 57.183594 L 44.382812 56.507812 L 43.496094 56.152344 Z M 42.070312 56.171875 L 41.757812 56.730469 C 41.757812 56.730469 42.0625 56.171875 42.0625 56.171875 Z M 40.605469 54.128906 L 41.234375 54.046875 C 41.234375 54.046875 40.605469 54.128906 40.605469 54.128906 Z M 45.964844 52.234375 L 45.429688 52.578125 C 45.429688 52.578125 45.957031 52.234375 45.957031 52.234375 Z M 46.574219 53.425781 L 45.988281 53.652344 L 46.34375 54.554688 L 47.03125 53.871094 L 46.582031 53.425781 Z M 49.429688 50.570312 L 49.878906 51.015625 Z M 49.9375 51.070312 L 50.382812 51.515625 Z M 46.277344 54.714844 L 45.667969 54.886719 L 45.957031 55.925781 L 46.722656 55.164062 Z M 45.378906 52.613281 L 45.90625 52.265625 C 45.90625 52.265625 45.378906 52.613281 45.378906 52.613281 Z M 42.417969 55.570312 L 42.105469 56.121094 C 42.105469 56.121094 42.417969 55.570312 42.417969 55.570312 Z M 44.554688 56.433594 L 45 56.878906 L 45.765625 56.113281 L 44.722656 55.816406 L 44.554688 56.425781 Z M 40.84375 60.140625 L 40.394531 59.695312 Z M 40.84375 60.5625 L 40.394531 61.007812 Z M 44.015625 63.742188 L 43.570312 64.1875 L 44.292969 64.910156 L 44.621094 63.953125 Z M 46.597656 66.320312 L 46.390625 65.71875 L 45.421875 66.046875 L 46.144531 66.765625 L 46.589844 66.320312 Z M 49.9375 69.648438 L 49.492188 70.097656 L 49.511719 70.117188 L 49.535156 70.132812 L 49.945312 69.644531 Z M 50.382812 69.664062 L 50.726562 70.199219 L 50.785156 70.164062 L 50.835938 70.109375 L 50.390625 69.664062 Z M 53.683594 66.367188 L 54.132812 66.8125 L 54.71875 66.226562 L 53.996094 65.808594 L 53.679688 66.359375 Z M 56.546875 63.511719 L 55.960938 63.757812 L 56.332031 64.621094 L 56.996094 63.960938 Z M 59.492188 60.5625 L 59.046875 60.117188 Z M 59.492188 60.101562 L 59.941406 59.65625 C 59.941406 59.65625 59.492188 60.101562 59.492188 60.101562 Z M 55.773438 56.394531 L 55.613281 55.777344 L 54.539062 56.0625 L 55.320312 56.839844 L 55.769531 56.394531 Z M 58.019531 55.460938 L 57.679688 54.925781 C 57.679688 54.925781 58.027344 55.460938 58.027344 55.460938 Z M 55.070312 52.503906 L 54.519531 52.191406 C 54.519531 52.191406 55.070312 52.503906 55.070312 52.503906 Z M 54.167969 54.769531 L 53.722656 55.214844 L 54.503906 55.996094 L 54.785156 54.925781 L 54.167969 54.761719 Z M 50.40625 51.007812 L 50.851562 50.5625 Z M 50.40625 51.007812 " fill-opacity="1" fill-rule="nonzero"/></svg>