<svg xmlns="http://www.w3.org/2000/svg" xmlns:xlink="http://www.w3.org/1999/xlink" width="150" zoomAndPan="magnify" viewBox="0 0 113.04 120.96" height="150" preserveAspectRatio="xMidYMid meet" version="1.0"><defs><clipPath id="32beee0056"><path d="M 0 0.488281 L 111.550781 0.488281 L 111.550781 112.042969 L 0 112.042969 Z M 0 0.488281 " clip-rule="nonzero"/></clipPath></defs><g clip-path="url(#32beee0056)"><path fill="#ffffff" d="M 0 0.488281 L 111.550781 0.488281 L 111.550781 112.042969 L 0 112.042969 Z M 0 0.488281 " fill-opacity="1" fill-rule="nonzero"/><path fill="#ffffff" d="M 0 0.488281 L 111.550781 0.488281 L 111.550781 112.042969 L 0 112.042969 Z M 0 0.488281 " fill-opacity="1" fill-rule="nonzero"/></g><path fill="#0080bf" d="M 73.515625 33.15625 L 69.15625 33.15625 L 69.15625 35.863281 L 73.515625 35.863281 Z M 74.867188 84.15625 L 74.867188 34.507812 L 72.167969 34.507812 L 72.167969 84.15625 Z M 37.738281 85.511719 L 73.523438 85.511719 L 73.523438 82.800781 L 37.738281 82.800781 Z M 36.390625 34.507812 L 36.390625 84.15625 L 39.089844 84.15625 L 39.089844 34.507812 Z M 42.390625 33.15625 L 37.730469 33.15625 L 37.730469 35.863281 L 42.390625 35.863281 Z M 73.515625 34.507812 L 74.867188 34.507812 L 74.867188 33.15625 L 73.515625 33.15625 Z M 73.515625 84.15625 L 73.515625 85.511719 L 74.867188 85.511719 L 74.867188 84.15625 Z M 37.738281 84.15625 L 36.390625 84.15625 L 36.390625 85.511719 L 37.738281 85.511719 Z M 37.738281 34.507812 L 37.738281 33.15625 L 36.390625 33.15625 L 36.390625 34.507812 Z M 37.738281 34.507812 " fill-opacity="1" fill-rule="nonzero"/><path fill="#0080bf" d="M 72.578125 28.050781 L 60.132812 28.050781 L 60.132812 30.757812 L 72.578125 30.757812 Z M 79.082031 34.507812 C 79.082031 30.84375 76.179688 28.050781 72.570312 28.050781 L 72.570312 30.757812 C 74.738281 30.757812 76.382812 32.390625 76.382812 34.507812 Z M 79.082031 84.089844 L 79.082031 34.507812 L 76.382812 34.507812 L 76.382812 84.097656 L 79.082031 84.097656 Z M 72.578125 90.640625 C 76.214844 90.640625 79.089844 87.714844 79.089844 84.097656 L 76.390625 84.097656 C 76.390625 86.238281 74.714844 87.929688 72.578125 87.929688 Z M 38.9375 90.640625 L 72.570312 90.640625 L 72.570312 87.929688 L 38.9375 87.929688 Z M 32.15625 84.089844 C 32.15625 87.816406 35.398438 90.632812 38.9375 90.632812 L 38.9375 87.921875 C 36.710938 87.921875 34.855469 86.148438 34.855469 84.089844 Z M 32.15625 34.507812 L 32.15625 84.097656 L 34.855469 84.097656 L 34.855469 34.507812 Z M 38.9375 28.050781 C 35.429688 28.050781 32.15625 30.75 32.15625 34.507812 L 34.855469 34.507812 C 34.855469 32.472656 36.679688 30.757812 38.9375 30.757812 Z M 51.402344 28.050781 L 38.9375 28.050781 L 38.9375 30.757812 L 51.402344 30.757812 Z M 51.402344 28.050781 " fill-opacity="1" fill-rule="nonzero"/><path fill="#0080bf" d="M 73.660156 33.308594 L 69.164062 33.308594 L 69.164062 36.015625 L 73.660156 36.015625 Z M 75.011719 84.011719 L 75.011719 34.664062 L 72.3125 34.664062 L 72.3125 84.011719 Z M 37.875 85.367188 L 73.660156 85.367188 L 73.660156 82.65625 L 37.875 82.65625 Z M 36.527344 34.664062 L 36.527344 84.011719 L 39.226562 84.011719 L 39.226562 34.664062 Z M 42.390625 33.308594 L 37.875 33.308594 L 37.875 36.015625 L 42.390625 36.015625 Z M 73.660156 34.664062 L 75.011719 34.664062 C 75.011719 33.914062 74.410156 33.308594 73.660156 33.308594 Z M 73.660156 84.011719 L 73.660156 85.367188 C 74.410156 85.367188 75.011719 84.761719 75.011719 84.011719 Z M 37.875 84.011719 L 36.527344 84.011719 C 36.527344 84.761719 37.128906 85.367188 37.875 85.367188 Z M 37.875 34.664062 L 37.875 33.308594 C 37.128906 33.308594 36.527344 33.914062 36.527344 34.664062 Z M 37.875 34.664062 " fill-opacity="1" fill-rule="nonzero"/><path fill="#0080bf" d="M 71.160156 35.933594 C 71.160156 34.921875 70.695312 34.066406 70.054688 33.390625 C 69.421875 32.726562 68.566406 32.175781 67.605469 31.722656 C 65.679688 30.8125 63.0625 30.160156 60.121094 29.824219 L 59.8125 32.519531 C 62.582031 32.832031 64.886719 33.4375 66.457031 34.179688 C 67.242188 34.554688 67.773438 34.929688 68.09375 35.265625 C 68.40625 35.597656 68.453125 35.816406 68.453125 35.941406 L 71.152344 35.941406 Z M 69.734375 36.398438 C 70.605469 36.628906 71.039062 36.742188 71.039062 36.742188 C 71.039062 36.742188 71.039062 36.734375 71.039062 36.730469 C 71.039062 36.714844 71.046875 36.699219 71.054688 36.675781 C 71.0625 36.636719 71.078125 36.574219 71.09375 36.507812 C 71.113281 36.40625 71.160156 36.171875 71.160156 35.941406 L 68.460938 35.941406 C 68.460938 35.878906 68.460938 35.878906 68.445312 35.972656 C 68.445312 36 68.429688 36.023438 68.429688 36.046875 C 68.429688 36.054688 68.429688 36.0625 68.429688 36.070312 C 68.429688 36.070312 68.429688 36.070312 69.734375 36.414062 Z M 41.589844 37.753906 L 69.734375 37.753906 L 69.734375 35.042969 L 41.589844 35.042969 Z M 40.21875 35.933594 C 40.21875 35.933594 40.21875 35.980469 40.21875 36.03125 C 40.21875 36.078125 40.21875 36.15625 40.21875 36.222656 C 40.21875 36.277344 40.21875 36.414062 40.242188 36.558594 C 40.25 36.621094 40.277344 36.796875 40.378906 36.988281 C 40.460938 37.148438 40.8125 37.746094 41.597656 37.746094 L 41.597656 35.039062 C 42.367188 35.039062 42.71875 35.625 42.789062 35.773438 C 42.878906 35.949219 42.902344 36.101562 42.902344 36.132812 C 42.917969 36.214844 42.910156 36.261719 42.910156 36.222656 C 42.910156 36.199219 42.910156 36.171875 42.910156 36.117188 C 42.910156 36.070312 42.910156 36 42.910156 35.933594 L 40.210938 35.933594 Z M 51.320312 29.824219 C 48.375 30.160156 45.738281 30.8125 43.800781 31.730469 C 42.832031 32.183594 41.972656 32.734375 41.339844 33.398438 C 40.699219 34.066406 40.21875 34.921875 40.21875 35.941406 L 42.917969 35.941406 C 42.917969 35.832031 42.960938 35.617188 43.28125 35.28125 C 43.609375 34.9375 44.152344 34.5625 44.953125 34.1875 C 46.539062 33.445312 48.855469 32.839844 51.625 32.527344 L 51.320312 29.832031 Z M 50.214844 30.765625 C 50.214844 30.628906 50.246094 30.523438 50.253906 30.5 C 50.253906 30.476562 50.269531 30.460938 50.253906 30.515625 C 50.238281 30.542969 50.207031 30.644531 50.175781 30.757812 C 50.144531 30.882812 50.117188 31.074219 50.136719 31.300781 L 52.820312 31.035156 C 52.835938 31.203125 52.816406 31.324219 52.800781 31.378906 C 52.792969 31.425781 52.777344 31.457031 52.792969 31.425781 C 52.792969 31.417969 52.808594 31.386719 52.816406 31.355469 C 52.820312 31.324219 52.835938 31.285156 52.851562 31.234375 C 52.882812 31.140625 52.921875 30.972656 52.921875 30.765625 Z M 50.214844 27.898438 L 50.214844 30.765625 L 52.914062 30.765625 L 52.914062 27.898438 Z M 55.132812 22.777344 C 52.203125 22.777344 50.214844 25.132812 50.214844 27.898438 L 52.914062 27.898438 C 52.914062 26.449219 53.867188 25.484375 55.132812 25.484375 Z M 56.191406 22.777344 L 55.132812 22.777344 L 55.132812 25.484375 L 56.191406 25.484375 Z M 61.339844 27.898438 C 61.339844 25.019531 59.007812 22.777344 56.183594 22.777344 L 56.183594 25.484375 C 57.558594 25.484375 58.640625 26.566406 58.640625 27.898438 Z M 61.339844 30.765625 L 61.339844 27.898438 L 58.640625 27.898438 L 58.640625 30.765625 Z M 61.308594 31.300781 C 61.324219 31.179688 61.339844 30.988281 61.339844 30.765625 L 58.640625 30.765625 C 58.640625 30.835938 58.640625 30.898438 58.617188 31.035156 L 61.300781 31.300781 Z M 69.734375 36.398438 L 69.734375 37.753906 L 70.78125 37.753906 L 71.046875 36.742188 L 69.742188 36.398438 Z M 51.472656 31.171875 L 51.625 32.519531 L 52.953125 32.367188 L 52.820312 31.035156 L 51.480469 31.171875 Z M 59.96875 31.171875 L 58.625 31.035156 L 58.496094 32.367188 L 59.820312 32.519531 L 59.972656 31.171875 Z M 59.96875 31.171875 " fill-opacity="1" fill-rule="nonzero"/><path fill="#ffffff" d="M 55.695312 31.285156 C 54.429688 31.285156 53.410156 30.261719 53.410156 28.992188 C 53.410156 27.71875 54.429688 26.703125 55.695312 26.703125 C 56.960938 26.703125 57.96875 27.726562 57.96875 28.992188 C 57.96875 30.253906 56.949219 31.285156 55.695312 31.285156 Z M 55.695312 31.285156 " fill-opacity="1" fill-rule="nonzero"/><path fill="#0080bf" d="M 56.621094 28.992188 C 56.621094 29.511719 56.191406 29.933594 55.6875 29.933594 L 55.6875 32.640625 C 57.703125 32.640625 59.3125 30.988281 59.3125 28.992188 L 56.613281 28.992188 Z M 55.695312 28.058594 C 56.214844 28.058594 56.628906 28.46875 56.628906 28.992188 L 59.328125 28.992188 C 59.328125 26.984375 57.71875 25.355469 55.703125 25.355469 L 55.703125 28.066406 Z M 54.757812 28.992188 C 54.757812 28.476562 55.164062 28.058594 55.695312 28.058594 L 55.695312 25.347656 C 53.691406 25.347656 52.058594 26.957031 52.058594 28.984375 L 54.757812 28.984375 Z M 55.695312 29.933594 C 55.179688 29.933594 54.757812 29.511719 54.757812 28.992188 L 52.058594 28.992188 C 52.058594 31.011719 53.683594 32.640625 55.695312 32.640625 Z M 55.695312 29.933594 " fill-opacity="1" fill-rule="nonzero"/><path fill="#0080bf" d="M 71.160156 35.933594 C 71.160156 34.921875 70.695312 34.066406 70.054688 33.390625 C 69.421875 32.726562 68.566406 32.175781 67.605469 31.722656 C 65.679688 30.8125 63.0625 30.160156 60.121094 29.824219 L 59.8125 32.519531 C 62.582031 32.832031 64.886719 33.4375 66.457031 34.179688 C 67.242188 34.554688 67.773438 34.929688 68.09375 35.265625 C 68.40625 35.597656 68.453125 35.816406 68.453125 35.941406 L 71.152344 35.941406 Z M 69.734375 36.398438 C 70.605469 36.628906 71.039062 36.742188 71.039062 36.742188 C 71.039062 36.742188 71.039062 36.734375 71.039062 36.730469 C 71.039062 36.714844 71.046875 36.699219 71.054688 36.675781 C 71.0625 36.636719 71.078125 36.574219 71.09375 36.507812 C 71.113281 36.40625 71.160156 36.171875 71.160156 35.941406 L 68.460938 35.941406 C 68.460938 35.878906 68.460938 35.878906 68.445312 35.972656 C 68.445312 36 68.429688 36.023438 68.429688 36.046875 C 68.429688 36.054688 68.429688 36.0625 68.429688 36.070312 C 68.429688 36.070312 68.429688 36.070312 69.734375 36.414062 Z M 41.589844 37.753906 L 69.734375 37.753906 L 69.734375 35.042969 L 41.589844 35.042969 Z M 40.21875 35.933594 C 40.21875 35.933594 40.21875 35.980469 40.21875 36.03125 C 40.21875 36.078125 40.21875 36.15625 40.21875 36.222656 C 40.21875 36.277344 40.21875 36.414062 40.242188 36.558594 C 40.25 36.621094 40.277344 36.796875 40.378906 36.988281 C 40.460938 37.148438 40.8125 37.746094 41.597656 37.746094 L 41.597656 35.039062 C 42.367188 35.039062 42.71875 35.625 42.789062 35.773438 C 42.878906 35.949219 42.902344 36.101562 42.902344 36.132812 C 42.917969 36.214844 42.910156 36.261719 42.910156 36.222656 C 42.910156 36.199219 42.910156 36.171875 42.910156 36.117188 C 42.910156 36.070312 42.910156 36 42.910156 35.933594 L 40.210938 35.933594 Z M 51.320312 29.824219 C 48.375 30.160156 45.738281 30.8125 43.800781 31.730469 C 42.832031 32.183594 41.972656 32.734375 41.339844 33.398438 C 40.699219 34.066406 40.21875 34.921875 40.21875 35.941406 L 42.917969 35.941406 C 42.917969 35.832031 42.960938 35.617188 43.28125 35.28125 C 43.609375 34.9375 44.152344 34.5625 44.953125 34.1875 C 46.539062 33.445312 48.855469 32.839844 51.625 32.527344 L 51.320312 29.832031 Z M 50.214844 30.765625 C 50.214844 30.628906 50.246094 30.523438 50.253906 30.5 C 50.253906 30.476562 50.269531 30.460938 50.253906 30.515625 C 50.238281 30.542969 50.207031 30.644531 50.175781 30.757812 C 50.144531 30.882812 50.117188 31.074219 50.136719 31.300781 L 52.820312 31.035156 C 52.835938 31.203125 52.816406 31.324219 52.800781 31.378906 C 52.792969 31.425781 52.777344 31.457031 52.792969 31.425781 C 52.792969 31.417969 52.808594 31.386719 52.816406 31.355469 C 52.820312 31.324219 52.835938 31.285156 52.851562 31.234375 C 52.882812 31.140625 52.921875 30.972656 52.921875 30.765625 Z M 50.214844 27.898438 L 50.214844 30.765625 L 52.914062 30.765625 L 52.914062 27.898438 Z M 55.132812 22.777344 C 52.203125 22.777344 50.214844 25.132812 50.214844 27.898438 L 52.914062 27.898438 C 52.914062 26.449219 53.867188 25.484375 55.132812 25.484375 Z M 56.191406 22.777344 L 55.132812 22.777344 L 55.132812 25.484375 L 56.191406 25.484375 Z M 61.339844 27.898438 C 61.339844 25.019531 59.007812 22.777344 56.183594 22.777344 L 56.183594 25.484375 C 57.558594 25.484375 58.640625 26.566406 58.640625 27.898438 Z M 61.339844 30.765625 L 61.339844 27.898438 L 58.640625 27.898438 L 58.640625 30.765625 Z M 61.308594 31.300781 C 61.324219 31.179688 61.339844 30.988281 61.339844 30.765625 L 58.640625 30.765625 C 58.640625 30.835938 58.640625 30.898438 58.617188 31.035156 L 61.300781 31.300781 Z M 69.734375 36.398438 L 69.734375 37.753906 C 70.351562 37.753906 70.886719 37.339844 71.039062 36.742188 Z M 51.472656 31.171875 L 51.625 32.519531 C 52.355469 32.433594 52.890625 31.777344 52.816406 31.042969 L 51.472656 31.179688 Z M 59.96875 31.171875 L 58.625 31.035156 C 58.546875 31.769531 59.082031 32.433594 59.8125 32.511719 L 59.96875 31.164062 Z M 59.96875 31.171875 " fill-opacity="1" fill-rule="nonzero"/><path fill="#0080bf" d="M 56.621094 28.992188 C 56.621094 29.511719 56.191406 29.933594 55.6875 29.933594 L 55.6875 32.640625 C 57.703125 32.640625 59.3125 30.988281 59.3125 28.992188 L 56.613281 28.992188 Z M 55.695312 28.058594 C 56.214844 28.058594 56.628906 28.46875 56.628906 28.992188 L 59.328125 28.992188 C 59.328125 26.984375 57.71875 25.355469 55.703125 25.355469 L 55.703125 28.066406 Z M 54.757812 28.992188 C 54.757812 28.476562 55.164062 28.058594 55.695312 28.058594 L 55.695312 25.347656 C 53.691406 25.347656 52.058594 26.957031 52.058594 28.984375 L 54.757812 28.984375 Z M 55.695312 29.933594 C 55.179688 29.933594 54.757812 29.511719 54.757812 28.992188 L 52.058594 28.992188 C 52.058594 31.011719 53.683594 32.640625 55.695312 32.640625 Z M 55.695312 29.933594 " fill-opacity="1" fill-rule="nonzero"/><path fill="#0080bf" d="M 41.757812 47.214844 L 41.757812 43.425781 L 40.410156 43.425781 L 40.410156 47.214844 Z M 44.875 46.53125 L 41.085938 46.53125 L 41.085938 47.886719 L 44.875 47.886719 Z M 44.199219 43.425781 L 44.199219 47.214844 L 45.546875 47.214844 L 45.546875 43.425781 Z M 41.085938 44.097656 L 44.875 44.097656 L 44.875 42.746094 L 41.085938 42.746094 Z M 41.085938 47.214844 L 40.417969 47.214844 C 40.417969 47.589844 40.722656 47.886719 41.085938 47.886719 Z M 44.875 47.214844 L 44.875 47.886719 C 45.25 47.886719 45.546875 47.582031 45.546875 47.214844 Z M 44.875 43.425781 L 45.546875 43.425781 C 45.546875 43.050781 45.242188 42.75 44.875 42.75 Z M 41.085938 43.425781 L 41.085938 42.75 C 40.714844 42.75 40.417969 43.058594 40.417969 43.425781 Z M 41.085938 43.425781 " fill-opacity="1" fill-rule="nonzero"/><path fill="#0080bf" d="M 41.757812 56.574219 L 41.757812 52.769531 L 40.410156 52.769531 L 40.410156 56.574219 Z M 44.875 55.894531 L 41.085938 55.894531 L 41.085938 57.246094 L 44.875 57.246094 Z M 44.199219 52.769531 L 44.199219 56.574219 L 45.546875 56.574219 L 45.546875 52.769531 Z M 41.085938 53.445312 L 44.875 53.445312 L 44.875 52.089844 L 41.085938 52.089844 Z M 41.085938 56.574219 L 40.417969 56.574219 C 40.417969 56.949219 40.722656 57.246094 41.085938 57.246094 Z M 44.875 56.574219 L 44.875 57.246094 C 45.25 57.246094 45.546875 56.941406 45.546875 56.574219 Z M 44.875 52.769531 L 45.546875 52.769531 C 45.546875 52.394531 45.242188 52.097656 44.875 52.097656 Z M 41.085938 52.769531 L 41.085938 52.097656 C 40.714844 52.097656 40.417969 52.402344 40.417969 52.769531 Z M 41.085938 52.769531 " fill-opacity="1" fill-rule="nonzero"/><path fill="#0080bf" d="M 41.757812 65.917969 L 41.757812 62.117188 L 40.410156 62.117188 L 40.410156 65.917969 Z M 44.875 65.246094 L 41.085938 65.246094 L 41.085938 66.601562 L 44.875 66.601562 Z M 44.199219 62.117188 L 44.199219 65.917969 L 45.546875 65.917969 L 45.546875 62.117188 Z M 41.085938 62.796875 L 44.875 62.796875 L 44.875 61.441406 L 41.085938 61.441406 Z M 41.085938 65.917969 L 40.417969 65.917969 C 40.417969 66.292969 40.722656 66.59375 41.085938 66.59375 Z M 44.875 65.917969 L 44.875 66.59375 C 45.25 66.59375 45.546875 66.285156 45.546875 65.917969 Z M 44.875 62.117188 L 45.546875 62.117188 C 45.546875 61.742188 45.242188 61.441406 44.875 61.441406 Z M 41.085938 62.117188 L 41.085938 61.441406 C 40.714844 61.441406 40.417969 61.746094 40.417969 62.117188 Z M 41.085938 62.117188 " fill-opacity="1" fill-rule="nonzero"/><path fill="#0080bf" d="M 41.757812 75.25 L 41.757812 71.460938 L 40.410156 71.460938 L 40.410156 75.25 Z M 44.875 74.574219 L 41.085938 74.574219 L 41.085938 75.929688 L 44.875 75.929688 Z M 44.199219 71.460938 L 44.199219 75.25 L 45.546875 75.25 L 45.546875 71.460938 Z M 41.085938 72.140625 L 44.875 72.140625 L 44.875 70.785156 L 41.085938 70.785156 Z M 41.085938 75.25 L 40.417969 75.25 C 40.417969 75.625 40.722656 75.921875 41.085938 75.921875 Z M 44.875 75.25 L 44.875 75.921875 C 45.25 75.921875 45.546875 75.617188 45.546875 75.25 Z M 44.875 71.460938 L 45.546875 71.460938 C 45.546875 71.085938 45.242188 70.785156 44.875 70.785156 Z M 41.085938 71.460938 L 41.085938 70.785156 C 40.714844 70.785156 40.417969 71.09375 40.417969 71.460938 Z M 41.085938 71.460938 " fill-opacity="1" fill-rule="nonzero"/><path fill="#0080bf" d="M 47.050781 43.617188 L 68.582031 43.617188 L 68.582031 44.972656 L 47.050781 44.972656 Z M 47.050781 43.617188 " fill-opacity="1" fill-rule="nonzero"/><path fill="#0080bf" d="M 47.050781 46.539062 L 61.597656 46.539062 L 61.597656 47.894531 L 47.050781 47.894531 Z M 47.050781 46.539062 " fill-opacity="1" fill-rule="nonzero"/><path fill="#0080bf" d="M 47.050781 61.441406 L 64.792969 61.441406 L 64.792969 62.796875 L 47.050781 62.796875 Z M 47.050781 61.441406 " fill-opacity="1" fill-rule="nonzero"/><path fill="#0080bf" d="M 47.050781 64.359375 L 61.597656 64.359375 L 61.597656 65.710938 L 47.050781 65.710938 Z M 47.050781 64.359375 " fill-opacity="1" fill-rule="nonzero"/><path fill="#f4f2e0" d="M 67.28125 63.363281 L 62.4375 65.039062 L 64.105469 60.179688 Z M 67.28125 63.363281 " fill-opacity="1" fill-rule="nonzero"/><path fill="#0080bf" d="M 63.632812 60.660156 L 66.804688 63.84375 L 67.761719 62.886719 L 64.585938 59.703125 Z M 63.078125 65.261719 L 64.746094 60.410156 L 63.472656 59.964844 L 61.804688 64.816406 Z M 67.058594 62.71875 L 62.222656 64.394531 L 62.667969 65.675781 L 67.5 63.996094 Z M 64.105469 60.179688 L 64.585938 59.695312 L 63.824219 58.929688 L 63.472656 59.957031 L 64.113281 60.179688 Z M 62.4375 65.039062 L 61.796875 64.816406 L 61.347656 66.132812 L 62.660156 65.683594 Z M 67.28125 63.363281 L 67.5 64.003906 L 68.523438 63.652344 L 67.761719 62.886719 L 67.28125 63.371094 Z M 67.28125 63.363281 " fill-opacity="1" fill-rule="nonzero"/><path fill="#ffffff" d="M 67.28125 63.363281 L 62.4375 65.039062 L 64.105469 60.179688 Z M 67.28125 63.363281 " fill-opacity="1" fill-rule="nonzero"/><path fill="#0080bf" d="M 63.152344 61.136719 L 66.328125 64.320312 L 68.234375 62.40625 L 65.058594 59.222656 Z M 63.71875 65.476562 L 65.386719 60.621094 L 62.832031 59.742188 L 61.164062 64.59375 Z M 66.835938 62.085938 L 62.003906 63.761719 L 62.878906 66.324219 L 67.714844 64.648438 Z M 64.105469 60.179688 L 65.058594 59.222656 C 64.734375 58.894531 64.261719 58.753906 63.800781 58.863281 C 63.351562 58.96875 62.980469 59.296875 62.828125 59.742188 L 64.101562 60.1875 Z M 62.4375 65.039062 L 61.164062 64.59375 C 60.996094 65.085938 61.117188 65.628906 61.484375 65.996094 C 61.851562 66.363281 62.390625 66.484375 62.878906 66.316406 Z M 67.28125 63.363281 L 67.722656 64.640625 C 68.164062 64.488281 68.492188 64.121094 68.597656 63.660156 C 68.707031 63.210938 68.566406 62.726562 68.238281 62.398438 L 67.285156 63.355469 Z M 67.28125 63.363281 " fill-opacity="1" fill-rule="nonzero"/><path fill="#f4f2e0" d="M 83.574219 46.839844 L 83.8125 46.59375 C 84.960938 45.4375 85.246094 43.832031 84.421875 42.996094 C 83.597656 42.164062 82.003906 42.453125 80.851562 43.609375 L 80.617188 43.855469 L 83.574219 46.824219 Z M 83.574219 46.839844 " fill-opacity="1" fill-rule="nonzero"/><path fill="#0080bf" d="M 82.894531 46.824219 L 82.894531 46.839844 L 84.246094 46.839844 L 84.246094 46.824219 Z M 80.136719 44.328125 L 83.09375 47.296875 L 84.046875 46.339844 L 81.089844 43.371094 Z M 80.347656 43.140625 L 80.113281 43.386719 L 81.089844 44.320312 L 81.324219 44.074219 L 80.339844 43.140625 Z M 84.886719 42.515625 C 84.277344 41.902344 83.429688 41.75 82.628906 41.886719 C 81.828125 42.023438 81.019531 42.460938 80.363281 43.128906 L 81.316406 44.082031 C 81.804688 43.59375 82.371094 43.3125 82.859375 43.21875 C 83.34375 43.132812 83.710938 43.25 83.933594 43.472656 Z M 84.285156 47.070312 C 84.945312 46.402344 85.382812 45.589844 85.519531 44.789062 C 85.65625 43.984375 85.503906 43.128906 84.894531 42.515625 L 83.941406 43.472656 C 84.160156 43.691406 84.277344 44.054688 84.191406 44.550781 C 84.109375 45.046875 83.824219 45.613281 83.332031 46.105469 L 84.285156 47.0625 Z M 84.0625 47.304688 L 84.296875 47.0625 L 83.324219 46.128906 L 83.085938 46.371094 Z M 83.574219 46.824219 L 84.246094 46.824219 L 84.246094 46.539062 L 84.046875 46.339844 L 83.566406 46.824219 Z M 80.609375 43.855469 L 80.121094 43.386719 L 79.671875 43.871094 L 80.136719 44.335938 L 80.617188 43.855469 Z M 80.84375 43.609375 L 80.363281 43.128906 L 80.347656 43.140625 L 80.835938 43.609375 Z M 83.804688 46.59375 L 83.324219 46.113281 L 83.308594 46.128906 L 83.796875 46.59375 Z M 83.574219 46.839844 L 82.902344 46.839844 L 82.902344 48.539062 L 84.070312 47.304688 L 83.582031 46.839844 Z M 83.574219 46.839844 " fill-opacity="1" fill-rule="nonzero"/><path fill="#ffffff" d="M 83.574219 46.839844 L 83.8125 46.59375 C 84.960938 45.4375 85.246094 43.832031 84.421875 42.996094 C 83.597656 42.164062 82.003906 42.453125 80.851562 43.609375 L 80.617188 43.855469 L 83.574219 46.824219 Z M 83.574219 46.839844 " fill-opacity="1" fill-rule="nonzero"/><path fill="#0080bf" d="M 82.226562 46.824219 L 82.226562 46.839844 L 84.925781 46.839844 L 84.925781 46.824219 Z M 79.65625 44.8125 L 82.613281 47.78125 L 84.519531 45.867188 L 81.5625 42.898438 Z M 79.859375 42.675781 L 79.625 42.921875 L 81.585938 44.78125 L 81.820312 44.535156 Z M 85.367188 42.039062 C 84.566406 41.238281 83.46875 41.058594 82.523438 41.222656 C 81.570312 41.390625 80.636719 41.894531 79.890625 42.644531 L 81.796875 44.558594 C 82.203125 44.152344 82.644531 43.945312 82.980469 43.882812 C 83.316406 43.824219 83.4375 43.921875 83.460938 43.945312 L 85.367188 42.03125 Z M 84.757812 47.550781 C 85.503906 46.800781 86.015625 45.859375 86.175781 44.902344 C 86.335938 43.945312 86.167969 42.84375 85.359375 42.039062 L 83.453125 43.953125 C 83.453125 43.953125 83.574219 44.097656 83.511719 44.445312 C 83.453125 44.789062 83.246094 45.230469 82.84375 45.636719 L 84.75 47.550781 Z M 84.550781 47.773438 L 84.785156 47.527344 L 82.828125 45.667969 L 82.589844 45.914062 Z M 83.574219 46.824219 L 84.925781 46.824219 C 84.925781 46.464844 84.777344 46.121094 84.527344 45.867188 Z M 80.609375 43.855469 L 79.625 42.921875 C 79.121094 43.457031 79.136719 44.289062 79.648438 44.8125 L 80.601562 43.855469 Z M 80.84375 43.609375 L 79.890625 42.652344 L 79.867188 42.675781 L 80.851562 43.609375 Z M 83.804688 46.59375 L 82.851562 45.636719 L 82.828125 45.660156 Z M 83.574219 46.839844 L 82.226562 46.839844 C 82.226562 47.390625 82.558594 47.894531 83.070312 48.09375 C 83.582031 48.300781 84.167969 48.171875 84.550781 47.765625 L 83.574219 46.832031 Z M 83.574219 46.839844 " fill-opacity="1" fill-rule="nonzero"/><path fill="#f4f2e0" d="M 65.542969 58.960938 L 79.167969 45.285156 L 82.132812 48.261719 L 68.507812 61.9375 Z M 65.542969 58.960938 " fill-opacity="1" fill-rule="nonzero"/><path fill="#0080bf" d="M 68.988281 61.457031 L 66.019531 58.480469 L 65.066406 59.4375 L 68.035156 62.414062 Z M 81.652344 47.78125 L 68.027344 61.457031 L 68.980469 62.414062 L 82.605469 48.738281 Z M 78.695312 45.757812 L 81.660156 48.738281 L 82.613281 47.78125 L 79.648438 44.804688 Z M 66.019531 59.4375 L 79.648438 45.757812 L 78.695312 44.804688 L 65.066406 58.480469 Z M 68.507812 61.929688 L 68.027344 62.414062 L 68.507812 62.894531 L 68.988281 62.414062 Z M 82.132812 48.253906 L 82.613281 48.738281 L 83.09375 48.253906 L 82.613281 47.773438 Z M 79.167969 45.285156 L 79.648438 44.804688 L 79.167969 44.320312 L 78.6875 44.804688 Z M 65.539062 58.960938 L 65.058594 58.480469 L 64.582031 58.960938 L 65.058594 59.445312 Z M 65.539062 58.960938 " fill-opacity="1" fill-rule="nonzero"/><path fill="#ffffff" d="M 65.542969 58.960938 L 79.167969 45.285156 L 82.132812 48.261719 L 68.507812 61.9375 Z M 65.542969 58.960938 " fill-opacity="1" fill-rule="nonzero"/><path fill="#0080bf" d="M 69.460938 60.976562 L 66.492188 57.996094 L 64.585938 59.910156 L 67.554688 62.886719 Z M 81.179688 47.296875 L 67.554688 60.976562 L 69.460938 62.886719 L 83.085938 49.210938 Z M 78.214844 46.242188 L 81.179688 49.21875 L 83.085938 47.304688 L 80.121094 44.328125 Z M 66.5 59.917969 L 80.128906 46.242188 L 78.222656 44.328125 L 64.59375 58.003906 Z M 68.507812 61.929688 L 67.554688 62.886719 C 68.078125 63.417969 68.933594 63.417969 69.460938 62.886719 Z M 82.132812 48.253906 L 83.085938 49.210938 C 83.613281 48.683594 83.613281 47.828125 83.085938 47.296875 Z M 79.167969 45.285156 L 80.121094 44.328125 C 79.59375 43.800781 78.738281 43.800781 78.214844 44.328125 Z M 65.539062 58.960938 L 64.585938 58.003906 C 64.0625 58.535156 64.0625 59.390625 64.585938 59.917969 Z M 65.539062 58.960938 " fill-opacity="1" fill-rule="nonzero"/><path fill="#0080bf" d="M 47.050781 52.089844 L 68.582031 52.089844 L 68.582031 53.445312 L 47.050781 53.445312 Z M 47.050781 52.089844 " fill-opacity="1" fill-rule="nonzero"/><path fill="#0080bf" d="M 47.050781 55.011719 L 61.597656 55.011719 L 61.597656 56.367188 L 47.050781 56.367188 Z M 47.050781 55.011719 " fill-opacity="1" fill-rule="nonzero"/><path fill="#0080bf" d="M 43.800781 46.425781 L 45.898438 42.636719 L 44.714844 41.980469 L 42.621094 45.765625 Z M 41.332031 45.164062 L 42.726562 46.578125 L 43.6875 45.621094 L 42.292969 44.207031 Z M 45.898438 42.636719 C 46.082031 42.308594 45.960938 41.894531 45.640625 41.71875 C 45.3125 41.535156 44.898438 41.65625 44.722656 41.980469 L 45.90625 42.636719 Z M 43.207031 46.097656 L 42.726562 46.570312 C 42.878906 46.722656 43.085938 46.792969 43.296875 46.761719 C 43.511719 46.730469 43.695312 46.609375 43.792969 46.417969 L 43.207031 46.089844 Z M 42.292969 44.207031 C 42.03125 43.9375 41.605469 43.9375 41.339844 44.207031 C 41.070312 44.464844 41.070312 44.894531 41.339844 45.164062 L 42.300781 44.207031 Z M 42.292969 44.207031 " fill-opacity="1" fill-rule="nonzero"/><path fill="#0080bf" d="M 43.65625 55.34375 L 45.753906 51.539062 L 44.570312 50.878906 L 42.476562 54.683594 Z M 41.117188 53.871094 L 42.566406 55.472656 L 43.566406 54.5625 L 42.117188 52.960938 Z M 45.746094 51.539062 C 45.929688 51.210938 45.808594 50.796875 45.480469 50.621094 C 45.152344 50.445312 44.738281 50.558594 44.5625 50.886719 L 45.746094 51.546875 Z M 43.0625 55.011719 L 42.566406 55.472656 C 42.710938 55.632812 42.925781 55.71875 43.144531 55.6875 C 43.359375 55.664062 43.550781 55.535156 43.65625 55.34375 L 43.070312 55.011719 Z M 42.117188 52.960938 C 41.863281 52.6875 41.4375 52.664062 41.164062 52.914062 C 40.890625 53.167969 40.867188 53.597656 41.117188 53.871094 Z M 42.117188 52.960938 " fill-opacity="1" fill-rule="nonzero"/><path fill="#0080bf" d="M 43.511719 64.960938 L 45.609375 61.175781 L 44.425781 60.515625 L 42.328125 64.304688 Z M 41.054688 63.707031 L 42.4375 65.109375 L 43.398438 64.152344 L 42.015625 62.75 Z M 45.609375 61.175781 C 45.792969 60.84375 45.667969 60.429688 45.347656 60.253906 C 45.03125 60.078125 44.609375 60.195312 44.433594 60.515625 L 45.617188 61.175781 Z M 42.925781 64.632812 L 42.445312 65.109375 C 42.597656 65.261719 42.804688 65.328125 43.015625 65.300781 C 43.230469 65.269531 43.414062 65.144531 43.511719 64.953125 L 42.925781 64.625 Z M 42.015625 62.757812 C 41.757812 62.492188 41.332031 62.492188 41.0625 62.757812 C 40.796875 63.027344 40.796875 63.445312 41.0625 63.714844 L 42.023438 62.757812 Z M 42.015625 62.757812 " fill-opacity="1" fill-rule="nonzero"/></svg>