<svg xmlns="http://www.w3.org/2000/svg" xmlns:xlink="http://www.w3.org/1999/xlink" width="150" zoomAndPan="magnify" viewBox="0 0 113.04 120.96" height="150" preserveAspectRatio="xMidYMid meet" version="1.0"><defs><clipPath id="d1115b42a5"><path d="M 0 0.488281 L 111.550781 0.488281 L 111.550781 112.042969 L 0 112.042969 Z M 0 0.488281 " clip-rule="nonzero"/></clipPath></defs><g clip-path="url(#d1115b42a5)"><path fill="#ffffff" d="M 0 0.488281 L 111.550781 0.488281 L 111.550781 112.042969 L 0 112.042969 Z M 0 0.488281 " fill-opacity="1" fill-rule="nonzero"/><path fill="#ffffff" d="M 0 0.488281 L 111.550781 0.488281 L 111.550781 112.042969 L 0 112.042969 Z M 0 0.488281 " fill-opacity="1" fill-rule="nonzero"/></g><path fill="#82af40" d="M 89.535156 66.484375 L 89.535156 53.121094 L 86.839844 53.121094 L 86.839844 66.484375 Z M 87.195312 70.554688 C 87.722656 70.554688 88.34375 70.457031 88.851562 70.03125 C 89.378906 69.585938 89.542969 69 89.59375 68.578125 C 89.644531 68.179688 89.613281 67.753906 89.589844 67.449219 C 89.5625 67.097656 89.535156 66.800781 89.535156 66.484375 L 86.839844 66.484375 C 86.839844 66.929688 86.878906 67.347656 86.902344 67.652344 C 86.925781 68 86.929688 68.160156 86.921875 68.253906 C 86.914062 68.324219 86.921875 68.136719 87.121094 67.96875 C 87.300781 67.816406 87.421875 67.867188 87.195312 67.867188 L 87.195312 70.5625 Z M 83.132812 66.484375 C 83.132812 68.714844 84.925781 70.558594 87.195312 70.558594 L 87.195312 67.863281 C 86.4375 67.863281 85.828125 67.253906 85.828125 66.484375 Z M 83.132812 62.160156 L 83.132812 66.484375 L 85.828125 66.484375 L 85.828125 62.160156 Z M 80.710938 63.507812 L 84.484375 63.507812 L 84.484375 60.8125 L 80.710938 60.8125 Z M 82.058594 71.144531 L 82.058594 62.160156 L 79.363281 62.160156 L 79.363281 71.144531 Z M 74.351562 72.402344 L 80.691406 72.492188 L 80.730469 69.796875 L 74.390625 69.707031 Z M 72.167969 74.953125 C 72.167969 73.535156 73.320312 72.402344 74.375 72.402344 L 74.375 69.707031 C 71.554688 69.707031 69.476562 72.34375 69.476562 74.953125 L 72.171875 74.953125 Z M 72.460938 80.222656 C 72.523438 80.363281 72.53125 80.46875 72.519531 80.398438 C 72.515625 80.371094 72.507812 80.324219 72.5 80.242188 C 72.480469 80.085938 72.460938 79.859375 72.4375 79.585938 C 72.394531 79.039062 72.351562 78.339844 72.308594 77.640625 C 72.269531 76.941406 72.234375 76.253906 72.207031 75.742188 C 72.195312 75.488281 72.183594 75.277344 72.175781 75.125 C 72.175781 75.050781 72.171875 74.992188 72.167969 74.953125 C 72.167969 74.933594 72.167969 74.917969 72.167969 74.910156 C 72.167969 74.902344 72.167969 74.902344 72.167969 74.898438 C 72.167969 74.898438 72.167969 74.898438 72.167969 74.894531 C 72.167969 74.894531 72.167969 74.894531 70.824219 74.953125 C 69.925781 74.996094 69.476562 75.015625 69.476562 75.015625 C 69.476562 75.015625 69.476562 75.015625 69.476562 75.019531 C 69.476562 75.023438 69.476562 75.027344 69.476562 75.03125 C 69.476562 75.042969 69.476562 75.058594 69.476562 75.078125 C 69.476562 75.121094 69.480469 75.175781 69.484375 75.253906 C 69.492188 75.40625 69.5 75.621094 69.515625 75.878906 C 69.539062 76.394531 69.578125 77.089844 69.617188 77.796875 C 69.65625 78.503906 69.699219 79.226562 69.746094 79.804688 C 69.769531 80.089844 69.792969 80.351562 69.820312 80.558594 C 69.832031 80.660156 69.84375 80.765625 69.859375 80.859375 C 69.867188 80.90625 69.898438 81.09375 69.980469 81.285156 L 72.457031 80.222656 Z M 51.441406 82.101562 L 71.222656 82.101562 L 71.222656 79.40625 L 51.441406 79.40625 Z M 50.09375 78.726562 L 50.09375 80.75 L 52.789062 80.75 L 52.789062 78.726562 Z M 47.867188 76.726562 C 49.257812 76.726562 50.097656 77.574219 50.097656 78.726562 L 52.792969 78.726562 C 52.792969 75.847656 50.5 74.035156 47.867188 74.035156 L 47.867188 76.730469 Z M 38.90625 76.726562 L 47.867188 76.726562 L 47.867188 74.03125 L 38.90625 74.03125 Z M 38.90625 75.1875 L 37.558594 75.1875 L 37.558594 75.429688 C 37.558594 75.429688 40.253906 75.433594 40.253906 75.433594 L 40.253906 75.191406 C 40.253906 75.191406 40.253906 75.1875 38.910156 75.1875 Z M 37.492188 65.371094 L 37.558594 75.195312 L 40.253906 75.175781 L 40.1875 65.351562 Z M 35.445312 66.707031 L 38.839844 66.707031 L 38.839844 64.011719 L 35.445312 64.011719 Z M 30.042969 62.300781 C 30.042969 63.648438 30.800781 64.773438 31.773438 65.515625 C 32.753906 66.261719 34.058594 66.710938 35.445312 66.710938 L 35.445312 64.015625 C 34.625 64.015625 33.898438 63.746094 33.40625 63.371094 C 32.902344 62.988281 32.738281 62.582031 32.738281 62.304688 L 30.042969 62.304688 Z M 30.042969 60.414062 L 30.042969 62.300781 L 32.738281 62.300781 L 32.738281 60.414062 Z M 27.246094 61.765625 L 31.390625 61.765625 L 31.390625 59.070312 L 27.246094 59.070312 Z M 28.59375 64.691406 L 28.59375 60.414062 L 25.898438 60.414062 L 25.898438 64.691406 Z M 24.535156 68.761719 C 26.78125 68.761719 28.59375 66.941406 28.59375 64.691406 L 25.898438 64.691406 C 25.898438 65.460938 25.285156 66.070312 24.535156 66.070312 L 24.535156 68.765625 Z M 22.195312 64.691406 C 22.195312 65.003906 22.167969 65.296875 22.140625 65.648438 C 22.117188 65.957031 22.089844 66.378906 22.140625 66.777344 C 22.191406 67.195312 22.355469 67.78125 22.878906 68.226562 C 23.386719 68.65625 24.003906 68.761719 24.539062 68.761719 L 24.539062 66.066406 C 24.320312 66.066406 24.441406 66.015625 24.621094 66.167969 C 24.816406 66.335938 24.824219 66.519531 24.8125 66.445312 C 24.800781 66.347656 24.804688 66.1875 24.828125 65.84375 C 24.851562 65.542969 24.890625 65.125 24.890625 64.6875 L 22.195312 64.6875 Z M 22.195312 51.328125 L 22.195312 64.691406 L 24.890625 64.691406 L 24.890625 51.328125 Z M 24.535156 47.257812 C 24.007812 47.257812 23.386719 47.355469 22.878906 47.785156 C 22.347656 48.226562 22.1875 48.816406 22.132812 49.234375 C 22.085938 49.632812 22.117188 50.058594 22.140625 50.367188 C 22.164062 50.71875 22.195312 51.011719 22.195312 51.328125 L 24.890625 51.328125 C 24.890625 50.886719 24.851562 50.464844 24.828125 50.160156 C 24.800781 49.816406 24.796875 49.652344 24.808594 49.558594 C 24.816406 49.488281 24.808594 49.679688 24.605469 49.847656 C 24.425781 50 24.308594 49.945312 24.535156 49.945312 L 24.535156 47.25 Z M 28.59375 51.328125 C 28.59375 49.097656 26.800781 47.257812 24.53125 47.257812 L 24.53125 49.953125 C 25.285156 49.953125 25.898438 50.5625 25.898438 51.328125 Z M 28.59375 55.691406 L 28.59375 51.328125 L 25.898438 51.328125 L 25.898438 55.691406 Z M 31.390625 54.34375 L 27.246094 54.34375 L 27.246094 57.039062 L 31.390625 57.039062 Z M 30.042969 54.039062 L 30.042969 55.6875 L 32.738281 55.6875 L 32.738281 54.039062 Z M 35.445312 49.839844 C 34.105469 49.839844 32.816406 50.207031 31.824219 50.894531 C 30.832031 51.582031 30.042969 52.667969 30.042969 54.039062 L 32.738281 54.039062 C 32.738281 53.785156 32.878906 53.441406 33.359375 53.113281 C 33.839844 52.777344 34.578125 52.535156 35.445312 52.535156 Z M 38.660156 49.839844 L 35.445312 49.839844 L 35.445312 52.535156 L 38.660156 52.535156 Z M 37.3125 50.511719 L 37.3125 51.183594 L 40.007812 51.183594 L 40.007812 50.511719 Z M 44.261719 43.382812 C 40.414062 43.382812 37.3125 46.589844 37.3125 50.515625 L 40.007812 50.515625 C 40.007812 48.011719 41.96875 46.078125 44.261719 46.078125 Z M 53.90625 43.382812 L 44.261719 43.382812 L 44.261719 46.078125 L 53.90625 46.078125 Z M 52.5625 38.480469 L 52.5625 44.730469 L 55.257812 44.730469 L 55.257812 38.480469 Z M 49.167969 39.828125 L 53.90625 39.828125 L 53.90625 37.132812 L 49.167969 37.132812 Z M 44.867188 35.550781 C 44.867188 37.953125 46.816406 39.828125 49.167969 39.828125 L 49.167969 37.132812 C 48.265625 37.132812 47.558594 36.421875 47.558594 35.546875 L 44.863281 35.546875 Z M 49.167969 33.128906 C 48.824219 33.128906 48.496094 33.101562 48.121094 33.070312 C 47.785156 33.046875 47.335938 33.011719 46.917969 33.0625 C 46.476562 33.113281 45.871094 33.277344 45.410156 33.824219 C 44.972656 34.34375 44.863281 34.988281 44.863281 35.550781 L 47.558594 35.550781 C 47.558594 35.289062 47.617188 35.390625 47.472656 35.558594 C 47.3125 35.75 47.140625 35.75 47.234375 35.734375 C 47.347656 35.722656 47.535156 35.726562 47.910156 35.757812 C 48.242188 35.78125 48.691406 35.824219 49.167969 35.824219 Z M 63.707031 33.128906 L 49.167969 33.128906 L 49.167969 35.824219 L 63.707031 35.824219 Z M 68.011719 35.550781 C 68.011719 34.984375 67.902344 34.34375 67.457031 33.820312 C 66.996094 33.277344 66.394531 33.113281 65.949219 33.0625 C 65.53125 33.011719 65.082031 33.046875 64.75 33.070312 C 64.371094 33.101562 64.046875 33.128906 63.707031 33.128906 L 63.707031 35.824219 C 64.179688 35.824219 64.628906 35.785156 64.957031 35.757812 C 65.332031 35.730469 65.519531 35.726562 65.636719 35.738281 C 65.730469 35.75 65.558594 35.75 65.402344 35.5625 C 65.257812 35.394531 65.316406 35.292969 65.316406 35.550781 Z M 63.707031 39.828125 C 66.058594 39.828125 68.011719 37.949219 68.011719 35.550781 L 65.316406 35.550781 C 65.316406 36.425781 64.605469 37.132812 63.707031 37.132812 Z M 58.992188 39.828125 L 63.707031 39.828125 L 63.707031 37.132812 L 58.992188 37.132812 Z M 60.34375 44.730469 L 60.34375 38.480469 L 57.648438 38.480469 L 57.648438 44.730469 Z M 70.65625 43.382812 L 58.996094 43.382812 L 58.996094 46.078125 L 70.65625 46.078125 Z M 71.820312 45.410156 L 71.859375 45.332031 L 69.449219 44.125 L 69.410156 44.203125 Z M 71.960938 49.160156 L 71.960938 44.804688 L 69.265625 44.804688 L 69.265625 49.160156 Z M 74.320312 51.503906 C 73.042969 51.503906 71.960938 50.421875 71.960938 49.15625 L 69.265625 49.15625 C 69.265625 51.921875 71.566406 54.195312 74.320312 54.195312 L 74.320312 51.5 Z M 80.726562 51.578125 L 74.335938 51.503906 L 74.304688 54.199219 L 80.695312 54.277344 Z M 82.058594 57.511719 L 82.058594 52.925781 L 79.363281 52.925781 L 79.363281 57.511719 Z M 84.484375 56.164062 L 80.710938 56.164062 L 80.710938 58.859375 L 84.484375 58.859375 Z M 83.132812 53.121094 L 83.132812 57.511719 L 85.828125 57.511719 L 85.828125 53.121094 Z M 87.195312 49.050781 C 84.949219 49.050781 83.132812 50.871094 83.132812 53.121094 L 85.828125 53.121094 C 85.828125 52.351562 86.445312 51.742188 87.195312 51.742188 L 87.195312 49.046875 Z M 89.535156 53.121094 C 89.535156 52.808594 89.5625 52.515625 89.585938 52.164062 C 89.609375 51.855469 89.636719 51.433594 89.585938 51.035156 C 89.535156 50.617188 89.371094 50.03125 88.851562 49.585938 C 88.34375 49.160156 87.722656 49.050781 87.191406 49.050781 L 87.191406 51.746094 C 87.410156 51.746094 87.285156 51.796875 87.109375 51.644531 C 86.914062 51.476562 86.90625 51.292969 86.914062 51.367188 C 86.925781 51.464844 86.925781 51.625 86.898438 51.96875 C 86.878906 52.269531 86.839844 52.6875 86.839844 53.125 L 89.535156 53.125 Z M 84.484375 62.160156 L 85.828125 62.160156 C 85.828125 61.414062 85.226562 60.8125 84.484375 60.8125 Z M 80.710938 62.160156 L 80.710938 60.8125 C 79.96875 60.8125 79.367188 61.414062 79.367188 62.160156 Z M 80.710938 71.144531 L 80.695312 72.492188 C 81.054688 72.496094 81.402344 72.359375 81.660156 72.105469 C 81.914062 71.851562 82.058594 71.503906 82.058594 71.144531 Z M 74.375 71.054688 L 74.390625 69.707031 L 74.375 69.707031 Z M 70.824219 74.953125 L 69.476562 74.953125 C 69.476562 74.976562 69.476562 74.996094 69.476562 75.015625 Z M 71.222656 80.75 L 71.222656 82.097656 C 71.675781 82.097656 72.097656 81.871094 72.347656 81.492188 C 72.59375 81.117188 72.640625 80.636719 72.460938 80.222656 Z M 51.441406 80.75 L 50.097656 80.75 C 50.097656 81.496094 50.699219 82.097656 51.441406 82.097656 Z M 38.90625 75.382812 L 37.558594 75.382812 C 37.558594 76.125 38.160156 76.726562 38.90625 76.726562 Z M 38.90625 75.1875 L 40.253906 75.1875 L 40.253906 75.179688 C 40.253906 75.179688 38.90625 75.1875 38.90625 75.1875 Z M 38.839844 65.363281 L 40.1875 65.355469 C 40.183594 64.613281 39.582031 64.015625 38.839844 64.015625 Z M 31.390625 60.414062 L 32.738281 60.414062 C 32.738281 59.671875 32.136719 59.070312 31.390625 59.070312 Z M 27.246094 60.414062 L 27.246094 59.070312 C 26.5 59.070312 25.898438 59.671875 25.898438 60.414062 Z M 27.246094 55.691406 L 25.898438 55.691406 C 25.898438 56.4375 26.5 57.039062 27.246094 57.039062 Z M 31.390625 55.691406 L 31.390625 57.039062 C 32.136719 57.039062 32.738281 56.4375 32.738281 55.691406 Z M 38.660156 51.183594 L 38.660156 52.53125 C 39.40625 52.53125 40.007812 51.929688 40.007812 51.183594 Z M 53.90625 44.730469 L 53.90625 46.074219 C 54.652344 46.074219 55.253906 45.472656 55.253906 44.730469 Z M 53.90625 38.480469 L 55.253906 38.480469 C 55.253906 37.734375 54.652344 37.132812 53.90625 37.132812 Z M 58.992188 38.480469 L 58.992188 37.132812 C 58.25 37.132812 57.648438 37.734375 57.648438 38.480469 Z M 58.992188 44.730469 L 57.648438 44.730469 C 57.648438 45.472656 58.25 46.074219 58.992188 46.074219 Z M 70.65625 44.730469 L 71.859375 45.332031 C 72.066406 44.914062 72.042969 44.417969 71.800781 44.019531 C 71.554688 43.621094 71.121094 43.382812 70.65625 43.382812 Z M 70.617188 44.804688 L 69.410156 44.203125 C 69.316406 44.390625 69.269531 44.597656 69.269531 44.804688 Z M 74.320312 52.851562 L 74.335938 51.503906 L 74.320312 51.503906 Z M 80.710938 52.929688 L 82.058594 52.929688 C 82.058594 52.191406 81.464844 51.589844 80.726562 51.582031 Z M 80.710938 57.511719 L 79.367188 57.511719 C 79.367188 58.253906 79.96875 58.855469 80.710938 58.855469 Z M 84.484375 57.511719 L 84.484375 58.855469 C 85.226562 58.855469 85.828125 58.253906 85.828125 57.511719 Z M 84.484375 57.511719 " fill-opacity="1" fill-rule="nonzero"/><path fill="#82af40" d="M 62.355469 59.09375 L 50.777344 72.351562 L 52.804688 74.125 L 64.386719 60.867188 Z M 58.773438 61.324219 L 63.371094 61.324219 L 63.371094 58.628906 L 58.773438 58.628906 Z M 64.621094 49.398438 L 57.675781 59.199219 L 59.875 60.757812 L 66.820312 50.957031 Z M 56.246094 51.527344 L 65.722656 51.527344 L 65.722656 48.832031 L 56.246094 48.832031 Z M 53.058594 63.328125 L 57.515625 50.625 L 54.972656 49.730469 L 50.515625 62.4375 Z M 56.246094 61.535156 L 51.789062 61.535156 L 51.789062 64.230469 L 56.246094 64.230469 Z M 53.027344 73.769531 L 57.480469 63.414062 L 55.007812 62.347656 L 50.550781 72.703125 Z M 63.371094 59.976562 L 64.386719 60.863281 C 64.734375 60.464844 64.820312 59.902344 64.597656 59.417969 C 64.378906 58.9375 63.902344 58.628906 63.371094 58.628906 Z M 58.773438 59.976562 L 57.675781 59.199219 C 57.382812 59.609375 57.347656 60.148438 57.578125 60.597656 C 57.808594 61.042969 58.269531 61.324219 58.773438 61.324219 Z M 65.722656 50.175781 L 66.820312 50.953125 C 67.109375 50.542969 67.148438 50.003906 66.917969 49.554688 C 66.683594 49.109375 66.226562 48.828125 65.722656 48.828125 Z M 56.246094 50.175781 L 56.246094 48.832031 C 55.671875 48.832031 55.160156 49.191406 54.972656 49.730469 Z M 51.789062 62.882812 L 50.515625 62.4375 C 50.371094 62.851562 50.4375 63.308594 50.691406 63.664062 C 50.945312 64.019531 51.351562 64.234375 51.789062 64.234375 Z M 56.246094 62.882812 L 57.480469 63.417969 C 57.660156 63 57.617188 62.523438 57.371094 62.140625 C 57.121094 61.765625 56.699219 61.535156 56.246094 61.535156 Z M 51.789062 73.238281 L 50.550781 72.703125 C 50.289062 73.3125 50.507812 74.023438 51.070312 74.375 C 51.632812 74.730469 52.367188 74.621094 52.800781 74.121094 L 51.785156 73.238281 Z M 51.789062 73.238281 " fill-opacity="1" fill-rule="nonzero"/></svg>