<svg xmlns="http://www.w3.org/2000/svg" xmlns:xlink="http://www.w3.org/1999/xlink" width="150" zoomAndPan="magnify" viewBox="0 0 113.04 120.96" height="150" preserveAspectRatio="xMidYMid meet" version="1.0"><defs><clipPath id="a82b68acb8"><path d="M 0 0.488281 L 111.550781 0.488281 L 111.550781 112.042969 L 0 112.042969 Z M 0 0.488281 " clip-rule="nonzero"/></clipPath></defs><g clip-path="url(#a82b68acb8)"><path fill="#ffffff" d="M 0 0.488281 L 111.550781 0.488281 L 111.550781 112.042969 L 0 112.042969 Z M 0 0.488281 " fill-opacity="1" fill-rule="nonzero"/><path fill="#ffffff" d="M 0 0.488281 L 111.550781 0.488281 L 111.550781 112.042969 L 0 112.042969 Z M 0 0.488281 " fill-opacity="1" fill-rule="nonzero"/></g><path fill="#df4a26" d="M 63.324219 66.789062 L 49.132812 66.789062 L 49.132812 69.253906 L 63.324219 69.253906 Z M 72.496094 57.121094 L 62.453125 67.144531 L 64.195312 68.882812 L 74.238281 58.859375 Z M 72.132812 43.832031 L 72.132812 57.996094 L 74.601562 57.996094 L 74.601562 43.832031 Z M 62.453125 34.679688 L 72.496094 44.699219 L 74.238281 42.960938 L 64.195312 32.9375 Z M 49.132812 35.039062 L 63.324219 35.039062 L 63.324219 32.574219 L 49.132812 32.574219 Z M 39.976562 44.699219 L 50.003906 34.679688 L 48.261719 32.9375 L 38.234375 42.960938 Z M 40.339844 57.996094 L 40.339844 43.832031 L 37.871094 43.832031 L 37.871094 57.996094 Z M 50.011719 67.144531 L 39.984375 57.121094 L 38.242188 58.859375 L 48.269531 68.882812 Z M 63.324219 68.019531 L 63.324219 69.253906 C 63.652344 69.253906 63.96875 69.125 64.195312 68.890625 Z M 73.367188 57.996094 L 74.238281 58.867188 C 74.472656 58.632812 74.601562 58.324219 74.601562 57.996094 Z M 73.367188 43.832031 L 74.601562 43.832031 C 74.601562 43.503906 74.472656 43.1875 74.238281 42.960938 Z M 63.324219 33.808594 L 64.195312 32.9375 C 63.960938 32.703125 63.652344 32.574219 63.324219 32.574219 Z M 49.132812 33.808594 L 49.132812 32.574219 C 48.804688 32.574219 48.488281 32.703125 48.261719 32.9375 Z M 39.105469 43.832031 L 38.234375 42.960938 C 38.007812 43.195312 37.871094 43.503906 37.871094 43.832031 Z M 39.105469 57.996094 L 37.871094 57.996094 C 37.871094 58.324219 38 58.640625 38.234375 58.867188 Z M 49.132812 68.019531 L 48.261719 68.890625 C 48.496094 69.125 48.804688 69.253906 49.132812 69.253906 Z M 49.132812 68.019531 " fill-opacity="1" fill-rule="nonzero"/><path fill="#df4a26" d="M 53.914062 62.324219 C 53.914062 61.078125 54.761719 60.191406 55.914062 60.191406 C 57.132812 60.191406 57.914062 61.078125 57.914062 62.324219 C 57.914062 63.503906 57.132812 64.425781 55.882812 64.425781 C 54.726562 64.425781 53.921875 63.519531 53.921875 62.324219 Z M 54.625 57.558594 L 54.558594 56.675781 C 54.351562 54.882812 54.960938 52.847656 56.664062 50.820312 C 58.1875 49.027344 59.042969 47.703125 59.042969 46.183594 C 59.042969 44.457031 57.953125 43.300781 55.816406 43.269531 C 54.597656 43.269531 53.238281 43.671875 52.382812 44.320312 L 51.566406 42.1875 C 52.722656 41.371094 54.617188 40.835938 56.414062 40.835938 C 60.316406 40.835938 62.082031 43.242188 62.082031 45.820312 C 62.082031 48.121094 60.792969 49.785156 59.164062 51.710938 C 57.671875 53.472656 57.132812 54.996094 57.242188 56.71875 L 57.308594 57.566406 L 54.625 57.566406 L 54.640625 57.582031 Z M 54.625 57.558594 " fill-opacity="1" fill-rule="nonzero"/><path fill="#df4a26" d="M 31.71875 84.488281 C 32.574219 84.488281 33.269531 85.183594 33.269531 86.039062 L 35.742188 86.039062 C 35.742188 83.820312 33.9375 82.019531 31.71875 82.019531 Z M 30.164062 86.046875 C 30.164062 85.191406 30.863281 84.496094 31.71875 84.496094 L 31.71875 82.027344 C 29.496094 82.027344 27.695312 83.828125 27.695312 86.046875 Z M 31.71875 87.597656 C 30.863281 87.597656 30.164062 86.898438 30.164062 86.046875 L 27.695312 86.046875 C 27.695312 88.261719 29.496094 90.0625 31.71875 90.0625 Z M 33.277344 86.046875 C 33.277344 86.898438 32.582031 87.597656 31.726562 87.597656 L 31.726562 90.0625 C 33.945312 90.0625 35.75 88.261719 35.75 86.046875 Z M 33.277344 86.046875 " fill-opacity="1" fill-rule="nonzero"/><path fill="#df4a26" d="M 41.707031 78.171875 C 43.363281 78.171875 44.714844 79.515625 44.714844 81.175781 L 47.183594 81.175781 C 47.183594 78.15625 44.730469 75.707031 41.707031 75.707031 Z M 38.695312 81.183594 C 38.695312 79.523438 40.046875 78.179688 41.707031 78.179688 L 41.707031 75.710938 C 38.683594 75.710938 36.226562 78.164062 36.226562 81.183594 Z M 41.707031 84.183594 C 40.046875 84.183594 38.695312 82.839844 38.695312 81.183594 L 36.226562 81.183594 C 36.226562 84.199219 38.683594 86.652344 41.707031 86.652344 Z M 44.722656 81.183594 C 44.722656 82.839844 43.371094 84.183594 41.714844 84.183594 L 41.714844 86.652344 C 44.738281 86.652344 47.191406 84.199219 47.191406 81.183594 Z M 44.722656 81.183594 " fill-opacity="1" fill-rule="nonzero"/><path fill="#df4a26" d="M 83.011719 56.339844 L 83.011719 56.324219 L 80.542969 56.324219 L 80.542969 56.339844 Z M 86.007812 63.640625 C 86.007812 60.417969 84.726562 57.507812 82.640625 55.464844 L 80.914062 57.226562 C 82.519531 58.800781 83.535156 61.078125 83.535156 63.640625 Z M 75.511719 74.78125 C 81.382812 74.78125 86.007812 69.707031 86.007812 63.632812 L 83.535156 63.632812 C 83.535156 68.511719 79.859375 72.316406 75.511719 72.316406 Z M 71.167969 73.792969 C 72.488281 74.417969 73.957031 74.789062 75.511719 74.789062 L 75.511719 72.324219 C 74.34375 72.324219 73.238281 72.050781 72.238281 71.574219 L 71.167969 73.800781 Z M 62.9375 80.628906 C 67.605469 80.628906 71.496094 77.40625 72.882812 73.050781 L 70.53125 72.308594 C 69.433594 75.765625 66.410156 78.164062 62.945312 78.164062 L 62.945312 80.628906 Z M 52.722656 72.050781 C 53.800781 76.914062 57.914062 80.628906 62.9375 80.628906 L 62.9375 78.164062 C 59.210938 78.164062 55.988281 75.386719 55.132812 71.515625 L 52.722656 72.042969 Z M 46.519531 76.992188 C 49.996094 76.992188 53.058594 75.207031 54.945312 72.484375 L 52.914062 71.082031 C 51.445312 73.203125 49.109375 74.53125 46.511719 74.53125 L 46.511719 77 Z M 36.023438 65.839844 C 36.023438 71.914062 40.644531 76.992188 46.519531 76.992188 L 46.519531 74.523438 C 42.167969 74.523438 38.492188 70.71875 38.492188 65.839844 Z M 36.082031 64.648438 C 36.042969 65.023438 36.015625 65.425781 36.015625 65.839844 L 38.484375 65.839844 C 38.484375 65.53125 38.507812 65.214844 38.539062 64.886719 Z M 34.347656 66.523438 C 35.53125 66.523438 36.667969 66.316406 37.742188 65.925781 L 36.894531 63.609375 C 36.097656 63.90625 35.25 64.054688 34.347656 64.054688 Z M 23.851562 55.375 C 23.851562 61.445312 28.472656 66.523438 34.347656 66.523438 L 34.347656 64.054688 C 29.996094 64.054688 26.320312 60.25 26.320312 55.375 Z M 29.808594 45.3125 C 26.246094 47.128906 23.84375 50.972656 23.84375 55.375 L 26.316406 55.375 C 26.316406 51.863281 28.222656 48.882812 30.929688 47.515625 L 29.808594 45.320312 Z M 27.835938 41.347656 C 27.835938 43.414062 28.367188 45.359375 29.292969 47.015625 L 31.445312 45.8125 C 30.71875 44.519531 30.300781 42.992188 30.300781 41.347656 L 27.832031 41.347656 Z M 38.332031 30.199219 C 32.453125 30.199219 27.835938 35.273438 27.835938 41.347656 L 30.308594 41.347656 C 30.308594 36.46875 33.976562 32.664062 38.332031 32.664062 Z M 45.585938 33.285156 C 43.714844 31.378906 41.152344 30.199219 38.324219 30.199219 L 38.324219 32.664062 C 40.449219 32.664062 42.378906 33.542969 43.820312 35.011719 Z M 53.96875 23.144531 C 48.140625 23.144531 43.554688 28.121094 43.472656 34.132812 L 45.941406 34.164062 C 46.003906 29.335938 49.648438 25.601562 53.96875 25.601562 L 53.96875 23.136719 Z M 63.839844 30.511719 C 62.402344 26.25 58.550781 23.144531 53.96875 23.144531 L 53.96875 25.609375 C 57.378906 25.609375 60.363281 27.929688 61.5 31.296875 Z M 70.128906 25.632812 C 66.621094 25.632812 63.554688 27.445312 61.652344 30.199219 L 63.683594 31.597656 C 65.167969 29.445312 67.507812 28.097656 70.128906 28.097656 Z M 80.625 36.78125 C 80.625 30.707031 76.003906 25.632812 70.128906 25.632812 L 70.128906 28.097656 C 74.480469 28.097656 78.15625 31.902344 78.15625 36.78125 Z M 80.605469 37.582031 C 80.617188 37.339844 80.625 37.058594 80.625 36.78125 L 78.15625 36.78125 C 78.15625 36.992188 78.148438 37.210938 78.132812 37.46875 L 80.597656 37.582031 Z M 88.410156 47.324219 C 88.410156 41.832031 84.644531 37.179688 79.582031 36.3125 L 79.164062 38.738281 C 82.945312 39.382812 85.945312 42.921875 85.945312 47.324219 L 88.417969 47.324219 Z M 82.332031 57.4375 C 85.945312 55.652344 88.410156 51.773438 88.410156 47.324219 L 85.9375 47.324219 C 85.9375 50.863281 83.976562 53.875 81.234375 55.230469 L 82.324219 57.4375 Z M 81.777344 56.339844 L 80.542969 56.339844 C 80.542969 56.675781 80.679688 56.992188 80.914062 57.21875 Z M 71.707031 72.679688 L 72.238281 71.566406 C 71.910156 71.417969 71.539062 71.410156 71.214844 71.546875 C 70.886719 71.6875 70.636719 71.960938 70.523438 72.300781 L 71.699219 72.671875 Z M 53.929688 71.78125 L 55.132812 71.515625 C 55.027344 71.039062 54.648438 70.667969 54.164062 70.570312 C 53.679688 70.476562 53.195312 70.675781 52.914062 71.074219 Z M 37.308594 64.769531 L 38.539062 64.886719 C 38.582031 64.464844 38.402344 64.050781 38.066406 63.792969 C 37.734375 63.535156 37.289062 63.464844 36.886719 63.609375 Z M 30.367188 46.417969 L 30.929688 47.515625 C 31.226562 47.363281 31.453125 47.097656 31.550781 46.773438 C 31.648438 46.453125 31.613281 46.105469 31.445312 45.8125 Z M 44.707031 34.148438 L 43.828125 35.011719 C 44.175781 35.367188 44.707031 35.480469 45.167969 35.289062 C 45.632812 35.109375 45.933594 34.664062 45.941406 34.164062 Z M 62.667969 30.902344 L 61.5 31.296875 C 61.652344 31.734375 62.039062 32.0625 62.5 32.121094 C 62.960938 32.183594 63.425781 31.984375 63.691406 31.597656 L 62.675781 30.902344 Z M 79.367188 37.523438 L 78.132812 37.460938 C 78.101562 38.082031 78.542969 38.625 79.15625 38.730469 L 79.359375 37.515625 Z M 81.777344 56.332031 L 81.234375 55.230469 C 80.808594 55.433594 80.542969 55.863281 80.542969 56.332031 Z M 81.777344 56.332031 " fill-opacity="1" fill-rule="nonzero"/></svg>