<svg xmlns="http://www.w3.org/2000/svg" xmlns:xlink="http://www.w3.org/1999/xlink" width="150" zoomAndPan="magnify" viewBox="0 0 113.04 120.96" height="150" preserveAspectRatio="xMidYMid meet" version="1.0"><defs><clipPath id="a9a9ca6e80"><path d="M 0 0.488281 L 111.550781 0.488281 L 111.550781 112.042969 L 0 112.042969 Z M 0 0.488281 " clip-rule="nonzero"/></clipPath></defs><g clip-path="url(#a9a9ca6e80)"><path fill="#ffffff" d="M 0 0.488281 L 111.550781 0.488281 L 111.550781 112.042969 L 0 112.042969 Z M 0 0.488281 " fill-opacity="1" fill-rule="nonzero"/><path fill="#ffffff" d="M 0 0.488281 L 111.550781 0.488281 L 111.550781 112.042969 L 0 112.042969 Z M 0 0.488281 " fill-opacity="1" fill-rule="nonzero"/></g><path fill="#df4a26" d="M 77.691406 72.492188 C 74.746094 72.492188 72.121094 72.257812 70.261719 71.894531 C 69.320312 71.710938 68.640625 71.503906 68.230469 71.316406 C 68.128906 71.269531 68.0625 71.230469 68.007812 71.203125 C 67.953125 71.167969 67.941406 71.15625 67.945312 71.15625 C 67.945312 71.15625 67.992188 71.195312 68.035156 71.28125 C 68.082031 71.371094 68.121094 71.496094 68.121094 71.660156 L 65.550781 71.660156 C 65.550781 72.285156 65.878906 72.734375 66.167969 73.007812 C 66.457031 73.285156 66.808594 73.484375 67.152344 73.640625 C 67.839844 73.953125 68.746094 74.203125 69.769531 74.40625 C 71.835938 74.808594 74.636719 75.050781 77.691406 75.050781 L 77.691406 72.484375 Z M 87.277344 71.664062 C 87.277344 71.511719 87.316406 71.378906 87.363281 71.289062 C 87.40625 71.210938 87.453125 71.167969 87.453125 71.164062 C 87.453125 71.164062 87.4375 71.175781 87.390625 71.210938 C 87.34375 71.242188 87.269531 71.28125 87.167969 71.324219 C 86.757812 71.511719 86.074219 71.71875 85.136719 71.902344 C 83.273438 72.261719 80.640625 72.5 77.699219 72.5 L 77.699219 75.0625 C 80.761719 75.0625 83.5625 74.820312 85.628906 74.417969 C 86.652344 74.214844 87.558594 73.96875 88.246094 73.652344 C 88.582031 73.5 88.941406 73.296875 89.230469 73.023438 C 89.519531 72.746094 89.847656 72.289062 89.847656 71.664062 Z M 77.691406 70.832031 C 80.632812 70.832031 83.265625 71.066406 85.128906 71.429688 C 86.074219 71.613281 86.753906 71.820312 87.167969 72.007812 C 87.269531 72.054688 87.335938 72.09375 87.390625 72.121094 C 87.445312 72.15625 87.457031 72.167969 87.457031 72.167969 C 87.457031 72.167969 87.410156 72.128906 87.371094 72.042969 C 87.324219 71.953125 87.285156 71.820312 87.285156 71.664062 L 89.855469 71.664062 C 89.855469 71.042969 89.523438 70.585938 89.234375 70.308594 C 88.945312 70.035156 88.597656 69.832031 88.253906 69.679688 C 87.566406 69.363281 86.65625 69.113281 85.628906 68.914062 C 83.554688 68.511719 80.753906 68.269531 77.699219 68.269531 L 77.699219 70.832031 Z M 68.121094 71.664062 C 68.121094 71.820312 68.082031 71.953125 68.035156 72.042969 C 67.992188 72.121094 67.945312 72.164062 67.945312 72.167969 C 67.945312 72.167969 67.960938 72.15625 68.007812 72.121094 C 68.054688 72.089844 68.128906 72.046875 68.230469 72.007812 C 68.640625 71.820312 69.320312 71.613281 70.261719 71.429688 C 72.125 71.066406 74.75 70.832031 77.691406 70.832031 L 77.691406 68.269531 C 74.636719 68.269531 71.835938 68.511719 69.769531 68.914062 C 68.746094 69.113281 67.839844 69.363281 67.152344 69.679688 C 66.816406 69.832031 66.457031 70.035156 66.167969 70.308594 C 65.878906 70.585938 65.550781 71.042969 65.550781 71.664062 Z M 68.121094 71.664062 " fill-opacity="1" fill-rule="nonzero"/><path fill="#df4a26" d="M 77.691406 72.492188 C 74.746094 72.492188 72.121094 72.257812 70.261719 71.894531 C 69.320312 71.710938 68.640625 71.503906 68.230469 71.316406 C 68.128906 71.269531 68.0625 71.230469 68.007812 71.203125 C 67.953125 71.167969 67.941406 71.15625 67.945312 71.15625 C 67.945312 71.15625 67.992188 71.195312 68.035156 71.28125 C 68.082031 71.371094 68.121094 71.496094 68.121094 71.660156 L 65.550781 71.660156 C 65.550781 72.285156 65.878906 72.734375 66.167969 73.007812 C 66.457031 73.285156 66.808594 73.484375 67.152344 73.640625 C 67.839844 73.953125 68.746094 74.203125 69.769531 74.40625 C 71.835938 74.808594 74.636719 75.050781 77.691406 75.050781 L 77.691406 72.484375 Z M 87.277344 71.664062 C 87.277344 71.511719 87.316406 71.378906 87.363281 71.289062 C 87.40625 71.210938 87.453125 71.167969 87.453125 71.164062 C 87.453125 71.164062 87.4375 71.175781 87.390625 71.210938 C 87.34375 71.242188 87.269531 71.28125 87.167969 71.324219 C 86.757812 71.511719 86.074219 71.71875 85.136719 71.902344 C 83.273438 72.261719 80.640625 72.5 77.699219 72.5 L 77.699219 75.0625 C 80.761719 75.0625 83.5625 74.820312 85.628906 74.417969 C 86.652344 74.214844 87.558594 73.96875 88.246094 73.652344 C 88.582031 73.5 88.941406 73.296875 89.230469 73.023438 C 89.519531 72.746094 89.847656 72.289062 89.847656 71.664062 Z M 77.691406 70.832031 C 80.632812 70.832031 83.265625 71.066406 85.128906 71.429688 C 86.074219 71.613281 86.753906 71.820312 87.167969 72.007812 C 87.269531 72.054688 87.335938 72.09375 87.390625 72.121094 C 87.445312 72.15625 87.457031 72.167969 87.457031 72.167969 C 87.457031 72.167969 87.410156 72.128906 87.371094 72.042969 C 87.324219 71.953125 87.285156 71.820312 87.285156 71.664062 L 89.855469 71.664062 C 89.855469 71.042969 89.523438 70.585938 89.234375 70.308594 C 88.945312 70.035156 88.597656 69.832031 88.253906 69.679688 C 87.566406 69.363281 86.65625 69.113281 85.628906 68.914062 C 83.554688 68.511719 80.753906 68.269531 77.699219 68.269531 L 77.699219 70.832031 Z M 68.121094 71.664062 C 68.121094 71.820312 68.082031 71.953125 68.035156 72.042969 C 67.992188 72.121094 67.945312 72.164062 67.945312 72.167969 C 67.945312 72.167969 67.960938 72.15625 68.007812 72.121094 C 68.054688 72.089844 68.128906 72.046875 68.230469 72.007812 C 68.640625 71.820312 69.320312 71.613281 70.261719 71.429688 C 72.125 71.066406 74.75 70.832031 77.691406 70.832031 L 77.691406 68.269531 C 74.636719 68.269531 71.835938 68.511719 69.769531 68.914062 C 68.746094 69.113281 67.839844 69.363281 67.152344 69.679688 C 66.816406 69.832031 66.457031 70.035156 66.167969 70.308594 C 65.878906 70.585938 65.550781 71.042969 65.550781 71.664062 Z M 68.121094 71.664062 " fill-opacity="1" fill-rule="nonzero"/><path fill="#df4a26" d="M 77.632812 69.09375 C 74.722656 69.550781 72.09375 69.730469 70.195312 69.664062 C 69.230469 69.632812 68.53125 69.539062 68.09375 69.410156 C 67.871094 69.351562 67.792969 69.296875 67.792969 69.296875 C 67.792969 69.296875 68 69.445312 68.046875 69.773438 L 65.507812 70.148438 C 65.605469 70.765625 66 71.167969 66.332031 71.398438 C 66.660156 71.625 67.039062 71.765625 67.402344 71.875 C 68.128906 72.074219 69.0625 72.183594 70.105469 72.222656 C 72.214844 72.296875 75.019531 72.09375 78.035156 71.617188 L 77.632812 69.089844 Z M 86.960938 66.773438 C 86.941406 66.617188 86.960938 66.484375 86.996094 66.390625 C 87.019531 66.300781 87.054688 66.253906 87.0625 66.253906 C 87.0625 66.253906 87.046875 66.269531 87 66.308594 C 86.953125 66.347656 86.894531 66.394531 86.800781 66.457031 C 86.421875 66.710938 85.78125 67.011719 84.882812 67.34375 C 83.097656 67.988281 80.539062 68.632812 77.632812 69.09375 L 78.035156 71.625 C 81.058594 71.140625 83.785156 70.472656 85.761719 69.753906 C 86.738281 69.398438 87.601562 69.007812 88.226562 68.589844 C 88.535156 68.382812 88.851562 68.128906 89.09375 67.820312 C 89.335938 67.503906 89.59375 67.007812 89.5 66.394531 Z M 77.375 67.457031 C 80.277344 67 82.914062 66.820312 84.8125 66.886719 C 85.777344 66.917969 86.476562 67.011719 86.914062 67.140625 C 87.136719 67.203125 87.214844 67.253906 87.214844 67.253906 C 87.214844 67.253906 87.007812 67.109375 86.960938 66.777344 L 89.5 66.402344 C 89.402344 65.785156 89.007812 65.382812 88.675781 65.152344 C 88.347656 64.925781 87.96875 64.785156 87.605469 64.675781 C 86.878906 64.476562 85.945312 64.367188 84.902344 64.328125 C 82.792969 64.253906 79.988281 64.457031 76.972656 64.933594 L 77.375 67.464844 Z M 68.046875 69.765625 C 68.101562 70.09375 67.953125 70.289062 67.953125 70.289062 C 67.953125 70.289062 67.960938 70.277344 68.007812 70.234375 C 68.054688 70.195312 68.113281 70.148438 68.207031 70.089844 C 68.585938 69.839844 69.226562 69.53125 70.128906 69.203125 C 71.910156 68.558594 74.476562 67.914062 77.382812 67.449219 L 76.980469 64.917969 C 73.957031 65.402344 71.230469 66.074219 69.253906 66.792969 C 68.277344 67.148438 67.414062 67.539062 66.789062 67.953125 C 66.480469 68.160156 66.164062 68.417969 65.921875 68.730469 C 65.679688 69.046875 65.421875 69.550781 65.523438 70.167969 L 68.0625 69.765625 Z M 77.832031 70.363281 L 78.035156 71.625 C 78.035156 71.625 77.832031 70.363281 77.832031 70.363281 Z M 77.179688 66.1875 L 76.980469 64.925781 C 76.980469 64.925781 77.179688 66.1875 77.179688 66.1875 Z M 66.78125 69.96875 L 68.054688 69.78125 L 68.054688 69.765625 C 68.054688 69.765625 66.78125 69.96875 66.78125 69.96875 Z M 66.78125 69.96875 " fill-opacity="1" fill-rule="nonzero"/><path fill="#df4a26" d="M 77.027344 65.757812 C 74.234375 66.664062 71.660156 67.253906 69.777344 67.488281 C 68.828125 67.605469 68.113281 67.625 67.664062 67.570312 C 67.554688 67.558594 67.476562 67.542969 67.421875 67.53125 C 67.359375 67.515625 67.339844 67.503906 67.347656 67.511719 C 67.347656 67.511719 67.570312 67.617188 67.671875 67.933594 L 65.21875 68.710938 C 65.410156 69.308594 65.867188 69.636719 66.222656 69.8125 C 66.578125 69.988281 66.984375 70.066406 67.355469 70.113281 C 68.101562 70.203125 69.050781 70.160156 70.085938 70.035156 C 72.179688 69.78125 74.917969 69.140625 77.820312 68.195312 Z M 85.871094 62.019531 C 85.824219 61.863281 85.824219 61.730469 85.835938 61.628906 C 85.851562 61.535156 85.878906 61.488281 85.882812 61.480469 C 85.882812 61.480469 85.878906 61.496094 85.835938 61.542969 C 85.796875 61.589844 85.742188 61.648438 85.660156 61.722656 C 85.324219 62.03125 84.738281 62.433594 83.90625 62.898438 C 82.242188 63.816406 79.820312 64.84375 77.019531 65.757812 L 77.8125 68.195312 C 80.714844 67.25 83.304688 66.160156 85.144531 65.140625 C 86.050781 64.636719 86.839844 64.121094 87.398438 63.609375 C 87.675781 63.363281 87.949219 63.058594 88.136719 62.710938 C 88.328125 62.363281 88.503906 61.832031 88.3125 61.234375 Z M 76.515625 64.179688 C 79.308594 63.273438 81.878906 62.683594 83.761719 62.449219 C 84.710938 62.335938 85.425781 62.3125 85.878906 62.367188 C 85.984375 62.382812 86.066406 62.394531 86.121094 62.410156 C 86.179688 62.421875 86.199219 62.433594 86.195312 62.429688 C 86.195312 62.429688 85.972656 62.320312 85.871094 62.003906 L 88.320312 61.226562 C 88.132812 60.628906 87.675781 60.300781 87.316406 60.125 C 86.960938 59.953125 86.558594 59.871094 86.1875 59.824219 C 85.441406 59.738281 84.492188 59.777344 83.453125 59.90625 C 81.359375 60.160156 78.621094 60.796875 75.71875 61.742188 Z M 67.671875 67.917969 C 67.71875 68.074219 67.71875 68.207031 67.703125 68.308594 C 67.691406 68.402344 67.664062 68.449219 67.65625 68.457031 C 67.65625 68.457031 67.664062 68.445312 67.703125 68.394531 C 67.746094 68.347656 67.796875 68.289062 67.878906 68.214844 C 68.214844 67.90625 68.800781 67.503906 69.636719 67.039062 C 71.296875 66.121094 73.722656 65.09375 76.519531 64.179688 L 75.726562 61.742188 C 72.824219 62.691406 70.234375 63.777344 68.398438 64.796875 C 67.488281 65.300781 66.699219 65.820312 66.140625 66.328125 C 65.867188 66.578125 65.597656 66.878906 65.402344 67.226562 C 65.214844 67.578125 65.039062 68.109375 65.226562 68.707031 Z M 87.09375 61.621094 L 85.871094 62.011719 C 85.871094 62.011719 87.09375 61.621094 87.09375 61.621094 Z M 66.445312 68.308594 L 67.671875 67.917969 C 67.671875 67.917969 66.445312 68.308594 66.445312 68.308594 Z M 66.445312 68.308594 " fill-opacity="1" fill-rule="nonzero"/><path fill="#df4a26" d="M 75.910156 62.542969 C 73.289062 63.871094 70.839844 64.859375 69.015625 65.375 C 68.09375 65.636719 67.394531 65.765625 66.9375 65.785156 C 66.828125 65.785156 66.75 65.785156 66.6875 65.785156 C 66.628906 65.785156 66.605469 65.773438 66.605469 65.773438 C 66.605469 65.773438 66.667969 65.792969 66.742188 65.84375 C 66.820312 65.90625 66.921875 66 66.996094 66.140625 L 64.707031 67.308594 C 65 67.867188 65.496094 68.121094 65.878906 68.230469 C 66.261719 68.34375 66.667969 68.355469 67.039062 68.34375 C 67.792969 68.308594 68.714844 68.121094 69.714844 67.832031 C 71.742188 67.253906 74.347656 66.203125 77.066406 64.820312 L 75.902344 62.535156 Z M 84.058594 57.46875 C 83.984375 57.328125 83.964844 57.183594 83.964844 57.085938 C 83.964844 56.992188 83.984375 56.9375 83.984375 56.929688 C 83.984375 56.929688 83.984375 56.945312 83.953125 56.996094 C 83.917969 57.050781 83.878906 57.117188 83.8125 57.199219 C 83.527344 57.554688 83.015625 58.042969 82.257812 58.636719 C 80.761719 59.804688 78.527344 61.199219 75.902344 62.535156 L 77.074219 64.816406 C 79.792969 63.429688 82.183594 61.945312 83.835938 60.648438 C 84.660156 60.011719 85.351562 59.375 85.824219 58.785156 C 86.050781 58.496094 86.273438 58.152344 86.410156 57.777344 C 86.542969 57.398438 86.632812 56.84375 86.339844 56.285156 L 84.054688 57.453125 Z M 75.15625 61.074219 C 77.773438 59.742188 80.222656 58.757812 82.046875 58.238281 C 82.96875 57.976562 83.667969 57.851562 84.128906 57.828125 C 84.234375 57.828125 84.316406 57.828125 84.375 57.828125 C 84.4375 57.828125 84.457031 57.84375 84.457031 57.84375 C 84.457031 57.84375 84.394531 57.824219 84.324219 57.769531 C 84.242188 57.710938 84.140625 57.613281 84.066406 57.472656 L 86.355469 56.304688 C 86.066406 55.75 85.566406 55.492188 85.183594 55.386719 C 84.808594 55.273438 84.394531 55.257812 84.027344 55.273438 C 83.273438 55.304688 82.351562 55.492188 81.347656 55.78125 C 79.320312 56.359375 76.714844 57.414062 73.996094 58.796875 L 75.160156 61.078125 Z M 67.003906 66.148438 C 67.078125 66.289062 67.097656 66.429688 67.097656 66.53125 C 67.097656 66.625 67.078125 66.679688 67.078125 66.683594 C 67.078125 66.683594 67.078125 66.671875 67.113281 66.617188 C 67.144531 66.5625 67.1875 66.496094 67.253906 66.417969 C 67.535156 66.058594 68.046875 65.570312 68.808594 64.980469 C 70.300781 63.8125 72.535156 62.414062 75.160156 61.078125 L 73.992188 58.796875 C 71.269531 60.1875 68.882812 61.667969 67.226562 62.964844 C 66.40625 63.601562 65.710938 64.242188 65.242188 64.832031 C 65.011719 65.121094 64.789062 65.460938 64.65625 65.839844 C 64.519531 66.214844 64.433594 66.773438 64.714844 67.328125 L 67.003906 66.160156 Z M 76.496094 63.683594 L 77.078125 64.824219 C 77.078125 64.824219 76.496094 63.683594 76.496094 63.683594 Z M 74.570312 59.929688 L 73.984375 58.789062 C 73.984375 58.789062 74.570312 59.929688 74.570312 59.929688 Z M 74.570312 59.929688 " fill-opacity="1" fill-rule="nonzero"/><path fill="#df4a26" d="M 74.308594 59.542969 C 71.929688 61.265625 69.664062 62.617188 67.945312 63.414062 C 67.078125 63.816406 66.40625 64.054688 65.953125 64.148438 C 65.847656 64.167969 65.765625 64.179688 65.703125 64.179688 C 65.644531 64.179688 65.617188 64.179688 65.625 64.179688 C 65.625 64.179688 65.683594 64.1875 65.765625 64.226562 C 65.851562 64.273438 65.96875 64.347656 66.0625 64.476562 L 63.996094 65.992188 C 64.367188 66.496094 64.902344 66.664062 65.292969 66.71875 C 65.683594 66.765625 66.09375 66.71875 66.457031 66.652344 C 67.199219 66.503906 68.082031 66.175781 69.03125 65.730469 C 70.941406 64.84375 73.34375 63.394531 75.816406 61.609375 L 74.308594 59.535156 Z M 81.570312 53.257812 C 81.476562 53.128906 81.433594 53.003906 81.421875 52.902344 C 81.40625 52.808594 81.421875 52.753906 81.421875 52.75 C 81.421875 52.75 81.421875 52.761719 81.394531 52.820312 C 81.375 52.875 81.332031 52.949219 81.285156 53.042969 C 81.066406 53.441406 80.632812 54.003906 79.980469 54.703125 C 78.6875 56.085938 76.695312 57.816406 74.3125 59.542969 L 75.828125 61.609375 C 78.296875 59.816406 80.425781 57.976562 81.859375 56.441406 C 82.574219 55.683594 83.15625 54.941406 83.527344 54.285156 C 83.710938 53.964844 83.878906 53.585938 83.953125 53.199219 C 84.027344 52.808594 84.027344 52.246094 83.65625 51.742188 L 81.574219 53.246094 Z M 73.332031 58.199219 C 75.707031 56.472656 77.976562 55.117188 79.691406 54.320312 C 80.558594 53.917969 81.234375 53.679688 81.675781 53.59375 C 81.785156 53.574219 81.867188 53.558594 81.925781 53.558594 C 81.988281 53.558594 82.007812 53.558594 82.007812 53.558594 C 82.007812 53.558594 81.945312 53.554688 81.859375 53.511719 C 81.769531 53.464844 81.65625 53.390625 81.570312 53.265625 L 83.648438 51.761719 C 83.277344 51.257812 82.746094 51.082031 82.351562 51.03125 C 81.953125 50.976562 81.550781 51.023438 81.1875 51.089844 C 80.445312 51.238281 79.558594 51.566406 78.613281 52.007812 C 76.703125 52.894531 74.292969 54.347656 71.824219 56.144531 L 73.335938 58.210938 Z M 66.074219 64.488281 C 66.167969 64.617188 66.210938 64.746094 66.222656 64.84375 C 66.238281 64.9375 66.222656 64.992188 66.222656 65 C 66.222656 65 66.222656 64.984375 66.25 64.925781 C 66.269531 64.871094 66.304688 64.796875 66.359375 64.703125 C 66.578125 64.308594 67.011719 63.746094 67.664062 63.046875 C 68.957031 61.664062 70.949219 59.929688 73.332031 58.207031 L 71.816406 56.136719 C 69.347656 57.929688 67.21875 59.769531 65.785156 61.308594 C 65.070312 62.066406 64.488281 62.804688 64.117188 63.460938 C 63.933594 63.785156 63.765625 64.160156 63.691406 64.550781 C 63.617188 64.9375 63.617188 65.503906 63.988281 66.007812 L 66.066406 64.503906 Z M 75.0625 60.582031 L 75.816406 61.617188 C 75.816406 61.617188 75.0625 60.582031 75.0625 60.582031 Z M 65.03125 65.242188 L 63.996094 65.992188 C 63.996094 65.992188 65.03125 65.242188 65.03125 65.242188 Z M 65.03125 65.242188 " fill-opacity="1" fill-rule="nonzero"/><path fill="#df4a26" d="M 72.246094 56.835938 C 70.160156 58.917969 68.140625 60.601562 66.566406 61.664062 C 65.773438 62.199219 65.144531 62.535156 64.722656 62.691406 C 64.621094 62.730469 64.539062 62.75 64.488281 62.765625 C 64.425781 62.777344 64.40625 62.777344 64.414062 62.777344 C 64.414062 62.777344 64.472656 62.777344 64.566406 62.804688 C 64.660156 62.832031 64.789062 62.898438 64.898438 63.003906 L 63.078125 64.816406 C 63.523438 65.261719 64.074219 65.347656 64.480469 65.335938 C 64.878906 65.320312 65.265625 65.222656 65.617188 65.085938 C 66.324219 64.824219 67.144531 64.363281 68.007812 63.777344 C 69.75 62.601562 71.902344 60.796875 74.066406 58.636719 L 72.246094 56.824219 Z M 78.441406 49.503906 C 78.324219 49.390625 78.265625 49.269531 78.238281 49.175781 C 78.210938 49.089844 78.210938 49.027344 78.210938 49.023438 C 78.210938 49.023438 78.210938 49.042969 78.195312 49.097656 C 78.183594 49.15625 78.164062 49.230469 78.125 49.332031 C 77.96875 49.761719 77.625 50.378906 77.09375 51.175781 C 76.03125 52.75 74.339844 54.761719 72.253906 56.835938 L 74.066406 58.648438 C 76.226562 56.5 78.042969 54.351562 79.21875 52.613281 C 79.804688 51.753906 80.269531 50.933594 80.53125 50.222656 C 80.660156 49.875 80.769531 49.480469 80.78125 49.082031 C 80.789062 48.6875 80.699219 48.128906 80.261719 47.6875 L 78.445312 49.5 Z M 71.082031 55.683594 C 73.167969 53.601562 75.1875 51.914062 76.761719 50.855469 C 77.558594 50.316406 78.183594 49.980469 78.609375 49.828125 C 78.707031 49.789062 78.789062 49.765625 78.84375 49.753906 C 78.902344 49.742188 78.925781 49.742188 78.917969 49.742188 C 78.917969 49.742188 78.855469 49.742188 78.761719 49.714844 C 78.667969 49.6875 78.539062 49.621094 78.433594 49.511719 L 80.25 47.699219 C 79.804688 47.257812 79.253906 47.167969 78.851562 47.183594 C 78.453125 47.195312 78.054688 47.296875 77.710938 47.429688 C 77.007812 47.691406 76.183594 48.15625 75.324219 48.742188 C 73.578125 49.914062 71.425781 51.722656 69.265625 53.882812 L 71.082031 55.695312 Z M 64.898438 63.011719 C 65.011719 63.125 65.070312 63.246094 65.097656 63.339844 C 65.125 63.429688 65.125 63.488281 65.125 63.496094 C 65.125 63.496094 65.125 63.476562 65.140625 63.421875 C 65.152344 63.363281 65.171875 63.289062 65.214844 63.1875 C 65.375 62.757812 65.710938 62.140625 66.242188 61.339844 C 67.308594 59.769531 69.003906 57.757812 71.082031 55.683594 L 69.273438 53.871094 C 67.113281 56.015625 65.292969 58.164062 64.117188 59.90625 C 63.53125 60.761719 63.066406 61.582031 62.804688 62.292969 C 62.675781 62.644531 62.566406 63.039062 62.554688 63.433594 C 62.542969 63.832031 62.636719 64.390625 63.074219 64.832031 L 64.890625 63.019531 Z M 73.15625 57.742188 L 72.246094 56.835938 C 72.246094 56.835938 73.15625 57.742188 73.15625 57.742188 Z M 70.179688 54.777344 L 71.089844 55.683594 C 71.089844 55.683594 70.179688 54.777344 70.179688 54.777344 Z M 70.179688 54.777344 " fill-opacity="1" fill-rule="nonzero"/><path fill="#df4a26" d="M 69.804688 54.488281 C 68.066406 56.863281 66.335938 58.84375 64.949219 60.140625 C 64.25 60.789062 63.6875 61.21875 63.289062 61.441406 C 63.195312 61.496094 63.121094 61.527344 63.066406 61.550781 C 63.011719 61.570312 62.984375 61.574219 62.992188 61.574219 C 62.992188 61.574219 63.054688 61.5625 63.148438 61.574219 C 63.25 61.589844 63.375 61.628906 63.503906 61.722656 L 61.996094 63.796875 C 62.5 64.167969 63.066406 64.167969 63.457031 64.09375 C 63.847656 64.019531 64.222656 63.851562 64.546875 63.671875 C 65.207031 63.300781 65.941406 62.71875 66.707031 62.003906 C 68.25 60.570312 70.085938 58.453125 71.890625 55.992188 L 69.816406 54.480469 Z M 74.757812 46.269531 C 74.628906 46.175781 74.550781 46.070312 74.507812 45.980469 C 74.46875 45.902344 74.460938 45.839844 74.460938 45.832031 C 74.460938 45.832031 74.460938 45.847656 74.460938 45.90625 C 74.460938 45.96875 74.449219 46.046875 74.429688 46.15625 C 74.339844 46.597656 74.105469 47.269531 73.699219 48.136719 C 72.898438 49.847656 71.539062 52.109375 69.8125 54.488281 L 71.890625 55.992188 C 73.6875 53.519531 75.140625 51.125 76.035156 49.21875 C 76.472656 48.277344 76.8125 47.390625 76.957031 46.652344 C 77.03125 46.289062 77.074219 45.878906 77.019531 45.492188 C 76.964844 45.09375 76.789062 44.566406 76.285156 44.195312 L 74.777344 46.269531 Z M 68.457031 53.511719 C 70.179688 51.144531 71.917969 49.15625 73.304688 47.867188 C 74.003906 47.214844 74.570312 46.785156 74.972656 46.566406 C 75.066406 46.511719 75.140625 46.476562 75.195312 46.457031 C 75.25 46.4375 75.277344 46.429688 75.269531 46.429688 C 75.269531 46.429688 75.207031 46.445312 75.113281 46.429688 C 75.011719 46.417969 74.886719 46.378906 74.757812 46.285156 L 76.265625 44.207031 C 75.761719 43.839844 75.195312 43.839844 74.804688 43.914062 C 74.414062 43.988281 74.039062 44.148438 73.714844 44.335938 C 73.054688 44.707031 72.316406 45.289062 71.554688 46 C 70.011719 47.4375 68.167969 49.550781 66.378906 52.015625 L 68.457031 53.519531 Z M 63.496094 61.730469 C 63.625 61.824219 63.707031 61.933594 63.746094 62.019531 C 63.785156 62.097656 63.792969 62.160156 63.792969 62.167969 C 63.792969 62.167969 63.792969 62.148438 63.792969 62.085938 C 63.792969 62.027344 63.808594 61.945312 63.828125 61.835938 C 63.914062 61.394531 64.148438 60.722656 64.554688 59.855469 C 65.355469 58.140625 66.714844 55.882812 68.445312 53.511719 L 66.371094 52.003906 C 64.574219 54.464844 63.121094 56.871094 62.226562 58.777344 C 61.789062 59.714844 61.449219 60.601562 61.304688 61.339844 C 61.230469 61.703125 61.1875 62.113281 61.242188 62.503906 C 61.296875 62.898438 61.472656 63.429688 61.976562 63.796875 L 63.484375 61.722656 Z M 70.839844 55.238281 L 71.878906 55.992188 C 71.878906 55.992188 70.839844 55.238281 70.839844 55.238281 Z M 67.421875 52.761719 L 68.457031 53.511719 C 68.457031 53.511719 67.421875 52.761719 67.421875 52.761719 Z M 67.421875 52.761719 " fill-opacity="1" fill-rule="nonzero"/><path fill="#df4a26" d="M 66.996094 52.546875 C 65.664062 55.15625 64.265625 57.386719 63.09375 58.878906 C 62.5 59.628906 62.007812 60.140625 61.652344 60.421875 C 61.566406 60.488281 61.5 60.535156 61.449219 60.5625 C 61.398438 60.597656 61.375 60.601562 61.382812 60.597656 C 61.382812 60.597656 61.445312 60.574219 61.53125 60.574219 C 61.632812 60.574219 61.765625 60.597656 61.902344 60.664062 L 60.746094 62.945312 C 61.304688 63.226562 61.855469 63.140625 62.230469 63.003906 C 62.609375 62.871094 62.953125 62.648438 63.242188 62.421875 C 63.832031 61.957031 64.472656 61.261719 65.113281 60.441406 C 66.410156 58.785156 67.898438 56.40625 69.285156 53.695312 L 66.996094 52.535156 Z M 70.613281 43.664062 C 70.46875 43.589844 70.375 43.496094 70.316406 43.410156 C 70.261719 43.335938 70.25 43.277344 70.242188 43.277344 C 70.242188 43.277344 70.242188 43.296875 70.253906 43.355469 C 70.253906 43.417969 70.261719 43.496094 70.253906 43.605469 C 70.234375 44.0625 70.105469 44.757812 69.84375 45.679688 C 69.320312 47.5 68.335938 49.933594 66.996094 52.554688 L 69.285156 53.722656 C 70.679688 51.007812 71.734375 48.410156 72.316406 46.390625 C 72.605469 45.390625 72.792969 44.472656 72.820312 43.71875 C 72.832031 43.351562 72.820312 42.941406 72.703125 42.5625 C 72.589844 42.1875 72.339844 41.683594 71.78125 41.394531 L 70.613281 43.679688 Z M 65.523438 51.792969 C 66.855469 49.183594 68.253906 46.953125 69.425781 45.464844 C 70.019531 44.710938 70.511719 44.203125 70.867188 43.921875 C 70.953125 43.851562 71.023438 43.804688 71.070312 43.78125 C 71.125 43.746094 71.144531 43.738281 71.136719 43.746094 C 71.136719 43.746094 71.074219 43.765625 70.988281 43.765625 C 70.886719 43.765625 70.753906 43.746094 70.617188 43.679688 L 71.777344 41.394531 C 71.21875 41.113281 70.664062 41.203125 70.289062 41.335938 C 69.910156 41.46875 69.566406 41.691406 69.277344 41.917969 C 68.6875 42.382812 68.046875 43.082031 67.40625 43.898438 C 66.109375 45.558594 64.621094 47.933594 63.234375 50.648438 L 65.523438 51.808594 Z M 61.910156 60.675781 C 62.050781 60.75 62.144531 60.84375 62.203125 60.929688 C 62.257812 61.003906 62.273438 61.066406 62.277344 61.066406 C 62.277344 61.066406 62.277344 61.046875 62.265625 60.984375 C 62.265625 60.925781 62.257812 60.84375 62.265625 60.738281 C 62.285156 60.28125 62.414062 59.582031 62.675781 58.664062 C 63.199219 56.84375 64.183594 54.40625 65.523438 51.789062 L 63.234375 50.621094 C 61.839844 53.332031 60.785156 55.929688 60.207031 57.949219 C 59.917969 58.949219 59.726562 59.871094 59.699219 60.621094 C 59.6875 60.992188 59.699219 61.402344 59.816406 61.777344 C 59.929688 62.152344 60.179688 62.65625 60.738281 62.945312 L 61.910156 60.664062 Z M 68.148438 53.128906 L 67.003906 52.546875 C 67.003906 52.546875 68.148438 53.128906 68.148438 53.128906 Z M 71.195312 42.523438 L 71.78125 41.382812 C 71.78125 41.382812 71.203125 42.523438 71.203125 42.523438 Z M 64.378906 51.210938 L 65.523438 51.792969 C 65.523438 51.792969 64.378906 51.210938 64.378906 51.210938 Z M 61.328125 61.816406 L 60.746094 62.957031 C 60.746094 62.957031 61.324219 61.816406 61.324219 61.816406 Z M 61.328125 61.816406 " fill-opacity="1" fill-rule="nonzero"/><path fill="#df4a26" d="M 63.933594 51.0625 C 63.027344 53.855469 61.988281 56.277344 61.066406 57.9375 C 60.601562 58.777344 60.199219 59.355469 59.890625 59.691406 C 59.734375 59.855469 59.652344 59.90625 59.652344 59.90625 C 59.652344 59.90625 59.875 59.785156 60.199219 59.890625 L 59.382812 62.320312 C 59.984375 62.523438 60.523438 62.347656 60.871094 62.160156 C 61.222656 61.972656 61.523438 61.695312 61.78125 61.429688 C 62.292969 60.878906 62.8125 60.09375 63.316406 59.179688 C 64.339844 57.339844 65.429688 54.753906 66.378906 51.855469 Z M 66.101562 41.730469 C 65.945312 41.683594 65.839844 41.605469 65.765625 41.53125 C 65.699219 41.464844 65.671875 41.410156 65.671875 41.402344 C 65.671875 41.402344 65.679688 41.417969 65.691406 41.476562 C 65.703125 41.539062 65.71875 41.617188 65.730469 41.726562 C 65.785156 42.175781 65.765625 42.886719 65.652344 43.832031 C 65.421875 45.710938 64.828125 48.277344 63.929688 51.0625 L 66.371094 51.855469 C 67.3125 48.960938 67.945312 46.230469 68.203125 44.140625 C 68.328125 43.109375 68.371094 42.167969 68.28125 41.421875 C 68.242188 41.054688 68.15625 40.65625 67.988281 40.296875 C 67.816406 39.9375 67.480469 39.484375 66.882812 39.289062 L 66.09375 41.726562 Z M 62.351562 50.554688 C 63.261719 47.761719 64.296875 45.335938 65.21875 43.683594 C 65.683594 42.847656 66.089844 42.269531 66.398438 41.933594 C 66.472656 41.851562 66.53125 41.800781 66.578125 41.757812 C 66.628906 41.71875 66.648438 41.710938 66.640625 41.710938 C 66.640625 41.710938 66.585938 41.738281 66.492188 41.757812 C 66.390625 41.773438 66.257812 41.777344 66.101562 41.726562 L 66.890625 39.289062 C 66.296875 39.101562 65.757812 39.273438 65.410156 39.460938 C 65.058594 39.652344 64.753906 39.925781 64.507812 40.195312 C 63.996094 40.746094 63.476562 41.53125 62.972656 42.4375 C 61.949219 44.269531 60.859375 46.855469 59.910156 49.753906 L 62.351562 50.546875 Z M 60.1875 59.890625 C 60.339844 59.9375 60.449219 60.019531 60.523438 60.09375 C 60.589844 60.160156 60.617188 60.214844 60.617188 60.21875 C 60.617188 60.21875 60.609375 60.207031 60.597656 60.144531 C 60.582031 60.085938 60.570312 60.003906 60.554688 59.898438 C 60.5 59.449219 60.523438 58.734375 60.636719 57.789062 C 60.867188 55.910156 61.457031 53.34375 62.359375 50.558594 L 59.917969 49.765625 C 58.972656 52.660156 58.339844 55.394531 58.085938 57.480469 C 57.957031 58.515625 57.917969 59.453125 58.003906 60.199219 C 58.046875 60.570312 58.132812 60.964844 58.300781 61.328125 C 58.46875 61.683594 58.804688 62.140625 59.40625 62.335938 L 60.191406 59.898438 Z M 65.160156 51.460938 L 66.378906 51.855469 C 66.378906 51.855469 65.152344 51.460938 65.152344 51.460938 Z M 61.132812 50.15625 L 59.917969 49.761719 C 59.917969 49.761719 61.132812 50.15625 61.132812 50.15625 Z M 59.789062 61.105469 L 60.191406 59.890625 L 60.179688 59.890625 C 60.179688 59.890625 59.78125 61.105469 59.78125 61.105469 Z M 59.789062 61.105469 " fill-opacity="1" fill-rule="nonzero"/><path fill="#df4a26" d="M 60.671875 50.070312 C 60.210938 52.964844 59.574219 55.519531 58.921875 57.300781 C 58.589844 58.199219 58.28125 58.835938 58.03125 59.21875 C 57.972656 59.308594 57.925781 59.375 57.882812 59.421875 C 57.84375 59.46875 57.824219 59.480469 57.828125 59.476562 C 57.828125 59.476562 57.875 59.433594 57.972656 59.40625 C 58.066406 59.375 58.199219 59.355469 58.355469 59.378906 L 57.949219 61.910156 C 58.570312 62.011719 59.074219 61.757812 59.390625 61.515625 C 59.707031 61.273438 59.964844 60.957031 60.171875 60.648438 C 60.589844 60.023438 60.980469 59.164062 61.34375 58.1875 C 62.0625 56.210938 62.742188 53.488281 63.214844 50.480469 L 60.675781 50.078125 Z M 61.34375 40.511719 C 61.1875 40.484375 61.066406 40.421875 60.988281 40.363281 C 60.914062 40.308594 60.878906 40.261719 60.878906 40.253906 C 60.878906 40.253906 60.890625 40.269531 60.914062 40.320312 C 60.933594 40.375 60.964844 40.457031 60.992188 40.558594 C 61.113281 40.992188 61.214844 41.699219 61.25 42.652344 C 61.316406 44.542969 61.132812 47.164062 60.675781 50.0625 L 63.214844 50.464844 C 63.691406 47.457031 63.894531 44.664062 63.820312 42.5625 C 63.785156 41.523438 63.679688 40.589844 63.46875 39.867188 C 63.371094 39.507812 63.222656 39.128906 63 38.796875 C 62.769531 38.46875 62.375 38.074219 61.761719 37.980469 L 61.355469 40.511719 Z M 59.027344 49.820312 C 59.484375 46.929688 60.125 44.371094 60.777344 42.589844 C 61.109375 41.691406 61.417969 41.054688 61.667969 40.671875 C 61.726562 40.582031 61.773438 40.515625 61.8125 40.46875 C 61.855469 40.421875 61.875 40.410156 61.867188 40.414062 C 61.867188 40.414062 61.820312 40.457031 61.726562 40.484375 C 61.632812 40.515625 61.5 40.535156 61.34375 40.511719 L 61.746094 37.980469 C 61.128906 37.878906 60.625 38.132812 60.308594 38.375 C 59.992188 38.617188 59.734375 38.933594 59.527344 39.242188 C 59.109375 39.867188 58.710938 40.726562 58.355469 41.703125 C 57.632812 43.679688 56.953125 46.402344 56.484375 49.410156 L 59.019531 49.8125 Z M 58.355469 59.375 C 58.507812 59.402344 58.628906 59.460938 58.710938 59.523438 C 58.785156 59.574219 58.820312 59.621094 58.820312 59.628906 C 58.820312 59.628906 58.804688 59.617188 58.785156 59.5625 C 58.765625 59.507812 58.730469 59.425781 58.703125 59.328125 C 58.582031 58.890625 58.484375 58.1875 58.449219 57.234375 C 58.382812 55.339844 58.5625 52.722656 59.019531 49.820312 L 56.484375 49.417969 C 56.003906 52.425781 55.804688 55.21875 55.878906 57.320312 C 55.910156 58.359375 56.019531 59.292969 56.226562 60.019531 C 56.328125 60.375 56.476562 60.757812 56.699219 61.085938 C 56.929688 61.414062 57.324219 61.8125 57.9375 61.90625 L 58.339844 59.375 Z M 58.355469 59.375 " fill-opacity="1" fill-rule="nonzero"/><path fill="#df4a26" d="M 57.296875 49.621094 C 57.296875 52.554688 57.0625 55.171875 56.699219 57.03125 C 56.515625 57.972656 56.308594 58.648438 56.121094 59.058594 C 56.074219 59.160156 56.03125 59.226562 56.003906 59.28125 C 55.972656 59.332031 55.957031 59.347656 55.957031 59.339844 C 55.957031 59.339844 56 59.292969 56.085938 59.253906 C 56.175781 59.207031 56.308594 59.164062 56.464844 59.164062 L 56.464844 61.730469 C 57.089844 61.730469 57.546875 61.402344 57.824219 61.113281 C 58.097656 60.824219 58.300781 60.476562 58.457031 60.132812 C 58.773438 59.449219 59.019531 58.542969 59.222656 57.519531 C 59.625 55.460938 59.871094 52.667969 59.871094 49.621094 Z M 56.464844 40.074219 C 56.300781 40.074219 56.175781 40.035156 56.085938 39.988281 C 56.003906 39.945312 55.964844 39.898438 55.957031 39.898438 C 55.957031 39.898438 55.972656 39.914062 56.003906 39.960938 C 56.039062 40.007812 56.078125 40.082031 56.121094 40.179688 C 56.308594 40.589844 56.515625 41.269531 56.699219 42.207031 C 57.0625 44.066406 57.296875 46.6875 57.296875 49.621094 L 59.871094 49.621094 C 59.871094 46.570312 59.625 43.78125 59.222656 41.71875 C 59.019531 40.699219 58.773438 39.792969 58.457031 39.105469 C 58.300781 38.769531 58.097656 38.414062 57.824219 38.125 C 57.546875 37.839844 57.089844 37.507812 56.464844 37.507812 Z M 55.636719 49.621094 C 55.636719 46.6875 55.871094 44.066406 56.234375 42.207031 C 56.417969 41.269531 56.625 40.589844 56.8125 40.179688 C 56.859375 40.082031 56.902344 40.011719 56.929688 39.960938 C 56.960938 39.90625 56.976562 39.890625 56.976562 39.898438 C 56.976562 39.898438 56.933594 39.945312 56.847656 39.988281 C 56.757812 40.035156 56.625 40.074219 56.46875 40.074219 L 56.46875 37.507812 C 55.84375 37.507812 55.386719 37.839844 55.109375 38.125 C 54.835938 38.414062 54.632812 38.765625 54.476562 39.105469 C 54.160156 39.792969 53.914062 40.699219 53.710938 41.71875 C 53.308594 43.78125 53.0625 46.570312 53.0625 49.621094 Z M 56.464844 59.164062 C 56.617188 59.164062 56.753906 59.207031 56.839844 59.253906 C 56.921875 59.292969 56.960938 59.339844 56.96875 59.339844 C 56.96875 59.339844 56.953125 59.328125 56.921875 59.28125 C 56.886719 59.234375 56.847656 59.160156 56.808594 59.058594 C 56.617188 58.648438 56.410156 57.972656 56.226562 57.03125 C 55.863281 55.171875 55.628906 52.554688 55.628906 49.621094 L 53.058594 49.621094 C 53.058594 52.667969 53.300781 55.460938 53.703125 57.519531 C 53.90625 58.542969 54.15625 59.449219 54.472656 60.132812 C 54.625 60.46875 54.828125 60.824219 55.105469 61.113281 C 55.378906 61.402344 55.835938 61.730469 56.464844 61.730469 Z M 56.464844 59.164062 " fill-opacity="1" fill-rule="nonzero"/><path fill="#df4a26" d="M 54.78125 59.226562 L 54.765625 59.226562 L 54.765625 61.789062 L 54.78125 61.789062 Z M 53.890625 49.679688 C 54.351562 52.574219 54.53125 55.207031 54.464844 57.097656 C 54.429688 58.058594 54.335938 58.757812 54.214844 59.191406 C 54.1875 59.292969 54.160156 59.375 54.132812 59.425781 C 54.113281 59.480469 54.101562 59.5 54.101562 59.496094 C 54.101562 59.496094 54.25 59.285156 54.585938 59.234375 L 54.96875 61.765625 C 55.59375 61.667969 55.992188 61.265625 56.222656 60.945312 C 56.441406 60.617188 56.589844 60.238281 56.691406 59.878906 C 56.894531 59.152344 57 58.21875 57.035156 57.179688 C 57.109375 55.078125 56.90625 52.285156 56.429688 49.269531 L 53.890625 49.671875 Z M 51.570312 40.375 C 51.242188 40.429688 51.046875 40.28125 51.046875 40.28125 C 51.046875 40.28125 51.058594 40.289062 51.097656 40.335938 C 51.140625 40.382812 51.1875 40.441406 51.246094 40.535156 C 51.496094 40.914062 51.804688 41.550781 52.136719 42.449219 C 52.78125 44.230469 53.429688 46.785156 53.890625 49.6875 L 56.429688 49.285156 C 55.945312 46.269531 55.273438 43.550781 54.550781 41.578125 C 54.195312 40.597656 53.804688 39.746094 53.386719 39.113281 C 53.179688 38.804688 52.921875 38.488281 52.605469 38.246094 C 52.289062 38.007812 51.785156 37.75 51.167969 37.851562 L 51.570312 40.382812 Z M 52.242188 49.933594 C 51.785156 47.042969 51.605469 44.410156 51.671875 42.515625 C 51.703125 41.558594 51.800781 40.859375 51.925781 40.421875 C 51.988281 40.203125 52.042969 40.121094 52.042969 40.121094 C 52.042969 40.121094 51.894531 40.328125 51.5625 40.375 L 51.1875 37.84375 C 50.566406 37.9375 50.164062 38.335938 49.933594 38.664062 C 49.707031 38.992188 49.5625 39.367188 49.457031 39.730469 C 49.253906 40.457031 49.148438 41.390625 49.105469 42.429688 C 49.03125 44.53125 49.234375 47.332031 49.710938 50.339844 L 52.25 49.933594 Z M 54.566406 59.238281 C 54.894531 59.1875 55.089844 59.332031 55.089844 59.332031 C 55.089844 59.332031 55.078125 59.328125 55.035156 59.28125 C 54.996094 59.234375 54.949219 59.171875 54.886719 59.078125 C 54.640625 58.703125 54.328125 58.066406 54 57.164062 C 53.355469 55.386719 52.707031 52.828125 52.242188 49.929688 L 49.707031 50.332031 C 50.191406 53.34375 50.863281 56.0625 51.582031 58.039062 C 51.941406 59.019531 52.332031 59.871094 52.746094 60.496094 C 52.957031 60.804688 53.210938 61.121094 53.527344 61.359375 C 53.84375 61.601562 54.351562 61.859375 54.96875 61.757812 L 54.566406 59.226562 Z M 54.78125 60.507812 L 54.78125 61.789062 C 54.839844 61.789062 54.910156 61.789062 54.96875 61.777344 Z M 55.164062 49.484375 L 56.429688 49.285156 C 56.429688 49.285156 55.164062 49.484375 55.164062 49.484375 Z M 51.367188 39.113281 L 51.558594 40.382812 L 51.570312 40.382812 C 51.570312 40.382812 51.367188 39.113281 51.367188 39.113281 Z M 50.976562 50.136719 L 49.710938 50.339844 C 49.710938 50.339844 50.976562 50.136719 50.976562 50.136719 Z M 54.765625 60.507812 L 54.765625 59.226562 C 54.699219 59.226562 54.632812 59.226562 54.566406 59.238281 L 54.765625 60.5 Z M 54.765625 60.507812 " fill-opacity="1" fill-rule="nonzero"/><path fill="#df4a26" d="M 50.546875 50.285156 C 51.457031 53.070312 52.046875 55.632812 52.285156 57.515625 C 52.398438 58.460938 52.417969 59.171875 52.363281 59.621094 C 52.351562 59.730469 52.335938 59.808594 52.324219 59.863281 C 52.308594 59.925781 52.296875 59.945312 52.304688 59.9375 C 52.304688 59.9375 52.410156 59.714844 52.726562 59.617188 L 53.507812 62.058594 C 54.109375 61.871094 54.4375 61.414062 54.613281 61.058594 C 54.789062 60.703125 54.867188 60.300781 54.914062 59.929688 C 55.003906 59.1875 54.960938 58.238281 54.835938 57.207031 C 54.578125 55.117188 53.9375 52.386719 52.992188 49.492188 Z M 46.796875 41.457031 C 46.644531 41.503906 46.507812 41.503906 46.40625 41.488281 C 46.3125 41.476562 46.265625 41.449219 46.257812 41.441406 C 46.257812 41.441406 46.273438 41.449219 46.320312 41.488281 C 46.367188 41.53125 46.429688 41.585938 46.5 41.664062 C 46.8125 42 47.214844 42.585938 47.679688 43.417969 C 48.601562 45.074219 49.632812 47.492188 50.546875 50.285156 L 52.992188 49.492188 C 52.042969 46.597656 50.949219 44.015625 49.929688 42.179688 C 49.421875 41.273438 48.90625 40.488281 48.394531 39.933594 C 48.136719 39.65625 47.839844 39.390625 47.492188 39.195312 C 47.140625 39.007812 46.609375 38.832031 46.011719 39.019531 Z M 48.964844 50.792969 C 48.058594 48.007812 47.464844 45.445312 47.230469 43.566406 C 47.113281 42.617188 47.09375 41.90625 47.148438 41.457031 C 47.160156 41.347656 47.175781 41.269531 47.1875 41.214844 C 47.203125 41.15625 47.214844 41.132812 47.207031 41.140625 C 47.207031 41.140625 47.101562 41.363281 46.785156 41.464844 L 46.003906 39.019531 C 45.40625 39.207031 45.074219 39.664062 44.898438 40.019531 C 44.726562 40.375 44.644531 40.777344 44.597656 41.148438 C 44.507812 41.894531 44.550781 42.839844 44.679688 43.875 C 44.933594 45.960938 45.574219 48.691406 46.523438 51.585938 Z M 52.714844 59.617188 C 52.871094 59.570312 53.003906 59.570312 53.105469 59.582031 C 53.199219 59.59375 53.246094 59.621094 53.253906 59.628906 C 53.253906 59.628906 53.238281 59.621094 53.191406 59.582031 C 53.144531 59.542969 53.085938 59.488281 53.011719 59.40625 C 52.699219 59.070312 52.296875 58.488281 51.832031 57.65625 C 50.910156 55.996094 49.878906 53.582031 48.964844 50.789062 L 46.523438 51.578125 C 47.472656 54.472656 48.5625 57.058594 49.585938 58.890625 C 50.089844 59.796875 50.609375 60.582031 51.121094 61.140625 C 51.367188 61.414062 51.671875 61.683594 52.019531 61.878906 C 52.371094 62.066406 52.902344 62.242188 53.5 62.050781 Z M 46.402344 40.242188 L 46.792969 41.464844 C 46.792969 41.464844 46.394531 40.242188 46.394531 40.242188 Z M 53.105469 60.835938 L 52.714844 59.617188 C 52.714844 59.617188 53.113281 60.835938 53.113281 60.835938 Z M 53.105469 60.835938 " fill-opacity="1" fill-rule="nonzero"/><path fill="#df4a26" d="M 47.308594 51.390625 C 48.640625 54.003906 49.632812 56.445312 50.148438 58.265625 C 50.414062 59.1875 50.539062 59.882812 50.558594 60.339844 C 50.558594 60.449219 50.558594 60.527344 50.558594 60.589844 C 50.558594 60.648438 50.546875 60.667969 50.546875 60.667969 C 50.546875 60.667969 50.566406 60.609375 50.621094 60.535156 C 50.683594 60.453125 50.777344 60.355469 50.917969 60.28125 L 52.089844 62.5625 C 52.648438 62.28125 52.902344 61.777344 53.011719 61.394531 C 53.125 61.011719 53.136719 60.609375 53.125 60.238281 C 53.089844 59.488281 52.902344 58.570312 52.613281 57.566406 C 52.035156 55.546875 50.976562 52.949219 49.589844 50.238281 L 47.304688 51.398438 Z M 42.214844 43.261719 C 42.074219 43.328125 41.9375 43.355469 41.84375 43.351562 C 41.75 43.351562 41.695312 43.328125 41.6875 43.328125 C 41.6875 43.328125 41.703125 43.328125 41.757812 43.363281 C 41.808594 43.398438 41.878906 43.4375 41.957031 43.503906 C 42.316406 43.785156 42.804688 44.296875 43.398438 45.046875 C 44.570312 46.539062 45.96875 48.765625 47.308594 51.386719 L 49.597656 50.21875 C 48.203125 47.503906 46.722656 45.128906 45.425781 43.46875 C 44.785156 42.652344 44.144531 41.953125 43.554688 41.488281 C 43.257812 41.261719 42.921875 41.035156 42.542969 40.90625 C 42.167969 40.773438 41.617188 40.683594 41.054688 40.964844 L 42.214844 43.25 Z M 45.835938 52.144531 C 44.503906 49.53125 43.511719 47.089844 42.996094 45.269531 C 42.734375 44.351562 42.605469 43.652344 42.585938 43.195312 C 42.585938 43.085938 42.585938 43.007812 42.585938 42.945312 C 42.585938 42.886719 42.597656 42.867188 42.597656 42.867188 C 42.597656 42.867188 42.578125 42.925781 42.523438 43 C 42.464844 43.082031 42.367188 43.183594 42.226562 43.253906 L 41.054688 40.972656 C 40.496094 41.253906 40.242188 41.757812 40.132812 42.140625 C 40.019531 42.523438 40.007812 42.925781 40.019531 43.296875 C 40.054688 44.046875 40.242188 44.96875 40.53125 45.96875 C 41.109375 47.988281 42.167969 50.585938 43.554688 53.296875 L 45.84375 52.136719 Z M 50.925781 60.273438 C 51.066406 60.199219 51.207031 60.179688 51.308594 60.179688 C 51.402344 60.179688 51.457031 60.199219 51.460938 60.199219 C 51.460938 60.199219 51.449219 60.199219 51.394531 60.167969 C 51.339844 60.132812 51.273438 60.09375 51.191406 60.023438 C 50.835938 59.742188 50.34375 59.234375 49.753906 58.472656 C 48.582031 56.984375 47.183594 54.753906 45.84375 52.136719 L 43.554688 53.304688 C 44.945312 56.015625 46.433594 58.402344 47.734375 60.050781 C 48.371094 60.871094 49.011719 61.5625 49.605469 62.03125 C 49.894531 62.261719 50.238281 62.480469 50.613281 62.617188 C 50.992188 62.75 51.550781 62.839844 52.109375 62.550781 L 50.9375 60.265625 Z M 48.453125 50.808594 L 49.597656 50.222656 C 49.597656 50.222656 48.453125 50.808594 48.453125 50.808594 Z M 41.636719 42.121094 L 41.054688 40.980469 C 41.054688 40.980469 41.640625 42.121094 41.640625 42.121094 Z M 44.691406 52.722656 L 43.546875 53.304688 C 43.546875 53.304688 44.691406 52.722656 44.691406 52.722656 Z M 44.691406 52.722656 " fill-opacity="1" fill-rule="nonzero"/><path fill="#df4a26" d="M 44.3125 52.996094 C 46.042969 55.367188 47.398438 57.628906 48.199219 59.339844 C 48.601562 60.207031 48.835938 60.878906 48.933594 61.328125 C 48.953125 61.433594 48.964844 61.515625 48.964844 61.574219 C 48.964844 61.636719 48.964844 61.664062 48.964844 61.65625 C 48.964844 61.65625 48.972656 61.597656 49.011719 61.515625 C 49.054688 61.429688 49.132812 61.3125 49.261719 61.21875 L 50.78125 63.28125 C 51.289062 62.910156 51.457031 62.375 51.507812 61.984375 C 51.558594 61.597656 51.507812 61.1875 51.441406 60.824219 C 51.292969 60.085938 50.964844 59.207031 50.519531 58.257812 C 49.632812 56.351562 48.179688 53.957031 46.386719 51.492188 L 44.308594 52.996094 Z M 38.007812 45.757812 C 37.878906 45.855469 37.75 45.894531 37.652344 45.90625 C 37.554688 45.921875 37.503906 45.90625 37.496094 45.90625 C 37.496094 45.90625 37.515625 45.90625 37.570312 45.933594 C 37.625 45.953125 37.699219 45.988281 37.792969 46.042969 C 38.1875 46.261719 38.753906 46.691406 39.453125 47.34375 C 40.839844 48.632812 42.578125 50.621094 44.308594 52.996094 L 46.378906 51.484375 C 44.582031 49.023438 42.738281 46.902344 41.199219 45.472656 C 40.4375 44.757812 39.695312 44.175781 39.039062 43.804688 C 38.714844 43.625 38.335938 43.457031 37.945312 43.382812 C 37.554688 43.308594 36.992188 43.308594 36.488281 43.679688 L 37.992188 45.753906 Z M 42.96875 53.96875 C 41.238281 51.601562 39.886719 49.335938 39.078125 47.625 C 38.675781 46.761719 38.4375 46.089844 38.34375 45.644531 C 38.324219 45.539062 38.308594 45.457031 38.308594 45.398438 C 38.308594 45.335938 38.308594 45.316406 38.308594 45.316406 C 38.308594 45.316406 38.304688 45.378906 38.261719 45.464844 C 38.214844 45.550781 38.140625 45.664062 38.015625 45.757812 L 36.507812 43.683594 C 36 44.054688 35.828125 44.585938 35.773438 44.980469 C 35.71875 45.378906 35.765625 45.78125 35.839844 46.140625 C 35.988281 46.878906 36.324219 47.761719 36.761719 48.707031 C 37.65625 50.613281 39.105469 53.011719 40.902344 55.472656 L 42.980469 53.96875 Z M 49.273438 61.214844 C 49.402344 61.121094 49.53125 61.078125 49.632812 61.066406 C 49.726562 61.050781 49.78125 61.066406 49.785156 61.066406 C 49.785156 61.066406 49.765625 61.066406 49.710938 61.039062 C 49.660156 61.019531 49.585938 60.984375 49.492188 60.929688 C 49.09375 60.710938 48.527344 60.28125 47.828125 59.628906 C 46.441406 58.339844 44.703125 56.351562 42.976562 53.976562 L 40.902344 55.488281 C 42.699219 57.949219 44.542969 60.070312 46.085938 61.503906 C 46.84375 62.214844 47.585938 62.796875 48.246094 63.167969 C 48.566406 63.347656 48.945312 63.515625 49.335938 63.589844 C 49.726562 63.664062 50.292969 63.664062 50.796875 63.292969 L 49.289062 61.21875 Z M 45.351562 52.246094 L 46.386719 51.492188 C 46.386719 51.492188 45.351562 52.246094 45.351562 52.246094 Z M 41.929688 54.722656 L 40.894531 55.472656 C 40.894531 55.472656 41.929688 54.722656 41.929688 54.722656 Z M 50.027344 62.246094 L 50.78125 63.28125 C 50.78125 63.28125 50.023438 62.246094 50.023438 62.246094 Z M 50.027344 62.246094 " fill-opacity="1" fill-rule="nonzero"/><path fill="#df4a26" d="M 41.589844 55.050781 C 43.675781 57.132812 45.363281 59.144531 46.429688 60.714844 C 46.964844 61.507812 47.304688 62.132812 47.457031 62.554688 C 47.496094 62.65625 47.519531 62.738281 47.53125 62.789062 C 47.546875 62.851562 47.546875 62.871094 47.546875 62.863281 C 47.546875 62.863281 47.546875 62.804688 47.570312 62.710938 C 47.605469 62.617188 47.667969 62.488281 47.773438 62.382812 L 49.589844 64.195312 C 50.035156 63.75 50.121094 63.199219 50.109375 62.796875 C 50.097656 62.402344 49.996094 62.003906 49.859375 61.664062 C 49.597656 60.957031 49.132812 60.140625 48.546875 59.28125 C 47.371094 57.542969 45.558594 55.394531 43.390625 53.238281 L 41.574219 55.050781 Z M 34.238281 48.882812 C 34.125 48.996094 34.003906 49.054688 33.910156 49.082031 C 33.820312 49.109375 33.761719 49.109375 33.753906 49.109375 C 33.753906 49.109375 33.773438 49.109375 33.828125 49.121094 C 33.886719 49.136719 33.960938 49.15625 34.0625 49.195312 C 34.492188 49.359375 35.113281 49.695312 35.914062 50.222656 C 37.488281 51.285156 39.507812 52.96875 41.589844 55.050781 L 43.40625 53.246094 C 41.246094 51.089844 39.097656 49.277344 37.355469 48.101562 C 36.492188 47.519531 35.664062 47.054688 34.957031 46.792969 C 34.609375 46.664062 34.210938 46.558594 33.8125 46.546875 C 33.417969 46.53125 32.859375 46.625 32.414062 47.0625 L 34.230469 48.875 Z M 40.425781 56.210938 C 38.335938 54.132812 36.648438 52.117188 35.585938 50.546875 C 35.046875 49.753906 34.710938 49.128906 34.554688 48.707031 C 34.515625 48.605469 34.492188 48.527344 34.480469 48.472656 C 34.46875 48.410156 34.46875 48.390625 34.46875 48.398438 C 34.46875 48.398438 34.46875 48.457031 34.441406 48.550781 C 34.40625 48.644531 34.347656 48.773438 34.238281 48.882812 L 32.421875 47.070312 C 31.976562 47.511719 31.890625 48.0625 31.902344 48.464844 C 31.917969 48.859375 32.015625 49.257812 32.152344 49.601562 C 32.414062 50.304688 32.878906 51.125 33.464844 51.984375 C 34.640625 53.722656 36.453125 55.871094 38.621094 58.023438 L 40.4375 56.210938 Z M 47.78125 62.386719 C 47.894531 62.273438 48.015625 62.214844 48.109375 62.1875 C 48.199219 62.160156 48.257812 62.160156 48.265625 62.160156 C 48.265625 62.160156 48.246094 62.160156 48.191406 62.148438 C 48.128906 62.132812 48.058594 62.113281 47.957031 62.074219 C 47.523438 61.910156 46.90625 61.574219 46.105469 61.046875 C 44.53125 59.984375 42.511719 58.292969 40.429688 56.21875 L 38.613281 58.023438 C 40.765625 60.179688 42.921875 61.992188 44.664062 63.167969 C 45.527344 63.75 46.347656 64.214844 47.058594 64.476562 C 47.410156 64.605469 47.800781 64.710938 48.203125 64.722656 C 48.609375 64.738281 49.160156 64.644531 49.605469 64.207031 L 47.789062 62.394531 Z M 42.496094 54.144531 L 41.589844 55.050781 C 41.589844 55.050781 42.496094 54.144531 42.496094 54.144531 Z M 39.515625 57.117188 L 40.425781 56.210938 C 40.425781 56.210938 39.515625 57.117188 39.515625 57.117188 Z M 39.515625 57.117188 " fill-opacity="1" fill-rule="nonzero"/><path fill="#df4a26" d="M 39.246094 57.496094 C 41.621094 59.210938 43.613281 60.945312 44.90625 62.335938 C 45.558594 63.03125 45.992188 63.597656 46.210938 64 C 46.265625 64.09375 46.300781 64.167969 46.320312 64.222656 C 46.339844 64.273438 46.347656 64.300781 46.347656 64.292969 C 46.347656 64.292969 46.332031 64.234375 46.347656 64.140625 C 46.359375 64.039062 46.402344 63.910156 46.496094 63.785156 L 48.574219 65.289062 C 48.945312 64.785156 48.945312 64.222656 48.871094 63.832031 C 48.796875 63.441406 48.636719 63.066406 48.445312 62.742188 C 48.078125 62.085938 47.492188 61.347656 46.777344 60.589844 C 45.335938 59.050781 43.21875 57.210938 40.746094 55.425781 L 39.238281 57.5 Z M 31.007812 52.546875 C 30.914062 52.675781 30.804688 52.753906 30.71875 52.796875 C 30.636719 52.835938 30.578125 52.84375 30.570312 52.84375 C 30.570312 52.84375 30.589844 52.84375 30.652344 52.84375 C 30.710938 52.84375 30.792969 52.855469 30.898438 52.875 C 31.34375 52.964844 32.015625 53.199219 32.886719 53.601562 C 34.609375 54.398438 36.871094 55.753906 39.246094 57.480469 L 40.761719 55.414062 C 38.289062 53.621094 35.878906 52.171875 33.96875 51.277344 C 33.027344 50.839844 32.136719 50.507812 31.398438 50.359375 C 31.035156 50.285156 30.625 50.242188 30.234375 50.296875 C 29.835938 50.351562 29.304688 50.527344 28.933594 51.03125 L 31.015625 52.535156 Z M 38.269531 58.832031 C 35.886719 57.097656 33.902344 55.371094 32.601562 53.988281 C 31.949219 53.292969 31.519531 52.726562 31.296875 52.332031 C 31.242188 52.238281 31.210938 52.164062 31.1875 52.109375 C 31.167969 52.054688 31.164062 52.03125 31.164062 52.035156 C 31.164062 52.035156 31.175781 52.097656 31.164062 52.191406 C 31.148438 52.292969 31.109375 52.417969 31.015625 52.546875 L 28.933594 51.042969 C 28.5625 51.546875 28.5625 52.109375 28.636719 52.5 C 28.710938 52.890625 28.878906 53.265625 29.0625 53.585938 C 29.433594 54.246094 30.019531 54.976562 30.730469 55.742188 C 32.164062 57.28125 34.292969 59.113281 36.761719 60.910156 L 38.277344 58.84375 Z M 46.507812 63.777344 C 46.601562 63.648438 46.710938 63.570312 46.796875 63.53125 C 46.878906 63.488281 46.9375 63.484375 46.945312 63.484375 C 46.945312 63.484375 46.925781 63.484375 46.871094 63.484375 C 46.8125 63.484375 46.730469 63.46875 46.621094 63.449219 C 46.179688 63.363281 45.503906 63.125 44.636719 62.722656 C 42.921875 61.925781 40.652344 60.570312 38.269531 58.84375 L 36.761719 60.917969 C 39.238281 62.710938 41.640625 64.160156 43.554688 65.054688 C 44.496094 65.488281 45.382812 65.824219 46.125 65.972656 C 46.488281 66.046875 46.898438 66.085938 47.289062 66.035156 C 47.6875 65.980469 48.21875 65.804688 48.589844 65.300781 L 46.507812 63.796875 Z M 40 56.453125 L 39.246094 57.488281 C 39.246094 57.488281 40 56.453125 40 56.453125 Z M 37.515625 59.871094 L 36.761719 60.90625 C 36.761719 60.90625 37.515625 59.871094 37.515625 59.871094 Z M 37.515625 59.871094 " fill-opacity="1" fill-rule="nonzero"/><path fill="#df4a26" d="M 37.300781 60.285156 C 39.917969 61.617188 42.152344 63.011719 43.648438 64.179688 C 44.402344 64.769531 44.914062 65.261719 45.195312 65.617188 C 45.261719 65.703125 45.308594 65.773438 45.335938 65.820312 C 45.371094 65.871094 45.378906 65.890625 45.371094 65.886719 C 45.371094 65.886719 45.351562 65.824219 45.351562 65.738281 C 45.351562 65.636719 45.371094 65.503906 45.4375 65.367188 L 47.734375 66.523438 C 48.015625 65.964844 47.929688 65.414062 47.792969 65.039062 C 47.660156 64.664062 47.4375 64.320312 47.207031 64.03125 C 46.746094 63.441406 46.042969 62.804688 45.222656 62.167969 C 43.558594 60.871094 41.179688 59.386719 38.457031 58.011719 L 37.292969 60.292969 Z M 28.394531 56.675781 C 28.246094 56.96875 28.011719 57.042969 28.011719 57.042969 C 28.011719 57.042969 28.027344 57.042969 28.085938 57.03125 C 28.148438 57.03125 28.226562 57.023438 28.335938 57.03125 C 28.785156 57.050781 29.488281 57.171875 30.410156 57.441406 C 32.234375 57.964844 34.675781 58.949219 37.300781 60.285156 L 38.472656 58.003906 C 35.753906 56.613281 33.148438 55.5625 31.121094 54.976562 C 30.117188 54.6875 29.195312 54.5 28.4375 54.472656 C 28.066406 54.460938 27.65625 54.472656 27.273438 54.59375 C 26.886719 54.707031 26.390625 54.964844 26.109375 55.519531 L 28.402344 56.675781 Z M 36.546875 61.757812 C 33.929688 60.429688 31.695312 59.03125 30.199219 57.863281 C 29.445312 57.273438 28.933594 56.78125 28.652344 56.425781 C 28.585938 56.339844 28.539062 56.273438 28.511719 56.226562 C 28.476562 56.171875 28.46875 56.152344 28.476562 56.160156 C 28.476562 56.160156 28.496094 56.21875 28.496094 56.304688 C 28.496094 56.40625 28.476562 56.542969 28.410156 56.675781 L 26.113281 55.519531 C 25.832031 56.078125 25.917969 56.628906 26.054688 57.003906 C 26.1875 57.378906 26.410156 57.722656 26.640625 58.011719 C 27.105469 58.601562 27.804688 59.238281 28.625 59.878906 C 30.289062 61.171875 32.671875 62.65625 35.390625 64.03125 L 36.554688 61.75 Z M 45.453125 65.363281 C 45.601562 65.066406 45.835938 64.992188 45.835938 64.992188 C 45.835938 64.992188 45.820312 64.992188 45.761719 65.007812 C 45.699219 65.007812 45.621094 65.011719 45.511719 65.007812 C 45.0625 64.984375 44.363281 64.867188 43.4375 64.597656 C 41.617188 64.074219 39.171875 63.085938 36.546875 61.75 L 35.375 64.03125 C 38.09375 65.421875 40.699219 66.476562 42.726562 67.0625 C 43.730469 67.347656 44.652344 67.539062 45.410156 67.5625 C 45.78125 67.578125 46.191406 67.5625 46.574219 67.441406 C 46.960938 67.328125 47.457031 67.074219 47.742188 66.515625 L 45.445312 65.363281 Z M 37.886719 59.144531 L 37.300781 60.285156 C 37.300781 60.285156 37.886719 59.144531 37.886719 59.144531 Z M 35.960938 62.898438 L 36.546875 61.757812 C 36.546875 61.757812 35.960938 62.898438 35.960938 62.898438 Z M 35.960938 62.898438 " fill-opacity="1" fill-rule="nonzero"/><path fill="#df4a26" d="M 35.8125 63.339844 C 38.605469 64.246094 41.035156 65.28125 42.699219 66.203125 C 43.539062 66.664062 44.125 67.066406 44.457031 67.375 C 44.535156 67.449219 44.589844 67.511719 44.628906 67.558594 C 44.671875 67.605469 44.679688 67.625 44.679688 67.617188 C 44.679688 67.617188 44.652344 67.5625 44.628906 67.46875 C 44.609375 67.371094 44.609375 67.234375 44.664062 67.082031 L 47.109375 67.867188 C 47.304688 67.269531 47.121094 66.738281 46.933594 66.390625 C 46.746094 66.039062 46.46875 65.738281 46.191406 65.488281 C 45.640625 64.980469 44.851562 64.460938 43.9375 63.960938 C 42.09375 62.9375 39.507812 61.851562 36.609375 60.90625 Z M 26.457031 61.179688 C 26.410156 61.335938 26.328125 61.441406 26.253906 61.515625 C 26.1875 61.582031 26.132812 61.609375 26.128906 61.609375 C 26.128906 61.609375 26.140625 61.601562 26.203125 61.589844 C 26.261719 61.574219 26.34375 61.5625 26.449219 61.550781 C 26.902344 61.496094 27.613281 61.515625 28.5625 61.628906 C 30.449219 61.859375 33.019531 62.449219 35.8125 63.347656 L 36.609375 60.910156 C 33.707031 59.972656 30.96875 59.339844 28.875 59.085938 C 27.835938 58.957031 26.894531 58.917969 26.148438 59.003906 C 25.777344 59.046875 25.378906 59.132812 25.015625 59.300781 C 24.660156 59.46875 24.203125 59.804688 24.007812 60.402344 L 26.449219 61.1875 Z M 35.300781 64.917969 C 32.5 64.011719 30.070312 62.980469 28.410156 62.058594 C 27.566406 61.597656 26.988281 61.191406 26.652344 60.882812 C 26.484375 60.730469 26.4375 60.648438 26.4375 60.648438 C 26.4375 60.648438 26.558594 60.871094 26.449219 61.191406 L 24.015625 60.382812 C 23.8125 60.976562 23.988281 61.515625 24.175781 61.863281 C 24.363281 62.214844 24.640625 62.515625 24.910156 62.769531 C 25.460938 63.28125 26.25 63.796875 27.164062 64.300781 C 29.007812 65.320312 31.601562 66.410156 34.507812 67.355469 Z M 44.65625 67.085938 C 44.703125 66.933594 44.785156 66.824219 44.859375 66.75 C 44.925781 66.683594 44.980469 66.65625 44.988281 66.65625 C 44.988281 66.65625 44.972656 66.664062 44.914062 66.679688 C 44.851562 66.691406 44.773438 66.703125 44.664062 66.71875 C 44.214844 66.773438 43.5 66.75 42.550781 66.636719 C 40.667969 66.410156 38.09375 65.820312 35.300781 64.917969 L 34.507812 67.355469 C 37.410156 68.296875 40.148438 68.925781 42.242188 69.183594 C 43.277344 69.308594 44.21875 69.351562 44.96875 69.261719 C 45.335938 69.222656 45.734375 69.136719 46.097656 68.96875 C 46.453125 68.800781 46.914062 68.464844 47.109375 67.867188 L 44.664062 67.082031 Z M 36.210938 62.125 L 36.609375 60.910156 C 36.609375 60.910156 36.210938 62.125 36.210938 62.125 Z M 25.234375 60.789062 L 26.449219 61.191406 L 26.449219 61.179688 C 26.449219 61.179688 25.234375 60.785156 25.234375 60.785156 Z M 34.90625 66.140625 L 34.507812 67.355469 C 34.507812 67.355469 34.90625 66.140625 34.90625 66.140625 Z M 34.90625 66.140625 " fill-opacity="1" fill-rule="nonzero"/><path fill="#df4a26" d="M 45.40625 70.390625 L 45.417969 70.390625 L 45.417969 67.824219 L 45.40625 67.824219 Z M 34.804688 66.597656 C 37.703125 67.054688 40.261719 67.691406 42.046875 68.34375 C 42.949219 68.671875 43.585938 68.980469 43.972656 69.230469 C 44.058594 69.289062 44.125 69.34375 44.171875 69.375 C 44.21875 69.417969 44.234375 69.4375 44.234375 69.429688 C 44.234375 69.429688 44.199219 69.382812 44.167969 69.296875 C 44.132812 69.203125 44.113281 69.066406 44.132812 68.914062 L 46.671875 69.289062 C 46.765625 68.671875 46.5 68.175781 46.265625 67.867188 C 46.023438 67.550781 45.707031 67.296875 45.398438 67.085938 C 44.773438 66.671875 43.910156 66.28125 42.929688 65.917969 C 40.949219 65.199219 38.222656 64.523438 35.207031 64.054688 L 34.804688 66.582031 Z M 25.21875 65.925781 C 25.191406 66.082031 25.132812 66.203125 25.070312 66.28125 C 25.015625 66.355469 24.96875 66.390625 24.964844 66.390625 C 24.964844 66.390625 24.976562 66.375 25.03125 66.355469 C 25.085938 66.335938 25.164062 66.300781 25.265625 66.273438 C 25.703125 66.152344 26.410156 66.054688 27.367188 66.019531 C 29.265625 65.953125 31.890625 66.132812 34.796875 66.589844 L 35.199219 64.058594 C 32.183594 63.582031 29.386719 63.382812 27.277344 63.457031 C 26.234375 63.488281 25.300781 63.597656 24.574219 63.804688 C 24.214844 63.90625 23.832031 64.054688 23.503906 64.273438 C 23.171875 64.503906 22.777344 64.898438 22.679688 65.511719 L 25.21875 65.914062 Z M 34.554688 68.234375 C 31.652344 67.777344 29.097656 67.140625 27.3125 66.488281 C 26.410156 66.160156 25.769531 65.851562 25.386719 65.605469 C 25.292969 65.542969 25.234375 65.488281 25.183594 65.457031 C 25.136719 65.414062 25.125 65.394531 25.125 65.402344 C 25.125 65.402344 25.160156 65.449219 25.191406 65.535156 C 25.226562 65.628906 25.246094 65.765625 25.226562 65.917969 L 22.6875 65.542969 C 22.59375 66.160156 22.855469 66.65625 23.09375 66.964844 C 23.335938 67.28125 23.652344 67.539062 23.960938 67.746094 C 24.585938 68.160156 25.449219 68.550781 26.429688 68.90625 C 28.410156 69.625 31.136719 70.304688 34.152344 70.773438 L 34.554688 68.242188 Z M 44.144531 68.90625 C 44.171875 68.753906 44.234375 68.632812 44.292969 68.550781 C 44.347656 68.476562 44.394531 68.445312 44.402344 68.445312 C 44.402344 68.445312 44.386719 68.457031 44.335938 68.476562 C 44.28125 68.496094 44.199219 68.53125 44.097656 68.558594 C 43.660156 68.679688 42.953125 68.777344 42 68.8125 C 40.101562 68.878906 37.46875 68.699219 34.554688 68.242188 L 34.15625 70.773438 C 37.179688 71.25 39.988281 71.449219 42.09375 71.378906 C 43.136719 71.34375 44.070312 71.234375 44.800781 71.027344 C 45.15625 70.925781 45.539062 70.78125 45.871094 70.558594 C 46.199219 70.328125 46.597656 69.933594 46.691406 69.324219 L 44.152344 68.921875 Z M 45.40625 69.109375 L 44.132812 68.921875 C 44.078125 69.289062 44.1875 69.664062 44.429688 69.945312 C 44.671875 70.230469 45.027344 70.390625 45.398438 70.390625 L 45.398438 69.109375 Z M 23.953125 65.726562 L 22.6875 65.523438 L 22.6875 65.535156 C 22.6875 65.535156 23.953125 65.726562 23.953125 65.726562 Z M 34.351562 69.503906 L 34.152344 70.765625 Z M 45.410156 69.109375 L 46.675781 69.308594 C 46.738281 68.941406 46.628906 68.5625 46.386719 68.277344 C 46.144531 67.992188 45.789062 67.824219 45.410156 67.824219 Z M 45.410156 69.109375 " fill-opacity="1" fill-rule="nonzero"/><path fill="#df4a26" d="M 34.367188 69.960938 C 37.308594 69.960938 39.933594 70.195312 41.796875 70.558594 C 42.738281 70.738281 43.417969 70.949219 43.828125 71.136719 C 43.929688 71.183594 43.996094 71.222656 44.050781 71.25 C 44.105469 71.28125 44.121094 71.296875 44.113281 71.296875 C 44.113281 71.296875 44.066406 71.257812 44.023438 71.167969 C 43.976562 71.082031 43.9375 70.949219 43.9375 70.792969 L 46.507812 70.792969 C 46.507812 70.167969 46.179688 69.710938 45.890625 69.4375 C 45.601562 69.160156 45.25 68.960938 44.90625 68.804688 C 44.21875 68.492188 43.3125 68.242188 42.289062 68.039062 C 40.222656 67.636719 37.421875 67.394531 34.367188 67.394531 Z M 24.78125 70.792969 C 24.78125 70.949219 24.742188 71.082031 24.695312 71.167969 C 24.652344 71.25 24.605469 71.289062 24.605469 71.296875 C 24.605469 71.296875 24.621094 71.28125 24.667969 71.25 C 24.714844 71.214844 24.789062 71.175781 24.890625 71.136719 C 25.300781 70.949219 25.988281 70.738281 26.929688 70.558594 C 28.792969 70.195312 31.425781 69.960938 34.367188 69.960938 L 34.367188 67.394531 C 31.308594 67.394531 28.503906 67.636719 26.4375 68.039062 C 25.414062 68.242188 24.503906 68.492188 23.820312 68.804688 C 23.484375 68.960938 23.125 69.160156 22.835938 69.4375 C 22.546875 69.710938 22.21875 70.167969 22.21875 70.792969 L 24.789062 70.792969 Z M 34.367188 71.617188 C 31.425781 71.617188 28.792969 71.382812 26.929688 71.019531 C 25.988281 70.839844 25.304688 70.632812 24.890625 70.445312 C 24.789062 70.398438 24.722656 70.355469 24.667969 70.328125 C 24.613281 70.296875 24.601562 70.28125 24.601562 70.28125 C 24.601562 70.28125 24.648438 70.324219 24.6875 70.410156 C 24.734375 70.496094 24.773438 70.632812 24.773438 70.785156 L 22.203125 70.785156 C 22.203125 71.410156 22.535156 71.867188 22.824219 72.140625 C 23.113281 72.417969 23.46875 72.617188 23.804688 72.773438 C 24.492188 73.089844 25.402344 73.335938 26.429688 73.539062 C 28.503906 73.941406 31.304688 74.183594 34.359375 74.183594 L 34.359375 71.617188 Z M 43.9375 70.792969 C 43.9375 70.636719 43.976562 70.503906 44.023438 70.417969 C 44.066406 70.335938 44.113281 70.296875 44.113281 70.289062 C 44.113281 70.289062 44.097656 70.304688 44.050781 70.335938 C 44.003906 70.371094 43.929688 70.410156 43.828125 70.449219 C 43.417969 70.636719 42.738281 70.847656 41.796875 71.027344 C 39.933594 71.390625 37.308594 71.625 34.367188 71.625 L 34.367188 74.191406 C 37.421875 74.191406 40.222656 73.949219 42.289062 73.546875 C 43.3125 73.34375 44.21875 73.09375 44.90625 72.78125 C 45.242188 72.625 45.601562 72.425781 45.890625 72.148438 C 46.179688 71.875 46.507812 71.417969 46.507812 70.792969 Z M 43.9375 70.792969 " fill-opacity="1" fill-rule="nonzero"/></svg>